<mxfile host="Electron" modified="2023-06-27T16:57:11.263Z" agent="Mozilla/5.0 (Macintosh; Intel Mac OS X 10_15_7) AppleWebKit/537.36 (KHTML, like Gecko) draw.io/21.2.8 Chrome/112.0.5615.165 Electron/24.2.0 Safari/537.36" etag="SzC7eQR-97x8OKkojFTO" version="21.2.8" type="device">
  <diagram id="C5RBs43oDa-KdzZeNtuy" name="Page-1">
    <mxGraphModel dx="1061" dy="809" grid="1" gridSize="10" guides="1" tooltips="1" connect="1" arrows="1" fold="1" page="1" pageScale="1" pageWidth="827" pageHeight="1169" math="0" shadow="0">
      <root>
        <mxCell id="WIyWlLk6GJQsqaUBKTNV-0" />
        <mxCell id="WIyWlLk6GJQsqaUBKTNV-1" parent="WIyWlLk6GJQsqaUBKTNV-0" />
        <mxCell id="294uK_dBEK0Y3h0n0AfO-2" value="" style="edgeStyle=orthogonalEdgeStyle;rounded=0;orthogonalLoop=1;jettySize=auto;html=1;" edge="1" parent="WIyWlLk6GJQsqaUBKTNV-1" source="P1XNbqa9C-Slw2ICITby-4" target="P1XNbqa9C-Slw2ICITby-18">
          <mxGeometry relative="1" as="geometry" />
        </mxCell>
        <mxCell id="P1XNbqa9C-Slw2ICITby-4" value="" style="rounded=1;whiteSpace=wrap;html=1;fillColor=none;strokeWidth=3;strokeColor=#666666;fontColor=#333333;" parent="WIyWlLk6GJQsqaUBKTNV-1" vertex="1">
          <mxGeometry x="312.5" y="430" width="215" height="310" as="geometry" />
        </mxCell>
        <mxCell id="P1XNbqa9C-Slw2ICITby-6" style="edgeStyle=orthogonalEdgeStyle;rounded=0;orthogonalLoop=1;jettySize=auto;html=1;entryX=0.5;entryY=0;entryDx=0;entryDy=0;" parent="WIyWlLk6GJQsqaUBKTNV-1" source="P1XNbqa9C-Slw2ICITby-7" target="P1XNbqa9C-Slw2ICITby-9" edge="1">
          <mxGeometry relative="1" as="geometry" />
        </mxCell>
        <mxCell id="P1XNbqa9C-Slw2ICITby-7" value="model(input)" style="rounded=0;whiteSpace=wrap;html=1;" parent="WIyWlLk6GJQsqaUBKTNV-1" vertex="1">
          <mxGeometry x="360" y="445" width="120" height="40" as="geometry" />
        </mxCell>
        <mxCell id="P1XNbqa9C-Slw2ICITby-8" style="edgeStyle=orthogonalEdgeStyle;rounded=0;orthogonalLoop=1;jettySize=auto;html=1;" parent="WIyWlLk6GJQsqaUBKTNV-1" source="P1XNbqa9C-Slw2ICITby-9" target="P1XNbqa9C-Slw2ICITby-11" edge="1">
          <mxGeometry relative="1" as="geometry" />
        </mxCell>
        <mxCell id="P1XNbqa9C-Slw2ICITby-9" value="loss(target,input)" style="rounded=0;whiteSpace=wrap;html=1;" parent="WIyWlLk6GJQsqaUBKTNV-1" vertex="1">
          <mxGeometry x="360" y="505" width="120" height="40" as="geometry" />
        </mxCell>
        <mxCell id="P1XNbqa9C-Slw2ICITby-10" style="edgeStyle=orthogonalEdgeStyle;rounded=0;orthogonalLoop=1;jettySize=auto;html=1;exitX=0.5;exitY=1;exitDx=0;exitDy=0;entryX=0.5;entryY=0;entryDx=0;entryDy=0;" parent="WIyWlLk6GJQsqaUBKTNV-1" source="P1XNbqa9C-Slw2ICITby-11" target="P1XNbqa9C-Slw2ICITby-13" edge="1">
          <mxGeometry relative="1" as="geometry" />
        </mxCell>
        <mxCell id="P1XNbqa9C-Slw2ICITby-11" value="loss.backward()" style="rounded=0;whiteSpace=wrap;html=1;" parent="WIyWlLk6GJQsqaUBKTNV-1" vertex="1">
          <mxGeometry x="360" y="565" width="120" height="40" as="geometry" />
        </mxCell>
        <mxCell id="P1XNbqa9C-Slw2ICITby-12" style="edgeStyle=orthogonalEdgeStyle;rounded=0;orthogonalLoop=1;jettySize=auto;html=1;exitX=0.5;exitY=1;exitDx=0;exitDy=0;entryX=0.5;entryY=0;entryDx=0;entryDy=0;" parent="WIyWlLk6GJQsqaUBKTNV-1" source="P1XNbqa9C-Slw2ICITby-13" target="P1XNbqa9C-Slw2ICITby-14" edge="1">
          <mxGeometry relative="1" as="geometry" />
        </mxCell>
        <mxCell id="P1XNbqa9C-Slw2ICITby-13" value="optimizer.step()" style="rounded=0;whiteSpace=wrap;html=1;" parent="WIyWlLk6GJQsqaUBKTNV-1" vertex="1">
          <mxGeometry x="360" y="625" width="120" height="40" as="geometry" />
        </mxCell>
        <mxCell id="P1XNbqa9C-Slw2ICITby-14" value="optimizer.zero_grad()" style="rounded=0;whiteSpace=wrap;html=1;" parent="WIyWlLk6GJQsqaUBKTNV-1" vertex="1">
          <mxGeometry x="360" y="685" width="120" height="40" as="geometry" />
        </mxCell>
        <mxCell id="294uK_dBEK0Y3h0n0AfO-0" style="edgeStyle=orthogonalEdgeStyle;rounded=0;orthogonalLoop=1;jettySize=auto;html=1;entryX=0.344;entryY=-0.011;entryDx=0;entryDy=0;entryPerimeter=0;" edge="1" parent="WIyWlLk6GJQsqaUBKTNV-1" source="P1XNbqa9C-Slw2ICITby-15" target="P1XNbqa9C-Slw2ICITby-4">
          <mxGeometry relative="1" as="geometry">
            <Array as="points">
              <mxPoint x="340" y="385" />
              <mxPoint x="387" y="385" />
            </Array>
          </mxGeometry>
        </mxCell>
        <mxCell id="P1XNbqa9C-Slw2ICITby-15" value="Model" style="rounded=1;whiteSpace=wrap;html=1;" parent="WIyWlLk6GJQsqaUBKTNV-1" vertex="1">
          <mxGeometry x="280" y="290" width="120" height="50" as="geometry" />
        </mxCell>
        <mxCell id="294uK_dBEK0Y3h0n0AfO-1" style="edgeStyle=orthogonalEdgeStyle;rounded=0;orthogonalLoop=1;jettySize=auto;html=1;entryX=0.549;entryY=-0.008;entryDx=0;entryDy=0;entryPerimeter=0;" edge="1" parent="WIyWlLk6GJQsqaUBKTNV-1" source="P1XNbqa9C-Slw2ICITby-17" target="P1XNbqa9C-Slw2ICITby-4">
          <mxGeometry relative="1" as="geometry" />
        </mxCell>
        <mxCell id="P1XNbqa9C-Slw2ICITby-17" value="Data" style="rounded=1;whiteSpace=wrap;html=1;" parent="WIyWlLk6GJQsqaUBKTNV-1" vertex="1">
          <mxGeometry x="440" y="290" width="120" height="50" as="geometry" />
        </mxCell>
        <mxCell id="294uK_dBEK0Y3h0n0AfO-3" value="" style="edgeStyle=orthogonalEdgeStyle;rounded=0;orthogonalLoop=1;jettySize=auto;html=1;" edge="1" parent="WIyWlLk6GJQsqaUBKTNV-1" source="P1XNbqa9C-Slw2ICITby-18" target="P1XNbqa9C-Slw2ICITby-19">
          <mxGeometry relative="1" as="geometry" />
        </mxCell>
        <mxCell id="P1XNbqa9C-Slw2ICITby-18" value="accuracy(target,input)" style="rounded=0;whiteSpace=wrap;html=1;" parent="WIyWlLk6GJQsqaUBKTNV-1" vertex="1">
          <mxGeometry x="350" y="790" width="140" height="40" as="geometry" />
        </mxCell>
        <mxCell id="294uK_dBEK0Y3h0n0AfO-4" value="" style="edgeStyle=orthogonalEdgeStyle;rounded=0;orthogonalLoop=1;jettySize=auto;html=1;" edge="1" parent="WIyWlLk6GJQsqaUBKTNV-1" source="P1XNbqa9C-Slw2ICITby-19" target="P1XNbqa9C-Slw2ICITby-37">
          <mxGeometry relative="1" as="geometry" />
        </mxCell>
        <mxCell id="P1XNbqa9C-Slw2ICITby-19" value="Incorrectly Classified Images" style="rounded=0;whiteSpace=wrap;html=1;" parent="WIyWlLk6GJQsqaUBKTNV-1" vertex="1">
          <mxGeometry x="350" y="865" width="140" height="40" as="geometry" />
        </mxCell>
        <mxCell id="294uK_dBEK0Y3h0n0AfO-8" value="" style="edgeStyle=orthogonalEdgeStyle;rounded=0;orthogonalLoop=1;jettySize=auto;html=1;" edge="1" parent="WIyWlLk6GJQsqaUBKTNV-1" source="P1XNbqa9C-Slw2ICITby-36" target="P1XNbqa9C-Slw2ICITby-39">
          <mxGeometry relative="1" as="geometry" />
        </mxCell>
        <mxCell id="294uK_dBEK0Y3h0n0AfO-18" value="" style="edgeStyle=orthogonalEdgeStyle;rounded=0;orthogonalLoop=1;jettySize=auto;html=1;" edge="1" parent="WIyWlLk6GJQsqaUBKTNV-1" source="P1XNbqa9C-Slw2ICITby-37" target="294uK_dBEK0Y3h0n0AfO-11">
          <mxGeometry relative="1" as="geometry" />
        </mxCell>
        <mxCell id="P1XNbqa9C-Slw2ICITby-37" value="New Dataloader" style="rounded=0;whiteSpace=wrap;html=1;" parent="WIyWlLk6GJQsqaUBKTNV-1" vertex="1">
          <mxGeometry x="550" y="865" width="140" height="40" as="geometry" />
        </mxCell>
        <mxCell id="294uK_dBEK0Y3h0n0AfO-10" value="" style="edgeStyle=orthogonalEdgeStyle;rounded=0;orthogonalLoop=1;jettySize=auto;html=1;" edge="1" parent="WIyWlLk6GJQsqaUBKTNV-1" source="P1XNbqa9C-Slw2ICITby-40" target="P1XNbqa9C-Slw2ICITby-37">
          <mxGeometry relative="1" as="geometry" />
        </mxCell>
        <mxCell id="P1XNbqa9C-Slw2ICITby-40" value="Proxy Image Subset" style="rounded=1;whiteSpace=wrap;html=1;fillColor=#d5e8d4;strokeColor=#82b366;" parent="WIyWlLk6GJQsqaUBKTNV-1" vertex="1">
          <mxGeometry x="560" y="790" width="120" height="30" as="geometry" />
        </mxCell>
        <mxCell id="294uK_dBEK0Y3h0n0AfO-21" value="" style="edgeStyle=orthogonalEdgeStyle;rounded=0;orthogonalLoop=1;jettySize=auto;html=1;" edge="1" parent="WIyWlLk6GJQsqaUBKTNV-1" source="P1XNbqa9C-Slw2ICITby-41" target="294uK_dBEK0Y3h0n0AfO-11">
          <mxGeometry relative="1" as="geometry" />
        </mxCell>
        <mxCell id="P1XNbqa9C-Slw2ICITby-41" value="Proxy Weight" style="rounded=1;whiteSpace=wrap;html=1;fillColor=#d5e8d4;strokeColor=#82b366;" parent="WIyWlLk6GJQsqaUBKTNV-1" vertex="1">
          <mxGeometry x="1060" y="680" width="120" height="30" as="geometry" />
        </mxCell>
        <mxCell id="294uK_dBEK0Y3h0n0AfO-22" value="" style="edgeStyle=orthogonalEdgeStyle;rounded=0;orthogonalLoop=1;jettySize=auto;html=1;" edge="1" parent="WIyWlLk6GJQsqaUBKTNV-1" source="294uK_dBEK0Y3h0n0AfO-9" target="294uK_dBEK0Y3h0n0AfO-11">
          <mxGeometry relative="1" as="geometry" />
        </mxCell>
        <mxCell id="294uK_dBEK0Y3h0n0AfO-9" value="Proxy Threshold" style="rounded=1;whiteSpace=wrap;html=1;fillColor=#d5e8d4;strokeColor=#82b366;" vertex="1" parent="WIyWlLk6GJQsqaUBKTNV-1">
          <mxGeometry x="1060" y="760" width="120" height="30" as="geometry" />
        </mxCell>
        <mxCell id="294uK_dBEK0Y3h0n0AfO-28" style="edgeStyle=orthogonalEdgeStyle;rounded=0;orthogonalLoop=1;jettySize=auto;html=1;entryX=0.519;entryY=1.025;entryDx=0;entryDy=0;entryPerimeter=0;" edge="1" parent="WIyWlLk6GJQsqaUBKTNV-1" source="294uK_dBEK0Y3h0n0AfO-11" target="294uK_dBEK0Y3h0n0AfO-27">
          <mxGeometry relative="1" as="geometry" />
        </mxCell>
        <mxCell id="294uK_dBEK0Y3h0n0AfO-11" value="" style="rounded=1;whiteSpace=wrap;html=1;fillColor=none;strokeWidth=3;strokeColor=#d6b656;" vertex="1" parent="WIyWlLk6GJQsqaUBKTNV-1">
          <mxGeometry x="740.5" y="520" width="274" height="420" as="geometry" />
        </mxCell>
        <mxCell id="294uK_dBEK0Y3h0n0AfO-23" value="" style="edgeStyle=orthogonalEdgeStyle;rounded=0;orthogonalLoop=1;jettySize=auto;html=1;" edge="1" parent="WIyWlLk6GJQsqaUBKTNV-1" source="P1XNbqa9C-Slw2ICITby-36" target="P1XNbqa9C-Slw2ICITby-39">
          <mxGeometry relative="1" as="geometry" />
        </mxCell>
        <mxCell id="P1XNbqa9C-Slw2ICITby-36" value="" style="shape=image;verticalLabelPosition=bottom;labelBackgroundColor=default;verticalAlign=top;aspect=fixed;imageAspect=0;image=data:image/png,iVBORw0KGgoAAAANSUhEUgAAAOIAAACCCAYAAABb5BSNAAAKtWlDQ1BJQ0MgUHJvZmlsZQAASImVlwdQk9kWx+/3pTdKEiIgJfQmSCeAlNBDDb2ISkgCBEKMCUFF7Cyu4FpQEQFlRVdFFKw0OxYsLIoN+4IsIspzsWBD5X3AEHw7782bPTP3u7/vzLn/e86d72ZOAKDo8KRSMawGQLYkRxYV6MNMSExi4voBGmAAFbgDBo8vl7K53FCA2OT8g0EAfLg39gTgtvWYFvhnpi4QyvmIDBfhVIGcn43wcWR84EtlOQCgDiJ+o4U50jG+iTBdhiSI8J9jnD7Bn8Y4dZzR5PGYmChfhJkA4Mk8niwdAPIMxM/M5acjOuSxGmwlApEE4XyEPbOz5wsQPoWwORIjRXhMn5X6g076f2imKjV5vHQlT9Qybng/kVwq5i3+h8fx/y1brJjcwxQZ5AxZUBQy6yFndj9rfoiSJanhEZMsEozHj3OGIih2kvly36RJFvD8QpRrxeGhk5wmCuAodXI4MZMslPtHT7JsfpRyrzSZL3uSebKpfRVZsUp/hpCj1M/LiImf5FxRXPgky7OiQ6ZifJV+mSJKmb9QEugztW+AsvZs+Q/1ijjKtTkZMUHK2nlT+Qsl7ClNeYIyN4HQz38qJlYZL83xUe4lFXOV8UJxoNIvz41Wrs1BPsiptVzlGWbygrmTDKKBCAiAEPABD8gAE/gh73IgBWLkHfmMcoSLcsaK8p0vXSwTpWfkMNnIbRMyORK+zQymva29AwBjd3fi03gXOX4nIUb7lG/1HwB4nB0dHT055Qs+C8ARFwCIzVM+cxZyLUkAXGnmK2S5Ez702AMDiEAV0IEWkrERMAfWwB44I78R3sAfBIMIEAMSwVwk/wyQjVSwEOSDlaAQFIONYCsoB1VgN9gPDoGjoBGcAufBZXAd3AR3wSPQDfrAKzAEPoARCIJwEAWiQVqQPmQCWUH2EAvyhPyhUCgKSoRSoHRIAimgfGg1VAyVQOXQLqgGOgI1Q+ehq1An9ADqgQagt9AXGAWTYTqsC5vCM2EWzIZD4Bh4DpwOL4Dz4AJ4PVwGV8MH4Qb4PHwdvgt3w6/gYRRAkVAMlAHKGsVC+aIiUEmoNJQMtQxVhCpFVaPqUC2oNtRtVDdqEPUZjUXT0Ey0NdodHYSORfPRC9DL0OvQ5ej96Ab0RfRtdA96CP0dQ8HoYKwwbhgOJgGTjlmIKcSUYvZiTmAuYe5i+jAfsFgsA2uGdcEGYROxmdgl2HXYHdh67DlsJ7YXO4zD4bRwVjgPXASOh8vBFeK24w7izuJu4fpwn/AkvD7eHh+AT8JL8KvwpfgD+DP4W/h+/AhBjWBCcCNEEASExYQNhD2EFsINQh9hhKhONCN6EGOImcSVxDJiHfES8THxHYlEMiS5kiJJItIKUhnpMOkKqYf0mUwlW5J9yclkBXk9eR/5HPkB+R2FQjGleFOSKDmU9ZQaygXKU8onFZqKjQpHRaCyXKVCpUHllsprVYKqiSpbda5qnmqp6jHVG6qDagQ1UzVfNZ7aMrUKtWa1LrVhdZq6nXqEerb6OvUD6lfVX1BxVFOqP1VALaDupl6g9tJQNCOaL41PW03bQ7tE66Nj6WZ0Dj2TXkw/RO+gD2lQNRw14jQWaVRonNboZqAYpgwOQ8zYwDjKuMf4Mk13GnuacNraaXXTbk37qDld01tTqFmkWa95V/OLFlPLXytLa5NWo9YTbbS2pXak9kLtndqXtAen06e7T+dPL5p+dPpDHVjHUidKZ4nObp12nWFdPd1AXanudt0LuoN6DD1vvUy9LXpn9Ab0afqe+iL9Lfpn9V8yNZhspphZxrzIHDLQMQgyUBjsMugwGDE0M4w1XGVYb/jEiGjEMkoz2mLUajRkrG8cZpxvXGv80IRgwjLJMNlm0mby0dTMNN50jWmj6QszTTOOWZ5Zrdljc4q5l/kC82rzOxZYC5ZFlsUOi5uWsKWTZYZlheUNK9jK2UpktcOqcwZmhusMyYzqGV3WZGu2da51rXWPDcMm1GaVTaPN65nGM5NmbprZNvO7rZOt2HaP7SM7ql2w3Sq7Fru39pb2fPsK+zsOFIcAh+UOTQ5vHK0chY47He870ZzCnNY4tTp9c3ZxljnXOQ+4GLukuFS6dLHoLC5rHeuKK8bVx3W56ynXz27ObjluR93+crd2z3I/4P5iltks4aw9s3o9DD14Hrs8uj2Znimev3p2exl48byqvZ55G3kLvPd697Mt2Jnsg+zXPrY+Mp8TPh993XyX+p7zQ/kF+hX5dfhT/WP9y/2fBhgGpAfUBgwFOgUuCTwXhAkKCdoU1MXR5fA5NZyhYJfgpcEXQ8gh0SHlIc9CLUNloS1hcFhw2Oawx+Em4ZLwxggQwYnYHPGEa8ZdwD0ZiY3kRlZEPo+yi8qPaoumRc+LPhD9IcYnZkPMo1jzWEVsa5xqXHJcTdzHeL/4kvjuhJkJSxOuJ2onihKbknBJcUl7k4Zn+8/eOrsv2Sm5MPneHLM5i+Zcnas9Vzz39DzVebx5x1IwKfEpB1K+8iJ41bzhVE5qZeoQ35e/jf9K4C3YIhgQeghLhP1pHmklaS/SPdI3pw9keGWUZgyKfEXlojeZQZlVmR+zIrL2ZY2K48X12fjslOxmCVWSJbk4X2/+ovmdUitpobR7gduCrQuGZCGyvXJIPkfelENHmqR2hbniJ0VPrmduRe6nhXELjy1SXyRZ1L7YcvHaxf15AXm/LUEv4S9pzTfIX5nfs5S9dNcyaFnqstblRssLlvetCFyxfyVxZdbK31fZripZ9X51/OqWAt2CFQW9PwX+VFuoUigr7FrjvqbqZ/TPop871jqs3b72e5Gg6FqxbXFp8dd1/HXXfrH7peyX0fVp6zs2OG/YuRG7UbLx3iavTftL1EvySno3h21u2MLcUrTl/dZ5W6+WOpZWbSNuU2zrLgsta9puvH3j9q/lGeV3K3wq6it1KtdWftwh2HFrp/fOuirdquKqL7+Kfr2/K3BXQ7Vpdelu7O7c3c/3xO1p+431W81e7b3Fe7/tk+zr3h+1/2KNS03NAZ0DG2rhWkXtwMHkgzcP+R1qqrOu21XPqC8+DA4rDr88knLk3tGQo63HWMfqjpscrzxBO1HUADUsbhhqzGjsbkps6mwObm5tcW85cdLm5L5TBqcqTmuc3nCGeKbgzOjZvLPD56TnBs+nn+9tndf66ELChTsXIy92XAq5dOVywOULbey2s1c8rpy66na1+RrrWuN15+sN7U7tJ353+v1Eh3NHww2XG003XW+2dM7qPHPL69b52363L9/h3Ll+N/xu573Ye/e7kru67wvuv3ggfvDmYe7DkUcrHmMeFz1Re1L6VOdp9R8Wf9R3O3ef7vHraX8W/exRL7/31Z/yP7/2FTynPC/t1++veWH/4tRAwMDNl7Nf9r2SvhoZLPyX+r8qX5u/Pv6X91/tQwlDfW9kb0bfrnun9W7fe8f3rcPc4acfsj+MfCz6pPVp/2fW57Yv8V/6RxZ+xX0t+2bxreV7yPfHo9mjo1KejDfeCqCQAaelAfB2HwCURABoSF9OnD3RW48bNPF/YJzA/+KJ/nvcnAGoowMQOYh0N10AHN6DtLaIvmoyAFwKADGuAHZwUI7JPni8ZweAx5OKRVwewhhX8F9sop//Ie+/z2BM1RH8ff43KCcNnL22mq0AAAA4ZVhJZk1NACoAAAAIAAGHaQAEAAAAAQAAABoAAAAAAAKgAgAEAAAAAQAAAOKgAwAEAAAAAQAAAIIAAAAAtl+y5AAAQABJREFUeAHtvXeMZElWt33Tl+3u6ZndZXeBRXjvvXvxCO+E994bIRAgkDAChPgDCSecEMIIYYWEER6EBwkkvBFGwAvvt+zuzHSXr8zKzO95fnEjK6umeqpnuqe7h86ounnvjRs3zInzi3PihLmdOa5ZuRUFVhS4rxTo3tfUV4mvKLCiQNPBrYC4YoQVBR4ACqyA+ABUwioLKwqsgLjigRUFHgAKrID4AFTCKgsrCtx3IH73d3938wZv8AbNE088saqNFQXumALykjz1fHP3HYjPN4Kt8ruiwHNBgRUQnwuqruJcUeAZUmAFxGdIsFXwu0+B2WzWHB8f3/2In0cxPjBA3N3dbb76q7+6edu3fdvmbd7mbZqv+ZqvaQ4PDxekPDk5ab73e7+3eZ/3eZ/mTd/0TZv3eq/3ar7jO76jGY/HizBe3KqPYHjjr24ymTTf8z3f07zf+71f82Zv9mbNO7zDOzQf//Ef3/zRH/1RDZLzv/7rvzZf8iVf0rz92799wn3kR35k89u//dtnwqxuTinwZ3/2Z400kqbW1U/91E+lz2a9VOf1N33TNzW/+Iu/2HzQB31Qwv7BH/xBHv/wD/9w83Ef93Gpjzd/8zdPXL/2a79WX12crfdv/dZvbd7xHd+xeau3eqvm8z7v85qXv/zli+f1Ym9vr/mWb/mW8It8807v9E7Np3/6pzd/93d/V4M8EOf+A5ELMvFlX/Zlzau/+qs3X/7lX978/d//ffOzP/uzzfXr15uv/MqvTBa/7uu+rvmFX/iF5v3f//1DyL/+679ufuAHfqARKAL0mTpB6Psf/dEf3VjhVtjf/u3fpoLe5V3eJdH98z//c8D5ohe9qPnsz/7sZmNjo/nVX/3V5gu/8AvDXO/7vu/7TJP9Xx3eevusz/qs5gUveEHzxV/8xY2SzrqxHs+7P/3TPw0tP/ETP7F55JFHmpe+9KUJ8mM/9mMBzYd8yIc0Npa/8iu/0nzpl35p6uo93uM9FtF87dd+bYD8wR/8wc1bv/VbN8b3OZ/zOYvn9eLrv/7rm1//9V9vPumTPql5ndd5nebGjRvNX/zFX4Rv3uRN3qQGu/9n55reT/dd3/Vd89d//defIwHPZANmnyOF4vcP//APCQPxz4T5tm/7tvj/yZ/8ycLfuIzzvHvP93zP+Vd91VctvD/0Qz90TsUt7i+6+NRP/dQ5FT1HbVo8hrnmH/uxHztHki78VheFAp/7uZ87f4u3eIs5kmlBkn//93+fv/Ebv3HqqXpaR2/4hm84p6GrXoszWtDi2gskX+rgUz7lUxb+lR++4Ru+YeHnBY140lmuf7Sr+Td+4zeeCfeg3dgKPDCqqerIslNFtfVSUv3e7/1eHqlSLLvP+IzPyG19vvzssusrV640SjwY5cKgpm0r+wEf8AHJg8MrHk8++WTzru/6rnnvf/7nfy5892H0nE6nDQ1i897v/d6NGkR1L3vZy5p3e7d3q7eL89u93ds1r/u6r7u4rxdra2v1srl582Zjl8WuitK2ulrfn/zJn1y9cqbhPHPvjfX8V3/1V82DXlcPjGr6kpe85AwRJaDOyvjv//7vptvtNq/5mq95JowqkOF8/kyd/b4v+IIviKpLCx1wfdiHfVhDS52o/vM//7Oh5Wy+8zu/M8dF8T/++ONnmO6iMA+Ln7Q4OjpqBN55d5Gf3ZCL3O/+7u823/d939cg9c70/5kXvQh+K3547dd+7UWYevEVX/EVsQ2o1qqK/p//83+aD//wD29e4zVeowZ5IM4PDBAF2kVOMFS3XBnV73bPttjLzhb5N3/zN2N40UDzcz/3c82P/uiPNqgx6Tfav9EpdS9q0X12vmHQb+VujwLLkq++8ed//ufN53/+5zfWjX07G9rBYND8/M//fPPLv/zLNdgzOn/gB35gDIDWtfWsMeiHfuiH0scXlA+Ke2CA+HQEsSMvMP7jP/4jHe4a9lWvelWzs7Oz6Ojrf/Xq1fjVMJ61sL3yla9c9sr1tWvXmo/6qI/Ksb+/nw69szI04NQWU0Z453d+56e8u/I4S4FHH320GY1GqaOzT5oL/c6H8V6jinEIluFwuAgiEJdd5Qe1lmUp+G//9m/LwRbXL3zhCxuNQh5K7o/4iI9ovv/7vz/ScRHoPl9cLIbuc6bOJ19bLiXWsvuRH/mR3Nbn3gggW9Zl9zM/8zPNeYloX2/ZbW5uRsLV4RAZyyGLn/7pn25e8YpXLAfN9WpK3lmS9Hq9NFgO7Sz3x2w869DE2Teeemccaj3LdfVf//VfTxkuevd3f/e8/OM//uNnIjnPH8ZjH3PZWa8Cs9bz8rP7ef28kIj222zFBIUSUNXlb/7mbzKc4ViVY0nVKc1UazSfK8n+8R//sfnDP/zDmMhrGM+OXwk0+w1KRuOrZu4azng+4RM+odGU/jEf8zEBuVL4L//yLzNm5TjYyp1S4Iu+6ItCa8djPdRifuInfqJ5vdd7vfT5TkNefGWDauPqEIjDEkqvn/zJn0wD+U//9E+Ll97ojd4oz30m0BxH1LAm6JedWo5xOuQlDzn89Md//Mep6+Ux5eV37tf18wKIEuebv/mbM87oWOJv/dZvNY899liDubyx8pedgLEVtc9nS6zFzcr9tE/7tOVgjRa33/md30m/wdZRY5FjmZ/5mZ+5CKdVT7XIMUfT1ZLqmBjm+IwlLgKuLkIBB8ztf337t397DFwvfvGLMxlClfFWauMy6Rxsd/DdOBys16CjsUXjzDIQfcfnjj/+0i/9UiSmEzJ+8Ad/8Iy6aT+0TtL4jd/4jRjf7NfXBnY57ft93XFM5X5nYpX+/24KaJ3+l3/5l0YwrNxTKYA6vtoq46lkWfncCQUcwlh2jtP+/u//froBy/6r67MUeN6opmezvbp7UClgn93+vEYzVUrnmmp5tt+3cremwAqIt6bN6smzoIBjrs4PdbjIIYi3fMu3zPzh13qt13oWsT08r6z6iA9PXa9K+oBSYNVHfEArZpWth48Cz4sB/YevWlYlftgocGkfcWN7vdDEuaDMeugPR80LX/xqzYtf8tLmMWYozLonzdi/6VGzf7jfOIh6fDRuhoMrzdrgarO5+YLmxS99vealr/EGzaMves2mM1hv5v1RM+8Omnln3sybGUcZQeG2cWpvDn7qtRmoYyxzPM9fOwKj37J/ven4go6H7VW5bycR19EbYzi9JvhlozptfB1jXQqbeCxId9b0OPc7J02vOWkObjAd71Uvb26+8v9rXv6f/9b897//S/Py//tvzdHhQTNl0bPHfMZ7znHlpJscnS6MLj7P7rc3ODuh/tnFsnrr2VBgOvl/t/XapUDstgwrCD1ygvlk6k7LMXQ0ueNoT0lZcOQAaPNZM2sPw8qnicCALTrilxdPf9pH8fDa13S3ui5Pn/3vM4qXwObZd/wJCRYEaMveTFP2+XwKvs4e0qS88+zzu3rzfw8FLgXi9bUiEWcw20wgDvrNer/bjLpIRzkRhpowp2/u6oYTjiktOscMSTDtTJqT8XFzdHzYHCAt1w72m8F6t+n3+kiLkrRzC3WdxFUYW5/WGx43jQQpPyX4mWuyglwt7xo077bvVIAvQFPeXPwuCUzSMTX/cPy0USxd4L+Ufo2TpoUwJfQcwM1nE0gwAXzHzcmMcbUTtIWbr2z2bv4Pxyuaw/0bzeT4gOdKQQFZ3jXqxHWasjlZuYeAApcC8THm58kmsEyOORNzN/v9Zq3XaVAuYaRp05meoEdxoF51BCRANPQURhz3jlinhsp6sNMMOdYB4fpoHSAqXVsGDAfy45k3Pdl5za3n9sLQy6qp/iUGwrcXFVi+HKD4Ls+WwbmImEe6KpnyLmETFS9UgBi+jb68wK/RJlJeCnwNk0AnzQw1fXpy2Mwm+81svNfMjnebXQC4e+PlzQ7H/t7jbJbEM+iWNPJiYlyU9SkJLlJeXfxvpMClQHxBC8Qxks9jivjZUipyHsItqpw9gNcFhF3P03nTs6+DWjZDKpxMjugzHiAR9wDibtMdbTRD/ANCu52ydHiwlUS8WViynKvUkfjGKlgW0q8N6KkCJefWw1N9v2A+qeF76k7fIzSAKM2Alz4xhnqdy/JTvBeJGtLgvuOM/zkN0BQQTg5vNCcc48MnAWEB4i5S8XD/ZjMZKxGL6mqkRlnz4v3KPVwUuBSIL2yBOIFNKhA3WDO21e01azBeD1R0cnSRSj0kXa8ZYqhQjeUXvwnHcTNDQkynBzDrEavtT5p+f3ba+kNzISDA5EglTAFOYdDla5lVaSkgK+N6jjTzzBFnPNyotuq8bi8DmuJ7+pv32gC5JsJF07B8XSMxtiRqOC6hhQdNVXMyRzuYCsaD5vjgZnO4+0RzuPdkc3y4g0q6j7Q8Jiy0IXMuiJ4GkMTC++U4zdfq6uGgwOVAZJ2ebgKTTODmEwA2BIhrqKgDJJ9A7M67TQ8QDrAPDrv95qhHWJgUJQ0mBYizMWIMVY2j0xw3PYDY66PSAqli6LH/WYCiJVXOVnaF53NNBuo5ucltXsA7QNDba1/y7LtaTMvZG64TgOeJGL9zrkpDvUvQArLcLV4ScO2LxJmw3JeGZA7wS+PTocwzpJ7gOwgQb3C9S58ZOkzRCHjD9XdTtAj7yRXIoccigTad1el/PQUuBeJj62thStr40k+kBe8NBxhqABFA7AaMGG4A4wBpOAKII0QW0GuOYNApjDnkrqcknB4C2iOk5piwqLLOOQ9TsxgUnvYoPN4ihRulX5Vm9VxrZV6BgEd5z8Cn1yX8MqBLvDL9qWvTigf+S+8vQgHCZelYUqgg5QwNjFJ6TPnrYITpKBEB3RjwHe7daI7oH4/pK0/GR+kbqmArDaWB75T4/V1uDk5z+VxdLYxlabJKKtWvWsxbCqbBMET1n52h49kcnqXx2WfLdzWtZb9bXS/HWeh1GnI5L8vhDHE+bPyeJu+nsd67q0uBqGVUhgR2MbAMYFRb7S6GhrAnVj8NJdhBIw0nxDiBwcaEGfPulFZ/iGFnBCA35uNmCwviOhbD0dFe0wG0HVTcOeFnHMpIzwUAJqS0hQ2SJrec24cLqVbC4u2z08e5ru+Vm/yWH16q7y0u8r4JtUGWw4jo9kGp5DZQG6UUmiHZmqikKPETrKXHGGw4TtjB+oT1jidj+8uOFwI7+pFoo2gIT7WYJs9tvHfrlAbvFpEJBIGVv3rtGZ8edaF/nrdh6vVydOcZ32fLwPC+gsH4zrsK7GX/ZYAav/HVOM7f55lh2sqsz43P6/pezZN+xl/9vb/f7lIgml1JR74DxAxh0L/RQgonNSPKgCbaDJGGJyByRgt/0uOAebW0zrCw9kHvACCOkBRbGG82AOGICcEdBvY7fWyvvUEz7aOmAdrSTwSMqS+qTSB6hFIkVC6IWVdI6XUFYnzbML4VDOnpi+WlFGZB/DZsDZIzPzW++spT303s8Y46LRuILtTO6WSMNBSAgFEQslGuIDwBhCcn9CJPoAtGrSJJOYcRiI+8lFhrLu7OeZmpl2OsAAzgSLxH3eVoAaj/wo9n5s3788BZMPiCSGeBWBm+pm081Z2P66JnFYSep/Ce8Ukzr3LvNUf11y/3+OnyRg1jOJjC56YV2ssabdiar3t9vhSIyKo2T1REOIXC+R+mQ6WiYvqAUC6ac0ZWFukG8GYegKuPUaLHoPYAdW2dftMI6+kASdgZsoclM3WawYjngHHeJ3wfCUk81pWVHhCioJ7WXa4lsaQs55LFXNdwnvE4y4TlYWX8UhDf9U2c5cMlbbxaXx/EP89SYeU+vwSa6ieDUEZQhmBUAgrEVgpOoEMLQEFov1ABel4imr4NR5uNRZp3eiF4LnLSRiD4vA/NBV7ObZ3qbz3lOXXruUf9etbJ4NVVRq5+gkJ33l8465brpYKvPjv/3DjQIRKXIPO6grICM/6pgwLO+PNeBWgNb1wFhAW4cnfNo+neL3cpEAv4CuHKdZGRkrNWgz7yYiyUhc6QSt9SYRnagDH7TH+zKqFkM3UB6WgNMAJEjvkACYmU7PaVlAPELGdA2YEBuhyqsHSq8PMaFRYGChBJj64Z6Z0e5stDhj6ViHgsuTz3PgG8a50v4WocBGjv4h3/clWemEgHS9OJafnUiiYzDqfO8J/TuFAwngy57wPAYqBRPRWQmdbGmx3L1maj5KCmcudnAXYrF5BB2yG0FoQ2qoIvZ64Xfvp7Tw16XgacjK2r4Atzt5Q6/8xwAq9KwlMQ+qQ881yfex0QEZ/gmtDYCUSvHToLANv7PEdA0JQX/yVgCjYb9cRV/e1WQey5LW/ObQWY6D12lwLRnIZYnmU6DjNepYZMUyqgyCerXL+FI6BA7AC8HszZRT2bMRf1ZEQfEetro1TkLCA7ALPLuTuoZ/xgkC6qaxcVtwNYYQMigdQChjzZryRahgwkvhh32MQ8mQ9+Q9uihpTrPIh/yacBeL6UaUPrkVe91pWbRbn1SsPEWSPTDBQlJOHYlT9AnM7s75LfDg2NQOSYzpD8MEuAiJSUQULhVsokoTYt07gbrkqwi+KqUlDAafEWgJ5zMPtJ0NntGHLtmZrA71QiBmgU3CwLzvNgrECswK1ST6D5pys8U6+rr9Vb/NQ4BN8EADFfKSDTIl+BKTgFpWfzfyJYua+HXZvQmfPUVhJnfKk/Ml54+i4TPanc/s+lQExmJdrSsRx9sh9mKgSVqBK7EtdWPrNtMNR0YDxn4MyPsCgO9opaKgA5eoKQzX46Q2bdcN1j9k0XkAZ8SMmu0nIOSBvCKWGQjJqIpjCFFl2rrB6C0XyVamxBduoB1/CkFT95JwFTEt6SqRZv5n45fFrPxE4UCcaPDQI3nIolFEa28ej11+gfbzSDIdrAcMJwhRMZ/PwYNMgUuMIU0jYbLHNb1CTzcpqfkoln/5s6vOB1GV2QVgm4AB/5X2NSvuBbawG4JhihvjUw5B1zdx6ElkYgei6g5AKaLK7LLb+FRyTfAphcC8HKP4bxuW5KXTmOPaGrIxhP2rP3gi4AFYQc3o8F3BIQT2z4kisiM4FC9lwLTPMQ4ZJSmeK9d5cCMeShYGmnpMwSfywuW6aWM/nn8KcWhgvfp8AdiAQSSxz2MTXz05/qYMDpYNjoHKOO0l+cA8yZklJ1lW0WZi0Qe34XAZAqRVVjBWkPhrcv6aEKq7FIcEZimgfRoTMbAlCiezLzecRP+W8DxZPrEqQEWgTmNa7b9xYhSaOPsalB2q2vrzfTK1fpbzXN2mjYbHK/zVjsGuVyvHU2drAftUrjzTG0wGnV9JjDWMZdwLiIPWHu5OfpJGJUz1YaCrwRABSEoxaEAlEQ0vzlvOEwVQhY+PkUeOQbPigglHb1OhQroE1Zw0kpznKDXQBI8Ynba51nQ2cyieAjTqaGcGaWVwvGMaH6XA/I15hjwmEcAZ9h4DO7MvJejH5t3s2odJZP7Nrcb3cpEE/JVogURiHXKUTNfeUZzwWJUtCbEiIF5YdWymF+Xi4gdKrbCX2+Cf1A+4OAKv1D+oiCbw4I2fAEwYdCBPDmAHHOJPSeRyQoUhMGL/1JJBBxaBya0aI7JCI4NSZZpWahHEValjFIfMhiWIZ8pz3xnHz7oOQ/Yc1z4mjLxHWVNB0qn8RpHAYM0Wwyqb0LINeara3N5nj7ClPartEHwzqMWj4+YIYRRpwJWkH27iLeAJH8mkJRnUyjpMfFHbtL+4gATak4aCXhumAEgOscG/Tp13kOpSmbB0NRHFkEQM5OAVeAaVNbJeB5UFoQh7qkb6mVkJ/rcm+pfX76rNC6ALDDaDRApD4Fo7O8jgUg92NABjWLMUkgkrkF+AChUlLgVWeD4WH91b/67H6dbxuIZjjuVvzh4+VDcravhKHzHtSg+REKafkiESUaxKOyuzCDx1zpIpjoF3o0zG0NKKtEXN9Ajd1oGs6NKixgdCiki4R0KCTvAcp5DuPSuCCja9UVX8lBizMlpFXPk1SMpSRPBkz+eS4IeWYDEmy2AG0fp9JBH3mnzaDihyMYeGO9OV4bNUdI9zUAeoyhaoevSQ25d/WJ5QxNiUSGKBIR8sgkZqEknqs7/Xk6iegzj9IHRCK2klAQ0qQ0G9TLlgCEfoJwiyp0yEpnl8DarKBMXxm/YqjjuSTjz/uKg2WQ5VrS8o7XDoPV5wWweOIm0OeI4xjaqNijOwWQNNfNMYAUjFAfoNopITYjIUEBzsitUSz8vIzkJi7Xixbto9RBS3iD3HN3ORBlQJy/5cozFAsBWyouQuQi5alh81ZuQiIYTqbjOucyJiUTmoxQ6UBYG7BCIC+obiyNiBEmETBfh9kqcyYETFVRD4rV1YXGjYuNAaLqbDmUrkW1nSNRe7TyIJUDgAICOnCkRopUmhbYArTTXFtYGwtdAZ9n7gVjKeYpPQCfZZhxTnwaa5hvOzmk/8Lc0v0dPi+382TOh7s7WQzs0IZLoOrsGqe7yaxd3pvL2YtU2sTu4FQl90VRmO/aR3RWlAYZeuwLEG4zdXFLALYg3CLPa5RPGkg32bwA0X4y19zbX/Z8/hqvYCRgIwJqodxDU0usfwGjFs5wDj4tEKHtIfEeEVDgufLHpmygH3njlPvCZbxLePuKqUMzoiOBjN0CQGd8VT4MfWqllpD3/PeZATGZLUSTUSRedT5yxk3OXEMDnheyWND2agHAXsu8tsbL4JSgWsBUY+eZ8yYQoaDXE852vmRaQDZzmIPDfqVATJ8SiaPl1SGRWGVjkdXoo9QEvIKTw8wLSNaOkFfOJHwKsVIK82I5lw00IYHeuNNrAioO9YNRZ+RXBt1nvunxwV6z8ySr8594nKVQTwBIprshHScM52jssNVWRY0m4D3Xjr/eTXeZRKyW0ioNN1RJW0koAK9wKAm36dteoZVc61g6qgR/czql9cmZsizOEK+CVDmVtoWwFWD9M+BLk1iACFWlpLVhw+z1MfEf0CCMiPMQvhl4EGIAoA7JQ/iLypCW/p/WIy/rjISM6W9Z1TqkSQWj/He/3W0AcSmLEE9Xs2359PGoflyevU8hfdoSjPsCvKISSZCyNpEQBKsVkD6o6UFoieizmla8ItUAUfqVACvST+uqkhHQoRbap+x4oL5qje1ydBga8bpDJ34umJlIMKMZDhBMo80vlwuXdPVos5OM+NT7lMv8lfJFSpBv4JglYIf7OwWINwTijeZgb5dlYa5XJH25FrFQ3/UsIVNWE71L7umAWKVh5gnDpNUwY39wEw4OEBkX2kYKXmUlzRaW37UhVl8qYQq6Fmcy7v2UdwgakC6ueeaEyAosSak+Yl3Xs2qiz3sgNTxAILUD3WQKCKf9gFGjjMYiwdiX5jChRjBuUx+Gt49KJGdcMSRRLy0INeoFjISW7vJkaV7OvHbPbi4F4nLrIoMsyrh8k2ue1cLLRFwvGGzxqDwQZJEGECUdZxGt4x1DhJQ8C5sbT/vA6JMfKiLh+EnbkJqn0lygfILK16cnMUF5OUZiHnJESq5h1HR8sgUiwwplZg9+SlRV2khX3ot0I42SYPJogpUW9ZwMm13zaFjyPCUPTuw+ZLL33s7N5saTjzdPPP7K5uaTTwDCPVRVhm4CQhivvNSOOzq2qFpK7GoDKaCR37l7OiD6bDFWSKvAwFGkoUDcAlhXIOsmedqmiyAItzbGdM2xW0KcGVqKarQTF6ZTJIz3+AvIaAWG8b49BIs1F9AFEIDOs+DzzFIeSVLO0Ec9FTc+ZnzzeNb0TxjXZILEgLTyR2D/AkJ8rAfraUaDEvpxb10RcwDoEIbl9XAVUQVgErnPP5cC0ZZdp9iXLGm1c9Y3lC3llwi58uyVHqWweTG+hTDiRkrZclkBAWyufYOH+EUMti8m6hJbCG1UmZGCipS+JBU5h4kFYdPDtgaQ5sdUBlt6zAdUEADLzB0lYCQjIGSBskd3bROp6eE1UpMJ6vYjo6pSWcmqCSZfZluf1pkxb1PUEnKMAWpMH1bJt3vzyebGE69qHn8VQLzxZHOwv8czTArOPIAZitWUkqLOlqm7SslSpuVkanLP9qw6dpGzIahGmsUwBflaA4QaZjYh6QZ5Ux3dBoSb65NmY2vcjLYcB4U2PF+AERAKxuLHmSLmXhC2ADUP1neX+lo+Ogsgwgs+A4D17Dv9AwAESHss5+mOeQYY1Y7tXweIBYmELGA0bZItbGTd6Hi03D9cBmRU2hLqvv1eCsSOjFl4LKdQOsUvUDPnFrq6U98WhDygvgtRuK5EiupJjIk6wOPacO21EChHiRk6Jh9pCIgkb0pw4Qxj0/byPhFoyqNi5hOu5T+OOf1KDTYNaqzScaY0HKF4ccw3WCPJaokuQym2zL0hJCEjtqql32ga5lLXXhF1nN71mnPKxKTvCarn4f4uW2LsNHsYZzwO2K9ngoHGyd7Gn34hafi6zDuF2QPC9DHxuIvOgfpbOYcsMnMGQjlgn2EKcrUhCKGzxpl1lqytMyFhYxMQbp80A8UkTjuaeZ9jHs25lZAFjPpBx9ZPMIJxquYUZAWAkFDw9aELxIifeOLe8LruQHBq2MLP97HZufwOIwGvGIh0WjBqHSdZMhXvnG3wPZT89gtdgHACkguMC5/yS9zkWQa9D+7WNdRmZoQZXvRMXcLDYPQJcyTNNLlOxg0GaRL6VFra2pfnGh+KI5S0LkHzVil0Ye4CQuIy6hJbfo3b+5DHl2uARHQaUlKXkPxKTP99CUbpQPgOk60zoUCTrBNBlZ4AcMYxZ3OrWGWpzEwU0CCUqPkR1KZZchD/WlfJQkmKp+QADpwR79jNsjDSpC8IIzs/to/6OxixAoVknQJXEiBuWcQIWwBmMymu76Z7OiBWA42zZTTQKA3XKe86Wdognxv0nDYGk6ijSsLhNSTTdpGwc2gqfaOdcDl3yp5Zj5/3gtHnHm1dCSbJK1vUa7iw3EN//QmaIa2+7wPCITRsw0qXSNUxjaqdOsBIRPqmrkzG+nJIqs78oYmTygTXWFNAqJYwEYxUYukiEMV9dJcCcc2tMqCkTHWC/uSMBUlqix7gybwBh74S+RSEPClhqKS81BZU9qsehUQSkrfl7PxXvd+Qy6Fp+XjVeNuAeS/RxceHvEE8aTlNRn+9BQRqo/1IwTJjqpkAnHHMj2hsKFff2TqbqKiM+5VyQJ4AkQiMqz0l+eSCfFjp0CeV7rkF4qFAdBEwL/WQxn2st8MwJq1y+oiEpTDu5Ga/slwLynJwkbzfjZ9bqqaUocwjLX3DqpJGGgpCGq0NVNINVNK1zUkz2J42vauMgV6hT62zMtojYAwQqx+kybP2XMtj/UJTsSONgyF5KH76n702mc6eIhC+Y2eHAsiWNq4+b8EIXKF0yy/GaxCi85w+IxcCUYl4Agh7gLCqp/JTFSK8cV/c5UDcZDYLRJRBJvRvNK6khC3Dm+uKw+BIQreHVPBPehTKlLN1Isk8z2mBw3y+1DrrBNhYJ3nbFD3KW3jmv56NgzSs9ISwbkuahACEVBEtcq7Jc5ZvRX9lKwum1zWsFZw5lIDUmm9tYxlguNgxSu57zmn1xerIo+WpLqTghuiTThqVGGvYQvKQ1fmsRTRvPSYlDDASzZlFZAvu+sSyqTCGJegqI6SM/Mi8YeCldGp6z/as1LuVy7Q2JSENqzNmTqUhC7lhVi2kaxhnhls0VFcxkQDC7lUmUugCNBoOzqG/ktxKbetCCXkarqXbEuB8tgCg9R9gViAKUvyMm75+p8vcmQARQOJdujBE0IJxDl21hMaIRDmyLpYkXRfrpHE2bMmE9TFhKgCVhALweSER1wUixJjbctPaey6MEhJLyvz7I4GgXMCqhJD0GQssobgRJG1wziGylkLBmArCj7OS0ds2QkPi2nTiXx5F8hmp9W3EMgHPTTc/EjqwbJ8FVS3xDWi5YLY55eqwmHeuBGPHuawEcbUHIFG1TnzGGWcGcCbFpYf8Z2ubcVQkqxJvIsBlSCseI9FgyDUTEzC6x8jgLNOZar555JAZikbQns8mmiSf7Y9S71au9A/LZG7syaimxUATlbRfVNLhBiC8Qtt0hV4kIOxc2TqNLpqGZbMe20xLEAHkeeHXPkvF8rqEa4GXc7ye6peEmFnlRlsNYKTl5FAMGjW0EnQcrnTReisrOFSC3Qjpx5n6t25G0MAVG64eUSJWQALxBf0T6X36uXVT2WZoYwuzf4isCiVzqdpRNIEmneXI6nIZT4rMOf+CAbq3h0G9huv4IQCEkeG9T1/Ms5UEA7cBIZQdcCqW0D7Kj0E89KX/UBsH3iaA+eJJG6fXgVObVd9Ja2geBCNVFSC6tQVb4Dttro9U7JkvnpofjyoBczZZ08bZOvtHLomPkiMVVePLxlBI1gDRVO2TyEQwDA1QF7CWAXxiooxeFxOCjVmivis/T6eaypiZ0L3UN3TmzAYGmrXRCaTAOKNKuk3DdJXxV0DY2QaIgugM0ErZk2HB5zOdjVG9Lj7l3QpI40mlcgowT+8XaaCd6E4lVwGjydS+JxsFtklpkIHSEFC7HTsjcY9EJDAmOZvBIhHb86kNI0nct59LgTjA/C8th0OsaiPW0k2GYTItlTKTDFgcV7mUOly3nXMfy1NnDv2qRxtDXq0xcWPMxRkQpoWwwSbe4C5PC7Oag/JXwrcP8xYQhMFKDAVIpiskFr9KPbDRAThzVVQk4vyYVn9CXxGzoBLMnKRxyHu+uXTkoWkySiUAkawOURwdsrkyVtLsc8ob6VOT8WKaTyZKY0ZcJUL9SjgNDbVB8fGdOqXBRU46aKQZeUDMNbATENIcjNhlb7RGv1BpuA3zXkNebkMXJrI3VxCPVkYaKmJugRYJaEKFERb+9fkiDxVweoQROOunq2fjb13H+cat69a4XYvhUA/Wbr0ymYCZVwJwAu8VqQggIasrMpyXKh3okGS5lOqp5U+D7FXNR03oHp9PS3iLhCfszan0m7k/KSbl/gj1inp1y4cOQAxjLzViMmmcKClIoZiF16RYrmVeXftcT9vPvBK2x4P/SF39CS8wnVVvIOtdVYV+d+IzQPpabbwSuORLIJY+GG/qu/gr8MSPd2yc3a3cpVgMAGapVRcjVR9QuSC5DGVQaCVfm4Zs4mG8J2gJ+bSAH+Fh0H5nZ4eB/Juc2cENQB4fHmXo4uTYcFhV+biMltWJVlvU02gclQAyyC2AQ1LPyrFY7Jbv0eNrhpGGzKGnbI4bOoUt0nCjDFXYL+zwMaKopNv0o7evkscCFOm+cFXy1bMPlp/XgEsgWwCvBWCNd+FPXHZbpHN1SVlNJt0kNDTQ5phlJhFgEDuBT1wK55aeE8rk1DhVUVdsqAHUPuIyGGvc9+t8ORDH+4GGpnlb8wBRwmABmTnDAaqU2WZyM/71CKpKq0NtFELKxf4LHOqP35wj/fArc0zbMFLESwhuVQuYggLTKI1tLKMJZ0yCwnTaP/MRP7Nly1egp6+t4Ck8yb/50hrMrJc5432NA/sAZeBaySmTABhLzRpH3jWozrRkCMfF4IICRN4NEG8WIO7uMoAP8OwvupObxi5n1tTjRCCqbiziTe7MMH5tQlzdqasr6s/HYyplsa99Qww15GUdyqz3UUlbadjbpI63AeIW0tA9bgXh1jUKXoBoHHHL4Kt+nm8XiPWd8yC1gSStQqU2EGmVbTypdzSZEWEyZikAKccJwFQqumpDMB6TSeerCsJMGOfa1RoCMRJR/qAO7qe7FIgOourmMGPdHGpKSzSdYJCAAD62vQ1jQ7CY/SlWIEhdtbAovGVZw/RKqsJqpZ684YjEa69NVLAah8waYOtZ3vPXVwREcRWM8nEBSUImAXtvSm9z5Xs+bxsHXk4clGWmRLTSDxjOOKCviOTKvjkYWqywzNhJ+lacIORI4k5PA3CotmP6mWPWGo7ZDkQV1Z3bNN5oKS3PkISAcio4SdNyJV8yIJJQEt1tlhBsFzl9q1rq0qYhdFEajrCUjpCG/S0svkpDDHZRSbfsHwLC7UfI5MVxXpTO0/q1gF4Os5CKeEbislImrMN91F9Bbx1ile2jmbnOc+jQ2gmqKcJhguFGdVQwHlNvlk2pqBreh94LiQhdAsa7TvHl0tze9aVAvHr1qqzLmNiUrzqhRtFvGu8fNzf29pvdXaQHzzJdiYIKwizrQUT2OLrM2nCxbg8Q9x0OUJKG04QnLszHlZ56aKZuiZLnMil/gl3DSwDjNWkGhZwzeJ975ab+7fPcecOBZ/pdXPuu8lBLW8Y/eeobHVSa5McKZBuP8doOs2ww2FDJHdTUZp2OJIuU3cQq5STvNduFJ01HHNPqEm6NyeYabCZMhBjjNwN4NgDFiFPUUfNV6eWk83JdaJjI7tKP6udFThqrli6kIY3WqKc0RCWlb6g07GwytrqNJKwgRBp2NgGis5Ru4aTPM3aFiE99zcaKZ050ML9qSAEjWoj7H1GRgBFNBlCOoLVq6glgPKG/OAaIqqQun3I/3qzYgBZRT61z/PNnRd5ndykQr127SlnnfITUMUSMEJPD5hgGuwEIX/nKx9O/CXNTlsKgMBSgGziIjbWwD1MOBxh63B2cxbOC0vmcCwYkbJeZLLnn2nEl5anGEWGpSpmzJCMfSYuzKk+xlFJB7b1+ZKi0ovGzCQkMSwOQt21NJXwlfrmOMVN/6x0mGw93yBd5pqJ7qkLJD2kJRvzLdyusxvBJGz9hYcIhE8jXUW+VhGWfGlSkfHSUDY0YKnEMMXn1XeOl/C4W7odmnKFDGyEh7ty5SuEiJ1010hRpiEaukWaAdMFa2t+gkdgShK2BZhNL6eYVGiWAuHU9msKZOM+D7zywaGjOOLoCt+OyPpW4IxmtX4HJkX2QbCQBYBch0aOhG3CeAkABOWbFxhqS8ZCGJhIRRihAVCIKTHhRTku9Uo+c/Sscczs5u7thLgXiiBkhGhPGqADO91OyOE57BDPtp8+DmsW11sFIC4GDJFQq9GFIz65YF4gDANkTdAFjYb6eK9sDUCQnzwVx0d1VG1zq4pZ+RZ2wnZVUaW9boJ0FZ4Gd0Msh/3nZklhV0mulaf54Zh8NmxNeMIaTJ7Gr9bEIH8OgR1T0ADVyQF+uj+rZRzJ2WV7VgyYO0ptXGxCHdIzWxb1DZudsEu4KRg0lYIeBfQFpuGRHZjLv5gQ/3xGE0mkAvfrE6/XddCXlp8YoHU8PGhGo4uRqjXLOAXAgPfo3eaTAi0N1PfdGuQywJfCdkYpL/k/NxTkf6bPklIRlDSnL2mjYsyG19PFwBhRzgztY9LsDvqdCF6I3QF3lA0c9LHmWx3WPqqOWU8U/wLPBxXntX73OxX36uRSIx/R3lIjHbHQ0ptXxo6RwFfs3rTETf6vZm+8jJU+aQ/pEZRyQIkN4VdIuy5EEWiQhwyBKQ1t6/ovkI54wMxVtuMrcSpXo8ZzL5kae8fMgDs8hKBEJVg0mRi3QvC5n02kJn3N5vxBeOCP8aFGOkVBHWjPZBNhVEWKqO9hvhnsHzQCjy/DGjWZ482ozQjMYYKwYsj3HgPm3AyaPOyVOKXaiugSN1qGJALz+CJ+iY16ufR0bscN9+psk6L0qOxxR7jn5vuAdOBcV5gowl8z1zyVfyPKnB4YOmDLWR6fiQYfMjKERQb+GWM5C4uDsBsqnEl0Wbx31Ekc5bdduBdI29O2daACTVhpKcmsjBr0h7OlxSUywRQs4a93rcnhtIyWf6HIuQXJ/L38uBeKRQKTgxwDtWAug6gDAGbE72SYz8Y+cCI6aenCE8QGpWTbVpXBUSt0M2OaIurHUkRKtPApjBiwBIhJRKSMgW4YVfG7E5DEIoJUWRXVTckSdS5h2oShoTHgmCyt5ZXpB29efOF0EWwwBhfCq2LsAcJeyHaF6O7ww4VCy9+kjDhjUH9LYrO1cbdYA4xpT4Na85xiheg5zuJ4RcwiAWiP8FTaLEoQngFpDzQFGn5Kaktx8OWMHHxjKRiESkJbdTxCk8SK/grEyx91ghlilbxFRBaL852SCrCV0KEDlQNXHsWK1HQEpKOqhagmdwrepXMKjBlYXOqtGUp64GqYGuN1zq47OjauC75zUFJh1QkeNtmg/9a6czUmpi3pf7qwH/3TLdFejuVfuUiAeMw7mXL1DGPXg4DjjYkrINXYpu0LFCc69fb7ytMfkaYg1oeImWFTDaxTOs1s/LFZIQ0SBHZ2fygkJqKyFegrABFFAGBC1YERNyuRpgChgA0KY2v7UIGAFjIQRsE5CCHB5VsIZxn5rAWZaBFrBIxqPm/tHzc3dA8rFWB/3Hrq+gEdCjVhX6CfHN1hLuEY/KceGkhGpKBCZhTNEFR3xTGmp5VSmMF0bAatXqajoUT01vwqL1oYUICas4XmWvjLh7qbLJwEuiFCtwkbRQW9tVYKyThnLygmAqEUyIFQackQaco7qWcFlfr1ekoJ2YeJacJYG8IJMXOS1VH55KuqpNIR3wje5BiTnAHgenxdFrZ+10nLeAnhVwyLKhbuXoLwUiEdu60Du9lDVbu5wYDHto5ZpjNhAVZPRbBaVPjs839k9pCEt72SHZt51elqOWCsFIfcpcCl1B+nhuJB90B6t74Dxyhn9lBnmUr+q61o2taNZV4ORhhzImKNIjqisNIGRfICxLyADzgK+gJX8CUZBnne5HyO5dmlcdg9QJVG987UmGhE1lcQBcEeoruvkaZ0MDBkXdDlTr5WA9lc8RtBhA0m4jsScUI59JOw+DdgN1NqD7E/jLJBi8FECBgASgP9a2dJkuQWu/guueA4ubFAFXwCYM6oplkYtj7Oop2RQSSjx7ZJ40F9GdcgOecmSkw/wXvQJBWAFktc8e4rkzIsX/NT37LRXF9ARiShblor6e+DOS8P6KpxS+BOPtlkIAOvzerY+dMuS0XsbqepqfSzXUX12N863AUQkIoTZZ7ji5s1dhi0Om6uPPNJcvXat2WKqkwC0ANkesMvHOFFP95EqczoZAngCsZx0KxA9W7TwYBGZhLMYLRBJxz6gn4vIA4DpQlqHR/xDi2zYMYF9KomDurG+fF0ipUUDjJGmrYoa6QjwAkryGbWVcwxCgHJC3OZ1HxAqxcsMFwGDLSBxMNCNsWYDRlxHRfc9ckPWHAAhfc7Oa1RKbkGTTYZ6tKiaT/uNN3dZHCwQkSDGbT4FoguOMz2Qwmf1QYpLCc+BEe+74qT7RU6p4DxM03XrCDGTjaAUkbyS9YYSuQXjXEnIIRADggAHlRHAlT4h7L4MTIGoq6Kq3hff01/qJM60zrtUNGnQIKbSBZ90akHYtujJ7/lX6/0pCIuPsKsSUBroKtDqWZpUdVXeq87nzwUYLwWiDOM0rDoo7cC0jLrGvNMrmLbtPzhA7erzfaTL4CZTxEo9tsxK5VKQfJuC0lgoyphnls9rz1npAI0RhJFsTvPSyDMcYn5Gwqna7gIaJZdjmmOOY8BjX8wEoU8BJHXq0ILScaiayrsj4wEAI44YSwzMOwLxAKl4QFwnlNOY/OFVVGNWdFOD6zChwDKsfTjfE4xj+pf2j+1nqppusXHwFo1Vn7FHMk4m+uRVNRUrHu/NUHMz3Y4CZ7mOM5N4Zn5iUSVPVvLyYXbuhruAvdtoTyWiYRypsz4WBhvKPIc26SNGIgIIVUUBSSNJxks8gm8h/fC7FTANfREYK1BLbG2cbdw+C/g4e724l49SYzxvz8vvP4NrAZc/6C8w1RSeDpDPBRgvBeIAppJR3D5+Y32Uln5jbcg6NZgb+g8xjIzgWCeF97nOSgSaR3X5Us1tZUOrUx/8pB0SpRITnCW8hFAtXFsfNte21ptHrm02j1xlWwsk2ytv7DWveHK3eQIVeA8VeepXeWUQ3vGwDVMKqxL7lzFJZ+tQ+QOMIRv0a20Jx44z0XAccxZMhwEiGRAIVIWWVz/Q6lo21ao+K8RdxeTwQvqEGGWOeH8O8MYYY1BmY1E+AIwExYyuRdXGgP1BtbKivh4dDjn2OMgfxhDVKfmofunKs33E2k98Bnz0rIOS1TSI9g/JSqS7BpssJ0IqKhGr5XROA9xRRVUaYrCpfXzB6A4IcQKTbQ/jBJz9w/aZS92Kf/u83FE1+J+XhAFrG2eApzTkvh6+W689t67itN4vn50UQjVROo8WeJ4FH4fOs3xZzr4gSyzxKOHlq+fC3QYQMalT2PIdB5ZEkZlNgSj4eLsCUTAieCgEGRWEOcg296EluVd4STaLUsjnVSGCPtJURdehjHVAf+3qVvPSFz/WvPQljwJ0trP/f48TwK8pOZVJYwuSkVm9WRlB5SVeGgGNQcafubGF2wHQoNncZOKyaTOccHjE2CiMlaEXwKiBMKCwsgQhMUQR5RNWIzKuGqp1dJ3hia0r15oBfWe3ed8HzKalhCRDXNMwkRcniysJh0jCjc5mc4DxR4XWMdeeyz3iSIx4bSjSAMCUZYaNubx77taqqXXhH/giScshIwaI6SP6AF/KWNRTDTaAQvU02gHPyXM2bBY8Fov7GGYE2HlQ8rgC08u8m4Y0dzyrIDUnksUGi2uPMNHSuX0lJxu18sqyb64L8Ir3RVQVkjrBJ+j8kyIVnFU6VoFRYrr7v5cCsVj+tEg6KA8jwthDEDhA+ik1Ok5JCfNr3aLKPUIVn0HMMFohlLSqh/jg6WmJuJcEFrw+coB/fQNAXtlmuGDYPHHzkC+4aeZHnZN5TSDOs2/LSK1qwdk0lJIF2GvN1ausHMBHy67GFCW035pwHx67QZGg9jMTrbFxwBxuk79JP/DatevN9Re+sLn+2AuaPaQfYg8pwpQ4GFWtwXytM9i/gaq6zhCHEtR+pYw55KyKNwOIqqRFHZVZzTcJkpT+ZUvFW0GHLN1FV+uinu0a2uC4isEJ/aeWU5oXAcOhFdMPB4Xzl8BnYyKwBJ+Uq/dPAWV95rkFrpdxVbJ6IwhNE5qEnzinQhdnCcZRGKm8fxu/C+CZRBs+8Gt5KTyVAhA1f1U6LkvG20jmGQe5FIihKoWVN50rqsEDnoJO5ta+I2NwrOGrmyWdRG3hGS9YwLJcCSLKa3gX9ZTK9rlR2Aq1Z58rNceg4tA+J2Cx36nKJ2D2Oe8zVHLAUIPSTD+JVaBbfiVfEjN1mMOGxClnfhDm0UeZsMxz499jxksP62bXjzaaN/6UWKpTEl2gO6NnA9Xy0UeuI5Vf0rzai1/SvOglL20ee9GrBYibm9s0FJuUn8niLUNsAsAr1x5hkQKGG9K27+nYq3QrDVSygPpdhivaxOE3hohQc/dYRnVAvhbGCILfqZNKt3KlPig9ZVbFrmOJahyOJRaDDTSiPhbSUMupgBB4ArCqnUpJLZvLoFw8LxMckg/f0ykBq1pqOOlfn+mfdzkbp4dpFpHdXrf3iezsz+nE/+JPFS9cm3ruo4tY35Tdw7ahgk7+lS8qGH2h+tUwieQu/FwKxNqXMeEME6A2lu3yrdwCxGOBiHXwiPmUZR5lAe5C3Nvqt0D0rVL5pcBFYuLJg8TIz5iW8ACjzD6A22dowUNJcZBrgcgaPxijAJH3AgLfPnUSTCCq6gnE7QUQG0B4hHTdRcs9AogwWGrJDHCUVqEAkRZng2Ga6wIREL7my17WvOQ1Xta82qu/erPDcM6IMUQH/bWMWm6NWttYkh997LHm2vXrNCrkmbweAHppYRkEnPlyAF+JadIm67tPEEYwZnWG0uAuuVvJVxlPqnnA5mkcYW3oCggd1Gfe5hxL1RmDjWqph1qPQNHimTPX58HpvU5wES5ji1634Dvbt2zLu6zOpmEUbDwjvQzqm67xtg2f0Wf4QoCWitTrQmd5qwt/LN3rXxpgyk7cFWgVePX5c6WiXgpE1TV509bdYzHZmTJZjTymtddCKXMx0ZZ5petrGHigHTaQlvHCbqnwWOYolcDMz9K5DAsUa6aGFMF4wLDBHoPuJ1hIPR8cKIHLDJ8KRIlUGcrz2Qoh/+YbUDlAbwUKTiWAbJLwyYwZ8XFpRGx0VMcdL73KGOFjjz7WvPAFL2xeiGr6whe8iDFUFveSR4cplGIO5GtR3mIbiUcfvR4gHmFNns93aDSQvMSn1dVtM+zvbm1sIW1ZboUTxA5xuJZR3vA6DVqePnc/aRApryCUDkIhUhEJlxlS8rtjRfYTkeoLg81yI0G5ArTzoKzg9KzErCA1EcGLu3jQn7SMM+MhCSaBChiNo4KwPS+PIS52hWhfq6eyqr/ULzFD4nLtcwGXP85VcBhmGYyGu0gq6n+33KVA7AEu51F2aSFFnWxaDguBdZO+m324CQYPGzqHE2z19w6ZcZMV6VStUiA59reoQQKSsmeJUy7kBDxICSK4ypoxQ36cOrcLAI+Ja8+ZPQ5hAMoJDGI4VQdd+fWq+JlijWdCPM4ndWaQBHYlifE4BAIGkmbiID5z6K/9PafT2SddAzD2+9ZQU/NZNQA6cjobHyR9jMbCj5Mes9eNC37XmIfqtxGd4H7IoOcR6xN32GB4F5DtI+2OmSivhB45LxX1VUl4TBgXRYdnYcAp2z+46v9uuaeTiD7z0FjjWCK20fQTs7YPiTiDRrMj1ErK2SHvZJbtJ5k7qxraglA+KGC0Quu15yVpWcNYKK91htW19+VTB9zX93ymBKxS2L4pjZ0NQjr1NA6lkYAL2tYkkhyJXsd6eTvjtkZlw6OrPJObC34iGfGXV3Tyw2XvJOAd/NweEAXSWMKSoYCFFGFaWwmNE1o3uUT1whCilJC7uyyApdU65N5nBWQWx0IZj3FIJB4JgBIoraQGA8ftxgDO/tLO3hESt4cKiJoHQwSIoN7+pHFJKp2xS7rETxxkO43DuAWi/U0NIgcA8aiNx4bDSrMBSJZ4x7w4MaACUWBtMntGwAlEv1I8GnWjhpqGwyKHTIM7ZquMOkziu/YJBdkuA/se9nWPYOatLSYBAETXeir9THhMv0vtQ3uv/ewsGk6p7vzHD3le5GQwl0j53UE2RGnWSX8dcKyxNeHwiNUge/QY3f6eFfud/n7yZz3GcFMMBQFTrNZnAFjqY9myGrBV4HEOeM1U9Uv9L93rL0ChYXZNYOd0pm5lyGhOt2DOtMTZLsNXN5gjvAvf7fb4yhbDRAcDGtpBczAdNLvsN3RAmfaI5oAyHlFG7dqa6bR1e9h9CN8Augo8taJ6bRYLV3n13LlLgdhH1VTCdQNEgAMjm8nSWBRr6iaWTdpOGi6/61Capp6MCBG8mzLMcAwzZM3fRWWh3oyvgjGtGOGcLqYkE0BjKv4AJhacGkAEQM2DUZ4Siwftvc/Nq2OLWkZ91/w7i0YpWftsArE43y0HWS99YtL1a8b5ojEttXk7kQYwsXNehyyLyu52fLtxTuX3UNHDP/afkWoTZoSMAZsbMxtzZvUwrui8WQ8bLfOoQSdhSDeT5ZUEd8lJ+1s5h4vo2fNNREBIxkcUfEA/rccWIV01ZfMTwxwNxmw3UxE7dBfMow3zGUloIkt+dgnOAG3pPuBNeMLU80VghNb0RZo5+//MacgE4HwXOO0IQOpxh8kVe/0A8JCx2oNxv9nnC197GIJ2ycsO3aY9QOhxgFX2AFoccUiTCYdfE/bz3oEj9bAMwuX+4HMNzEuBOGRgXYbtHRW93n6Z086kjwwcq6TMR7/w+jXW60HXtTUkBuDs0Rdylsl854jC07+DIak6HL9y5cJxQyVY8Iw7es0zC6/h5hAATmAS54aaF58FeBA3NyXSNrbyFA4gPsK2xOXEdXsYst60sZUeozlTntb3KCsFnVJRLv+y36o1d4R6ZkNwTL/Q/WgmqEwnOWxrAa5jcIxvTrQgU/ldhnoGjGP6XQn3Nx2i7ppL1VQNUnuMa+4yOSCTBCinS8x6gPpuuVtJRON3gaxAzG5ulNzPnVEC0qfxQf3v7JlTyMW3HrHesFAaMKJRZK2iDwRPANbWbAUi57x57rlhS4PLu8mUI4sAACwmSURBVL6n852cuTd8vS5XASCEoh0QgEjBfaTZDloEADw+AIRKQCT4IXlmbhMSsNseGOZaEO4jBQJCyio9PCoQlYryta4CroLwtIGXZQot2mzd1dNtAJEBdIG4L5HIKAxZJYl6peqpUiDf2evZlxrS9/Eb9+XzZig1zA/tNDfpZ3QxtNi4tqTmYqlgFpK4LLi+tpi24xnKQI205RYISrczBElkMAzn4p+3WyKVa/3LVYGZN2dpaiUIQBVU83f6npWkBDYfASLgGSIRjFFjzBgACsSAkZk+snGHD+BMKegJzCsQZVonFKjSzjBcuNja1Hxfi+oeVtcdgKglWJO+qzqcRHG33HE6UBfH1iM/2VTJRsK6BBT+Yd5ClaExIEvzXZqm9LvY+4U+Y5+GIx8nMkrZIuBr429BVfyolOX7hD/181nCVX/PVuQyQK1vgD9j2/0pEnCKlB6jhh4fAkKOQwHI59r2maB8AO2KKtrhGhBSByiwgLFIQhucQ2hx5EGjMlFjURraYPNXmvjKR3KEfHAKTq+r3xke9MEdukuB2HceGy28U8zC7GZOxs4JdqIiMpyBqiIgR2wVPYLpNLQcIzmdpH2AdLh5gNEFA05WWeCHvKK6daWwcGziFNht3XEPMxsPQNTfa/2svFjCzJCOs+NG4QoZg3unl41c5+fMFqS6Fl2n4GlZ83oDqT1mj9Ye+3c6p1XVNQPInP1+n1LRCnLbfIHyxJM3sgP4PqrmLuAx82M2m3JLxDHGi/ER0934TLfLuQYnSLTxEOPSPtIcIw4AVaKCZxoytm9wWzHKbf9xDwDusKrD/qMTDVz9PuITcbVltnh36mS6i1z6whWIVKQfALXB08JLbfNKAaMrMaZ7HOR9g4ZodEjzutSiuqOfTl7wiPM5rt7n3D6rfgWICRZ6noLS99q65fH0EIkFACcIA/uBAvCIbyYeTfx4KQe5PiDPy/1B+4SqoshRwIc0XAKhDdO4PVRNq0RMgy1vV54k7VoPdxt4bakXp0uBmEqhw16HLQRE+H85w/FrK5FCMM2Scbu15jFUG3fU2geNN/dRw+jvHSJZjgCohpxSOEGtqmurW/Jlg6hU0jSt9LU/Zx1GfSBugS9Uoixzn/DkISsvUIVdSzjkcFqejcK1K5vNlU2WbpEx09lmQ6RH2DpeYNpgRNoBdndfc0cCecAUXIJ1COge57Pba//9X80Oe5665GmEBVVGcVzLbTJcozdlDuaMfqKfdeurltN3dLzyJusZ95xjikYwZvOtCeNy/S5DGHxqvN8bBuhOUDhCzVXau8B42Jr3F7V0hxcy3UXOTZv50kfWfioZy24HNnKEhqj2g6X8FJXPAf7pPka0CUNUWJxt+MIHBC19SM5pDL0vqWW647nn9Vk+JgOddblegJTE42+DW8B8cngqAc8D8Ih6EIRkjXMxyigFjwDhEQ2pALRPGCkIHQThsjQMCAnnWdBVEFYAmr/nGoSmcSkQi/SxlWyPgC7ZW2RQumWszorwOR1kgTjvqJ4OIwmfoJ+4i2o6oJ83AIwyfwoL+jxrvZQR+Y/0MwWvMzMF44ppZDCcs0CMB2kJQvOmn5ZKrZGqfuvOh22PK2wHeGULPyyd0BsgslRpvE44lkLZWAB2NwIGM80uFWUfWKayEVB1FIgy5Rpf/bXf2wfcSZMwZqWr+kmFy7o9JG1/A4nIXFn7kzsMWexjbMiiarSCY7QCp4H1oI1KIUWHCWyMpCG9M4c2kOaW9245P576dC57BLXSMOnyI+1nELd+PyJbE9KobvEB2HUkUQWZ8dpo6aRFdQtQtuDU3+fL/nWrTgFd/fXzWr/qxmOAiBFGFfQI2lUJKAgF4NESAA95Vwno4a7egtD+oEC0QaogjESELhrIBKFgq4C7FQgrSGu+7ub5UiAqAWWzEJGUC7HNtIYMLZhFctinCQEhpNUiIV3CtLk+aK4CgkevbMDs9IkA4iHAOgaILq1y9YQq57iVfC6X0tlHtIX2T8LU+iwD7TAqGVk0DlSEQMzEcNTQDYDgkILWXFeMbHHepu/qRHWl7BaW4BMk5EjLrmxEM+1kgYGJoHq6IiP+/GqMUTW1QAMkYja4cnaRBhiHOGh0OKVB8Nzjk+F9Fkb3piPUcvuVWkyRmDMG/DlPkJouvO3wQZpMiqZfoyk/23P0AbAzbhgiWRg0Qo07+zm+lWpK2XV1p7xIecpsDdhfmpI3m5cJZTyGvofk+QiNwuENuxZ5N7+nP0v4WYRZDidol99dBvHimjDyTwX7ETuyQdH0AQXfIYfS75AwR9SZElAACrpqFRWExSgjAKkHQKgami86A0DP1WK6ACPpVhBWUJr38wBcfnZa8ju7uhSIDsbbH5NHKbtsS84EIiCyNeGYsx2/I6rQB4YqFQTWACnv4L+BJHrsql+V2gaE9PnoMzoWqBW0bkp1xL2HVlKwDZEQXbbSMmn+YHLBoIWW56qh5SiNhJJRYG0Csk2k0hbA20Iqb7PiwtUi6zQK6/C+BqB14jhBhVyn/+hOc66631tn7qnSGSnWYyrdGLBYBhsb+4GHh+7nwjM+rdZnsN7tOOwPdonLgsOf+QKRKyum7CTWpe8pnP3aVNddxbCWDtJoweBORqDhyZQtGEzWJBDSUGlLA7bOSg058S65p5OIMpmNbXVz6s8eQv1wywQw+vGWY+rB/UEPOVOd4QXf4fKMK7NYzni1cC9+hpdFaoqCsmWZ+JXnhd9qLGPThcZHORfw7cMEmMICwCoBMywRVbSAT6totYwKNqWgxhkB6H2uOWckAJ4WhMsgkzbn3fLz88/u5P5yIEq0epCShBKMSkTHDB0r03TvWFpVKQSkEkWmdzHsBiB4FEuqW1W4LSP4A4iqg+0+OAzaHwAAD6Wl0vE4xg0W4wLGutmS/VXbYhU3wWBfMLu6kUHzVI0wSuFtpKAq6VUk8QaqpJ9rZvN8KgGQKxkBbAfmX2dVxQYTt3eZEePu20cYTVSBaTLbfoPjjpjuiX+KRBgAxBkttJ9Y69J36inZ0gJRaM5TJpF3eVcgulW/wzF+eroPyAfES11nup4bbU1dwkXfjOYGQvlOWcc4pMVwGt7dcsfUzUXOBk5Xz14XSUjZyc+EPRUjWcjfEQA8gPYbNIDuE7rszoOxPluOt/otA7G8R0PKQ3msxrMcxve0bal+RupRD/b/NML4LQv7gbUPCBcisbWKFouoKqdArP3AapipElAA1utYTgUifxe55wqANa3LgUhICVqtkGsYITSAKBGc5TSzdefPwoalAEuHyrKRjcrDSu6tGGGcfI3FC+YDb+j802YfYA4JqNlckEUK8DmwLiB0521n13Q9IhwBW+KUuY27lYScBSFeYEVJA+EBlPM+/TpTWUpDLbatSabrEc7KdoOqdcC8hRprLFcA4xUkaLbNmDt5gDisHOMkgZ4ZocyWM1+nopIpNmFsdAhnnjBsMUrBJ9fML2BSdeWQXqqiqluqej3U8SmS0uEM52Kqng4RNUxFdeh1oVlYrDt140yyeGos0jCs1zKgZZUhJ0j1Ccw+5myf7AhAojTn820OEaS+nhrdpT5pUAlluyX9pblnXbn3fOqXOuWZks8BIwF4TP4EX+n/aXwpamf6gKqcSD1VcaWdPGl50rhwLpJPPxpB71s/QZZ6Jo1l91yDbzmtS4FYSMPAL9a8DaUG0soxsXX6Ym4c3KH1d/2azFS2BnStopwImWH0zMrpubUCFkW+xX6EBfUY62GfSnb1t4dgdvK0M1Y8B3FWCIS3jRZEMrsVI+MYZwbaRYdENIxPIKzV61CEz2UzK3jOcMI6ErQDGDTE2Cd1oyglkcBU5XW9oCqsQHReqwuOD/lCbYYUiCdxEW5AmdxyIxtRAR6Zy/yUrUCQhmBvwBzNPt9hEIBZ6Gs4+pQymVtj9JGW0tEpgWXluhKRODEE0VZRfI1TluXuuFsB0dgHNC5zN+uijDKmUmPIkMAJ9TPm7BeFj2gc/aCpnzVboyVyifMzcZW9fess0Aro9Ksx2jicDyf4BF4BofnioOmLEQbQVcOLKrggTP8PIC4DLEALr0hzysvh2T8Bmivu75e7FIiSxdbazW8FolLLftpwrRgsZPUp0suWfUC/S6ulC4idAuXYo2XrDhjIH7D7G+cBY1ADvq+ACQAACkIqn8PhDJleKWi/SkDJkEIgH0aldmJZI74QUsACuDLjvgCR21hZHSh39YIVChbQ+niO0cZPcZPRhPEjOn5H3XvDuK/NBvnepoxHWDadFL5LWc1J+jQUxJZcANoXVUNQyJLBAkTzT+VHowSIHQ77jx1VaMCrMWkWELaNCOEFI6lTLtVQlG6n0tFydGB8y3+33PhpVNMzEgNQCkAl4phGaIjq7k7rgtHzyHtqztk4t3KW6OlcBZ1nXQFeAaS8Fk2jjcBnuolAXALfcSv5HJBfBqENTvzSZSrg8n1BV528oxN41VW/en8/zpcCEa4IT5TVCMwMgXm0GDoGBy9y2PJzIJ2KqhPeTssXeQQDupv1aIRMQc2ZaT20DxUaQyyIrPSSLEpQ43IDqSnocKv0k479G+WRxCt5qfdicUFQr3ks0W3h+vTV3OjXuaojtmMXOAU8ApH4CeywwQTAuomy9WMj49jjOur3kLWKLua1cTAV4zWfMxjCRbsCVAusElYAHtEKjDnTa7TZz2F8WXLlxGkK7J/SN89z5lrVdPECpSF++9t3092K0aTd8jIi09TP2hCgSkgBKDg9y/SCcBmIpeaemttl5l9+Ko8UMFJ23HkgnvGzQnH28wRiObdgaw0vAR6AjDEGAFYw3qrMifAB/LktIMozGScEKJF0abWVWEKtAFBgyaguh4IfkQY8w0ihWV5p6fSuAUabLhJRpnd1gX0w55E6mO2gvcAigTBtl3c6MIAzxacyZxgERkE6h11SR4K7AEiMCpk0BmSY5oL3ync6xoDliD6pkkbpl2lyyRfWOAbyO8xsIbFUppLfuaCuXcw2F+RBi6iMmcpmeOOYKWyy03RJmmvt1XjQx3gjc2qkqUDsI0koFhLRBqU0KglD3gvDEJ4yFue1Jbm3znzURiyls+EACP5JWBuS6m4FPp9fBoDER7gKRs+6xb3MZp3yZ03rlIgVhDG4kKFFH49nybdn6e7Lz0N3KRBlJhvttOhURowqAWIpbWG2Akb7Spm/h0U0QOQeHkQtU+0CiBCp13NiNEBEEmXzJtTIQw4HjAWsapppaQZXTRN4hgdLXFNJHMkTfpLcCqtnnxkmR4CI1CPerEeMmsukZRmKF0zHnlhWdCAilfg5AkSsl1pkUVdVMZUR6T/RwihBaTtgOK2fNjyoTTZAHjDDQItqcqzUR7pT9illR7ujL0ZclMk9Xs1z2IaLyCBoJRMb79w+9z10kfZJm/STt+QoZa7ZEADVme+L3NOBUJBUsPluAVqtC0HHtf6A38ZUV/0cylIamweP84aYqNdt/vPi8/DnUiDK3HKHUsS1hq6nixUQZlE9dcpYh1ki9oHsd7n2z28+uO9lBymkGd+FsEM/UCexQZUErivgR/QrR8z5tLs2R72Fn1HNrBhkB2lm3ZpSUGlsJYlOXGUFz6XazAfXhg0YNRRpeaWTTz5iUBFwPBOLaUA8mw5nd1zzozIDxgDd2U1gyXrBBHFGhXLMkDKjYRejjwwCOJ39o5obhuZaq2vPBcw0OhmG8H3KSSIcxMGpg7pq51MJGeMTtwKQKCE3GaoFtLD3wEUimpuWoVXvqYTUFdRL381smONbAe5pJaVxW1MW2yuJjsu1/jife2+Y+lz/akRaBuFCIpJP6Z78c36+ukuBGHpBGyWB+6/ssiizbPyrlU/7mYzPekT6gTNUTL+Kq7op2UFb1Ds/zrLOZHD7aBpnkDPNGuE31yAiYFFa7iNZBO5MKyyJxkwjEHknBxxKSgGNxA7J+SnnljlIMgATaaQR8CG10poixRyPqiC0XIZqY4g07A+RmDQablq1h8p6LBgJ2KERca9VJ8D3GGLocp4Dtjmgc7mT9W8j4ZinGdTfRqvjJlCWhby7GsVPiPluTxWdjHjYMFkG48juacRRDFAld8niPfqRmf0zv3FiMbSk/rlefDoBqXmR893bcQtASltrgdcCQF6uAIzRhue6CsQqCQVkBaLS0HRrI1BBmRefRz+XArFwqwYOpqZh1AgQUd/WmMI1Qs9yX5c+QAIvEAOJCGMeMME7EgJCOKZ4sk4tIl7cMMnhCr/MNILhZ+tUQ5d3ue5gqZzyIdQJKog9wi4E7jDbP2OSghEmCU9YNzJ7W+dpCQFMmAjPqNCpwApEEgYYihr7XuV10jUO/2Q+4yafSsQMsTDQuY+6nEkFoN9tL1wgvQCiwyDyD2BUYpqXALEQqxhwKIfMoWSxEesz9a3H8EifRasxeABs91ENH/J+kYpFimc46B4yUWgAuGTiTMrwTN69lvltAS3L8t9y9nzv6Zzv6QI6zlX1lGa6xX2IsXTfPq+gWwZg9TPtDD9wthzPV3cpEEt/qzB+KTQVhKRyjmmP8b9i9aSyIJoTqDN5W8aCKLB/wmppzSwcxtasUlVbVVKR5fQvN+M94X0/DKpa2KH5dTA+K99hhGK8KNVZVtObrgAoxI/VdXFNmoIMAGg1mhGfarOM5UtiVMOTBx4AQKnMM/y7TvkBkE5Id4uOfAuSvIYJYcrgxrhQTzsg0OEJp7mBQtISmdKJ0ImTtEnPuFWPB/irnavWdjBk9ZmvafhytOXJe6QHOe+Vk4ZVClV6Smlyb1WlCyEY7UroDFP6uJT5Np3v6Go6VsUZUD7Nve+dgs4uAPVFBJkRA73qvbTOX5uW7z2f3OVAlIWRYG7s41o5QWM/jOqDGLZGdJ5RKSW2a/ckSMbPeG5/LBJKZoaAToejKgGi0gDGh4n9Om+XcUW/QDxEd+zZb7JjzvzOCSputpIgjTC3eckBj5B2iB/GL4CqFW4atrJj0jjmLBBVsWQmD62hzoCRPcrXptoKPS5xOrFAS6sAMp4eIMsWg5ylRYxJSlDy74p7544q8ckKjYd5wY93HRowri7XwSl0EMRux++6xKBSBvKQ7zkoesqK1z1zUiL1Br0880v3AatwC0ZpYFkWlmAz+2zcUpkqKFVBq4tfG6YC1Wfmr4JRWuW6BWFoJ/3uJcFqhu/i+VIgqsxFodOaGQY+BWLZMgNFEgniKgpVMNsr1TyRRv1F8vip7kLMYixxHBI25o/JAdSpgNxDArklo59cpiNJnCy6pc8ZQ0hAZ8sooD2oDP2oDAFqJQSU7bX3UWVJVetrMQwBegfiVaWpbPup/id+8j9BApv/UgaZDtFl44P6nX4I/ZIyC6ZIEMuY7zQ6E4Yyy0+Z7hcAkldUcHxpwHigCstJQ09XNRfNYKZ2gIU1Eh7wyttzQYyhSmMVr95TFxqSojVVYGatc9fSTzWyAnEZJJdl0npfdsvvVpXU58sghOrLrxQ6kg8BaH4iBTmfuTbf+p1L70xED/DNpUCcY3d3uwf1sqyXkzmVKjmUFIJCy6Hjg1Qe/lEFBaJhIv1gOlDpV5ACTltbaA1uYgyJNQwiZrJ31NMyvnjI3jDwJgQWhB6mx5lDSVbUSipHUFoFS0CUkwWjh0B02haYYXYITQANypCZNq5flAGUcFllUYFIfLxJnKrOgBadkm4wQFYKUiYbA8PkQJoq8VCntRprpHHplPuwJk9iqgo/sJ1rZrDMEH1uLJUtHxm/h3wBYQw2EZ9nmfFe8ZAll8Fphcgs19Yb5RQc0krw+Hc33DIQjS9gXIq4plPztAzA0Jb8BXxL56XXn1eXtwFERv8A4lyOhImVdFHzkHIyuC14lvvYpFM/BaBUGwCMtZMwhaBWHkDil3pNJbtLm1PaDmDifdTbPfpoexpKUEnzsc9qfZUZAkJATwQBPxd20kv/kPzJNB6Jml+uS4oCEWstcWgB7WswYcB+k42At7b4RgWAdCJ7hl8AlKDKtzAEFY1CZtJkYgHS3nEsGgBVbHfAtv95Qp795PeYI9e84/CNGsIpEEkbldu+lY2O+9wcseq8z8JkrcaCsEhBaQWdlcb30AV4EguyaWQrgCgSsd4LSP9sEM3lZc6yX+Quevc8AM8DdAG2Nk7zW/2s8eXrlOWihB9wv9sGYpgjUrFIw0xFA2R2dazBGFRg+MxGsR+ppdODMKpf0C6VWKUW/JwxR5dD7TMJ3M2I3UrDj4aWg4F+gCj4MxcTRsjSoQBFwMjsLRCTvlViPs4ygCxDNjKrxZktfL2QoYQ+X/jdaB65fo09Wbf5uMx2VobwelREJ4QfMYRxpMHGvqrT8th35ggJfcBnBQ7YQwVE0Z+DCRw3VQpqZSV88gS3pg9L4hQ9UnBm/5MEeqDumK0pVdc9omorDQFkl8YuK/dd1nIbzE6gu+YWYDTG1FUFZAGejWeVUOeBc1kmluvkVu+eB9/5OCvYSvZKHV/kd/6958v9pUCs6wDSIrbS0H5EsQ7Kuagt+LudvGHBRlS0KeOByJQivahF+5MyafngaZEartIvFsoJ3zxkgyaOHbbT8MOh4DOqbNgAEOpUTTR+qArbb5Nj0HbDIBnIN18J6Q9sYyvOoZRWpXR1vRqX7x+76RPgmnXYMQ21c33DjabKXjKqmAes2D90gTAbRI3Zj2bCIRDXGRPd4JsXR+usJGHQXrCWg93IA1z7tzYUNBLmp4KRpJ1d42B+Zq+Q/xlDPfkQbAvEElYAII1KkReluRcXFTBSUbot7s3YkrsVmJaC3PrytIJuHeYWT2p+6uNa2+f96/Pn0/lSILq8x4LK9vC2Asrmu0gC2Z5K6iMJWZbA0INjZizaREK4X4uH207ECNKqeu7lOXawnGeC0Jk4rtY3bLbR8Bn3btPQcXGeLkwBW5O+AAwIzQsSRQAKNKenhUFqRfNO+qieNazYiCiFCCsId/ZuxuK5xljmFjuCbWy4jT7fuUBdtQO7xljpAZL9+Jjd3k7Y5OmET7MBPoc0LKPfvXAjKM8BInvb+FUoyzWhDPqr1uXPfPvnvFmbJ/qGZT9U1Fn8DUe0oTNXnEPtUvb79LvM3JXhF1mpNF54rC7ulAKXAzEGENkI6sNQSqAMJcA5GitUWZ0ZEzDCYIJrn4ndO0iUm26ci1Q5xniRL/TCoG7SlF3LkB7Zp4Z4su8NEWvM0SyQtAC3fbvCBC2jCkj6Wf5FChPe+aBOT3NigeHjZBTCRk0GoIbFapMDTAKmMd/TGDOMwKLlK+yLOeYDrPPNLMx1RX+XwT53UhsQ/xEGnTGbJY1P/ECqKZuHVvK3Ut6PzLjb2yFqqys5jimjDU7Ck66wyjb6rpUjbT/pHRrMkbSUv6yGV9IXzaH0e0tRVr8PBwUuBeLuHt8bQJU7YuOk4zF7b2JosPnuAtBYJUUnrCaIlJ6OLToGV47sOEEbD8AAa5fxMz9HyBg+FkwAQtiB0haMhMENh8QSOEoxwTN1TJH03a4CXm8OiUDjhqv9c7CYdo3NlkYcWkOJKEfZHcAZP/RXia9KUuObAYAph0YoQXk05uMwlM09adxzB9naLvWyf8vcU4Czu78HmCgzAC0HjQC6phJ2SCPQdekUed7AEDRmxb/zTXWmHYkujZyahaHH+ApwHaKhbKjxTiDPUIrqO/QrBUkUq5+HgAKXAvHGjVeFGSeoXW6kewLDZmwO4gAlmEydysFfjCkw7UQweijdkFZdpo25HYafs5a91pGKm6hvmvd5uTApD2S+TFUilBMClHRzzPz2z445DpnDOnAzNT6MMmX8bZ0FyJswvJ82y8GmvEN3BlD8cDh9bIBq696hAkHJozX0mPHJw8ku4Ntj+AKAkvOjY6QZGwGrsp4g1VVpA1zy4i5sT/Lxk1e88lVRN8viXSQm5Vpj20YbgUxQINk1Zgs5Y2hO3orURlpTDsuihbms2GdHNMZHD6GngHQDrQJE+81KRYFYQEyUK/eQUOBSIN68+USYagZDTp05g0RUZYNb/cepSNKqAybXjAlEWBkrJcBDGnWZ4OxAuuv8ZEjH2wShE6NVJWVQ5F/6TDKlUsONoZwYPWcFxyHS6mC8zya9JKk0ZKGwDHvFHdr4Oq8fIN3mW4PbbvzLbmxkJUBUWo3YnnDIobR1u/xjxgn32ZF7lx3Zdg5Eqwtwkd4A8Ci7drv1oZMOyJ+qLOVzoH+X9YqveNUTUTudWaQq7AdMTbvZnGUxsRsaKxnd7VyVuCykttyuPHFhNMBFenutVmHD4ifb/DRckYqloSiWYNKXtCv30FDgUiCClzhHlTJbBkYrA/X2vQAW/rb+6dcAHMHjXEq/KLTeQ13DwuJCWzf9dS8bcBZDj1JLVdJV8HKdEuIw2867WzaqIUCcMX7XQ3p2xrwHA5+w1cW0txYgbrBL25oGlnUmnjMm0aO/12OaDhDI3xBpuMaDtQHGF3w0Gvkptn4G51lpztQ05Dd5c96re9awBIrDCex+eg1xTnH5uhA7zfkdw6tYdF21r6qpgWgNgLlthm2RjQowSiPktvQuAfOT4I4n2riMAagzU9aH5AeDkC2YH5xR8KnCxnBFuBhIaAAc9A9RPK3cQ0GBS4HoF27hEJivGEoEjeCJymWfDEDFOoiUEoRMzMxsFDdY8gtD3rgMSgZ0XSKdyRh5nDqWeIhD448f8twhuiMmiHYBicfMGSjMZpkKSiTOtMvHW8ixDO43LYYAqDNgKKPrwmKSAuVuSegx4NnI8UJUSGDddNmPz/6cc0wFoVbSGdvu9chvD7/N0RZDE3yMdMiHRtcw3KDlbrB0y/G9SGri9/sUDjeQYUBarMXuR6MV2XmpWoNtrFSFc5aFFKzcH1+fIh3Z8HhjGwnMx1IZpnnyhh8vbT9FjnHHHdKdvZNPuxHFyj08FLgUiF22zJebxJR9NtU8PzPmnEn7RmFMmFD54m5g7n3ootchkqUH48l8a6hx6/Thojq6bsjBa/4yaRrAuk2Ei4zdyqJ/JNIRFUPUUIHICnnnZc5Ib0acLmHQsOFwRIYkzJNARCb1iMedt7vuhsawxGiN7RLZbLjL0qPMk0WCy+jrzF6ZzbWUApzMsj5pttbY33RoHtdpNPi2hcMnyjtU3GI8Yadpdvx2m8YTVXTEmdssWn4npqtuazEGpmIvZ/t6PrMh67Lc69rVR0iTfXCYCODXj5/cofHZRe3mk2NqBH0anBF7so74xJ1YXrmHhwKXAxGwqTK5elyDDJcBkX0w+4BKSgWjk7VnfNnIb0Xs8CVXvwq1sVEMJnMZlf4QHAgTw5waagCjn8Pe3NxAQrE7N6pmt3+t2WLrw5MOZv0Owx4zLJm856sdGL7n8iH2wZHVVYgd+FbylLmwAtJr+rLkbeaObaiHHdRVt8dY517DjUaYDJgD4MBFXZnDb9pvb14LEA2XlfWU1K8EX+UT3bzW7KFeH2I9PdzHGDXmAG6ZApZ+IQ3LjIZCq2oIAr0ApnNPBe0G/Um/e2gfUzqOaUwc5rlJ5/cGH+H0+4iq5CNoNmKHvFhbHx4+fOhLeikQ8x08eF8AalWHt2Bw5Bl9QAz3CAyMF7T2btWu+X93b9I8/qpdDBkOA2CsQDXVUHLS5auvjFMcMr7orBVXGjzyCBLi0Uf5hPU2zMf8zyv0n1AVD074zDXHnt+gJxbXJ8r2pE6aqJ8CMHKnQDJfE4o05ilAPFHqIAVnXLMGCcmMyoc09QOqWlOLaq2qaqNSQK36LBiH9CudZhYVgEZGib61tU2RsZQCsJsOf/gNeY05HKbtrJ0O8XdR4/12RZ++oGcNLy4NE5BXr14BjBv4O4ke4xRFOGRq3w6fI3/8JrOKbt5MH3eIIcl+K1hduYeIApcDUR0JhpP14Sv6QqhZSDO3mgdmSEMUPa0lSJ3p7GazDxBvPLHLK4ypoZLOkCLCyMWlEwwUuzf3mps3dzMNTInk1oXb20V1vXJ9C8MLzM6E6B7zOU/2GLJgXma+p4ElU0nWRZJlx22ldKSbKi1ZRCqzUhkmF6oaTxmAB4hz/KLR0lgMOwxxACynsvntRAHpeKPrJh1vFKxu/ShCgVkO/TY3NOggJUlvcrjLWCZNAnmpktjlUAMmjw/XUW3X/WwbB2eHIsb0/ZxZtO5QC1KxX4EIHQ/RDvxC1pMYgl755E0aNdZkYh2WnCsgQoOHyF0KRMfWdFlRgERzTd4JlsGuWwoCvhGSQqmRHdAwpiB74ODC4FoVNdmrRip7BvQDmzlSQUYH1NcfudJc4duFqqexgmJdVT3rOynaV0yvoArwu8O2M17sY/qIPpqRAIiMzwGq0m/ES2nFM79d6IwWlxz16Ts67rdOP7BMAFBVBfAAUWNK5qpybb/QIQx3mPNwXqpxOakhHybNMIcD8YfQxIXLWF6ZrzpC9XWDLL+YvEWZNrZRZ4ktS6KQiOWTcUw6cEyRvKjuS1NV17H9S840Ze1E8pCLn5V7WChwORAZfNZlwjaSMJsEMxfTEThuwlhYVmBqj7UMATgMoNTZgPE3kRRRAZUg/G0Duskj9tP6zSPXrrEC4jrDA1sMRbipr1PaZHrUXJjUiePZnMkvFrO1hEMSfuAzy69cPMzhwIHGHmAXbTJT32ggIsUBzwmTAQSjKrabByul15BuZSaOQxSAsFVQEWBiP5PWD5mCt69xBrClISGNPT6geHDIt+5RTY/4OrArM9xJQAPV+hzNALV6DYm+tUW/8tqV9BVTDiJWaqcBAtSqshAPmjo5gYPnahuQKBtQcSLNlXuYKHApEJ2gDM/wL/MoOVxDh27GuJgCaQRIOvTH/ApuP0CRyf0Mmh8GlfH1R/XT0gpABCBmUfzse21yMGzANvcZxCdMNiuCMbPECDP/XBAyk8ZdUTeRZlvr9uMYU2Rq2rT93uAEoDlVTRBnjBPki0VFp3vlCFQtvA6qqyIupsS5xjJlYgICZXGKmUutvHYlhQP5rrrwwzEeh4cC0Bk4h5kSN2aywQQJaR90xifnVJtHWD41PCnp3aTYuFyuk4XM5MU+oxJRcOeDOQTIkinCOGVQq6qNgTRfuYeHApcC8erV66FG1hTCVJ7DXGpsGGzQtHCRj/T3Os316wygz64i7fhc9rYfCgV0jAFmGRKBu6ivPaUnQPQ7GR6qbVkZQUzZDc14UfVGSNit0RW0WZQ2tl68AmivYjgx/BjVMICYOKncg/mj/NlfcxraiPHADYYkNte2AQZgJx0nFmSGDyqpfcOIKc4aT1QVy+LjYgnNBGzKq7Q070SL9CPfqNoup7JPyhuRys6UOXbKGl8H9rNuY65PnIigqpuDWEyPBkKp6NjjQDWbw4/aZK9VoRnaorJCW6Xjyj08FLgUiI899qK0zmUIQ3UKgwX9GadlOdVswAzuDsMN6JCAbt684DH6e2uPwPzt57IZE/MrR0oH9wztqVoCMCcKuGJCUCmtVN0UYm5DodVyiIRd7zOFjHG1Yc9xvU5zbXu7ucrKelXYg6M91EQOVMRD54r2GOrgr6TjlDKGRtav5NjewGKpEcWJ4aTppO0idKrosXeGSoqIL3M9VaKRWgFOGddboxw2OAcHNBxI+R6fsOZbYYDXfh5AZNhmn0kJGxvkaeugOeRwMoB952y4ZYyULRMBKK8W2DXKMeLwy8MCNAq2pmnnC65004cHhZT0UiA+cu3REKSoVrA6FkCX+LiC3aVNzkph3kjCuInwo4/5cVBbe2bUAD4nQQ+URIBgoFmfuZ/9/jpSy7E6QQfPLZhOZkVioL4Ou2xKzFDgEKBvuTkx1sxrV7aaRziUUHv7N5td4nDiQJmehrqKhMqnzUhrRF9wEwBWMG4ATGf2aB0t0lCJzkHawq4uOtbCab/NhkcFUgk7cjEwRpg530xcQ40e0e89PCxzZ9XYNeiocioNDx2cz8EQDZI9jRDSDewHW8bpvq5Kw0wStzHiWqMRTZrIhsY2ECv3MFHgUiBqHdQVw4JMqiVS3YlhAfcktetIW66BRVCuM63MWTCuhIhxBeYXgFpWM74mAJmD6kyT8hEb3y+MJ/MjKACvY3qY8dsJ2/KngNhypYWD4qTpin+ts0rYtbWjZlPVFH1OwPZoAIYYitZGm6ikmzB8mdXjZG1B6KHKKNRq/8xGxSlsjnOqZp4g5exnKq2UWhp45jM+ZIpqPDm+7puRYsVazFS69W3AuklZCUd/0onk0wPyyLigablJsRPDVcG19tqXvLJJX3KL4RstrUj+I/uopOkkgZV7uChwKRAP9ndgeFppLZCAMOZ8aAR7hanqUIFSJcMHMBjwAERYQQGSABwwMBYgcp+9UVE9VQ+NFxEYps4l18a8xhCGU+s22CE8fSxVRABRVVl4lfFJJakSZ53hBhoHDqVbVj4oYWwIbARMH+BryXW2TB2qyD44JJfd22hYjlnQ6xS2HWa5OIUtu7+RH7d4VHoJIgZrmsk2fdbMUbXfqNpNvABN0K8B+pHfkCS/UVeJx6EJGy4NRZt8BNUhlAARYLqCJAeA3Garji4D/Mxh4HsaUHMFxocKiZcC8ehgF4hpQJChHFdT6qA6InUEhhZJD36i9vnlp6xgAIhKtAFzNwVin2v7hWUOp3oaqEEyGHcQJLqIQ2nnZG34mzCa/B13Q5L4oHVOU0Mu4o9BhwairNonuEEI5/hmAOm73Ct9gXErCVEOCRjrL+kJRPeYcZX9AcaWvd1dpO0EKYhaDfgc9M/HSSlrH3V5hsGoTCywsTAPAhSwIsU1ECn9TV8DjissDtihwKGQDfrMrlCxjI5JDpnzurXpF4qRhkjETWb9uGh57l4/DA/ZJK3cw0OBS4Fo610MNZjZufbIQPoZVpFtCutoVMkBMyoZCtN7tnfEWXTlGmbzLGMun1va13hi7AiYChDTd0P0+Tx9PbyVhEZL9PEXjFlpEcCVNEt8Rm4Oyl/ybDsQcGg1LcBUza4SKVGXLC/SjDqKDp28cTY2gW+aNR0bGOMRfKr12SSK60W8yb9lOHvkfbNJnCv38FAAHMB9K7eiwIoC940CNL5R5u5bBlYJryiwokChQNH3VtRYUWBFgftKgRUQ7yv5V4mvKFAosALiihNWFHgAKLAC4gNQCassrCiwAuKKB1YUeAAosALiA1AJqyysKPD/A5b7geUD6/mTAAAAAElFTkSuQmCC;" parent="WIyWlLk6GJQsqaUBKTNV-1" vertex="1">
          <mxGeometry x="764.5" y="790" width="226" height="130" as="geometry" />
        </mxCell>
        <mxCell id="P1XNbqa9C-Slw2ICITby-39" value="" style="shape=image;verticalLabelPosition=bottom;labelBackgroundColor=default;verticalAlign=top;aspect=fixed;imageAspect=0;image=data:image/png,iVBORw0KGgoAAAANSUhEUgAAAG4AAACBCAIAAACuKxj7AAAKtWlDQ1BJQ0MgUHJvZmlsZQAASImVlwdQk9kWx+/3pTdKEiIgJfQmSCeAlNBDDb2ISkgCBEKMCUFF7Cyu4FpQEQFlRVdFFKw0OxYsLIoN+4IsIspzsWBD5X3AEHw7782bPTP3u7/vzLn/e86d72ZOAKDo8KRSMawGQLYkRxYV6MNMSExi4voBGmAAFbgDBo8vl7K53FCA2OT8g0EAfLg39gTgtvWYFvhnpi4QyvmIDBfhVIGcn43wcWR84EtlOQCgDiJ+o4U50jG+iTBdhiSI8J9jnD7Bn8Y4dZzR5PGYmChfhJkA4Mk8niwdAPIMxM/M5acjOuSxGmwlApEE4XyEPbOz5wsQPoWwORIjRXhMn5X6g076f2imKjV5vHQlT9Qybng/kVwq5i3+h8fx/y1brJjcwxQZ5AxZUBQy6yFndj9rfoiSJanhEZMsEozHj3OGIih2kvly36RJFvD8QpRrxeGhk5wmCuAodXI4MZMslPtHT7JsfpRyrzSZL3uSebKpfRVZsUp/hpCj1M/LiImf5FxRXPgky7OiQ6ZifJV+mSJKmb9QEugztW+AsvZs+Q/1ijjKtTkZMUHK2nlT+Qsl7ClNeYIyN4HQz38qJlYZL83xUe4lFXOV8UJxoNIvz41Wrs1BPsiptVzlGWbygrmTDKKBCAiAEPABD8gAE/gh73IgBWLkHfmMcoSLcsaK8p0vXSwTpWfkMNnIbRMyORK+zQymva29AwBjd3fi03gXOX4nIUb7lG/1HwB4nB0dHT055Qs+C8ARFwCIzVM+cxZyLUkAXGnmK2S5Ez702AMDiEAV0IEWkrERMAfWwB44I78R3sAfBIMIEAMSwVwk/wyQjVSwEOSDlaAQFIONYCsoB1VgN9gPDoGjoBGcAufBZXAd3AR3wSPQDfrAKzAEPoARCIJwEAWiQVqQPmQCWUH2EAvyhPyhUCgKSoRSoHRIAimgfGg1VAyVQOXQLqgGOgI1Q+ehq1An9ADqgQagt9AXGAWTYTqsC5vCM2EWzIZD4Bh4DpwOL4Dz4AJ4PVwGV8MH4Qb4PHwdvgt3w6/gYRRAkVAMlAHKGsVC+aIiUEmoNJQMtQxVhCpFVaPqUC2oNtRtVDdqEPUZjUXT0Ey0NdodHYSORfPRC9DL0OvQ5ej96Ab0RfRtdA96CP0dQ8HoYKwwbhgOJgGTjlmIKcSUYvZiTmAuYe5i+jAfsFgsA2uGdcEGYROxmdgl2HXYHdh67DlsJ7YXO4zD4bRwVjgPXASOh8vBFeK24w7izuJu4fpwn/AkvD7eHh+AT8JL8KvwpfgD+DP4W/h+/AhBjWBCcCNEEASExYQNhD2EFsINQh9hhKhONCN6EGOImcSVxDJiHfES8THxHYlEMiS5kiJJItIKUhnpMOkKqYf0mUwlW5J9yclkBXk9eR/5HPkB+R2FQjGleFOSKDmU9ZQaygXKU8onFZqKjQpHRaCyXKVCpUHllsprVYKqiSpbda5qnmqp6jHVG6qDagQ1UzVfNZ7aMrUKtWa1LrVhdZq6nXqEerb6OvUD6lfVX1BxVFOqP1VALaDupl6g9tJQNCOaL41PW03bQ7tE66Nj6WZ0Dj2TXkw/RO+gD2lQNRw14jQWaVRonNboZqAYpgwOQ8zYwDjKuMf4Mk13GnuacNraaXXTbk37qDld01tTqFmkWa95V/OLFlPLXytLa5NWo9YTbbS2pXak9kLtndqXtAen06e7T+dPL5p+dPpDHVjHUidKZ4nObp12nWFdPd1AXanudt0LuoN6DD1vvUy9LXpn9Ab0afqe+iL9Lfpn9V8yNZhspphZxrzIHDLQMQgyUBjsMugwGDE0M4w1XGVYb/jEiGjEMkoz2mLUajRkrG8cZpxvXGv80IRgwjLJMNlm0mby0dTMNN50jWmj6QszTTOOWZ5Zrdljc4q5l/kC82rzOxZYC5ZFlsUOi5uWsKWTZYZlheUNK9jK2UpktcOqcwZmhusMyYzqGV3WZGu2da51rXWPDcMm1GaVTaPN65nGM5NmbprZNvO7rZOt2HaP7SM7ql2w3Sq7Fru39pb2fPsK+zsOFIcAh+UOTQ5vHK0chY47He870ZzCnNY4tTp9c3ZxljnXOQ+4GLukuFS6dLHoLC5rHeuKK8bVx3W56ynXz27ObjluR93+crd2z3I/4P5iltks4aw9s3o9DD14Hrs8uj2Znimev3p2exl48byqvZ55G3kLvPd697Mt2Jnsg+zXPrY+Mp8TPh993XyX+p7zQ/kF+hX5dfhT/WP9y/2fBhgGpAfUBgwFOgUuCTwXhAkKCdoU1MXR5fA5NZyhYJfgpcEXQ8gh0SHlIc9CLUNloS1hcFhw2Oawx+Em4ZLwxggQwYnYHPGEa8ZdwD0ZiY3kRlZEPo+yi8qPaoumRc+LPhD9IcYnZkPMo1jzWEVsa5xqXHJcTdzHeL/4kvjuhJkJSxOuJ2onihKbknBJcUl7k4Zn+8/eOrsv2Sm5MPneHLM5i+Zcnas9Vzz39DzVebx5x1IwKfEpB1K+8iJ41bzhVE5qZeoQ35e/jf9K4C3YIhgQeghLhP1pHmklaS/SPdI3pw9keGWUZgyKfEXlojeZQZlVmR+zIrL2ZY2K48X12fjslOxmCVWSJbk4X2/+ovmdUitpobR7gduCrQuGZCGyvXJIPkfelENHmqR2hbniJ0VPrmduRe6nhXELjy1SXyRZ1L7YcvHaxf15AXm/LUEv4S9pzTfIX5nfs5S9dNcyaFnqstblRssLlvetCFyxfyVxZdbK31fZripZ9X51/OqWAt2CFQW9PwX+VFuoUigr7FrjvqbqZ/TPop871jqs3b72e5Gg6FqxbXFp8dd1/HXXfrH7peyX0fVp6zs2OG/YuRG7UbLx3iavTftL1EvySno3h21u2MLcUrTl/dZ5W6+WOpZWbSNuU2zrLgsta9puvH3j9q/lGeV3K3wq6it1KtdWftwh2HFrp/fOuirdquKqL7+Kfr2/K3BXQ7Vpdelu7O7c3c/3xO1p+431W81e7b3Fe7/tk+zr3h+1/2KNS03NAZ0DG2rhWkXtwMHkgzcP+R1qqrOu21XPqC8+DA4rDr88knLk3tGQo63HWMfqjpscrzxBO1HUADUsbhhqzGjsbkps6mwObm5tcW85cdLm5L5TBqcqTmuc3nCGeKbgzOjZvLPD56TnBs+nn+9tndf66ELChTsXIy92XAq5dOVywOULbey2s1c8rpy66na1+RrrWuN15+sN7U7tJ353+v1Eh3NHww2XG003XW+2dM7qPHPL69b52363L9/h3Ll+N/xu573Ye/e7kru67wvuv3ggfvDmYe7DkUcrHmMeFz1Re1L6VOdp9R8Wf9R3O3ef7vHraX8W/exRL7/31Z/yP7/2FTynPC/t1++veWH/4tRAwMDNl7Nf9r2SvhoZLPyX+r8qX5u/Pv6X91/tQwlDfW9kb0bfrnun9W7fe8f3rcPc4acfsj+MfCz6pPVp/2fW57Yv8V/6RxZ+xX0t+2bxreV7yPfHo9mjo1KejDfeCqCQAaelAfB2HwCURABoSF9OnD3RW48bNPF/YJzA/+KJ/nvcnAGoowMQOYh0N10AHN6DtLaIvmoyAFwKADGuAHZwUI7JPni8ZweAx5OKRVwewhhX8F9sop//Ie+/z2BM1RH8ff43KCcNnL22mq0AAAA4ZVhJZk1NACoAAAAIAAGHaQAEAAAAAQAAABoAAAAAAAKgAgAEAAAAAQAAAG6gAwAEAAAAAQAAAIEAAAAA3mtrjQAAQABJREFUeAHtnWmoZelZ79c87eEMVV1tdydpJCbxRnKNiojjFxURxw9+cQiCiqgQEgkiCRhCFEcUBxT0g4gTCH5yQAVncURBBZNoNGbq9FTDOXta81r393/evXefqtq7tS9dfcFbq9bZe+213vUO//eZ36H8cRy9h8fLgUDwcmTyMA8h8BDKl40OHkL5EMqXDYGXLaOHVPkQypcNgZcto4dU+T8UymEY6rp+2Rr3ymb0SlDlz/zMz7zhDW/4j//4j7e97W2f+Zmf+Tmf8zk/8AM/sIeMR+9973t/67d+6yu+4ive9KY3/cVf/AUIvO997/u2b/s2En/GZ3zGN3/zN//jP/6jg+Wv//qvP/VTP/Wnfuqn9ij99m//Njn8+q//One+6Zu+6au/+qv3j9zFl33Zl33rt37rPTcfxM9XAkpX77e//e3A9453vOOLvuiLfuVXfuX7vu/79u35m7/5mx/6oR/68i//8ne9611PPPHEBz/4wW/8xm/8wAc+AJrf+Z3f+fGPf/wtb3nLP/3TP5H+cz/3c7/hG77hF37hF/7lX/6Fn8899xy98nmf93lf//Vfz8+v+Zqv+dd//dd/+7d/2+f8z//8zx/+8Ie/6qu+an/nAV7gOD7o46d/+qdf//rXf8d3fMe+oPe85z3cef/7388dLiA04Ns//a7v+q5P+7RP++hHP+ruPPvss9Am4Lqfm83mS7/0SyFhOubbv/3bodynnnrKPVosFtD1j/3Yj+2z+v7v//43v/nN6/V6f+fBXbxyVAkWe4qAE7n+8z//c3fnsz/7sz/lUz7FXfd9/5d/+Zdf8iVf8upXv9rduXHjxld+5Vf+wz/8w2q14k6e55Aw4oIM//RP//Sd73zn448/7lLOZrMv/uIv/t3f/V3w4g5Z/d7v/R53iqJwCR7o5ysH5ZNPPrlvyWte85ogCOBcd+dVr3rV/tHt27fLsvzkT/7k/R0uXvva16KRnn76aXfzsz7rs+BomPcLvuALvu7rvu5qyq/92q/9xCc+8fd///fc/Ku/+qubN2/C9VcTPLjrVw7Kq23wff/qzyzLrv78L6+bpvm7v/s7kn3sYx8D96vpAff69esoMW7y+cgjjyBJryZ4cNevHJQf+chH9s3gGiq7Soz7R+fn57Dwf/7nf+7vcPGhD30IKn7sscfcTYQvDP693/u90PWP//iPX00ZhiHS4A/+4A8uLy//8A//EJHKnasJHtz1Kwflr/3ar+2b8au/+qtco8r3d/YXtPzzP//z/+iP/mjP/jDp7/zO78DU0+mUZKjyX/zFX8RC+pZv+RasHLJyFLrPAY4Gx3e/+90oqPtto32yl/0ietlzPJYh0KDEv/ALvxAjEdaDdlDcBxNjNiHmMHo4QPY3fuM34Ojv+Z7vITFaG2JE7H73d383P9/61rf+yZ/8CZoH63KvW974xjdiFfz+7/8+EhZL4GARD+LmK0eVP/mTP5kkCfz4Z3/2Z2jwH/zBHzzWnte97nWQMJ8///M//7M/+7Mo6F/+5V/+9E//dNL/xE/8BEbSj/zIj6Rpyk8y/OEf/uFnnnnmR3/0R6/m5lTNK6ZwtkU/ODtrn7OzK2/durW/86AvfumXfgkXaG9vPujiXP6vHFVepZoHek3DfvM3fxNbdW9vPtDi9pm/crJyX+SDu0DP/PEf//Hf/u3f4jv+3M/93IMr6GDO/6OgxLzHx5/P5+g3nJyDDX5wN33Y4cHl/v9Vzv8DZeX/q/57COXLhvxhWVnMcpUQBJ7vR0l647FPeuzxJ67fuDEEXeM1TV+tSwJX67pqkniexSeTySOPPfG6J179hmuPvsaP8zFKxyAeER7eMHoSIP7o4XXr9LcX3HSSZfTvupBhceWRe+aTyF6wL10qI5KZdKKI3cX2jqW4+2NbAQrbCjS9RbWCIfTHyO9Cr9tc3FzcfOby+aef+eiHnvrwvz/zsQ9V5abvOs6RdgyDq0xb3eX174s5DGXgwg1qtyIP+hIQDhRr6QvNVTNGihqHwU4ApIYCjMM+9fPK4Z64h+4Jd+65uJL8v3X5X+dAGwxNNUOF8adTh9db/ftheOG0O/+toveJDkN5nokqB5/T9+Moj4I08CPqMg5t349973W91w+cg9/1fts1dVWXm3KdbdZxHkRhFPrK2UWAfL0oVHXypwvd2R52x93lM6BQS8lzJbZkrjO2WOze43tHrLoSlenWLuP78nevqyIu4dCrNUPLeFI3VF5XrS+fX10+u7p8rlxftPVmGCBGSEQZWUV2tblSgauXh6G8XhRk0Hkj5xiGkyjKQj/meuj9vvPazus6H0B76L7rh7oJq6parzeLZLPIwyhP81DkbJVQBUTYruHIZl06mNRwPVQ6u+MuAvtyMJFaEFgr9shus7C3rKWGqQORUt2tXbaWyt7g/VF/KlFFdENf9V05tOuhWQ31cnn53PLimcXFM+vVrbpeD32nrJRUVVbpHK6KdnnPx2EoHzEom3Hg7AN/CmEGfgJNjkPYIzC7gM9+DEFSlNl2bVVXm025SjbLIC2SoRWOSFr7R/muAlsQqZbjtR2UWzK0x3y4xPq0H3y49HzuW+SasUspbFyWhqMy2gLq0unGNl9eMXxgLaiy7tt1W1505UVT3lleCMrl5bPl+rJtoEoxPu9ZLSyHF/04DOUNg7L1RgdlkabTIMwg0MHzdQYBtOqHSQCDc2MIxjYY66Er+34zjlUQdFHEk23J9KyrkajCWs+T/QU3INU9baqp9qIlVDtICddzcOGy3PbMrmFKuX/FOF1P9hfuHVIoXxULyhyIpw6u60FzU28uy+XtcnWnLhdtve67mudB4BMk7QWo0aY+d0Ue+j4C5WRC4nYcW3/sfD9J0ywM40FQBmMQjmHsgWNUhWM7+p3UdBsMjTeUw1D6Xh0GXRj1PghYo5G5NMI1jUs1bUtCW2jshuBQO62W+rSf1nq9Igy2MmOLtSXcfuxAdq8rrXJyfbInUFeyAAHHMYAiaN/QDM0GBDeC8qIul11TDn1L4cT3+l7KwpCn+rznane15BeuD0N5Pc94qXPiMgjCJI58ih4DoelHWDp+mAZRGniN51WoQH9IvCaEHvsyGKvQb2K/o1OtZT6gclotBCNXkpjWevfpqiM5ZlBu67t9xaXcd4CleaFJlqHLdJd++/qeKgUo9xy+vmwNih5GJL0/IPHrvimbcgmO1WbRVOu2qZCSKF1IkiaQTOCbVNgX5ip8z+dhKFHWvI2sQ3vEYrEx6DuqikZDJ0RGkm0EKQbNODb+2IdhEvqpPxRjM+2qvN6k1coPwD8cg4BK9U4qqHCRaABsynarT7h7lamvXusFS+le1SeHNc5d6FNNVLYc1HsLpaDTLSHnnum5XsXmkULt27Gtu7rq66qr665pugahjxWJFIWtsSPvUt+qhuVw7OMwlKDGa7wMlEbiAyqbvNPRC0cv8cMuGAcfNg46JACVi6IoBvQhHbppWxXVKk0SP0r9KEYY9FEI1iYuwZCawDN2qlJb1rT2q9E6d1V2FzTBUZQQsXS6obRXILr7FZfq7sTbHhGxIpGAqm/7tukbQKx6cGyFo9njUt2mchxnk946nk8VefQ4DGUg244DU91IwrqSceVRlBaqJT6QGrn5aJ5hCMMo4FYf93XebNLNMg5CP8m8JPXiNBzjfoyGEMEQWhehtchXCn57GESASq0dCrpwT/kU8V5Jyo0toTkKtDcsgV7ZU+Uu911i+23mOF0/ir/ROlAiUBoxYl9iHXWjTogSZXqFKlUDx0O7Kt//fRjKXS/w7WhCNXWNFJs7lWqtQ5+b6PNkITV1tF4HXuhRz6ry0gyFBZpjnPgJWgo6lbryw8j3Q5CH/fFNfWwB5LBVFSzkoUE2dgpQkYRhfHfddZ87L4Bv6Sy91XNf3221lVZ/4jJElfpO4gryADJoPPL8BH4bhqjH3gNK43Iw1ztUcpfp3bW469dhKEWOFCei1CFX0OpmH+TKr3FvbCs/yBWjvarCHkz7oWq6dOUz/AJhpimA+mkWJGkQu88UNIMwDqLIj5PAi70gMjL1Eak9ug6agXxkdxmUaraVYQiouF1lHHTqZzskLNQlHHbLrlzNdcvSoQCBTo/lVctxw0QeqYOP9EoGL+mHeItkJ1mpHNGfOl4gePt578dhKFUqf7tj/5K1SPUgbztViKu+nB80UDfgC41V3ccrcTcgJmkIjhkUmnMRpnmQZEIwSgJIdcQKyDD/MT08DwMqQHeSvztBkxLVbPqKr90PdaUhpmR6bJjpy/3Q5z6N0LAEllL00YMN3zrUo2GURXERJ3WUtGGIc8GsRIQlDC8pBwakg01MUFDQtiwVcfdxGErloMrr3/7dbR7bXqcIFeMaqvaSXqwCVWHaw59wTud3jd9WflP5deLH6ZikA3QKv8fxYFCGzMtIEakAzc0E49Wjd8RRGF0ByLpa0H5VW8KFiy2LWNHbOroKuKZZPV299ZZoSd+GJN8EE6LQG2ImLvTzk5CeTJNJns8mkyxOsZqHBuUuD66rW0suk2iUZ+LQVF4Hj8NQvoCQ+l/I0Cc7KC0fMjQst+3hnh5TbexxOe7CEfexC/02DBCOYSxBGQnBMY49ziiGKscsG7M85BTl5kGcmjCNUWOosgHGV6CPlogHVA2d6swtlapuNNK4etux3DIEqZ5V2QFJ5fScTyQT0jmJi3EShUGeZ9PppJ7Ny/VpEsZj1zebsm9aPGHxNVagiFJFAy9vWxXI5sDxYlBuASWbew7huDv3ipgGKCWaT1dQTiCqFHtIyQQ6R8gBdCKdXhwJU0eVeRFkhZcXHuwfY0IhVWH5WCnR+zp50VwtGWPCUYA6ZIQyvxzROUyphllLhqaSuaS6Tb/4HhAGHiZHkkZFkddZWiVplsT1er24fTvhLqIcC0SplbFRpSSsIaFSDx5HoHQdaHDxmkBS577QwS4vst5lrFL5xQfIOXWl/rR6cJf+lZ+BOFV9+MJKRdE3QU8ouRzrTQ+bb6TxCRt7RI7jBDlgJ+QsgTBGcRigoExHofrBV06swoAq1sBSrfhl14agQHdF2hN7TrXoZXQy71KjYGjLHr97vbhYLe7wWS4XRHyxkOSPcGBnmFGMqyGWA4Qjx38FpV501dxXVplZpws97lpT1Hu6tG8VbzXGzNkjy2PqIptOXiRQBnInW9hNHAfjDyYBEKlAKXmKxneKC0tAZgDKCoLNPBlVCUVhpQ4QqaQqROpaqKpREPXaaxv3QLe2EEjj6CdqhfCW5xFiqzfAeHNx+9by8vZqcUG8sG1q9DfCRWwFPxmnY0Fv8zj0dQzKXVojatXNVDa1UWX3D/fXqr5OdzhilN2ok4MH1na1UId6QCJOuenklwhNcRLBJDJEv0ObqZ+lyFOfM82xAYIk92MZAz7uCOiP8SDXVJa/SU/Vwx0uW3LnkcrgMNayyqhOdIAF0QYihOV6ISgvgPJis1rWFXFMQnAeJrKS2kEDVGGXlSvj7s/DUO46WS9TA9Vvf6WLHYTkqwJcUZZMtRbJqkv55hQFKJnVATnKt1pt2OoVlWV39c1DrGLF54kut2NUe2081rFXxthVWFGDLFODMi7Mm8qkqRAF8ltj6SjH3y5Ly5rC9e0qYTVRCzA1+o7IRVkuV4vLizu3bt96/vLO7c1q1da14Uj9lc5sTznlapL+LKdDH4ehRHeQGPLmRXBSBezDALB+Fgg6hIiBua2t1Vs+AsUKMk5eddjRJzwgZ1XHve8A5SeVxDwXwQYY6Lj8rRc2QDPWKKtgjFETsbwmKFG0WfipziCb+Dq5yKUnAkVJVaorg4JERypOB0VyqfrqeTPgNG6gweXlnYvbN2/dfB5EN+tVUzd4yFJP0uByHy38AJGqevvMXJZXPw9DiVOnUl1vitCBw8DknsNAVdqiscdaNSSBKEIN4Ft5WL254xooWHd5mMRSP1hzVRg1x9GRUOUmxjqETeQQ4z0kfBigeTwMT4xTSDKdBOlkLEq/rdEcPAyTiIyHrejc1t2qY/CpZrsLV70eiwfWXq5Xi9VS52aDiGxBjHwkIoUCfUyUzXCUbBWFHTsOQ5kWOc3riTg1xErQDkJCbVZ99OmupZ/tQMdYAcJtC7kDc4umbgpNJdpmwpeQ3z/Qa3pk912wGPANX9JJsOI8kz/aH1+PcbrWa+uhrce6lCVARTDy0WAuDxMurgTuqEutKAcwmcKuyMiGob3NSpIR5wJTNk7jdEhbaXarCK0RV4syuWWnMjpyHIYyY0CCgY+qIupEuEStNNRk6RiBUUtTzgYkD4WIlW7F7H+oKvIw1c00iX/mtgjwXXKCsPbEfSipslAOTjjw6e5wQ0EoXJEOFAZfIA51OVY5nlUEjpMiSGKrVSRytm5w2JGdWqBcuQ8kAtNBWQIlsV6IPoqjNE0IGhLOkM5x6EFInWHISzq33aI63nscgXLCQA4Hvd5YU6iGiJ63HZKq1+7knlhCOVuj+Sl09InSUQ3sRR6DI+TFp3Dagaa0L/zTa0LX+kXWqF1Ie/Gm8CA/RTw8T7LOa1ssGfyicTrzcE8xTjEC8eitNqqRxIqrlRVpotpgRpKILNE7TCmm0JCIa5KNTC0YImKXNpOAERnxh6oq8NWUXRuV9z3HYShzoNSbhJSxVG1uwvY9NVoV1KfUMamUvQjXnhgRbhvCcxQfaAIepAmliLb19jYzg9AQ0r0tbSOOSOx6g3TkrtLkulmD7H3y4TXyRlN1rd82I5RVbTBFcbCpFAJH6beHFUePqQiYVR6C0CSQ1iEvCVvwDOc2wcPCccAZwpLE/ea5qmT8aFyl+u/6ZZf3le/DUBbTTPSNR9pbRBSCV9nks6uhvvVbul7/KMRh4gSNJAF+ieFHMmpuzKXWOHEmVF2wy95UD+kh/4yO1TtGArqtoSSgMYVq5XNTQpo8qSOGPlAyqFBu8Dsjgk/SkxRofOTS86neFKbcphUK9dBCaE+6ALWPpARKqsBYNVSP2ToEbUuXEFWhqlwQPlR51i9XAHzh8jCUcYyXxEzvMEnjvk0oz5QY96xqVFTf/ALfXZ8z576qVqv1JxYl0gXLfJbEarA1SUaaUPGnaXKSpxGhSuhAnm5IoGuDfmN0E6FVVlKZ6rdxUYteeAsaef1jjz5yfqIOc8QlUHgC78lf8akebF5txrrw2yJgkNTDraQHlUTw7U/dpdoEJDvYG7unKuumYcaJzB/Rnw2oindMQqmVetmqblGVFyHLw1C2LcPZMG+r4EPKiLei93Cr8qRzVT2rI19Gbu5n25SsnOuJE8DUnrcw08HVRqmMce/UzVOLFRlIGbmcaMIuQ76tt7ZdpmQ87Mf3f+JZXn/kbK422bklMeQJvxnCaypvsyJeFxRF1Db0lFlFOCu0QyWJQazO6CxNy2H62GrFmsiLO5eLxbIs67qssIS6mqey3FHuLRYCFCulY80Ueb7YEqAjUDZrKkAeiuYAJZkwe6CHPgjQKEZFc7aHQLJO9MZbl0HpjXEWOQ4jBzXDBIO+JbhdZ0uSG/tym4OcrGPEsUrPXcOWT3sUINQ80ISbb5ydcpPqmEhRKuQBUs2v63Gz9jDU6zImSNon8IXCncLSyrCwP52MISUoNwblpaBcLlcQJgeDjnAG3o47O6BULV0O1NERkauz8rznOAylBegwEGichsN69A/Dcz3jjLKX1QxJDxAEW67VZqB6flNDt8h8owWTSYam5IIAEvE5jIxAHGJbKtT7Eqgc27rq2nLS0H/Q1934wWeeK5J4Mp2SmVPulgR0ugGqpNKb3NtsvKrU8FEioSJ/STlSR9Evn7ANCgDdDZ5NBYeLzSUwpWKl0iFJWJ8k3JCMMDrSMPau8srj0HEYypOTE1qGB8XIwsC43Lq+WK2XyzW1om5UERztQNQR+4uwQJ6+dfH0JbTsiMBBJoQNDxGSlW50Yp0hguHZFjdrLym2bysbe6IP6TalHcq+e//Tz/yvxx8tphNJUYc8PaRxL7AN2njVZIswyUKm17HaNu+JMVtQRT3vaF+gWm9R/ziOWV6JJhBFEkRrsX5GU0Tia2ssqVyw1bXX+sJacv/HYShPT0/gpnWJUdlUbYkAuViun3/+FgVAPqoTOeNbMICAZcvQQhh+4Klnt11Iu4W11IUolz/d2baF5uuJtcaQNrNVrbNeEIAodn7yoS+paF0Idr4v6wo0//drX0N21hjdl8ol3w7SiZtkwXBNpFkksAeJBsIc3N/WhdSOTeWIYtEneZZDjzakw9AJc1BRSDIqpf2UNR2hOY4YnfxBMty6H0R35zCUrNUCtaZTSFCDiYOH37OWHGlku2JwKXgGVhEdi2lLWXeWlYZjxd1AxZ/AU5RNvUpyPo2aJf5JaE/VVJGWamdUiFDQT6AzHKER4aehR4UOTeaPK6QaHgkPIFcMbSl8iyV7TdSP9ehXXR83TdzWUd8SJQ8yxulSmQtWB7wcyoONWIk2KYr5bKZSSiheqoDSd7Jd5EIycKSNcZwITsL+x4/DUDLxFHJA/koc4/DSgVlWTKercV21XVnhHtAUWkdhGDY1qS82JfeEjTqTAo2jDD2BaYeeC8TtKDjJXIcolcDXexCbLACjWLup3PQKU7mxccAzCBsayGy5jjmmjMHAn2haPAlC7OtktYkvF8nFRXJ5kp6exJNJkhdxkccMMyTAETMiS4flWQaI52cIS42ZQDflekPVuYbXpBBM/sgDSpIY3zxmuEnEeRxJ5v8cOiqgHDB7kcgSvxiwaZ5PZh3j291yvQFOTYgVDdF1jYc/PBASIA5AZo5RuQAB/oSSUaYx/B5KUYBwlJCAWowCBDE3HHAg5hDnkY99xZg//IGozpKkY7iNMVbq0g5L6YkGI4b5P2QXZYuYcZrpNFucZJcn2XTGMBhnmuWJTuKbjBvHWQqUc9M3CMeetVPqfUf7qCwRighDlJjETNoRxRiRWncr6f3HYSjrssZmxj3dMF+uFIVmeTb3ApBdrctgVcqBBbtWEbElmsn3mIkpob21sKmJRKoIlC/QAA8JV1GeUaLRpn6A5RZrQac0WwT1hGvdFdZQhZ2annRR0n1MYGgv19XlclNiElZEzDTWKpkGFa2WTOUu1qtsMtVZQJt5DJRpnhRFOplCqmhrJLHmelMqMhI9w5RH06Fyd2AuJppxkEAnqXTcj+D+zmEomQ4NPqvV5nKxuVwz1p4inovJROBgDwXhYrHBsGUKd4njICNRUhr0zVNxhEntrBS6WCY7NMyHBp5gMCwspYeTiU0wh9PwdrjvmR0Qhb9IUiKXtnBBuxE44cef4QZTppabermpEESagdbiMtP4II7CtGvzvs/bNlmuCJ2FRomMHnOmk0kxm+fTWTsgrZp1WV9cXGBlIstUPcQIWVBjWXAiBLXYDgeZu+Ou7/k8BmWNnb9erS8vlxer8uTs7OT0dDqfi4REYzTtAkPvzgbLmN4cEUAm+U3dGkzUQ6c7JOzQHbIGI3U9KPIAe1Df1hOy2NUPgtMo2YnOPYUKU5EvtEFSJAxkAksgude1xDk0ZUB4MesJQj9rmqJt86qmB7CL4RDrac3LgEinZ2eTkxPUeku0fhix0Vk4g01JJiAFlLKOISVeE71uoeTntjlHvg5DSUZIcme1YnSRYZbG81nBgAjmKx243tTx5QqBSraqpU6VpQi0XbjiVLjkNw0Vc2BKgJV6HraVzeuxNkGloFa17oJkek8PBKgwFctLDBhtYgmGwdqokBRAuWm6DTYFzeYV2EVRHQ1e5NAoM26YLR/SQJg1QMgj6BGvMPh0U05X64h5IqgRKU3RA4w8YDaJe/hjdBdgB8kYanD3oSoeOg5DicAhC2aAFHlKvxVZkhHaCL0k8lNNqkCX4ZE7zpZ8VDvUe+J0XexO3QIQcQqtlbhEE+ZJVCCyMqxRf7FplmUd4KoxvUTSYQ+miJhW6X14QLniwjD9OC6KDNDl47VCpxSUjhVpNIuZCGZQFIGegZgZRozkY5pV8O9qjewn+oEqZQkCU62I1mgkmCUgaPkorsqkKlcViqBHFqls9aOT2FKOgvUQhtt7x6CMMXFtMk2GmzgBShCMtlCCJtMsmNwp+rNDMKq1OiBSd7m7wT09BRfaKihzrJTJtdMp/ZXcWfsB+ykx/RvRqa6AFp3CEsfTGBhXpCITiTanaZwXGQGkshpARJYZ9IbMEO3y6aYqYA73qUZkfPR1PptN56cxRonnr1vSUvPOq4icM00Z6SvFoh7yJxumictEZwauBBCdJ6tXTA6GHEAphjl2HIbSXmLtE6ZYko8jBhmlyEbAscAoVjCYgR/nEljDDQEgdDgC4hUcde2qYEnVzVkSTQuMtWi5aaOIFRUi2F0Vtxeg7/LRJ5xOAJQ1LxgSc3xwD3UBEasqkkNqL3mYzLCXWL2RoGCmp6fn5zdunF9/ZLUpGV7HtcC4EyphmKcp223k0ymUy29KwOSRlKFrTD1yh4Iln2iXBB69Cv0fPQ5DaY0AHpQ1tEBB9AuZKKhSsT7HhpaIVilfoyIIX4KdF9R+EagrEiFjV1RISoUKoX8JZUFNqF1uMRiAgcUdE5R6zwDcw6p6G2FIG8Al105nNx45h/lWZRlWDdRnLaWqZC+hBqQo4CIvrp2dP/H446zNfJTVmY9+ElBOJjOsEIwTq6CH+pmfns3QP1j7GHYd87wVdlaRZgYBtwoXjqOG0zBo8E1MPSjNfcdhKJ2koGaQp4wqEQ3tFJRa6rReM+qJWqJONBp6gln4x2E4OuB2twxf6gRICDVqjIzDjgFBqqg54DYNnNwkKrZ5qLDdoe7gHw3LsvT6+cn166cUf/tyGcZVELZW7q5Yo07qW2T5OVA+9vhrnnzy8Vc/+UmvetVitUnTHOsdZQ0LQ2Oz+fwaeZ2f4yhtyhrrlK5QjyJk/ACzHGpV3YGy72/7PmgqYkSrjxyHoRQ7QdniO2M+9Td1lj+H8k1Y8piEWRzyCccjfqQitpCpHDGFPnXoijfF+3KlUWJCs+mqmqgBS/qYxehiMeo+e0P9wcVVNMmCfKhKMSkwwelfynPC5IoT79gIuzLCCj6Zza9fu37jEXZ0u3HjkUeLSQntUzrEhXGOWTKdTa9dOwdKwmyK2TfEhuA/SU5gnBbTItdCT3DHTiJOTCu44Ker5P2fh6HU0hG0RC8nTgpDJ61h7m5yOp9BRwQRlhsMMW+NOQLTshLKUDPiFCRKv4VDYLqH9Dd4IXPIQOEmFvqgApAUSCHTTHcBaBlQNMqH3OgwSAY9u9rUhKwU87Z2oZnI3XWlI15EKqOwWZ4jCnEsNMkv4g5C9uR63TJDldFvgrsZUOUZahCpy7LCxXKxZDgF965mZTY6P5ufnECPdV1J8yE2JUdRW/8XUNLuxqAUgVJZUSqi+vRkCoXAjshvnA1vjWk41vjpQsyQFAQGnd7SpQiHe1RHNzQK2Rg9dsywhdnFbRiyolyeOtB3hKmfDk06cjqZ4PIgXTYlQVuMIZlBMpkkY/S6JBIzBw1KYJpMmM2bAyU+Z5oGcDS9UuRZuVnX5RoziWsSIx/Ba2kHRhIRjumU+V4ZQVvIkBphd5mAUwBc8eAjx2GqjNIIkREISikvkYxAkU6fFMweH0xqECKqP/LsJWyP/BgIPNN7NmoGrKJSXuFTBzdopsQEf0g9LG3ah1Aj0mMAK7XrB0PT3jBBzANeRtAgtQnP0BTpLkL61gFWM1cGhekEVMl3ENXKAa3BQg5IJcssxSpPNYbaNyyL4bnFsehH3E5Un/qULPQyczntFMswficnQtEGuQpOL7lm3f15GMokTyghrBQhVN01WUFMRC0RlH4WnZ8WaO2M2dt5Ej51R/P51k2zYTEREW0OKb4XDpOVMrghcHtCx8hFsQFU6yRLa3gadasLFGTeUSmPoVPg4Y5O/bYrg09qz4rkQp0uSwEyxymXikNGpooCegxB4GOKDXRiS9kCLpaUSTwxV5vpm3FOoC5hyjzWPZuW4aFX8PxyhbNOGkUaw/5oyPIYlLGgZA0OtUNpmV6jcaIp4gXS6kiiZH7CHHJNxbPJEt6qIUAhX8PRiQlYw4h6CSFDwKwmGok9hB8pqWutt3TCwyWzT6U3kx/C3SYib2XvYLTHzifgFom23YRU02wIQtcGJbKvqnkD9WJr70yo9LWCpa2PX8DAEFDimTJSDcPAjUS+KYX0qPUV84FXinpDk8SW8Fy2xd73dRjKCCdR0T+gU7WtIfqAI2QYiQWCNBvxPZCUxOPo4rLzllWPU4xmxeDkPWNYg0MECZNyqHzyQdTSLO44E4guchadnm+Tyd7mUnyNzo5CggAYDDb3wueiyOKm5XePs4JRSo7Ibw3ryQrErWyA4PadC+ZrrLuWwVkq1DC2orF2eGfd1Gs8trjLwoZgMfY+uhPZC81AOkEJzgxt1RrWRxkhQAmYQERpVtDx92G4vXEYSplAmk1r5pBrGwAYWVlTiWVLzmB3zabZ9W5sh2DdDIuypUwG1ohfaYG/SrUvoLS+BEogRltDimgMrsXkFgSSLSccRb6cZpdImkIn8rXiaD7J5hPEieZgzSbJ2QlWEdFfIz2i/cQ4iANZ/jA3+4My9zR76uOLzQqnB7eG3iLGKj+tQ/EzwN0wiTAqUrpoVVaXq+UK77vCbGaocYBAE9RFmNAl6CEi4FSYgDFe0TEcuX8YSiMTZ1aKqY2aHDQ0Vvam2UjQjA+Uow+PJ0twbAQQcVkidFIPAl+HutrAlKIFXZO/CHR+kYjPbZSAciyETom45xOcOlQw7r+dgnKa5qysGbzZJG4brImQ1VbQC8Hp1dJbwql0j6bzYnILSnopu3NbK7CJGsitlFLSGkDcfSYHZXFUZPiPCFNNrZQbZ2ZSSWwB/UKAKaYFznMQh2Ihcfs4loehpDHUwzrZDA1BIlEOUnwiL6Q/NJgvCmJN2CSPT6bptXnx6hunk1V5uWE4TSaOhL8jUi4cUStbUR5qDLEH0XHdhjjHu54zGYKRjH+MXYi9gs1AgAqffVYoqgIlT9OomyBdmM2ieqAViI4x4xIrVXc8DDWi/WsqF29WMhfMVtAKC8Xk1XN8hi0Dk6wkTCFRyBr6ZhMQPtu+YYqCzwKOEd6Tbw6O2jyEOjG9y8jqIJ6HocQsVrzUzF+TlqItg4VOotMQc0AiqdHa5i7Ibmyk6yfMf5udn05wrxE8i+XmclXiYhgb2kI3RXuFoUOTHiZPpiNxS5pFCFOQ1LBUnZRt0BPNa73zR8+ITuVJkGspqscOM10S5bA9A4GMPuQlvQsIIU4yk7G0ApS3GUphMkQbsmNCHDILSiH4SGTvyJLwTx+juDVxgEk8zL0OWZ0lWtHiW4iAL4IQwoDXZKx6Sc5C16N0eQRK61ygFPdJgokqjWuxtPBDtcsIeQIoSWgb7FskwbWTHCqDMog9MneqnE0+/vRNbOkS34YQhsKx4keQkt+njjCZKByZ3ihlBo0qGoMUjomWwn/RNEvmRXo2Z0SGwCx7ISiI0kGbKTZjlE+mRTFZFjnIYbiTNdMuDQ1sTzZQoJfQLSGMBEPTLSG0JipQ1fuwDxpByUAwVMMWU9jS6G/60kbCmfTMNamhTZIpsskqTXTIQZLk5hEoBZ/FBxPmL2AbYB1D5WqHVBxziSB9iR/Ii1qR/zCVYlFoFpLEcoDD1+w9cT6/eWdJCFtdCavYVhRYvUQh5UIbj6s/JCQhVRPEKpon6jocXo3MDrEUtMpUD8uj5aTqQZDH0TTPeG9e5PMJYznQkub/CBBel7k+0ERlrs6j4oqIWhgGrtUWIAH2IkrUovq0UcYr89/5ieA1N0VWPxYl21uwDINhT+NFKnj/cRhKyIX2wD8ILBgbg8scsMjX+AflKWAq3mKevQoieE+0tfEZoI4ZmMYPYzobk0iHayez9aoCO9OdlE6uQAaK0OQ2+scVryOcxHiiCT3SJ8xKadJL42KxGrsMmkcZ0JNy21u6B3JiXpNPnBH2B0pt29COZaDRUHWQwQBn44TDLlA8HUGGWiSN5gm9mJl6HdwgWoAgiMgaiSAZ6Qe6UlSpJQWMrkEjrGTVNiBmi9wP5HGqlDblbaDkKsY6YEsXYr9MxcJwhBuSCC+VEIqcXoX58BKaIK6juInLLmZDCK8lSsF5djJpL2QeMdgibU19aKLCl2YIkSX3dbgRDlIISsQnjSHiYbTlASUYeDmT6mBx7AS5MopKMaHF9zBbCFrMipyJU4Q5lgpQa5qw6NeXZkNBoXgkUijN+hXnUZzKqBX7f+C/yY0UnEzdY10lHSiVCYnTW5oUIh9UMVl2rzGeOYTkEQbnJV6hI0GTXAERI45IqHDjlL5VxSjKuE6ynI5n9Zy2IgIBZJBQg88GAn+k5AUqyrLPQe4CqCkoYE0zrhbrWjvtmwdClKguE1oU8mAWWJfGnfSwEAFKbBSt8kGnMdBAR9I/BIZz/uLKBnhF+CpeZC3hCbgyYonCaMsrKWk2U5EeEECiSslviSvpbN3Xp8haKZSIzqZbNdR+7DjC4GRPrrLUwQCpqPJAj28xtFwKIhqIEy2k1Z6AmlsEyortByUMhIsNrzFxi0l3NZlwR5W0OdNmaCl0tuVzShKMHNRXTbA/fapI+ICtjIi393h+GCksi0bvQ2+azVTWrb8kksispp5ex3fGmjeOFYcDHfeJLJMKYLDQkQyIXvQm0XA0tvhB+lNQMl8H+oMERM1QgZM1qrdANPi4OMrdJDgMpdqwg01oCkprq0oVmvQ1DIx8F5SgSBfDJ0Ap6xY3kg1gBCVuLAsQMMiCWqaaGgQFSxCiDmykV+TnIBOadJ99ClaKVDs0UAYVs4XeUEGIXgs7che+g2qxX3G0pfk5BGUqH5PoNJtxmXoESlljDXigl+l+dmgSmgSxYtS6ehP0qHrUa3mltA4N1wCuigY7PukRLuwaPXH8OAylkKMvwAsjhs3rEPeAFslpQ3LCqogqiBJRpsVbRDGiHvuVVTOCQHMGpN8RUFBJ2iaIrtN5zGQj3pKtIyUjmgclesxZF1SdY4ejyqfX+IPgSY4akdGPmAM4YwtyAFJqSUrAI/KNKCJEAkyQkJqsTsdtYhYDs0GEK9YHfC05C3VxYnMicKu2DuEbecIaU2UolVdkm9OJICmigYGwWaBIaFhVPHIchpL6UU36k0EP3HmEthxhRsGFEnZBzGoZRnngXwqDIOEpJjSxZRayDKaiJmxHMdEqC1g/xj0H7jM/uHm5NB9SAkHbOUgSIdhVNdVQJOA+9Q0OgMkhBFmeA4yNR5xBCOqgYA6lhCLZ9oL6EZZYERIGTZ5DZBAb2j0FI3Y8I+QBaYi46B8t1aWfhCa7pxAZguAH1JMGW3gFMQWtSpCpAF7BbqFHbRDZilXR9x6HobRqIt0V3BWUzI7tCTyJ0CzCQBEMHDL7Gwkm+QERdrkWxEjJdANGRRonA8ofV43BJoIcjOOPwcl8dnOxksqQYpQCobYqi1YJE3HU/pAcsWdQBdaNluMaMVlyYWkMqOSoXqhSdhjTRhjCRD3gP6OUMYIclJhQ0BO0DVM4KK2F0kJU1waBoZuojUOGldk8gXgaGltBG4cjBWPwQaEvncHpJZUoOaG+hCXxvkNFeyA0LFwkl+4gusQpQCHlaO4QVhCOBZuKwSwSQpILLK7A1YH7sAvzJCaeKr1qItz1uWEoChMnKcisf8pddYCOB+YhIlXEXfAYABvN8AKJyYkG4wXAHMhNXEdiZZA6uUiliHFhcwS1jB5NhaBlZnSSs70vHUYm4BwjQCmDJKwLGbT41E5a7UpiItG9lHj192GqtJ7TZEZFepGRsvFRo8CqvbfIm+gTNZBFJsUsucWX4YmVg+YRc1BvpuEGIS5jl9QQLu8RGO7xKdhPQRjoAB5TL7wsRPmy2zywg3ywxRdkbxwnWQLzySJTCvpVtjRQaIKfHAFqJ+Ij/SBlBSnJxuEflAtDJfKvNb9JdqsQlPEIoUBviGLhKNzxEbE7Baqri3pTGyvohW29rmK4vT4MJaYfp1BSpbdQWpXliMu+wqxAuLt5pUYmSD9ggVLFu3Ib5GXFqKAoXLG7MuqdLIltdxUjQ2gClihSLXgdKKkglVQ1rer7C35Blrgri24NglLOEjEY0VIM/JMO0WxA7aZmVeIFTX9AClt+9DpcAiELSpQT3plsJP5cwAJAQZFS6TF6ANlBzZEMDODBXj3dheVF5dQwBLBc0ZcK5QiJC0yUg4gAhrKDfhZhggfZc1NMp9NIxRSujVlQXXSKelJ2oIUFLIAFj8vSZLkR9cGQ1swpY1DZmI5I7RPyBAAyFrIScVhWNgtfC8I9tAjKLck1T0YiExfFLB5BqU5QvWWcSeBpBx7NJDN/UX0lMpY1BPwoHI30gCDFUJSjQgiRC3nCGjsDdWZGESECR2kekwwHCNJuHaZKRXOhFWokO1CiCfEHqOSokBTdBFoOXeDkmRh6q0FkiwAVrogE0LhpB5TTqulW6AQGnpgd6vS+UQr8JgT0gg6HJAVILCsP0anlqzEyLDH6JkIzsMnSjP/IiJFsxqtTqiA21+oiTUbWqCRUZCv2uMC05Am10S5MGh8jVG4XUIRx2A5KjfMgD+h7hoCqEq2lwCw4GjHSQNjsaFiIyr8YlHpThKkDRqd3ESDWQPiWpjHpUe6kg5Im03BUhQkU2IEJYwOhtnXdr2pWV3BqWik4QpjiQWVumk1TqNQc0YtABUCDUGBuD9DEbUUEcvLfmIXE32bF2TlrYmanp6ylxDOQ+IOQMNAYQCBY2eK/sjNlXW/Y6qbUeJMMS4uDMPLMNHsVZ+LSkRrEKIGLgGS8gokaYkioSQvQAVScQCjFZmvuKnXv92EocSSkBIx91Go1T8KHb6PQiASKOKAssXolZqToqRn1E/+LJ1n/RfeiUtvbizUnUymZVkpQg4oZ+4IP0DuCVO4qELNVVqME3A5IMTEH3QmrEhKH+SlEMzJ7Fq/lcDGTI7G9oFXqw8BCiRbHX9UMGkEJ4RZpXuXs7sDJ9DFOZmMANxU1fqcsWsgp3U1Hca32yiUCboPSEoCHHLZjx2EoxV9iYxl9sLgkGf2prsd9IDiFj6A5HwR0GRjhpOIS/MZcDB8z4Kz5aYISwuxJwEgk/rLG9CBzIn/KmfqaBjCVo4LMFDAO0NVWwDsU+YQNpIiFKTktVpeo4yz3pzVrc5jHkp9MC2Qz0y3wKOo6brqE7Qothqn5B4zY4ubyKShZBwCaRrvckUViaEpRIyqgEElRoGZ+EOQBffCYNKaAjgF5jMFNgJuBJ+0snqX7REBqENYrQ7tCal12C9YoMOjO3HrC1rbUkkErjdJBGfgSUvjSUJzmd/NhhoxwsioCqLjciB2g5EBLS1OM6kwqiVQzJCSNZThhNeC1LtcN83qn87hssmGcEJo9mbN8GT8FfRNUcdS0UdOxfSKZU4TxkDENHc14pOa6QrFoQDmkEk7Qjeax4Kaz0SpigecaVaHv2VoO6hTPSf7smOV+SA9TJXvv8GqlfSWgvAbBK+0lPoC+JTokeQhYM5ytk1EAbDUawtRghRmigf0gCY+NDNlJKggDWakmIeFhlALKBh1Kq7ySnTc7D3mnk6A9MQntigabCUrpPI3gYqTIbrUWUbLG3pFjYFqxf3TDOo2WzpJoVzwQC5YZVTV7tSCFjZJFzDafHT870szwMCjSpMkzOAlQyFxcQtMkogg7MC4k0gVXIiBoclldOq1O96Nodw5DeXFxk9qYaMGaZlNpamnhPQXzTTXaKh0BSgugIQWBNR+ZovK6nYidqKLVD8aAHEyfoLmgOkwNBBkbFqMhYoYFV3R9yPIuBmpRyTqzAo/fojZACRckxABoqtE4IpgILwufVhrrYfdWLSzawPIIGPAS3MwGaJs7i8Vzz9+kIhQJjFSQgRX6CaZAYpkVEGmfQjEEFqeFQrkS5j7xBfGVRBXcB5SIfolNKnoERt0+DOXl5W3KMGLXbh+wjDqOKsjOYfiILdM1iMTkD/wxDXFphRaeOtZtiNVG2YAnHU+9GJsV78tX0rAAu3+Gg9ZWMWeROROQJF5oN8ynGebNbDqZFVO2kmQqhoYWmdfDtoEyf2izLz3CUstqvSyDxQYrgkAs40had0wJNJa4OqyKXqLtrPJ+7uZt8EBbITSYHkjm3kQT7BkYhzYNYReco+aKLGkqIQEuTfLCzOBVCSkjTMQUh8Tccf4+AiXaWbBJFyhORU8ZLMRKqamJDAKv2Hm4/mPIvCG2UCHsquE09qhimECuEEY4wCJoPXoYewRm1D6/7PAf9GHTsnU6cYPOT/qQZcQDI4oZ2oM9F9mUhXXx7LUm+4cpFIx9M82L//+XCdOa4MpCJkYR0TmsJtHOtwwEMjpHQtxCtsNjryw/YdYgsyNPFmuC6tAA8jYDInpWEhqTg81V4GQoHodNxgY93WDYjYQIsFNz6Ma58rC/9CeDqCZy5TpJ7hw+DlMlQSvpNNMJvAsiYgGZdlJjEpPapI9QBeMqOKyY8UwUVyXoVJuJAXFgicktAXimgC5CRr0YuGMaB6E/xhCDHkzjqA/YZZE4cY/vIhmBngiYWY1kJQaqTeyJKxHPZehGsTzN/6dT2VBsRGvjARDSo4RJOs1TFq9oSmUSewWj8UT1INOBhfasvYDj5ZVLusDcGDnMzGLHVJOP+uSQUPbrc0LxTIqZEcVab5o7rIHfQANSTbI7ZFaS6jCO3D0MJRE+spfuRvjQR+aZ0qmqFsoMNldklBlJI7Et5oFSg4xpthhwMCaRKGQ96EInuMvwtRy8LmJXf+xRZhsCJf9PAn4uK1owC9nYv0UauIAFLhZDv3i/TIAE+jjOteMyU0pZ2oQvILkWBzmKbURxa3IDJ8tBi4SiGdopMJpgJexDUxEh0+YxbJj7LpUhxUG4GqEqg1d2rDgPUQ5hyonDyz89OaMGxL2YW3xnsVqgudbSPyx5t5nstOSlQmlhHPpSQ1USPlJ/yESZdxo0HgZ1WLlY1sxnKwppBnQyFrHCxXjWmiDBNgGsimQ7YpvdGp1Ou6xD3PkM7pZyQypZ+WzoiUhQt3GiRWx4VfENXTCUwxq5xGNYjo1tA59dF9E/KBaZyhrRgNxQgz3zxmeTU6DkKVhj/zPZ92R+gghYpWmJTF4z6UpLemApiBMDlZVjapMaw5iP/HGwZvMDLc1l6FbLpAZMPWaXXCyQumtEU1po12fp+iPHYapU1yIUzRFkeI/yUBYB2/QjwhkVg/2Gdrlqb91czqYodwUNNDs/qLB9SiY4ryvsnbOzs+HatZOTGYpzMs8RCBumXHdL1vNVdAcuujaxUgQGO8dIhDIRa4px4xgQLWZpf8sOlT6Opg29MMER8sTgkcCB1elj9QGyBTSxo/DtYCHygEvQYeg9Ir+XyKNqIyFP72Bu0CfaRxwBKznMJ8RKzBBATzBNpwVSl15FyLD6eLGub12ub19eIruTkokFZg2+NCihY7NaYQO0sVgZAtKQcs5aaminHy7Xq/bi9hKZiHIc2NWAEI6ime3ycsUiU3wyqAaWm83E+PPzKS29LMOwHLpVxZi5DCdFJzABNEJr/oRGjlSyLC/ixVrTxe4XYErYWZKA4XefjUjQbig5Qm7YB5AWtOVkCYQma4wT0TJhM0FtFs7+s8tSs0XlT0PvpI1zxnlxJpksyDTDCZpZi4e6ThWdTtDugrIfCVyxdOHOYv38nUs/6pLSo+kyrI8ch6kSM430Cpxg3o+sEGJnLeiFYR3G9TDNEFp0EHFmNQaAsSHM0SOkyHchIh688zP+c0qm1sPoqYxiaJowgeQT8lMgocs1iVGqgHvmltFUeAhykug0q1n2AhWBhhkHZ7Ab1YaGwW6B2Z0VCPpmq7G5PUO1mEXoXbQ0DMJP7CSZSnyWFg5i0C5ns1vqy6zl6ZwFzWy4InONMojaoTpNwSLWNCQnMYtg1UwQG2aDi6TEDx9HoGwEpYlpMmX6kq+xdP57AAL6LHSU5cGyHZkgEAj/sdGEeY+wGz3vjbNJ0Z5BX9HZ6enZ+fn8hJXt0BBMS9uIeSkCouEqjHs2+GVQhmCWpsqgCKBkAIUTTG2ZIhJzECHBoGTOl6AESOZcyvSSZSgiFnmjrCmbcAabUbDICdRMQvWrFSvvNXWyqlmmrK0M6MB8RKoOzCufTvOT0zlUrVqh9W3ED98EIUBrZUpyULyoWbsKw2jHifKIBsdZkaxUF1BZwnYWLRm8lI0mRk170WgpC+5ZAcnCVjWPOxY8V+PoHmQq0oq1b1PcF1nmEdIHXQRtOT8J7hXLTpJimiPmYmw7RJYoAFJgxF9o2qG6oxKw7BjvZpa4TJ6tc4ktpuoJR/UDOQ9sZtagJrDlFUn32WgBEPGFFHFmBi8Uios+DDP6LmVaaJHCNxjo1hPqM3oNuQm10xNybmAJEYDiBKhCekvi48hxmCpPTs5JrxwkxKzPFR1B3nNbBMr0sfPzwhtOzk4n8xlTSZFAUknSCFpHArKYRzrgGuSZ+kTqBEjx3bJpOh8Lv89wcqYn0xlpCDKowUze0lkTnkGokZ2kWjadZNA6c9bAENjpGQWJgBElg1yDGRGEIh+RtACFVHmbIZGupccx11DWgCBbCJbFkWGGr63+Ycq0SS5nx5On1Lsis0hiWI+xEFClJANBE2xEmUeOw1Bev/6oqNLqSNcgMvCf8EmYJ6v/YmFsi3x8hP9WLzubFDavmWFv9ACQaKMcoMy0MBh4qRGtNr0nzWwbS+fRxGOHlRAb0D+dzU5mUCWTTFnQaQvF8KnDEigtN1RMMdF8P9b1M/FvIr6G/jHTRR+OSDTZiqiNoARLABYcGLoIPlrH0m/cpSSsQ6+WREaWUgIL7YpitdEie/47N1hcNgGUKCUPWxFUoA2sPFQvCFwxFE4jLvNxDj8M5dnpNaA3gpf9irnvdtTDteC/HuMRsweuXc9O5iI/CE9zdaAXSU5AzFhkiB2CSsKmAkc7zP8hVMkGxwnidmAOO1Cfzqdncy0MZ2+JJYYJzp9EcIwNaJEiIhD5pBCUnEykpgyEhZEkPW2mEEJN0XENN8CR9L5MAFuJh2JhbJQYCTKoLBUfQGLBw7AwJFlie+us4DbRgUYGBBSv01fSBkhxMZuUmwhdgv44ex/zdtB3tF9CVwJZdWTslh0R0C1GAQzPjmydiLtikzZQiPwTpLLUAFEzImI4T8lFOyJwzGHCBcRn0ZPqXGR8xERT+DeTDtdQhhg6y6oJDO4j+4FU04AytFrGBEq5UqZqZDZAe6ZtJMiIk+IgAgqcC/tgRENKEBTaaRzyOTuO1OcgAXFBfZBfkc/wHnBU6V6iIfwnf55W3TIJkm6UOEJgIElZkMFCAibAT/OYXVlMi790KDfrBa2XEOYf6kI2gJlwFs2g0TJWZMXg50CRApEJHIIyyiAJ5iuSWmQDw9CbfPOix4p6mI+VhUgJ0FCExAkBaGFISQN15DbdDKNSMWLoCD9R/UT+4jY5MzRarzvhp6FDuU44iOydiMoABqDQdBWEnUyztJ3NiWEZB5NXQsH0DSE9BDx1EL9DpYSSeuafJFqSwTQUoIxDglU6J6Cp6WNMKtPYP405chxm8GqzBC8RJFVliw4UNtLeHGoQBiO1EulC24k4CErm2MPXEpE0EoITY0MxEmgiQF4BeAITCc69bA7hJH/FDlQFdj/knEKcgEESnhjxKSF/UuZa/WH0uIWSdkk8auUpMTttcA6wCgdQUS2GYDANyZENLP6UIwBuZKRpTwpdJkjrjB5BCxEEQglhRSH7UdhUFcHL5DvcyPkkwb3nf4+RVSk/XhRx7DgMJZkJf7MEzBjYOnaWC7kpQxEHhzhDf3aCn+IteiaCNOW6/7SX+cUhfOzgHuVYUrLYeoKCXvqZzOxwmW8LtJK5tv5RT6meqq70wo5qJPJUC71DthTnDlZBsvoAAABoSURBVK6457pG9TDjU6+rT2A/vpWFa92+Vbu2kVxP9HHogAZeBOhDbzy8dwSBLYsdefrw9ktA4CGULwGsF0/6EMoXx+clPH0I5UsA68WTPoTyxfF5CU8fQvkSwHrxpA+hfHF8XsLT/wMAnfIR4A6C7wAAAABJRU5ErkJggg==;" parent="WIyWlLk6GJQsqaUBKTNV-1" vertex="1">
          <mxGeometry x="822.5" y="605" width="110" height="129" as="geometry" />
        </mxCell>
        <mxCell id="294uK_dBEK0Y3h0n0AfO-14" value="&lt;b&gt;Weighted Image&lt;/b&gt;" style="rounded=1;whiteSpace=wrap;html=1;strokeColor=none;" vertex="1" parent="WIyWlLk6GJQsqaUBKTNV-1">
          <mxGeometry x="818" y="594" width="120" height="36" as="geometry" />
        </mxCell>
        <mxCell id="294uK_dBEK0Y3h0n0AfO-15" value="Proxy Step" style="rounded=0;whiteSpace=wrap;html=1;" vertex="1" parent="WIyWlLk6GJQsqaUBKTNV-1">
          <mxGeometry x="807.5" y="540" width="140" height="40" as="geometry" />
        </mxCell>
        <mxCell id="294uK_dBEK0Y3h0n0AfO-25" value="" style="shape=image;verticalLabelPosition=bottom;labelBackgroundColor=default;verticalAlign=top;aspect=fixed;imageAspect=0;image=data:image/png,iVBORw0KGgoAAAANSUhEUgAAAtAAAALQCAYAAAC5V0ecAAAAIGNIUk0AAHomAACAhAAA+gAAAIDoAAB1MAAA6mAAADqYAAAXcJy6UTwAAAAGYktHRAD/AP8A/6C9p5MAAAAJcEhZcwAAAEgAAABIAEbJaz4AAIAASURBVHja7P1dr2VJet+J/eNlrb3Pyazqrm52SyIpUmpiUhiJMqxpjYejscfyuHVpjGGA/AZDfgEDpAH7noRh2HeG+BHYH4EN21fGDMy2ABmGBml2SYKgV4pdza7Mc/ZeKyIeXzzPExF7Z2ZVbQ3rVFXz/yvs2ifP2a9rxYr4x/MaRASEEEIIIYSQz0b8oj8AIYQQQgghXyUooAkhhBBCCLkBCmhCCCGEEEJugAKaEEIIIYSQG6CAJoQQQggh5AYooAkhhBBCCLkBCmhCCCGEEEJugAKaEEIIIYSQG6CAJoQQQggh5AYooAkhhBBCCLkBCmhCCCGEEEJugAKaEEIIIYSQG6CAJoQQQggh5AYooAkhhBBCCLkBCmhCCCGEEEJugAKaEEIIIYSQG6CAJoQQQggh5AYooAkhhBBCCLkBCmhCCCGEEEJugAKaEEIIIYSQG6CAJoQQQggh5AYooAkhhBBCCLkBCmhCCCGEEEJugAKaEEIIIYSQG6CAJoQQQggh5AYooAkhhBBCCLkBCmhCCCGEEEJugAKaEEIIIYSQG6CAJoQQQggh5AYooAkhhBBCCLkBCmhCCCGEEEJugAKaEEIIIYSQG6CAJoQQQggh5AYooAkhhBBCCLkBCmhCCCGEEEJugAKaEEIIIYSQG6CAJoQQQggh5AYooAkhhBBCCLkBCmhCCCGEEEJugAKaEEIIIYSQG6CAJoQQQggh5AYooAkhhBBCCLkBCmhCCCGEEEJugAKaEEIIIYSQG6CAJoQQQggh5AYooAkhhBBCCLkBCmhCCCGEEEJugAKaEEIIIYSQG6CAJoQQQggh5AYooAkhhBBCCLkBCmhCCCGEEEJugAKaEEIIIYSQG6CAJoQQQggh5AYooAkhhBBCCLkBCmhCCCGEEEJugAKaEEIIIYSQG6CAJoQQQggh5AYooAkhhBBCCLkBCmhCCCGEEEJugAKaEEIIIYSQG6CAJoQQQggh5AYooAkhhBBCCLkBCmhCCCGEEEJugAKaEEIIIYSQG6CAJoQQQggh5AYooAkhhBBCCLkBCmhCCCGEEEJugAKaEEIIIYSQG6CAJoQQQggh5AYooAkhhBBCCLkBCmhCCCGEEEJugAKaEEIIIYSQG6CAJoQQQggh5AYooAkhhBBCCLkBCmhCCCGEEEJugAKaEEIIIYSQG6CAJoQQQggh5AYooAkhhBBCCLkBCmhCCCGEEEJugAKaEEIIIYSQG6CAJoQQQggh5AYooAkhhBBCCLkBCmhCCCGEEEJugAKaEEIIIYSQG6CAJoQQQggh5AYooAkhhBBCCLkBCmhCCCGEEEJugAKaEEIIIYSQG6CAJoQQQggh5AYooAkhhBBCCLkBCmhCCCGEEEJugAKaEEIIIYSQG6CAJoQQQggh5AYooAkhhBBCCLkBCmhCCCGEEEJugAKaEEIIIYSQG6CAJoQQQggh5AYooAkhhBBCCLkBCmhCCCGEEEJugAKaEEIIIYSQG6CAJoQQQggh5AYooAkhhBBCCLkBCmhCCCGEEEJugAKaEEIIIYSQG6CAJoQQQggh5AYooAkhhBBCCLkBCmhCCCGEEEJugAKaEEIIIYSQG6CAJoQQQggh5AYooAkhhBBCCLkBCmhCCCGEEEJugAKaEEIIIYSQG6CAJoQQQggh5AYooAkhhBBCCLkBCmhCCCGEEEJugAKaEEIIIYSQG6CAJoQQQggh5AYooAkhhBBCCLkBCmhCCCGEEEJugAKaEEIIIYSQG6CAJoQQQggh5AYooAkhhBBCCLkBCmhCCCGEEEJugAKaEEIIIYSQG6CAJoQQQggh5AYooAkhhBBCCLkBCmhCCCGEEEJugAKaEEIIIYSQG6CAJoQQQggh5AYooAkhhBBCCLkBCmhCCCGEEEJugAKaEEIIIYSQG6CAJoQQQggh5AYooAkhhBBCCLkBCmhCCCGEEEJugAKaEEIIIYSQG6CAJoQQQggh5AYooAkhhBBCCLkBCmhCCCGEEEJugAKaEEIIIYSQG6CAJoQQQggh5AYooAkhhBBCCLkBCmhCCCGEEEJugAKaEEIIIYSQG6CAJoQQQggh5AYooAkhhBBCCLkBCmhCCCGEEEJugAKaEEIIIYSQG6CAJoQQQggh5AYooAkhhBBCCLkBCmhCCCGEEEJugAKaEEIIIYSQG6CAJoQQQggh5AYooAkhhBBCCLkBCmhCCCGEEEJugAKaEEIIIYSQG6CAJoQQQggh5AYooAkhhBBCCLkBCmhCCCGEEEJugAKaEEIIIYSQG6CAJoQQQggh5AYooAkhhBBCCLkBCmhCCCGEEEJugAKaEEIIIYSQG6CAJoQQQggh5AYooAkhhBBCCLkBCmhCCCGEEEJugAKaEEIIIYSQG6CAJoQQQggh5AYooAkhhBBCCLkBCmhCCCGEEEJugAKaEEIIIYSQG6CAJoQQQggh5AYooAkhhBBCCLkBCmhCCCGEEEJugAKaEEIIIYSQG6CAJoQQQggh5AYooAkhhBBCCLkBCmhCCCGEEEJugAKaEEIIIYSQG6CAJoQQQggh5AYooAkhhBBCCLkBCmhCCCGEEEJugAKaEEIIIYSQG6CAJoQQQggh5AYooAkhhBBCCLkBCmhCCCGEEEJugAKaEEIIIYSQG6CAJoQQQggh5AYooAkhhBBCCLkBCmhCCCGEEEJugAKaEEIIIYSQG6CAJoQQQggh5AYooAkhhBBCCLkBCmhCCCGEEEJugAKaEEIIIYSQG6CAJoQQQggh5AYooAkhhBBCCLkBCmhCCCGEEEJugAKaEEIIIYSQG6CAJoQQQggh5AYooAkhhBBCCLkBCmhCCCGEEEJugAKaEEIIIYSQG6CAJoQQQggh5AYooAkhhBBCCLkBCmhCCCGEEEJugAKaEEIIIYSQG6CAJoQQQggh5AYooAkhhBBCCLkBCmhCCCGEEEJugAKaEEIIIYSQG6CAJoQQQggh5AYooAkhhBBCCLkBCmhCCCGEEEJugAKaEEIIIYSQG6CAJoQQQggh5AYooAkhhBBCCLkBCmhCCCGEEEJugAKaEEIIIYSQG6CAJoQQQggh5AYooAkhhBBCCLkBCmhCCCGEEEJugAKaEEIIIYSQG6CAJoQQQggh5AYooAkhhBBCCLkBCmhCCCGEEEJugAKaEEIIIYSQG6CAJoQQQggh5AYooAkhhBBCCLkBCmhCCCGEEEJugAKaEEIIIYSQG6CAJoQQQggh5AYooAkhhBBCCLkBCmhCCCGEEEJugAKaEEIIIYSQG6CAJoQQQggh5AYooAkhhBBCCLkBCmhCCCGEEEJugAKaEEIIIYSQG6CAJoQQQggh5AYooAkhhBBCCLkBCmhCCCGEEEJugAKaEEIIIYSQG6CAJoQQQggh5AYooAkhhBBCCLkBCmhCCCGEEEJugAKaEEIIIYSQG6CAJoQQQggh5AYooAkhhBBCCLkBCmhCCCGEEEJugAKaEEIIIYSQG6CAJoQQQggh5AYooAkhhBBCCLkBCmhCCCGEEEJugAKaEEIIIYSQG6CAJoQQQggh5AYooAkhhBBCCLkBCmhCCCGEEEJugAKaEEIIIYSQG6CAJoQQQggh5AYooAkhhBBCCLkBCmhCCCGEEEJugAKaEEIIIYSQG6CAJoQQQggh5AYooAkhhBBCCLkBCmhCCCGEEEJugAKaEEIIIYSQG6CAJoQQQggh5AYooAkhhBBCCLkBCmhCCCGEEEJugAKaEEIIIYSQG6CAJoQQQggh5AYooAkhhBBCCLkBCmhCCCGEEEJugAKaEEIIIYSQG6CAJoQQQggh5AYooAkhhBBCCLkBCmhCCCGEEEJugAKaEEIIIYSQG6CAJoQQQggh5AYooAkhhBBCCLkBCmhCCCGEEEJugAKaEEIIIYSQG6CAJoQQQggh5AYooAkhhBBCCLmB/EV/gL8ohBC+6I/wmXjx4sV3AHzw8uXLH97wnO8B+OHLly8/esfrfefly5c/+KK/G/nZ5ZPGIPnq8FU5jy9evPge5zTys46IfNEf4UsNLdDkmt8E8Ls3PucPAXz3E17vD7/oL0V+5vmkMUi+OnxVziPnNEL+gkMBTf48+AcAPrPFmhBCCCHkqwxDOMjb+ODFixe/i2EJ+h0P6Xjx4sUfAvg+gF8HgJcvX/4DAL8N4HcA/PDFixcfQC3Y3wHwtpCO79rjPwDwof36o5cvX/6O/f3XoVZr2PN/5+XLlx+C/MxwNbYA4PfcHX71tx/a3z6yUKDfho4rQMfO73Fs/GzzSfOBhXv89vS335vmKfeifQc613wE4Lc+y1iy534EHYcfQOe270yfg8aCLzG2Rv0AwPfsVz/09cX+/tvT3z6EjqmP7G9vnZuuxiEA/ODly5e/9+LFi9+Ehij+jq1934Guf7/z8uXLH16vl7A5DcA/xFgDf+fLHrJE3g4t0ORtfNdu37d//6EtOoBOPL8LnQh+MP3uA/v5D6CTxfehk4NPHLAJ5g+hk8zv23N+097LF8s/sOf9vj2OrtKfIewc/zbGQvJDmJCxxes37Xffx2U40Qd2+77dvgtdhMjPKJ80H5h4/kOo0P2+/83mGEDHx29Pf/8uxlzyaWPpu9Bx9xF0jvub9jk+ss/xPZAvM76x+qHdftM3VHbv65cL2z+wv711brIx5ef/96BjwsfZd2Drl4ngD3C5Hs7r5Q/t9X+EMS79PclXEFqgybv4DbPWfB/Aj6EX+u/Z335/3tE7NtF8D2rp+f3pd75z94nlN8za8/0XL178aHqJ37bX/i177g8B/IgJOz9T+EbsB3ZO3fL8AfT8z2MHUGHzW2ZZ/A0TTrDnceH52ead8wF0Lvno5cuXv2F/+wFUmPwmxjz1w+m5HwH4gxcvXnz3M46l+bm/C+DD6b1+aO9Fvrz8/uTVBHRc/A503Hz/6m//0Dyj75qb3CL94fz7/8DP8uv2Or81vfZXIeafvAUKaPI2fuAuJRPR844bePcE0iea6XcfXf/9yu3+4dXfv2tuMfKzye/DEktN1HwfurD52PmHL168eMOybAvNH0AXObrQ/2LwSfPBdzGNg5cvX35owvat89TLly+/b2Lpg884ln5w9V4fXr3XF31syCfzg6uffYP03au/fR8jnOKtc5OFYnwfwG9b+Mf3MYUL3fhZPsTlmGPoxlcYCmjyNr7zln9/lsni0yYDjzH8YIr5+mB63kd4h3Wb/Gxg5/1XTMS4q/UDDKvhb7x8+fL7b3mqi6hv2Kauu17JzyzvnA889vTq19f//mB6/Py3W8fSR1ev9QHIl53vvOPnj971uE+Ym37j5cuXv2Fj6HsYlaW+8UV/SfLFwhho8ja+41afaaH6VLeV7cg/hC1QNuH8+vQQf43fffHixQe2m5/dV9+Hxqv139niRn5GePHixffcjf7y5cseTziNnd92gWJj5HtveY05LIj87PJJ88EPoNbp79nvXezM89SvT8/1eOgLQ8BnHEs/APC9q9ciX25+0+YPP78+Lr4PHRcunPu4eNfc9OLFi++8ePHi11++fPmhhZd9H5eeju9evRf5CwIt0ORtfAgVub8Lc23dEIP8e/bcH+PSuuyuz9+Cusx+0/724fQYz3b/I3Oh+ST11ehCQz4L34OK5NkS9Ft2/xtQS+CPp/PvMYeecPMjXFZwIT+7vHM+ePny5e+bmP7D6W+/dzVPfXj13N+a8jpuGUv++D+6Grfky82PMdaWf2D3vwedg340ncvfsXHxrrnpO9D4eUDHyncw5QNB17If2785L/0FIrDTzNPwVelE6Nhu+rvQRJ2bYk4/63PtcT/ClZvWLD0fAACTB3/28O6U9s83us5NVueL8TM97+YxSb66fNJ8MP3twzm3wsqH/RCjesf1328eS9N7fek7Jf5F5sWLFwIVzL5x+qQ55uJv75qbpjUNeHMs/QevlV92qA8/GQroJ+KrJqA/L2xhc8vzr0MnuL/Ler6EkD8vXEAzn+IvHi6gaXz5Hw714SfDGGjy1Pwehpvr+6B4JoT8+fN93F5ujPxsMK8xhHxu0AL9RNACTQghhJCvCtSHnwwt0IQQQgghhNwABTQhhBBCCCE3wDJ2T8Q/+kcvRUSgt4ZSKkRad5H4fYwRMUbknBFD6KEfAQEigABoTfr9Xkq/r62hNcHZftcEqE3Q/DkiAAStNX3NEHp9OAEgAjQRiD1vL4LaBLXZAyCIQWvKpRiw5ogUA3KMCPb7GPV19gY0CagN2Gqz1xGcS0Vtgm2v/XfVvleVoO9hrxMgyCkgBiDFqD/HiBACcs4IIaC1htb0OJZaIXYspAmaCGJMCCEhxgTYsRT71s2e05qgVH0NgZ8j/8p6rD8r/5f/7f/qc43V+a3/5r+5+jjBT45/PYQwjlMIASlFBASklIBw+fcYIhCAX/yFX8Df+89/7WJchBAgraHVBmkNZS9opWA7b6iloNaKfT+j1oqtbnq/7Xj16jW2bcfHH7/Gvu84bxtevXqNfS+opeK86WOl2piHfb4YkVNGShEpRqQcEUNAytG+R8KyrkgpIaaIYJ9dQtBx25pdD62P4/na0mOltxyTvmaMWJcF6yHh/v6AZU1Y1oy7+yPysuh9zsh5wd3xDjkvSDkjhIgQE2JKAIAP/+k/xQ//3/9Ix840lqr9XGu1zyTjo9g1d/kZgf/rP/z9z3UM/e//D/87AYDWdOzXuul80SpKKWitotaKEANitPET9DPWUtBE8PjwgNcPD3h4eMCf/Mmf4Hw+Y9ttXDSd2wCdJ8bY9PksTD+PcRpDsp9Tf3yM47F9LrwKh5vHM4Axtqff9ecEnUv19fyjCBAaEAQhipqVoiBEnYdyjohRv8vhkLGmhMOaUVtDqRWP+6bziABS9JxKDfo+SIghAxLx+vUJ533Hthe8ftxQpOG0FxQ7VnlJSCkipnjxvUUCIECzeVhkfIcYYj+m47jo/T/5f/7wcx1Hv/Ttb4i/Wwx6SwG2bgHZ7pPPJwBi1KOij4/6nKSP83k+RX1civqdvvneAX/zFz9AtseFAMTp53Eug02Fwe/G34FuLvTzHkJAiHkcvzjGSG1ArYJzEdQq2JBRkVBDRAkrQl6Rj3cIeUHIq81F+oZbaTjvFR+/Puk6VxukVUAEQQRrTliWhGd3B6xLwrNn98jrgnVdcHe0+SYlHNYDUtR5Tr+DznO6brX+s6/tIoJgq1tAQxABpCG0CqABNs50BdT5JiX93NGOtc/708Bh7OknQAv0l4TweY3YW1/sE9TiTS/1Hxw6Fd786cb48U9/tHziB2TUl/LGcfjzjIcTE43vOhVycfeOl3hzcyPXj5BpQ2S3t32Pi1/JW1/s7e/TX/jP79B83sgs5D/5kZ9+ID7hPfz4673/HpPRYH78fC9X/3775782Pshbz6tcPr6PK7Gh55vl6f6N7309qt59vPxVL8b1zYdP3jwe49O+41hjGuef9fx++fjkufspv5N8xt/p7/10y2eZM/68Po4Rbnkw+XOFFugnQzDPqkMTjuEfg+68ffcd47y/CX2hdmsQINMuXHf+EmG71oYoQBC1XLckkKbPazFcLCZviBkxo4x9JjcfqNXDrQ2hWxqu9W0ToApQRa3LexWU1lCqYNt151zMQtxkWIdSjP09U0S3Tvj75TSsSb6QqBXfrdANYsckRv3uaj0LiCmqFQdq9Z4XGhG10tuZeYemk/7e/TdfyCIV3vxX/0zj88zj4i1PQ7cxdAvNsGCJW93d4lgbWi3Ytx2tVpR9R636+30vKLXgvG8oe8G2bXh8PGPbNpwez9j3Hdu+YzvvKEUtm3XXe2mCIICgIQKQGIHa0FJADQG5qTdGWkRKEdLUMiktIbUImAUaZoFubiVv6uFRq6paCfWLjYORUlZvT4hYlgXLkrBtZ+QlYVkynm071mVFLRXLsmJZCkILWJaK5XBAigmSBDEv5gRwv0YYbyP9BAFX3p4vcpGrdjzcG6ZWcr2GavXjVxBjQIsVkIAQ0X/fWsO2P2Lb9HY+P2LbzAJdK9pbLdB+DOzerc+TBVrPb0Br8XJMhmivo5bZLhjNHKtW2twtkSLJfhfhHhp9P5nGO4ZDok94Oh5DDEBSayokoEmwsRNQW0WIgt3GWxVBs3kHIur5aoDUZleZWvukBZzLhm3fcd4Ltn3DLg3nsqO0CgnAEjKiRL0l/exuHW1N0KqgVUCqXduwORhADMnWi8mS+sS89V3l8o99OZnmJz2zsyV59qb5i8jFC/g6hBAu1qiLT3P1Hv6i3fOAMd8BUI/YPAeKjoEQ1Vtp/l80qUDb0UrWodMAZB/jadpP6xsJ1Isgtt41GULbz2GOEUtMWHJCTgkpxr6+Cpp5IcSe65tBG69o9rGbfyMEUY8K0BCC9IM5W5hDCAi+PgYfrWJrA0X4Z4EC+gkZ2kve8jtzobjrfXI/9qeEcLHFncVRCAGIQGii7j8TziMUAZBglo0aph3zZOqbNbR0RytCkHHBBfNwxjAmpun7zC/nIRxVpIdrFGldyLt1ZXx3c+9FQYwRKYq68fz9Yj9S9l7S3eL9u8il0HUXXjTvnq2T3cUvAhXPs4XsKz6BvNNg75ugKyt/13jTt+4bi9ZUFFUTV7V28ezhM6021L2i1IpSVGDve8Feiormom7MWvzx6naEiQzfDEURNB2okBgQQoRIRAhJT0wCpFb4sxBbXyGbiH2milYFpRTU2rrIBy7PaEqLupBjsu+YADTkErHvGSkltCrIS+7j5LAWxBCRU0VL6pqWLpzfccC/hGPJr3nfdM73vukQaWgCRAm6yW2wv2uoWK26cap1R607SrVNlYV/+EZWmokigbq54XNK1IU/RkB0rpMgCCEimpUgBmg4BxoaEmJQIerXendbxwhAQ070PdpFyAYAdWdPp8TnMxfVElTwe9hcaPq9YfODHTg06O9bC6hok7CahI2J6IAIkWoGioBaGkrVDUtpFbVVlFY09CwAIQOxRQttSPZ51cUuTWw8iwpouPC0QJEkCKLPDfLuEfnnPJL6T+HqKgg+t/sxfstV0pev6ZxMp8jWl9mMP17rUmgLZoPA297jXb/Ua2H6jNNa4g+L9jmiCAQNQSpEIqQ1ABUNFgoXE0JSCQox4WzzUzfO9JBA3xwOY1SMASnEPgZj9L25hxaakJ88DU60cQzx8IwRpnGxefE1IHro01V4lIQv2Wz15YYC+okIQWbte/HvHu/XL5w4BKUL4ACgybBuXQ9z38nbRSEt9p2nQBdAsYkc0ixOT8biML/stDsOQWyStl2/C9pufZ5jHMdLNLvYXSepiNYFBK6dbFLwydC/f4oam5pMpHSrdxzf2y3mQ0S3bvWaP5MfD7VceRjYsDdPTtceG92Pt0/W8wR9cU6/BOFhF6E/3dTyGR/fv0iPIQxAjyl3Ae0iupg1Wq2MDWI/+992v+1qrVYhXbHvVcVzbaj2PGkCqR6zZ+PQAhUlBA1JDamPY5GIAEGt0c5UUquguSzcQqdi3wR0UUG/nfdxXj32L6p4izGh1IacIppU5D1azHNCrQ3LkiFNVVQ5HFRA56wCr3lcYRwC7eLIyluP+zTA+vYh4OnGkudADPEsJpz9OpIu/JoJYLVA6+ap+n3dUWpBqRtKUSHtY8UFdLcq4i0COuhxC2gmFFWpS0h61dl171bEZnPjhedI1NoWoAIyRLckB4zJczoX06ZfBYyNCr+PU1yxTbatizeV8tU8bM02fG591mNqn63HpcYuoItdK7VWlC6eC3azQKNqPoCKKHvPqBtKjVWvqFUgRXrottmckW0jkSy2/4sjvPu3YWzfQx//4++ztXgYZ+yLuvdgfty0EZoNUX227gL7Sp3P/7ZzFmwzfBmNJYgucpuK5yZBx6uYp8WjjmPr4/ldx2DeCgzDvMeyq3jOUdf9NBuorrylXTzbJiX2by1joQ8WA91fAJeCPQ6tMTxDU4gbVfRnggL6CQlhXDq+w/SfdWBHcysHC13wnawO6GYW5mHUkqsJx6zQCEhh7MsFQIw+qZskFEFVU7C60mGvZ8+IQSfvCF2w3OIc54TBAJ3oLze69kru8EJPdKh2f3lMLHQjWrJYDEiW+BZDQIrzxDkmj2559hCOnkQR+rFwwR8tHKT5a0C6ha2HckyfWfoUP5IyvjwhHFe8Y74eaTtXf75+/OTG6IuIi+bWsG27JoaVXZMHW0XbS0+W27Yd+77jdDppqMa24/HxhPN5x+l0RtlVxO7nXS1o0tCKCnA0kyYiw83YVDjpOUyQGBHDAkS1+MUS1D0pbfb9ookm+zRLTi2bWsHLXvD4eL46X4KYdoSYEEJEygtijFhOmryYc0ItDYfDCikNh+MBx6Mm9NRjQQgayiFNbOyaNUrmwzxF0l5tcuY4WZke/1QMAS1dPM+hUH7r80oUhAYVzm1XAVg3lLKhlDP2fcNezj0BUZqYKxjmVQJG2IZbvDx8w2+tJ0shQjc3Ng+mELGseo5Sit1K3qRZOIrb3Np4bwvzGpfr2DT3C2EWUTb+PKwnBg0dQlAvmgTdgBe7PmIzId/GuHJR2wR9rtVjqpbzYlZ7ve3Ymx1HE9ChCWKIaCEiBttUNDVDNhHstjmsu4oj3W+ogFqWimhJrSl+calNb0RSXP9t0q6m3S5CAmMMPZTRPYfRQvBiGn/TxENbN10pWxK63l2LZgEsRBDRPZjT+b/Ik5jW6KAWnmRrT4IgStEwnbKjxYYWGiRmJNtpdnEcxli/9NWOBFAf0zklZEue9u89vMZtWu+kD11fE6N7hWdnV5vmHbn0xl4kkdtYUW+fHrvW2ie4MckMBfRTMQ9mt9za5ACgX1AhXlZQcHr4wacZF8P0mGuj2NWiEqJa+tRd2lQuRlErNfSidKudWmUuBXQP7ZiVANR9mYLAjC9YLKQEEtDSmy69mMzSlEZcdRfn8DhnfW2f3DyOsza3RPuXv7xXa7gAVpmhZyzrC8+OLjsowUSO7eqDH4twYanwc/alENFvQTDF5GKsIRLeYk03q4OYoPW44drjnTUMo3johlugm6AUFdDbZrHOm8ZCV7MAq9XMLJ3TDS6CMcaQb1vm+9g3McHCbxogEWhV3aOATfpjvM/xs75IweLc/ZxDoJ8lAChF468RUEJErRWPj2fU2pBi7G73w2GBiCDl3Ct95KzVOLQKwyRM4SL60przlEL5Xfii2ZqushoZNotbmJjVjbf+TixEYgiXN9zl07zmrqVZPI+qG/b6GL/X0C2d95ackXJGjgmHwwE5ZxwOR+SckHO2uO2K2hr2XTdm264hO7W1Keb1YoBPt/G76w1MD+vy0AzxsaKjsFYAMaI2CyQSAEi6QQ9AjFptATGiIfTCB02fpqLRq0zABaIO6THWhxvev4h7/TTMxb+GQFq192lodjzf8Cp+zrzFqNt//4ZlGbNovvQQDgEdTCxbFY8lY1kXpDTlCLmBaRKNPuwuz+ibH8pjpi/D9nQ6ahevMYU/dsuszUMWZxxaQIhNf56qYPga30MgYwCa9LAJrzKUczLRPL0f0KsK+eZpPp7zGu/Gsh4TLrFfe331tg2zexq7kWl6jevz9sXPUl8NKKCfiGhxUCGpQPUdX5gWl1FabEwkMs2jNbgrRrolFcEu2jAu9ov4v6sQstTdggBaU8s0BBVRrzuPTb4K0YjJwytsN23iR0yc9oAICcgQ1BzMogJI1qTAEvWtEeLk0oOWArMyUX5VN7fTSbPJzZJ1bIWrZj722DA7yOgiYHJJiQgqKkSg8ZtuDZ+1jS/2NjvpUq87gOh26WmzA+ANQf0UDPE+TuvkDxz7tOs4yLeKuOsyhmrZ2y2GuZaC0+mEVipqK9jPmyXq7b283ePjCdu24fXrR2zbhn3f8Xg6o5iorsXip/dii7yWdBKxRcfe3TcrHtMZIFAJojGx0f6twaUFgqTnvo0YVZHx/BSjiuIoSNFiqNsYs61Jdw1XCyuCuc1jDCh7QU4Zp4cz7u5W3N8fEYPg7v4AQcO6HnA4rLrA54x937rVtvU4ymlxnm5vnpKnXa6iJxNE1YdRfKs8LFIitcdJJqsA6eMdvgjbmIOLOozrzq/xEMe1Hi8s0C6m9RZjRMoJMUQc745Y1xXHw4r3n7+Pw+GA5+89x+FwwLquPZmxlILHxxNO5zM++smf4Xw+43Q6awhQmD5fv27UJ9Z/7i5uC9Nwq580RImwKBZICQjJHloTkjQgZIuNjYgwT0YAQsoqpMU37NDxFUStqKLPT5YMuEjQnJQg0Ipi0q2KF4pT1OARJaq1PNimtBYEAUoISNG8Ok9kgQ5v+Xn2iPrn9yvaRXOYrMwxwMqT6i3naF6h2NfA9bDieH9nfzOvZZ5S3SxYXdo4v100+qYWWqIwdAUNWx/GpFnQENsUzoMpmmES6T5vhVb1fIn9LElFdLT0WPOk6hMj4AalpGXsjkvGcV162boYg81ptp7aV4jRpyY7TvC47BHa6Bss+CeXMaejDeNBP2iTNdrPmy+YEq4lNXkXFNBPRTfMhO6u7qLZ/pgmy3O0mcLjmOz6+WwWaDc5Xt/bj7Fbon0iUVeV2Ba+R/z5znj6bKlnNgSzYM3PM0tIDEgiQFQh1GJAsEx+SeHi4g2ALk4e8w0LtRCrmDHFf1WzegJTJYH+vafF+8ICfVlxo3Xh7JPkZIG+nPXHrzAs0MCboRtfBkv0G9af8O5H9mTQGHB3POLZ/TP8T777XXU7t2aJgrWLFA25UAu0TDHQraqQUcE9rM9lH8mDrV5WeRCZrM+WKd69GJPt+U0LtLsu3URYdYEIbunVRw/3qFs1w9i8hkmquosd0kN5WhvRrmhASqUfExHBs+dHhCg4HFcdExHY9xUCwS/8/F/Bh//8n+P146NdaHYh2vUXpuMvFxfm09NFcjOLmh/1MCxTwwLt//5sFuju5fJNuP1hVOEYFuhZTKvAshr4KeOwrDgejnj27B53d3f42te+huPdEcfjEa1VbPuOshccDq/x+iHj4fERtZRJ4M+f73oL41suE9PTvCfuKRu/1jm76TGqJvxra0BIJlo00TXEoLGwUJHoKkhfq/VEaLdARwSEarXzMRLBLpLA+qbj0gLdPWgWOuQW6Ddngs+fcDVXzh9hFtOX1me1nF5blLUPQkDOCc+OC37xW+/h53/ufSw59rANP37diFCrHWo1kmiuUMP1PsnHRJwO02yFdi9CuLJO93tT1CqiBUA1r3A1z9jbLNDo15G06dxHrWufrea3Xx8+J+lbVfT50I06QWe5FHv0ms510fcF0yRnY9pHRjecyOyhpAX6fwgU0E9E3+FdhS9c7AKjXyyThdEX4M8yLwbBxawBXFigw3hTACMuGL4zF+lWbxdYvih6OTgvNScWt6o66FKEBljCn71nTmOBluYCerJC+8Lcw0dU1Ki1sI3yPz0Rcvy9fx+zvLuzq0uU/vi5QcqId7s6QUNDI/Qi6QH6Qi6Ur5N03va7z3ccvf133YKOEW86YgktPCh47Ju6w//er/0avvnNb3Trs4hoiIYnPJXxszSxCgz+uzaSB01Eu+jWhEN7fpPejEXcigy7dS+A9CHs36mHa3RTbhtjLWistMiU5OVW0OCuUvXypJRGAg5kcs+3Lpybxfh6+F+AbhrV8geEKDg9nhCj4Hg+dlfsoexAAPIS8F/+T/8eXv7xj/Cjf/rPuuxH9E1l7Jayft76pfm0S9aFJ8WFbV/sJ1EbJtdw8KY7ny7SwsW5mDdFsb/u/Dcg9NC1FLWM4LouOBwPuH92j/u7O7z3/nPc3d3h7u7Oxp2Ot5TV+vuTw0+xbztSOmtiIca4GtsVF88ewtWGl8q8ew0NcQwsaHy97YVE0CTa/SzK9Lvp1066KYwBsUmvjDQLPxeJUTRZTGSO+7e5GWNISxhl3jRGuo3x43Oah5Q8pYAOb/4Ypl9cjCG45XnckiXM5aRVp1JSC/T9ccFf/uZ7+JWf/0CFZs5TYp29ZlLjks/3AWJx5EErqrRo3tTYvarBzbaTVR+4WCItfGdYnmvfXI/E+CFyNbFQ3CM7haWNahjzERrrewzhIlzTTuaFR/XKTIMQpCfVp+BVanyTG64EtN43kW759hCzt12r83mjev7sUEA/MW/XWTrFDzdjsFJdw/Uok2C8XMPs72gXllYXi75m++TQn2OhICm469ssyBcW6BH/GM3yEYMLScBn/TZbcII38lLrlohgycG6JCaUdXSJ80nK485UwOmkVaqGWZQqmLsjDitwMGv+tFfom47JOT670+24erjsvDnpudthCIuR+mGT9Tss0E9JfIt7dh5Tb1RyCWrp0I5+2t3ym9/4Bv6rv//31b3YBWTtdZrLXlC2XSsrWN1faZ4MJfY4tTKfzpu6zh9POJ81kez8qB3ptvNmz2maeGiZ7KFZlQazjERoeFIMEc2sM1omLEBC1dhBW2xaSvbdoofVm1CNXbggQC07IaDljJzV7b9tm1WJaDidz5p0WCv2fbcyeDLiDaWhxoAQGsKpQlDwkz9LOG0rQozYtiNKqcjLgqU2LK3h2ZLxt/7m38Cv/uqvYq8VL1/+Mf5/P/oQEiNCrZZfoBflHL4x4vufZgxdC+jrNTMEEzs9ZlevsyaeYDdV0fCb+mgw6vr4oPSraNxEPEhnttAlrOsBa17w/NlzPHt2j2fPn+HrX/867u/v8cHXv4G7exXQAKw+ecXj4wN+evdTPD48YgkREQ1nCzHaqyW7auAQcFGxR9CkDOHidaBrQoV5zBA1xlV08xliRIujS+B8G6XjxhzdN2JJH7bk0MNLKiJy1WoyJdmc4tnObo2EGTNES4Imy0rJIaG6JTomhKZ11LtnRp4mCtpDBjykIIZwce8iL3tCaAhYcuzhGzlpcuCSI+7vFnzz/Tv8x7/8LY15PqyIKZmH8nLOaxauESz8wrupxpgn632zmtxTx1/3PEpfMVHrqBa1VU0Y3auL5dD7FVTvoQDLuwmAxKpiPTRI2RCDhpm1KdnTS3Y2U+AC9M63pTZstSKUosnVFq7oc7jOYYIlRqTQrF706JPgno6RlKvnw5MoBZpg6rkib7M0X3Q6Drpmt3gdbEbeBQX0EzHiZq//onL1TWE99sX9Oeo7MpGHHqrRdbeLaS+jZL96w9rql9IknlsYu3h/bDTX7YiH7kugCUy7SK1EXICWcu/Jjj0xSeObW3MLt6DIcJ1rAXtrQiA6wVRvtNLGrr+1WWSE6dhcHrx5CfeiHw1XYRazM8CtSfbBe3WUMSV94nzylGWj3vZeF79yd2kYLvH59pe+/W3857/2n1l7b3RB4a2cexUGsYoGVsJttor4+al1CGkP5ailohZtmuLVNqSpUIV4bJ9vYVo/XylA3a7mpQgxas3nEBBQ1bIUrfFKFE16jSpIPGZvlCWzesIpakWXDC2jZ9Z1oCCGgAKxSg4FYhZosTFRq0Zhl1KQ9og9BZzOZwgaTudNQw1yxl52K4dnTTaa1i9flwV/+2//Kn768Sv8u3/37zSpTJr76rulvYeWSMBTDaNZQIsr2L6ZNGE7/b6H/EyhGFfD7WLcAbNX5tLS3De9uDR2RVglgiVjXVeLMT/i7niHu+Mdjnd3OB71FkPQ5LlWrdxgxf3dEdv5hNPjgiZa7q02807I9F4yLIdtisGXIMOi2VSCharl9Dx8Y3i0PMBiEs8XJjzYGJzCFrRMMLI9L1d9bkrRrI4CuRLPwbaYc3CTXicqRlsISLANpEyi56k2Yv5dx8e+KG86V9dIYYRTeYk2bxj2wXtH/K1f/iaOhwV5sQTSZdHcGMAXk6kKRdBz5+c1zk297MxEs8rXaCFYlryMUY2qiVZVUe8TsDegVmBrQX8nQDHLc7V7gVhpRzMGmGehtQrUiBB3C2W08JqGPo/qGhn6uqe9EWCJr0E3Qq0CVg86+XUB6aI5z8e595EaXp1x/n2l7qa46XxJP3sXFmgLOxueTPJpUEB/qZA+GY5yV/r7N3ibFbpbdkcxeHlDQHuNibHwBYwSOG162cnD2y2F7h53cepZ3yoCvImLqQT/mDGqiLIs6mZmZq+K0drcYckzkL3sHfrfWnvbQRifdYi88f3axRG6vF2+lHRrnIeb6GsILkoi4Yu1QHebeHjzMwzX+GUzHrdGf/tb38J/+ne/i8N6wMWmwEz0c4WNZk1I3PLsmxU9P6PMXZlipasJ6V6Bo5SxmWu1L/JyJaDHXitA3LJsgRno40u9ABofr4kuEH3sVA/SslRtHJqlOoWEGLVxRfXzZ+NdLCTFv78fjmYxSDUGlBIQd8H5fIZIw/l8Rk4Jy6pxuDEmLa9WK8TCRYIdrO/+J38HP/7xR/hv/7v/TtMh3Qptls8vxNDj6+gnKPZRDcWvh3nszbHQc4iGzyxzmFp48439lfvD3FOSkVPGsq5DRB817tlvd3d3GvZgXpElJZRtw/3hgNO64rAuKHVHgKAUG3LBXeo+3j2cp1m4moXzeA26aWIUBItRjmrNk7d5Cuy4iHdym/bns7iMAVGABFhX1YCadJy1ZgLaXs6vkL7R6iF4arjwihsXMd/uIXuiQTWHjs2RERFzfO7UYTd4h92RRLguCX/jF76B45qRsiaSpqwbqZjSMALBEsd7jXo7JkHTOBGChnX09/NyjUFDXqRB4Jv4Xr37ok9BqcE654api67V/G6eQ2ObwwhNcva+CK0CTWPaBUETUG3N0vlvjJORi6OlZFsT1KBiO7VmZfm8JriYJV+QYJ0RQ7DqOOPa8Y2vX1PD5mZjRC7HRXjjHA6LHKXzZ4cC+om4FF1zfdLxu/kn75A0l8Ga69heP2+UYTIXVRuTjCvG6+nVLclDW3viiv1znpjdSiZxepV3TdQen+UuvoBmGqemqNZl1BFfYgkfzapr+O5f2ohH++Qd8VXcmMx/QZ9QruMDPflR5yu3YordxlTi+/d+/F2tz6r9iRh1O98uoAOCxQtaqIP9/Gv/2X+KX/7lX+5hQXPDh94IxSzIZS9DSDf3DGjoQ63V6itr0uD5vGkJu/OmdaKLVuvwEnh9APZYInMz24Yv+MTebHPVy1eFC2uWbwiSWdI1YcvKQyRtiBJiRKyi8d1rQERGSF7dAWjrgmp1Vx8eHwAIai3YzueLGHAd8k1DXIIG/TTRBLXzknF3d9SOcE1wPBxQqj7vcHcYn8vG/d3xiF/4hb+C/+V/9b/Ah//0n+Ff/st/iW3bxuh849r+/Lnu0nmtcT03IkYrJ5Y08S8lO/btUjTPFuY3xfP8WHO1hxGLn6IKpuO64O54wPFwxN3hiOPhgHVZrDFItGGj4UMxJ03ASxFpXXA+rHjv2RF1vwPKCWsS7HXHY1bLoLrqVTaV5u7yitKSWaT1/GoE9LTJtrk0tGleLRY2VDThrAZB8s6Hvlmc733mEbcimgU66fGoSf14LUj3pgBAlWgOeA0liAJLcLTynkHb2iNliDfNeGLx4yEcKQC5h2uEKdFNLc85JfUExdCT5nIK+Hsv/hLyEnG4W5CWhJQzljUjLQvWw6rdQG3DLiKQUns1iWbeomCJlAFAzlayMnnITULMCZ54XMpuYRIaltagNZxraCgiqDGiNp2DWvMkdhO6mIxTnisU/X08zLEhhgpBRA7AYkK+RvTcjYCANQFLFBXH0hClaDx8jUixIUHDdVKsyIh6bGHHTzRUI3r3zq6Y1cQ1OaL70uT7wV59ZzIwXW9v3fT1BefEf2WggH4yLkekxz32drIe7+Yy13/v8ZH2GhcxvW/cJhH9zneX/v7XFu7u5pyEs7vHe/tfmVydwPRZ7O/WlEULkMnFi169iz5+eo0mQzC7C7knOmISjW7aweWF/vbthS187t2ScSwdd+POcnnExkyPnD/6LKKf0Iw4Nl7DVXz5gCGKXHh++9vfwje/+U1gPm82aObGGb1tt4fKTBb90da79coa3lp4WKtdOEy1nu3M966YPu5mkWE/t2bhGz1kIHbLnXoyAppvDEIAkm1EW0KITRtJICDGBqQEWzrVkmXu+hgt2j+MxbDWenEfEJBS1e1rS2aRD6ilIgDYt4KSd+xLwbbtiEkTMlut1mWxWTiKJxQBH3z9a/ju3/kf49vf+jn8v/7oj8Y1MY/pJxtDl56bPpzCPKwv2/x6XLp6aTzEA1duqhHeEezFR0nJMDZ4IdhGKPQSXuuSseasNaA9UbkJ9r0gpQ2nx0eItWqvS9YKDgEIUtHqjhyBQ464O2RIW1CrlnXzet3VQsGKFLMAVpSq4R4iDaVueu/x0QBqt5RbSIXoZCQVaFXnoxY0wrrHpbjhYi7tCZvnbDjMe98LN/qU3OJWwyAeoz7u0Y+nVZhxSzT8tZ9mMCUbO16yzeOePcRALcEj5jlM1ue//u33Rwz+NM7mCkFatk+0uRKmUrD2Fb1pTrOutq1q+bvWEoK1QvcyiqPRZfVaqmoUSX48LewrBqTmJlzBElREh35epYcnRa+gEfXnZBt8WMnDgwTU6Ota7OvWmoeIzlGQQ0MOGp6ToaVmkzTE1ux6seKcEuBlXIJ169QT7rWK2rSWTt6g7lm9Ghd9HR1zs3tnyGeDAvqJeNegdEuzW6Vl/AEu4vx3bRIcF8EIno1nFzjMetvdX+KvY6JpcvXJtE0N0yLXq3B1d7nJ34suRS49/X2GwA9mUQGAXh3DhJ0EjQf1drileTyYWItvnVi95PTUwPFCAHYjMPrHm6z3/m97z1kRehnBfhTGv4JZiy6DWaYtxpXB7kKdPwG9HXJfhS/FUE8cjBoD/O1vfQv/8//yf9a/Q7dAm7XVwy/2fe9JgC6i+7kzF6aWp1PRuG97tzzvm8Y8awOVaiEcBa2WUcHBFrAWNKFLpKGV1hNsvBbziOsb8ZSefY8wyiiGoB0AEdUSGWNCSAlpWTUhrQHZGnL4MVNrqlp3ooVo6Pex5ELvkBh0jPSW3gDQBGdsKCnh4dVjF1GH9WAtyYH9vXtN2EylB0DEaIuelW/7q7/4C/irv/gLF5vdeQMKAP/H/9P/+alG0xg3kIvx4yI6RRe7Gtbi52RYlWcdPYScTI9wEZ1CtDy5gHXRY3tcVyzLgsN6wPP7OxzWAw6rJrtKLXh4/Rq7jbElZ+Ql425dsOaInCIOOaKcHnBMgnCXsYY7vHenzXC2suqcCaCYCCutdotmEW1FXkvBaXtALQVn72TZGvaqc1gTrUiOGhGKTjjVxIqGKlSTMHhz4wnbSHnyqM3V0UW5j3GE3szHsgPRJKBVS2gUwJt4aBiH1jgPeQGk6bzsRoAn0j9Lck+LNstyC7SGcfjYCVhMaMYY8B/95a/jL33tDiFBhWay0IsUEXNAzKMrX87ROoxqlZxmdcv7/FEbamkom847OWsFl7wkQA5IKWE5aChITAkt7ppXIclKolYgVKCqBT9J7HXk3ftZLLyw9mR29Wa4gPZNzLIm9fqlqFV/ErAublwK/QZELDlgyQH3uWFNFYfY1FIfgAMCYtPNYd7turJKM4gBQcyAgEVrgiOiRYEg6bEx4VzFS3fa5saEuI/LPkJFK191o4YJCYrozwYF9Jea2fL85v3bbsBklZU3Xm6IcU+mEQ9ucGU42ztcHF/Zr11M9wsyDIumXFlyA4A3kmym1xva/6KxiX8ejffz95tVtAvjdx256QjOXuW3cGmBxic/cLJ+T5L0z+2Mf+pHuLJAT2dpesywFP7Kr/zKm19/8li4ZfnaAn3xpW1j1pp0y/OlBVomC/Rlt0G1HNnC5J5GGysjebGhFK3rHWo/tVYXFppIaAKtzpaqlFRwuwW6aQRqTA2pLN0i2qrFKlopP9covlB4XetiFUdCgIawBE1AanYsa6mQBpS9YM8F+6abiXVfUHated0t0K0BsZlF2wrAfkm4DOGYhtMUlRSmYz7Xph+/w1ss0GOA+v/nRMJo17Nv8HKMWBe1Ovv9suTemU2aYN8KWtXxuFs4DsqKuiSsOSKtGa2oBVpyRFgzcmpoNeFQQ6+wUCVoVQWpZmFuKC2jFK02E1CwW3hFqQ2hju5+XgdMEHqL5FZgG3Fr5ezf2YQuIFNVIDdWjOtvvop72/E+MMfm5Hqj4smF6hm08WxJtx4q8lTzkY9ojzkelui5CsfUGCwGFc9+Dfb9wtUYi7MFWsMfNPon9GHmBhtt7FRQ9tp7BAgCltJsfdJOoTHlHuYi0du/eydJHfTapMZCIcQqSZmADnF0sQ1mwY4p9pC5boFOUSO4IpBkVKtqMjwZSw5YJgu0hnOogM7B7MlmvIoBCLUiRLM4N922hRYQ3NQtXsKwQcQqTcmUgxTG9TcPP83HtGwrmX//dGPoqw4F9BPxRvMNYFZDbz5en3SRGDdEzySY5W1PfAuT5ruw4mKKlWoy3OX22P4J5U2xGIK7woYQd/HV60C7i8gNK8BFYuCwuPvHnCzikyVcGoA4RPbFRX69ME3H2iuLXB6syyCPSbWP7yjzv6evfhH3fKU6noA3E7+GPJ4FTwwRv/RLfxV/5a/85Tc2QOr21Mx0F491jnmW1gtlNIt7LqWq5dkaWPTEwalGtIyA9S6wYpjCktQHOgl3sc/QUOvwqPg31MotuKz/OgsyEbVc9SNQNWFVgFJKv75S2bXG8JLRixP6JiMMkTdfX60KWnTLuC3g1j103wtS3LDFiO10wnlJWNasVtIlI/uC15o2FJrHZPjim+68a5K43JxNNcS9ygGmzUsfb/3h46njq/Z49hQTDksyN3fA3fGAJWc8uzuoBfpwwPP7g1qgD6sJwmhlMwWQ6o4BaAByQ6tREz+lIIaGlKSXKRAvdSiaT5FFyyIuUwmUFlaUfcdeNsTQsO8ZKW4opWErDSlo0mlrUZNPoXX9xCci38TDP1i4OLSaLCoX410F/diwjsoSFttxocQ9bMOvn3DxeHFjhYmgMd8+DV5dLoXQxXIyS3SAi2ZdC3KK+M633p+u46sN3DxH6A++snTR7N6LXl7R5nWtC15HdY2qc0atDSEmJBFkMe9DbX2PE2JAhpXONE+r2PzgltxYzYNRWi+jGqqFVvR8FPWGZPP6LVP3we7XbH6RROQUkGPEIQekqGEiMQQkaKhIv7Ym36h6IYJ1Z/UikJMHOsjVujSuy755teY+fmQB9Si79dld137cyadDAf1EzIumhzSEHkOLPnF6OIRPKF6/1JPs3J0+Fvuxy5Wp0YhMF1O33JqCjaJWXZlqYDb7KMGtT+ie7LEm9jAQF2rSFyOPn+p1dGcr5mQRlRB6bWBpTScMaYhoSN4SI0Ddk1MPjRYvK3YUK7NWZaw302Hrrk5Bs7VtFtDeQMEn6zFVaZm0KX2wt3UcG4Bx/uwx83n8nLlOBBmf0c+bCpa/+3e/i7/+13754pHdIdAaStVEwW3bVAzvLogLanFvAnDeNDnwvG34+ONX2Pcdp8dHC/soOJ83lE27FYp1ukkhaAmqME3IVoVDLbQVYjWYS7F6qJvXhh4LqHcnyz2EY3gmQgiaHNgikiS1VEWz40UBwhm1VHXd1oaUMw44IEnWJLQQzE2cseQFQEFBtdAWoOwNIhUpFMTYEJOO2xQjHh8e0EpB3XfkFNFEs/sf3rtHgCDGiAVe2Sbrouw7wKu4+i+itvhlMvJImvUxpKPK4kFj1NCLAEiMyCGieXnEECertIXfNC0JF60U1yEnpBCxLgue3x9xWBesS8bzuyOWJeP58YB1XbCuB7z//tewrgfkZbUyiYKt6msd1oiUNfnskJsmWwU7rLIjJU0CjEGAPdgGMKKJLnJi1/iyLFrlIUcsh6U3AHr1eMS+F7x6OGEvBdte8HguqKIJfc26E573hr0Jtr32sdp6N03A4027/BP0mg+lVNRWUKViLwVVmoY7eby0CLxDo9hnnoqdW24BbNPQtNFQT8T2Tc4nOtv+XDl4CIeFWY0QDgtLsc3XcU34Gz//Ab52vyJmM65E6PWtgewWVlYhUjXhTrRuvApna2rlxwIBOQe0CpQgtrkvdn1uCDHh4eERy7rg/r0dy5qRD1nLXvr5CqMKiHfBFTOLu2W6CawPAbDtU+WhopZenfr1ux4s3CtnjedP1mkwmefLQ0MslRYRghTMvyFWoajpOe2bICtrGERLY6YYpjJ21sgstC6kuyh2a3OIlsQZ7fyMToeaRKlzgHg4iwXpRw/WJ58KBfQT4YtW72an/7h61HV4w0jm6pNxF9GXVui3rr+CnjAx3mHq0ofeD25Ub+ruQrPwjQ8ziVSzCkSB+ykv4qsv3tLe0Wb22ZI+GZvNZY9hcZgs1l4aCpNg98AOdT+NTci1mO7Pk2lXPZe1mgzQEFg9WI86GUcqhDj+NW8qntgCfRkK4yc5XPw9hICf//m/Mg++iyHhmzC3PNdarQvfZIGuYpZctT67WN73HZtX6yilV+Zo06ZNk33M/Ozx9x7aMScP9s6HZunF9WB2V3XoGf9dRAM9bCBK1NALBF2EoCEYIqKJOJY4uLRFN2vi7aTNSpYSYrXRZFa+pn5/lFKRko6xZP149323sSM4nU5YDxmHdcG2bVj3FbVWpDo2FOr318/wto3W0xukp03vOwZZiFNTnnBpge7/7m74ya/eF3hz4/dQjYS744q7w4rjuuK9+yOWJeH53VETCA8HvP/siPVwQIgLSm3YS4WcinWrQ7+lKNa0QscqpCCEpqW9gJ5HEWOwhGfbGCPgkBPWNWNZF9zdHbCXBdu+IwbBtu8AoGM9FQRsaABK82oQASIbsDfsUi8juC6Nzz0srVufRfqmQOtU126JFuuIqQevmYhrEIm4eNUpXn40dtKfL7wCTzSKksUEeI1iD9XwPBq3FP/NX/wGnh2XqU+Mj50wXQ6eENimueEyYVULbGhFJ7duA1aXvgrKXlECEEJF2XXuCimgtgWLVITFQh7y6IiZc+obRRfQaoG2+vRFjTRA0MRUGWPJjUUQDd3w2O3VPC3LktUqHTVm3WORo3UsDM08ctWb+1R4K1RdUkaDol7fOgCjStRsLRobKV2vhqEhRu8JEPr67GVBLwSEDDFOAf3ZoIB+YjzL/yoI4CJyQB+n921y19V2KZ6HJRrdSvH28S8jJAIu4m0SgNbArD03ULpL0AX0iO2T/nm8gPz1d5ut3/0jXCUTXrrwBWJiI5iVUt3ytVsbZwEdLCEn2K69N92SEc824tr6Bzfx0qt/9uoHrVuqw3C5habl+sK0OvakvTg8ZF9GC3TQus/rslydHHjTWWuxbcmDmydSWRJgrdgtnrdWwePjCafTGafTCa9eveol7Dzkw0vfNQvjUAus2Vma1f8WQWulv6bHTpdSUKqglIa9lH6+RsiHuoYDYk9InYdU8FjZNFrniAnngt1inqu9/4LlsKhXI4629NkqP2j1mKlc2t60gp21W44pdqv4OUbUbcNunR1j0FjF168e1Fp6XK3Rilb/cMvzRRb8E7ra32TyxFx9HK0hLqNur1mxYrDGHd6Nr7vrQxdGTfPa0Ow4rVYVY00Z98cjvvH+czy7P+LucMDXnh2x5ITndysOi9Z+fvb8GZZlRUPEeS84n4Fadm2fvgBLBnIOSLHqzCUNkB0hNKSkAlo3QEnLwrU8jBUmOo9LxPGw4HBc8f5799aGvuCQI/ZScMgZ510TZO/WxRLJkiWSAUkiHsOOsvXMjKnUJvrc0Deq0Pl1bBR1s1pKtdKQVT0YvgmPETo/eft5DSvQZkSWTNesbJ00jdMdM2Tf4DwFh+QhDF7neYRWuBX0a/cr3rvPw0OR0JPDo9W76yFjRctKlj2gLDvgc4lX3ZGxuAUTjZ7DsO8F59M+wltaw3rIqFJx2BYsx4z1Xrsb5qhNWnKKOC4Jy6KW4xGUHXvjlL2YJy4Vq3uvCX9itaM9Wf+YE/Ki1ue74wFLSjgecw/tSDFaeTpAWoHUinpWT9xWi9aot6ZUozpJ0p1Ji/BCL56sGk1Mtzkh3tb44AfbPUh2c1NX88Fpm/sgWnMm2nGNQZ5sE/ZVhwL6ibi29lwaLc3kGYeV9LIZyii8LiOhu0/S0yWE653jtZidn3M15w+Lqlw+N0yf4434u6v3ac27y8nFx7l+f8DjpXXSbBZWoMkbFS1Uc6vBxJ8+r5qVdNQpnuO6AE/U8F3JqFct/b+RQ4++8AgiYnRL+WTKvtjZTIL6+mQ+1Y79wrJ/+TufPH/5l/7q5XPcg+FJNlMIjVud/VZrw3beLca54uHhQWs9m/VZ3dAeuzmsxvP/Lw6bWKhQlV51QwW3iYc6GquMuNpghiIXanGyQIfuvck5TXWKp5qsZp0K0a2hI17SE4/cjRDjWPx9QXZrYQhWvgpAQkP1Sg6lIEBdv6XsJsK0Lva2aVhAXhaLDa++JmOk5k7mSm/9+YQGn8sqNZc77hGXOqx/fUF3KzS8tOBlPHS3l0ZgSQFrTmpxXhbcHVccDxmHRW9LjliStyZWMVi3DWgNFRFlr6h7gdQdQEKUqGW+YrTY26FavbqBmJXYXFm2YfbkVu2qsu1q0W5o2j2yVo2htU1haA0ZmjdxSBoLm2NAtZJkx1WtmHvxawbYi8ZZ4/o0TiFxbpof/j30mUcAtYrE0C2QYiEjTXwDOM3/vUSk9PElEp58KI280dCvsYvwvxDx/G4d64yMtcs9BRG6MZEmugHbNZwgxIqUh4COlg9Ris4b21ax729Ler70rAq0WUmaLPbeATEGL0UXTaR7CxircCKAJLVApxS7R7f6utQEEm2jHz1UwgRzisgx9RrY2T03EIhE7YOAMR95nknZyySgBaGpZdu/WEzmaROPhLbPHSJisOxFm/iCz5sWdw97L20eVcyT0XSe8w1QiOZNeKJB9BWHAvqpmEqdyaS3evY1hjV1qr0xWZrlwuLcb/7orvOm98FsDTYrhWXpuoidwyj89VwBzeJbLNmgzeaWeSH+BAHdNwJ+b+/t9179QDvXaYMCd2MNi84op1abaJm05rvpkVIxBLQ+eUg7szxDXajj96MsWkMyt2A2l9l0+i6CX4xu6RE8VSm7Eb4wWx6G9WlZFvzcz31revw41qPe8mjZLU3jkufazioE1Qr3+vWjxoluG3azUPfQhHkXJtO48PFtq6WIoBWt1lGrlovz0I9afUypcOiJaxi1gruA7kl/FgOdogroqaGBW7UuahgHj6GU0WLXLTkh9CTFObylRultyrxtc6qaWV9r7aPASwBu+45tO+NsAnq1ePLWNGu/Oyl8nMxj5x2b388f9ybZqRuBvGPTMVszXST5sfUubMGP5fg2S4o4LBn3xxV362GEbxwyDmtSAR3Nug0AraLsG1otqBKw2zhBNQtz0LreOTakeD23AAjRGo5oDLoVK9CYe2jssTRB2AsaBLt3n7yoPtMsH0OsrrQKaK/g0VrAvmbEEFGrirliTYaktunsTec0zJ0D7djJHJ+mLkWdu4a3olmIgFpCzfJc0RsbiYVuaF1+WN3xAIlX5+xzJE0qK/axgG4JvTsk/NI3n09GiuEUFGiFDa1eKTrnNwBbQ00Vgh0p6ybVy8WJQIVmbdi2gr1Ui0e+crlO6+NYO5ufjl5eLyWN708xWeWXZB8+aViMrYdBgBobkHRQpRh6D1VrdtjLPbrFOceEHBOWaCEivskQnX/9mnMLunoANZY72MUXoyC2iD2lPlaieb10y6idW70udLTyH8FM/T5XdrHfai/fV4tZ+D0cJPjx8GY3TzKEvvJQQD8RFxZomUI4AjTudnLFD8nrFtdhJZzFs04UIxxDLqym+qb9P1shxeM87aFuQehxwq3LZ/18U5KTyFXmOEZWuCcXNtsF9FrTNkk0c6t5DPc8x7uALqXguh7lbPlCjKPs2a6TQZNZLPu9X/1XFUL8O8hwmwYrPBxiQooZIQMheaazVl3QRA4LgPCkQs98t/d5Kp9XiGNhvn7LEID3338ff/2v/7ULa2GPQbZNh0/YrdS+IJWqE/i+F7x69YCHxxMeH0949fHHKLWh1YLtrB30epZ9AACL4VRbnzbPmUSZVIEUQd2qhorUhu28odSqMa4AWjNbStCFJ5qwyjnp7yzpLwRo6To7DnFR4Rw9ptFqQuuiOwloS1bycKFq8YOe9JRzNDFgY6s2VDQgCooEpAbkCASodSYE66hZE/ISkR/1/tXr10AEnj2/7wlF9a5ow8Qo3bKEHpNrQ7xvKp9mEIldo6NTXoN3IY3++d5objHCg3zT4d3lIoAURFte24b2bk14flzxja89x/PjHY4HjXv2JMLjkpAisJgFurWC86OK3GKW3YZmJewyskSsETimgJTGda1hEgGhxW51DNU2RHuASEVtG7ZyVsvlvvXY3Fcfj5CHHO1nqIBeI3C3JogEFESzCKtI2itwPBxw2gpOW0WtJ3h94OFcmDe4EQlAbBHSRjMRtRh7DLRv6HUjWZto2b1STbwDtaqIF2/TCkEwMZZC1nPWItoUmvN58qu/+HN9PlBLsYVwQI/l/TH3CDdYuKA3SkIwb8GID4QgYNstaTc3K2mnm2Qv06dNjSz8a69aA9o29CHYGgkvXahNUEprCLZhQhDkFMwDEnut95SzBliYGPW23Sk264qrydElqFdJz4dazUWANUesOWFJGYdlQc4Jh2XBkrKdb1+dGkqr1ltBGwPte7Ga+jvO563PEzFGBAuTqbmiLBmSMhIisGo9e4SEEBfEmBHTqteurWshBE20bz7v72o8KQX7fkaMwGHNyDbHrkvqTY0STdCfCQroJ0IuLJSXtgp1x8jF+tljdNtw3zWzVHhb0L7Tvlh4Ly1GvnN1gatTtAtpT1Ic1sSLZij2Mg1TwtckoEdJvdY/z9sEtD+n2W571KHV+7mUmru1NInGkxWtfSm0ooKK8doTTUYio2ewj08/rN8unpvG43qXPAva03zIaJng2kfRhaAbmN+0QYcnjd7QYzbO7ZsCOuC/+C/+3lvGnp2b5gtQncI3Wu8k6OWgtm3D6XTG4+MjHh9PF1Y6F69DDE5v4iIgjH9rqKYlJ1aZLN21j2fIFAYQVSAlKw0VQuyW6Nka5a29Q0IXzcGsSgjoYR0xxN6K2kM4xBK3/PMGC9tRg7nF+Te1BnqNX0CbKuh4jT3ZRpMs3QKtIRyjxF+xxixNjVcX1+c8cJ54EI2T9pYBhn4uRvgG+i/7cQ+eaIhu4Q/Ru6kC65JxWDPuDivu7w44rAsOa8a6JKw5jZbPwaRVa6h763Gms9tfu/FVRKmajAVLsvOxBmvE4QEyMQBV5zg9n0GbNVUBpPjshz22ER+akzUfkp4Ml8w9X2HNVCyUbBe19LorfUlRLaFBtOnOfKbNFS8y4sjnayfMp+HCo9cgTQVzE/QunVqhYrqoMY3r7kF8GvFzv+Y+Tjx5ME511sPFWJ9G29VmcTg1BbVZSEGVMdbMuwSMuUSrBWkjFRfN/a0mB2kvEejXOkZccExeSSZZ19Oka0FII/coBMCq70jSChVeqxoStM17QC/P6BboxSzQOSWzzlvcdpOePOlrk8/BGsZRzKijFujQdI7xGuG1an35ZrlU6n0we7SJZg2tij1G2uf6UoaALmVTkbzYhjio12gkQaYnGUNfdSign4juZpJ5vpQuPC/tFkNAV7faunA1E8dlFIUnmyh90ZPYJV/wGDqg17P07krNOm+JCWCfb3xnD1ijDPFs4SkBcBbQ/XuiW9qcdiG6xTrBoVu1egez/h6aTNPj6rx0FoK6oWLrSV+YEgcFLt5lbBKCTVQBSPbZuv24q0uN1RUIpGhpshBTt1Lrz7jwFHQC8FSL1v/mf/1f9/ecwzf6effv5OPDrFzVEgdVvGp8s4vZfdeOgg+vX+N02vD69SMeHx9xOp2xbXt/L6/KMGIdJ09Hj9VvsCKJQK/w0cZYh4kTbwIRvCGEnt81Z+3o5Yucl0vzBTqNslNpSd0SHZNaa3LOFhetHQj1tbOOe2hZQ98knLcN59OGx9NJK4zUYtebbsx6zLgl6JaocZCpVwzRpirn84a8ZLx+9RoIgsfXD1gWbQpS9h1JgLx4iSpcxnBhBBhd50l8blxtwuZz2StvJJOqMajV37L2g8WLzslJS4xA1tAM/93X33uGZ/d3+PrzZ3h2d9SFOUUkaDxy9VKapiBbE+yl9ioB0epuH1JETA31/IhTPaGctf13SDp+Us5ATFiWBSHqz+fHDa1UPLw6Yy8FUs/YthNa2xBDVS9CVO9DtOoJ67piiRF3B6sakoB1idYtFRbKARx3YG8B6wat5nHacdorkCK2vWroSROU2i5CXgAgNh33UgNyM8EmC1LSjnutz+Mq+rtH0QZHQNIwaVet0iPVMYvUpy2J6Pd2rXjPIAkISYanKswCe3g55pjt1j0PgrZXi+uuveR2neeZVs2j1CDFyvsFO2aWzOrdDLMl+CXrTBpTRojZQjYs9KcF7Yjoc5GFcKA1xAjUGC1OPfYY6BSyr644rgvWdcW6LDisq1l0F52PYugeAwlAbgmStWOiSEbKCSk3pBJ7WBTCEP+1Nk2ejxXbXpFQgPOOWIPGiWPR+a/PsX5N6dz++PgKZd9x3h4hUrUbY9E567AESFgQltFFMeeMlCigPwsU0E/EiG/W/3viQw9Z6NYDpU0WaBeonnQnMgcHX1q2L0tleWzulTW2NbNqNMsk9sYZszBWdzfMgngpnK9F9FQFAeaqnmKLL2KpRboF0Zkt0l6+B1bGaVigdfLVqGWLdbWFpr+3XIoQ7Tg2ULuVx2qG4cJuZmkIlpBTk21gRCfZCKjJycpHTbWhv9AxhRFRcv372YInUxxg82YCVtO0WydqxXnbcd427Ptm9XFL9xj0mON+nqS//vDC6gloVh3gslmEeUo8DhSjvaxbiWO0yduEcwqjWkawsRTdGm3iJ6aoQtqevxyyPsYFtG1+mghkr6g2br0M3171e+7WxtvrooslCEEaqjUx6DXTm6CFgBosHKi5FXrDsmXsZdektKK1tmNMkwVs2iTDF0nMevrJ6J9l9mZ4rDmC5VOFi5hnpGDdIkc5u5QC0KK6rHOyBilHPDsccTwuOKyLhXrYl2yCaptjn/O6N8Tq4EYLl8nZQjzqhtLUwttWFUExDcthjNquOaSMgF27GJ61xnNrRROUWwGSvb7FIft3yDGZ2z1jtVbLx0U/cbGKDFUEkgK2CtQYeojAsiYsliNS3YNh1s5uxYcmaLXgJdgCrCSMVkASrfriIro31OjhclodRS3ZcJdYD4fzxM8vDB/DEVaJT8xzMHszps2a5x0ETTC+ENEC7HX0J/BNTHERKjZ+bL6JVYZNwzYW0YpqRN+Ex9hDuYIlJiJYdR8ZoY2eHOtfKoYwrL0ee+wlTdN4zyUnCwlJVs5ORWhOafJS6urVvLTdZCQIfq2F8MZBHZsG9dYiJC2vGSoECTkLkGRcX+4JFrFa/2e9nR90rW7VkmorWj1ClqzHEWF8LgrozwQF9JNxmTznP89l6pq8Q0Bj/Kz4Fan3YbI+659DL7E2JlbN0ujiuI1udM1KJPX387+bq388dojnWUxf135WgaUWW09GmD/fXBN7FtPR4txcVAjEEopH5r+IztBxWuiH1R7W8Um6kO6Tl7noo8XehWBFvKZOTNIsk70VSNWyZl5aINjnGiEUX5SInseA/zu8/XFjPu3nS0thNcyJqa1qAmdPFty0tJfXefZJda64cBlv5OPaBnYb3dYum/rM42OOqdUWzclEzCygAXWP+vOSxzhb/eaU9bkxq4haFxNWaRntu0PSmOvagKqbCK9/raX0Ckqt3frcbJMkltGqdmuLv/ewgKYx1B72UkrFvu3YzxvKPqqYNAs1gjWFvrwSpo0tnk5D95EzWaD9L5ctvD1Uw1sWT7Hm/fxpLDSiCmgN3Vhwfzxq5Q0L3QgAUOuI9/WkYrQRWmbjRT3pFqOeIoJoDH5pxTbzC3JekXJGW1Yki0+N3rIZwdqAq4AW2S2JsGp4gDWG8e/igsHjPw854LAk3B00rrpWjSquDWhRk0lL1JCe0gTLmrFYKEGMDbFfomOeU5e8N7EK3copFjQcJaDYsWiQSRRLv77Qrz09V8NY8fYZ4snw6d+tpibwe+SPrUOzBwt27L0ih3tK3TNaiiWLm5jWWOaR09OCNsiKECzitTNsPbRqF75Rib7ZjpcVN95oWjNdA/0oC/oma7Qqnx5n4yhP4jmlpAl5KfWcgb7eTyI1WhiJC3r3sgGTE3Faa0OzboitIdYGCRUJFUlrG/YT0Tcj0lBbxb5v2LYTzudHWBkXaGfPNkrIwrw+02f7EtiIvvRQQD8RPR4LU5zxVUzxXMHCgxBmF1fXIcFSf2Eir1uagRFDfLkoeTKidlLS0j+lVFSpvXwZZIQ/NK90US3LvLX+HXpM8fQ7wF2VvrACgDW48FlhmniuRdTcHa0LaJFuRegW0OCl60TjA9t0nASQKD0uzXJG1Mrh87rpTbHJt4pOPiINEqvGOqJpDWNpCDHrwowAialbw2GJil9cxcy3xc+OzzJvQnrJvzpab88Ccts2nM9nPLx+wMODhW+cz9plsBSNK7ZX1+/vtUiHBPRqHj5Bewx7/6RRrdewxLEkaYiXGNW1GrR7V19ouy1otuaNJgE5qXhe1gV5Uffs8e6AtCzattus2xKi1qsGgA3d0llqxbYXnM4btr2imEemwb0+3sky6GIkEcHCo6s13LmIG388I4aA0+MZx+MZ2/GMsu9au7tVtTLakdTFMY7wjfn6/ryZ914Xv5RpczLCanpipjWMkBp7lQ2xpiitVnz9/ec4risOhxXvP7/HYVlwd1hxWJIJ5mplOOfmH34dSW+klKO53lPE3SGhVcFWK0rbUfcdgHtOVsS8aHJfqUDQ+NmyFeznDadHrSADFCAWBLTuxQOilrSTYGFhOp/YHsvCjnTMLd4eHIJT08ob2lFTX3NJAcuqfVSXpgmZtTSfItCFjYy5yr1zecnDeBIKatP6+7VqTHVMwQS5xmGLRAspkn4FBvM6el3/p8I7Vruo9GRCb7mdswnOPDwYMQ3PpAvoZF1mq4nMGJpW55CR+1Nrw26x8c3nbeh7Fmj2S1YHiX0OG7cpIaTUxzNC0s0w1Ksk/ebXwJh71Jurq3EKQTsZyiiBF+KYq7Q0Y9YN2KJhGYslKAYbXyqGh3j3cCivuX7lK+4hOho6UoEWILVoONp2RqsVqA01JcvbGeExEpJ6GfczarHbvkGbOmkfhRYDmm0sRWrf2HZvE/lUKKC/cC5XzV4Orrtvuu3haoG1HTumMnhdoLsYbn0C8iQwjx9Ty2OBV9ZodX4/Gd3izBXkO+ju7vVSTDZ5qzaOFloBdVt36/IQ0Nci4TqUo79PlxroVrDoFfgRkJIr4WYxcvqZ9eOEflinj9hfT7yOX7f+N5uYorrYLH5cyxn5x9H0oBBzNz5f2H6/ZPPNnGg0J3yOf48x4TVI97Jr+MEktFtrvYLFfJ7e+Lp9gejy0AxRI5NeYtRFKwYkyJUFME7WnfElvJW9C2gtz9Q0kcySPVPwElIJ67ogLwvSuphrXwV0iAHrVnqMfLTkUQGs4sHYePoI9M8gXhoRWjZqthgPjw56MpD0xMzaLf466Nqlx2SyGM0b5adltrwN78DVX8Zm10RStjrPsmqTFGkNd8ejCejF4j+TWSU1bTkG0bhYwQjdsQ2pWnirxZbCOrvprSGi5Qgg6SbENupN1AjQwo647UgSEWvQeuX7rvNbq0CQHi7kHjdBBbbaT+QpFUgLSFGwJ8G2a7JoStruOSU979u247Q1vHq943Gr1uK5wiuYpKjjvCbdHDWMULfamuWdtD4P9sY10Jq/Ec1CbVU467VhG/Vm1UCax0ALJLqpBN0a+lTjaMluSghIyUtCmhXTBHSwEJ+5RvtcZUKvRev+KUBEQ6nqZSwtolS98narftMsbAZtzHG1aVVlBE3uTAHIFh7ix0UTStHPR7M67/M1D+hYmFNcPFnYu/9523IgdC+GG3i8uotvIObwHb/ur9c/ufyfeTrRjRR6fG1lCg1JmjYRqwUeU912DcHQY2Bl7WI2z3DV45ESZMm2nuv4Sz4H9rVAGxJ5eVPy6VBAPyUXkRez03YsycPyPFuSr8ISrkxIF4u9iV9gZPc2scXcqzC0SVR7TWBLehHb9V60Wpb29u+C4Z7z3a+LXBcoIzlwuPmuLdBvuvhNj/V4AU9sSv0AxtbGYbPYVbdUDqE/O82tY9g0MYk9F1Yb08VaC9IFdExWazpmE+NaneE6Uu2pGMfqbSEcMv1lxG9ceA3skRdjoGqJuWJdBksZ4lmttZr89cYQ8BCAvumaxHMw8WyuW5m9DFPMe6+uEYc9u1u1J08NgN5MJUS/kExcew3WrMlky7oiHxZz1aZeW2s577qhrE3LQwWvLW43mYSsf6dpg9eXON8UynStej3t1rRhTHUxPdfNVteISOxX7nivpxfQIQyr89hx2t1U/WCEbKCL6CVGtJyANeP+7gCI4P7u2JOo1nVB9tJj0pAg2qABekvmUs8p9/NQmsWWBrEyeSpgY4hoxcSzX8Ga4YVSi4rjbUdqATEJtk03gloFpfYGSS685/bxIgFoAWsqlntRsUTBlgRlB9YlAfcLFmucs28bTqeC169POBfB5t2XMVpNi20Im81RtQFVWt9MeWJ4P54mILt3yzYJUUKved3EetDJuE588IqMcJxJi33uLGlcxzlpJYeYRl31nNzqPFugJyuvWXSzWNKkhdiVpp7HWgV71YsyVx1LpYmGwYgnFerjRQQSAxaLrxa7Tv3mm2XPYahNN3TSpxEPNsE4ttN82quNWDgHggvQqRnTHOIUvWvsCFkZBq4pX2e695juMBk6NA266SYFAcFCV0Lbzd8gaHuyBkTowd8x+9xSkULAEiMkJ3PHRrQGjXO2968W2tZa6h468ulQQD8Vl2HLnYuuYJOl0BOaxF1J0540XFSBGAKqxyfbgt1EmxHMMZ8i1rhEBGXfzCpSrdxWj1jri4zXbfZkFY9d09AIndR0UdWdbzJhEuAF3idjr+3+x47drcq4EEoyrQYhRIt1TcjLCkm6EAUALWorXwDaJMFFtLe7vjrmIZqGceElopbnVlD3TReyGBBa0ESPJhrCkYouZnlBzKu1OB9m7eE6e0o+JYSj1wx3i8KIYR+dr7T+6Pl8xvl0xsPjI14/POJ0PqkI2bWxTbDGA+IbExdTmDwIVUsLAuiua7X+ijkrMjxmM9si6vHxFxVYqoXTtBE6pOUNr6w9KeDQVgQkLFHDCdbDiufP7rHeHbEeVwQLuUGMOJ00CS3lZG22FxVmErQhQ/XwjSsxO21iJUS0ELur3B0Z3iCm7BXlbBuRbddb2dX6IwUBedrcjEW09c3d04yheVP7pgV6lAxUK/GIdUaMWFwQrQlLXFGXgLukLvT7+3ss64I1L8gp6DzU1BIco2DJGr6TY8BhzUgpY12P3RJZPP4c0me7BEGrARELagkoNWIvWpu3tob9fEKMFecaEdMGxAUPr17j8eGEfTupxS1HbcSSEmrdre75jn0/Y8kr1qWg1oQlN+RYrFxexSE3PLtb8S25x7O7BTlFfPzqp/jo4w3/5t/9FA0JEjJkOSLEjBy1fXmyHJS9VOxV29xrwmrVeutS0dC0XGPKGtYAQRIg2DXkeRoCIDVt5hJqRJUAqVMnPJvUvMpQkKcLKrtbTUCGgHWxMm45dAt0SuFikwwL7/DclYswAfuuem4EW1Fr/V4Erx8D9tKwJGCvwFa0xN/eBHtrOG8Ve9NQmkNOWJeINWnJwPlWrbLOVhqyppMjiyCKVWfqQnZ8rAgLpQmCZBnTKY7v6J5R9ZaE3mFTK1pYyAq0DKEacfy6n0X08IZGsw4HM7FHBGRU5KAdMRN2FcGlwkM1StmBmBDzipAXhJQR16POfdI0KTZlrPnY14JSU0/ObtKsIVRBjBGl1L4uk0+GAvrJuOr4hbGrHZnUZj/tiRjTs6Xbqy5iqe2VJgHqCYEaqlGLJu6oaPa2tqOqxtyu23PD9DMFeI3lZhYB/cyzONUvM5Ip/E9hhHrg6juIvPXWa0U3/+x6Xz0jvc2l8Ial8I3XBKzpieKeqF5ZwYrXe5KklnbbUbatd7KT7KXWEqK5T0OuEEnwcipflAX6s420yZfRE1RH6bVRkUNL2o2Y6GJx0tZZzeuOz4mAc5JQuH7Xca8l5Fp310pPBNQF6GJ+trHuyTLjAF+ZaDyMSUJvRCBjFbqw6KVk8eoxASkiLxreIdbJbT2opXpZNOSjoSLuzTanbz+j0q+S6eK83sva8fLQII8HD+KS23MW0L/TCMd6ovHxCcHWvinSze2wOA8LK7RaQEpIIaNFIGNFRMDxsFpjigU52oa+CtACchTkDOQoWCKwWKmsRX3/o+ujjVVv1gNLsMrLqhvptoze2U0FVq/3XLWxiJdNnHMuklXpEDSEViEIGh4QKoCIUy7aNEd2BKkIUlGyNofZy4rWvL1zRZCCKMWs2lqLHNb2O0iyLpbmHJPWx614Pf+qSeLBKzxYgoaPzRF+NSy1oZlhQi4XDa0KFAGM6/upWBZP8lXhmJI2JXJLrQroYfmfPRmYBfTYw6FbbBF6w6Oi/ViwJ+i1nwKyOg76Yy7M8LYRRAg+rFSU7xVRAiQWZCuZt6SkcfAhIsUx38EDcPrc4/OahXN4CIeFV3Qr9RvnwAxi0zpXJy/EZZM0uZzPxI1aWhpUzVJuWW7oi27TcA7UYIegATUBTTc4eti0Vnpzi7ydN/cAz5/N1wby6VBAPxHBEmSCWQng0Qg9oQh9ggxNK0KEqBe+W8FqnUrIySQ4ReMHcSFG7e897tmbR3iJmyFmUkzqILLECL+oylX3w1k1tqkl9Bx7rZUqmr4OdPIczWCa1bQMFlsb+8+9na69WbVJJKaGEiuiWQm7dbJq17JaSg9DqdN39QnLiov02tdiLnatjVzw8PAKZd9wPj2oKy5FTX5JEetdQ14OyOsRKR8gUY+xTmapn9g3mop8jszaZ46ndWvVRfhDGxZn8XNpyTml7NYw5YTz6Yzz+awW072g7kXbbZuVo8WGlkxQhzBp6Mva472rm29A3MWLsVkEtCyZjaKxAfIwHGmQZo0yfF2M06LSrBJKDZCyQ1LUMVAKWim96oUn1QSLp5V1wfPn9zgcDri7v8NPX5+R0oqYV5wL8Pi4ockriJwBlB7ug67DbCNg992lG73phrmxozVACN5cvnV7dYDGL2olBlgJwKmKzhPpn+tk5osykm7h91s017w1FUlLhiRAYgNaBqQCddGKGXm1CipJq2dAkOOdxW8KlmChHEGQY7L43wxpQN13vH59wlZ2NDQsWUsa3t2tSMuKu/t7bbmcIh7OO857wbZXtIcTmkRUSRBR17TYhi0teo0uy4LD3QHLumDbkiWQCUo7oe0NWy04t9eIISHUolbg1nCfgVYO+Ln3FsiqcaTPsqAdgfN7ERI0QQ1rRkgZVSJOm1pJH5aGx/OOhwA8bLuK/KZap1Ytw+bl2/w62Tcte6judECgZe6s4KPG/fcEW6tGEaNZnT0JLeCptmLvPVv0ep66eaYeojGaq8xzY+9R4IaXfoG5IcfGGwJqhCbv1YAlBqACS9CbZGABkCWgJDX0LClgTRGHHLGumnexlYoigrBVhFOzbqVn5Jxwty4o71XcrQuOhwI5LGgpaYph/0xWz1saAmoPI9I0RC+vaT6pqcKF/jN1Y0bZd9TacN40EbbsO85nnW+9ik+12vzB5kadG1RIa5nDgGiFtr06lcVzmOEIQBUE6/+g4WsBMeu1JimPdVE0dCpZjXdtclZQSrTE2y+bWejLCQX0U2GtPOEbZRfM0a0IOk36uI1Qd9MIgZjKjlkR+SZDNNY6C+g6JTddWnYBDBU2xXPF4A1DvLwPIFWLyGvSzUCfbiJl2sHqZxXAuvh5v2L/rC5yXTh7Q5W5E6HHMlezRDbo7t0boPgOXeNLpx18Pzb+Ovr3aqZq/7uIC2gNZdm3M/Z9w/n8aBUhAurqlSE2xJh6Ob+xk9AT2V3hejCfaiCN84ApzluGiPZ/z8mgbfrcOl7aRRm3WmzhrsMCIZNl7NLkH0a3Qf9Ibvkxi6EnB3pjAG8N6xbeAI979Lqu6mWYO9+F4NfNHI/o1tswbQ5GvPZoi+wvo8ld2mFrQYzqyr87HnHeG+62iuPxiNqgDTpi0Q2g5xxMAuDKxj4Ey0VFGS/1N4voSyuWWpemyQDo90/hgB8CehpVYYppD8NSqJY2r38bgKShLEGyeiEQe73fFJc+j+SkoSCHpJbsCEGS2ltlxxDtCEbb6Av2reC8baOEYNCtao4Ry3pEXjKWZUFLG+S8QeKOuDegBdTadYsNj9BjimNOahXPGaWOJhoiQAGA2rC3AoSKsBeEZqU4FuD+GLXagVREBKxRcMiC+yV4uQeEVefNKvqdcg29o2L2DomW0eah8F76U6sfWTJr8XlQzMDoF3UYXr3hANLRZ2tHQBhj6olYV/MqRY2x1TrLcWyUZwtz3917lsokpP2PHu7VS4eiV+0JEVit1IekgMU2szUKcgBKNwaNbqYIwUrhNT38tdgAr8g5Q6rgftXNXwraUTJC0Gq05i/Qjiw9WNmvUPcO+MZlzGm+RvSSrz6+vQJWG902qyXuXcy3zWNILucLyJhLQhCk7jJGzwewL6ndDqvPYwlR9BoUi6ufbWFz0vDIi6mo9alDEr+aUEA/NS6kPU5U3KJnw9qFNXTR6XWKgS4UqyUGShuhGdVrNk8CGlAR7IlO/ZKwuWsuGRatCoKWbTNXeYi9tXGvrwx0sdzaZc3MWUhHnwVn9+WVa8jL17mALqX0MAzvmhhF0JK627x8k24MLFbQm4FIu7Bkd6u0VebwLlZoDa3oKlaL1u3dthPOj4+aAJMictNY7rzeaTxZWmwybJPrfTqW3aryZWKI/Tn0xzdjPQ7arc0Wq+lVJNxiHUwoe+y4W1R8AziOgy/yo+Zqyto5LUQVQTDviwStfhBbtfPmIr/qhk3MdV/9+E4bl37vMbZTjPdFsp7Ha/tCHjWxzUTL/f09tiI4bw13d/eoFUjpASlFlOJL/FWCa7dAo792j+fESDC6dEh4PK/frE18F+BjOD19CMcIjbGvd1GBo7upTSuGAOtKqNYtlYaChGRie1TJWZJaoY9L1trd0hBbAdyaZm8ftPA6WhNsW8H5tEPMohZN5CIm5MMBh8MRx+MBks6QeEKLG9KpemaYNeVovXeUb+BSSkhLRl5WpFoR025zm3m/AK0TDUC2il7Lbg84HxPqXoCaERGxJMExA88PvY85wkEFdBGtPLS1gNICSk3Y9gSvRNTFs11bGvTbIEnHW/EGR8VDfdDDaC7+m9xNYtboMK0bFzujz5F1VQu/b1A9N2GsM26NHgnwF4tQH4PTry1PBb4RjQElqUZcEuCG3lXz5rAErbiRbaOXosUKx2DnVRshNWnWiRSoErDkCqmC54cVCfr8Q46oSLoh9/Hu3jLxMIpej2f6/OEN8RzEvaWTV7TW7tlT44UJ6Tp7CGUySJgHzL2eblk2j87IZZ4+Y4+L18ETIMhL1ms2Jt1ghkvvZTdwzYmudW5KT94FBfQT8UZDkTaLDxWHPf5yWlCrdYmrRd0/3vWs9eoZFTJZooHRnEVf5LKpSK+tGy4+jXWYQy9DJGJTuG9uo2/Ep92xXE4a+nbSO/WF0BBCtImhdWHTTPy62K7TRTv28iakm04eHibp79u7H/aOjhqXGexgdwFglsTonzWmHkKgsZUZrWkij4vFVosJtAI07XgVgx+jEQl7YXl98iTCN+mTL6YugGZpHq3YR4tXrf98wvl8wtZDOHbUbUctDa0UtaxFdafWfde4vJzhQfFe1iylAFnUcp+XBSlGrKt3FQxYFjs30tBEN0q17F20o1XbuJmdpalru4WIJNabF8PiHoO6bGMUoBW0uqPWjH0/I+4R4RyRijZXKaXa4Fe3ZYwBd3cHVAAhZmx7w+Gw4nTeNGYwRWxWjWQrVi6qL4jBNhNWc9frCttGwbudaUzlCIUIcRozntDp4VFal2JYoz9nRsv3vl/HRVw3PI4bavmyHIiIhmTfMwVfzLWkIERLynUhkBIkJ6xRhXBrDduulTGk1t6UIsfUu2JqLK1vMRpa3fH4+AhpDcfjHVJMKFkDYlPOWBtwf3+HWgUp1d6Ao+w6v5zXM4CgeQy2Ua89RMLKpsWEFAOOWbtZ4lwgpQKl4S4KjsuCFJPNB0COGiLw7M4s2TEhrnp+dzMSxBLwGBrW2HBYAp7drRaPu3UDRymeONpQi3lhdp/Th2cnRt2caKJptHY80SyS6F0Ju+dDfCPz+XOwEJleqs6TTcdA6+PsmgvZfLWmSA990t9lm7uTNFTRUm6xNSTRxMscNDE1J7UiLzliyQlVNATS0yq01rvgtGv44HnTCi6vDxvuDwv2veD+kJFRddOXAhYLBVHRqh9ZrEyd12/2ZinuQ/Jur3vRN66t4aevTti2go8fHkfi+nbWnBNrwhMCNIa8x1tPIl4ALynbRbqtY70DYe8O2wApGv4TRLv+SNZrwarEhJR0nZXLULwmDbsVGSCfDgX0U9G9WZP1oCvl4J66vqh5wX0vt1RqwW6Co5Stx3peJN29kVxo79ljzi5+AY+t9ucMF6D0ycArW/QLd4olngW0v5ZYNQ9B6z5hj7t1gR/ckmwu7IuSffYZZKj8kYQxJ8r44u6bgtC3BprNHprFYsNCONCfG2zU1xSxHg4ABNu2qiTSQLJ+yoK5FLtl8fJ0vnF+P3eu5jXpuke6i/eiDOLbbt1NZ90G/eZW6Nb6vVYqiZAaNO48AOLNEJB6YtDcWcs7ceVsXbliwLrkLh61SYJ3w7LFMYhV7NBzLyY6I7QiiluEvQ14sIovKdpYslCOWnbUkrFvESVqxY1Sm9Wibr2Fb0ra/KDdA++9d4fWKu7vj9j2XUNDPBSkoI/bEQMepuo0cbKuhR460CtZeBk49MvBhLhZS6fN4lPF0felvo/nqdKPjLArr2+NCNvwty4kdHM9HZc24jxrrdrcoSYsEZCW0FrF+XSy8Va1WYp1L/RjsiwRIS6otVhoW8N+OiGI4Pz42I9hNY9WDMBxXVCrICCpuz4LzqczWlMR5CU9ay0AGkrxFuu6AU+2ib6/1xARrJsK6L3ggIb7owloJLQWrUqJtWh2C3f0sAOv06td4yIacgSOh4yGiNP2qEm7xcvVuYdQv38tOr9W+2whABK1e2IL0WY/FzuXIqsHxIRxfj9vYg/LGvkP/t4XQ/kt41qufvaW5cHzc8TWHmt0FbzOZPWSkdLrTvr37q3lzRINAfJlTJtW4dgbYtBt66uHDWVv2LeKNQeEVrEdtJFPEq3W49evf9cY4pQjMFet0ceoRwworfZa5a9eP+B8LvizVw/2HSuCtdO2xgTqqcuWECp6gV73M5FJQDf3Kg+nmF/g/cjq/F3hFZCQIoLY2A1As3Mn7tmAruG0P382KKCfiBg9UcjjSke3I11ALqeUZnFypVRs+45tU2tMaxVlHwK6T6lu9fWX6O4zv4ddaLMQHJZjXWciorQRVuKtdS12uNe6dSE9uc5HyIha+1rziTX28Fmf7Nyip7G0UzdGi7X2OruzuLc4DP1qQD9uyVaQGNTSFFoCQh2fEQA8aQvhwnKgdWJ3LEuGtL13ZSrlZG1/3S2ogitZ8oa30uil7MJTRK72E3v5zx5Qj/F9MVyGzcsXTjHCtVUUt0CfTjifz9i2M8q2oWxugdbnBgRUCAoaypYQpGJJASFkBGisYMoBOaufNaeIZc3IKeFwWE1ERxzXxcZ9xV4ipGmpsBo0IQdmhevGswCNlo0NLVhCqrX89vbfIScb5xXSdtQSsW0nIAr2UtADEeKincEOd0hZOxauS0LKGXd3QEoZh2XB69cPCBAsKWqibQAezicLKQJEvAGRiugqwSo+WOmpqaxV8I1EHO18u+W3qfu4WQUJCcliLZ/GcjhKR7Y+kv26dI+Vup7N86SFKqDttRtS0JyEnvBbK1qpOD08YN+1JbzGnGeEtmNdMvZS8erVa5w3ncuOq7b9fn53hyVrc5y7uwUxJJSyYd8LznvB65+esK0aW72dTjif7rAeDwghIcekXRAF2HadM2sDyl4QAvD61WvspeKP/9m/BkLAd37p2zbWtd16EGBdFtzfH/Htb30dz+6PwOmMtu+QbUPeN9zfJRyXAwIiatWkxxSBw0GsEUxCytrC+xwEGRtSrUCpyCHhuER8LR5xdxdQygmhNT1WElBldIht0swCPYwUCCqq4BUlrDmVxDQZDswC7AJyNpR8zswdSq9F5GT/mIwOffb30WYGI13Hen6LbUBCFcTaEIoARTTcpbZ+LwWAeQc9hlmtzxFrjlqoJQhiEyQJeB3U+/Bw3tEq8HiKOJ0qlhhxXBKkFWzPVtxlweGQsa4Za46ANYnp++Ronouc+hjoNaAxupM+njbspeK8Ffy7P/0Yj6cNP/7JK61WEoFD1nCTQ/BmJxE5WrMT780wHTd14pqX2efNGOHt6UN0K5wrCwC1atfGEhBqRcwZyBnJGxP57q/nPwWUWnXDQj4VCugnQ0byh4cdzsbU7rDChTXW6zR7s4tWa7dEi5d7shhFAEM4z289xTXO96M0GSDBLMZzeATMAgB0i7NMYheWkTwn142NgJmurCXyfAz8O1+Eq1xnwdm2ukvu7tobu2232vnkoYJXAEQV/9FktvjCYoI4mwWhJqyHAwQNy7qg1mBZ8qG7tsftTQv0pxhZvrBxNsID3n3zcaUJhJb932p3P0qrarkIAa36bUeLowyif+9gJZI0WcWszjkhWyUFFdWrWtJq1A1OBVqJatkMQPVNoHmo0WALQrROkxpXn5dsVp/UY117622p5hKNVnVFz72gqnUxpD6OYlqRooaiVAnYtg3390ecTmeUWrA8ZpRSLs6rC2WRaBboMMqOzWMxxIvEwjkpzzePPcQGVisbwUKfPn9GuJF7ouZa85P1GVPYll3Omt2PHgs6ezRK0UY8+76hlQBIRVkzYhDse8FpO+N02nA6bz1v4bAsCMFK3GVtER6Djr9911r1EMF+PlsoTEDKCSlrmcl1yRqKEXooNA5rxr4n/Js/+TP82z/9M+x7RW2C/88/+ef463/1m72pVLAqBOuy4Pn9Hd57foeQI9qeIVtE3AIOazQLdEBtVtoTsW+KVLzZxgIN0SyLQaq2l44Rx5QQRT/rkhNyVHuxWgdHZ7xW9da7hgYvZQbz6pmYRvPYDQSLQ1erKJ5UQPfGRsEts/PYkklMX36gWUjb15z+Ld36HExIWtblpQXar7vmhhEZ7cRtnpcApKlypL2JVkEpw5KdQsCWIz54vuAQgX1bejKiGnpiz3PxwKXolmjfME/Wd69dv20bzlvB6bzj9cMjHh7O+Omrhy7wwyFDssbVp6AlE5MlHbqnq3ur3dtzZYGO2r6xG5TQr2JP1jRvsZ0osRCs4Bu07sIIfRG7KFtKPhEK6CdCpknCdanH+Lr+7FUkmpi4mToFttrjMDGkNmYZF67f0AWojMXRgiuuLNDTZOeVLgDr1IUew+yVHTwj2N8vao0rfUurmxzNauJSs1tG7ZPOHd4QrLVyj2cGEKIlrs8C2r/ncImnMCo+pKBCoMUh5DXOy11UNrkmczeWgJQzctWmDhAxl2mYLDwjcecyV3Ccg7e2tv68xtHVD96O1o/RfP+2QdjrjM6hOX4eQ7iI5VP3vNcTB7bNYl2XYuXbRuWXAPQ62h6+sSwuorUGcwiCWgJEkrbUnbrdtegj2IIMAzTpR7PILCcmaTObmBCtVXKPl+zG3WpxtoLWvNOgNrCQmJBr09shqghLWnbvsGY8u1+xb3cAGh4etQnH8qDi6UL8inqQXGz62t4k9IqtvY46pu9lh9Vrbu9b0fEZE2ooevE8Ae56b6LJfQ248GT4GGoQxAY0NMRo85TfY0rctKt07sjm48CnAS91tiwJImoB6+Wzmr6PB4rr+MlYloa74wEpZSy2EYsh9H2Wl/mK0CQ2EaBFbTG+5oQ//ckrC/NSP0qpgj/58U/xc19/hnVJCFhxXBYclowlRuQQtPRdaEBckJIgJwAhoDRAiuBsVWu2unUX/pIbUtS208Xc5TmOz9gsKTIHQY7akTFZAnX3PnY3HSwaazJ6XIgor7bgBgebzXvN4KcL4ZjzPnpC7VtCoN8w3ExftFtKu3FE6yo3Cykccd1ysex5MnSfxjye10KjPI7cKgRquE+OkFXw/JhRiiW7WwWZaBsSjZXXW6utr8++HsD1ZoyW3zEEtOMW6PN5x2nbcTpt2LYd26419lM0D3QX/LMBZghksVAWaaKeIE/sNmNDsDDJUC1UEZ71Mz7r5UowxZlLs+o55uWwTrAahinTOSKfBAX0EzES53rPgCFObayWCk0YrOr2qbViL5vGDVpbWpHaRbTGfllRd2Bao93yOsSVNgwYcZged+hv3qy8nJeZ8zCSeaKaQzFgVh9N3vMrdZRb6tGVYUhtj2sWm4X839XE8eICuodwDKF9VQwBvkzM7vHRPWm0u3UL9OjiCKvTG1D3DefTKyAIlsNqSRkNZdOOc3Npsu6Cn0uTuXUaI6Hjc6dnhPo/w7TKjvvZXt8thReTs8UWisZqxiDIMaCmqMenmogqBbsU1BJQ64ZtzUiW+AUxIWDWPO3wl7EeVJTc3R+0tfaScX93B0BQ9x0pNpQ9IuwbqoWUBOvWEay9LKD1dJsAWzULV0rIx4M21EgJTXYLq9gRkjZuaaWgQPRaKppEtFcg5wWHrSAtC/KS8fxrgvXQkBJwd0yo76341s+9j/vjgo8fjqitYFkDHh5fdwuhxogLKszdiYgiWuGlSkCViNoipAU0u3nSoV6rUbvn7WeczxtevX6w60BrCj9VIFDOOu1rnHdUt7hZ19VjZO3OTfzVUIGg1S1itPyEMG2+LS46pQRZ9G8pBixLRl4i0qJJoPdtwbIEFKtMEUNElaq1a0PUdtVBm6aEmLDkxSzUCfl4RMoZMWUVrj1OtiEGddvDSnD+o3/97/Hyw39lIlmbpTTrlPnjj17ho5+8RkoJf+s/+gXc3624v1txWLSj5d1xQUJEloxFMkpt2pWzNuznio9fnXDad3z8+rXVPY44rCuyt4aHzmv3h4TSBEUqgpyRasAhFpyj4JC18QjQsG36PVqDChrRe3fFhF4yEhf5KP2xwRKmJVuN9IgnGkYXAtlzREbMbuhzYk+Kwwi/87lKTAxq6J5eARViSd9aVSL4vS9Ibq23tbO6AaoKammoASingmCNXRbfpN9n3K+6sS8mkvfdxbaOKbFqMMkEshSNC3KvEoIldtr4DNE8FD1+WFD2gtOjWptfvz7hdN7x6tUjTucd+7YjBa2lnuKCddGY7WibI7GyrDIZrXTsNkjS+vghAlGKxePbZiNGjcU3q/KFUWfeyIhVsCo7kDX0Jdrc2kLQnCvIxXpL3g0F9BMximJIF9FimeCuY+uVBdqrJ7ytxi2muGdMrjN3iY3EJHfFzpZF+3+TLqKlW57FkmXUe+affVxQY1t70XGwW2qnOM7ZVeyfz+89DnOKBPfM314oaBbfFwLa30tFySx0EVTYeJUIgcd7js8aYuvWoZwXVOuK1lJCqHEsSsPWjfnuOujmK2WBvgi5kf5CugiO5gdeLsnLDqoXVS3OxWJcW859Utbz72XDIpJZG5dVrYfrugAQFbd71mTCFIE6WaBluEEBTVmDC4qgmeMxr+bCTwhVbIzWsaFoFa0ApTTsBShFcN4FJTdIiEilItcFx/vdhGRDThmHJeHZ/UGtQSng/v6Abd+wLMkS4zzJq6HFKfF1skC7miBwBQAAgABJREFUp6PZ/bhu5oAfb1iwYd9P3S0vIeGplE/faIq6m4NnMAd3E+v80cye3qRoVQyzgrYAtCjdMhogJq5HF8jULdDedTJgyalv1LSMm92j9WMGL4UWtFpA1hOCkLNW2fGETJ8ZLJE4J40/BwL+xb/692rxTtE2Mv5lvWOcjqvTueAbX3umrcejhkCsOWqnxBCwIuC0aSz23gTnveH1qeLhvOEnH5+teU7C8aix/yklLKvG/C/ZprwmyFZdKAdNKtR6xRF1rlJhRolw4bXAmH/sO4/L9l0WaMFT7eXnhME5zM2/1CiJeCmg5wCOcHE/QhHCGxZof9mxcRsW6DAMPT0UpiEhImb08nbHrCJTYsBeBHtteBSg4HIOrUV6ZSjvjeJL7Ry2Md/cuCSwyllugT5teDxr3P++1/66EMsfiVb80b6vh0zN1vXWRDeuzZKszWAjwdzY7pUJTe9jtFDGK49E/5BugW6IsCpKvh5PYRzk06GAfiJaG4tTs4tU3Zc2rpuoC7AU7KXgdD6jlILH0wP2bce+7zifT4BYGTgzay1JExlCim7iha8Xat3qSmt8mOAi2/+hv/asewnmEp+Kro9kxGlC77+L/W8xWCdDzG87hWyE2GOXxdx+1T6Lf+4hb9Hd4LN17iK8YkqSdCtBjBneylUultvZ/SXYI5DXBaUuSDlrbGQqI54tzG62Ed5wGRs9bl8scnX/roe56B/tZ3spOk9GsteRpjHSUn3cNmxrwbIedJPXoKEZ/XW0BvThsOB4XPHs+Z1apC1RCyLYc0QrG6I0SE6oLaHWBCTv7Jj6Aa17QLUwyBYiEBNKzJCQ1WqLHbXXgwYQrIZu2HE6V10ki+Bxa0g5Y9sLUl6QlozD8YCYAtZDwvH+gOMx44MPnuO95/d4/njGq9evkVLAT376sV5/m3uBvICdjt8WvNlPz3PSjbBbyLy2K2whE1gXyDMeHl7r9Tptop+CZBbo4PVuveitjHCCJtqIQcNjqgamBA+aEYwcI6++Y815WkOxON4YA/a9AuaWzzliyQsggvOmdXC3rehnEcF+zIhFRWmM6o3I64omwG4JglrqsgFICBHanTBrfHGtwP/tv/0nWHJEaxHrkuB5GqVYrHCMSEmTSv/0z064Ox7xN77zDdwfV41NXQRrajgkQUbQ43NKkNpQEPBYBK9PDR99XMzqXnF4rGaJTvjga0ekGHC3BuwVWKo2jtkEuM+CsgK1RrxeEyIEpxhQbUS5F2/EDFgVhj6Pu4DyaBv1cOjfzdsRtLLCUzDC/nAVAy3jHm6IuLRGzzQPj5rCOcR+FzFaZUcx3+Ll3n+8jrinqKFsFWERxDVa6Ix25GsIuA8BexVspeFVKth2bV5zWHTDJtaxdb6GgbEG5JR6EqvWGo9q/Ra3GFvlrF3X8loKAgQpCQ5r0k6JOWBJWoIvVk8arFbirvX4bIha5r1La0DQRik+RpKo/SAKUHWzGhp00+mhmd14p/8LrVmyf4I3mkopdqF93TiNvBsK6CdkhENMO+jeRQ89qauUgn0/a7vP0wO2s7VdPp/M1So9tk+sTmlYFnuXKTpZvYBXLh2flNFjoAD0EJCULuO5xv41dkv3sIq4kLY4MKh4dU0+Psck0jF2umL3UaSLEIEVJACsU50/bxLQ/rl6EssUo/zWxUPecT8zWwmvfhMuF4tubfflYa6w8BXAF7XoFhXfHHQdZZZVjAY0IoK9NbS94XHb1d1nXoMUte5qSKE3rlhXzWLPWUM4NPZVK1ikGFBNcEuIkKRJgSoEkllkY28ctEHjmUsFZBfEWpGqQIomOqJUVxR9HJStaU3gKqi7VZOJyeJttQ522QrKXnsIymFZkTOAGHF/f4fztuP5/R1OKSHGDefzBqkNybrsRS9RF9CryVx0c5yu1YuxaPOA1/ytraFYBYanWLnGddODrrr9rweSmvAMwWJ2+3jxK7gNY4DFip43r51dkULQ+tsiKLvV6PV2zzEiaoyQVYjRTZyL6fEYICbdRJ02reG7F0G7y0DMiDkg5VU9Hinj//vH/wKvH899PkrWzEdEcFgWFeYpI6eMmDMOhyN+8uqMvQgO6wExAYhao7xUr1gjiDlikYxVRD0q+4JlWbr1uzagipZItNQTtZzD8mFtvj8uEVuJKDXiblXvx5IiSlTxW0MfHuM6DVrOURCA6KEO81hSE4e0qtfMO+fAz38cjXly/F7/1aNyL7yg/qM3WvHunT00rpcPDda9cszxvckPxgo15i4T02aY8jKq3RCSE1ICUmxoFViSnufDqrHzalXGlA8y3sf/G+89eXy7J0ETApcl43DI9l0CatUay4ccVawHqCFBd4a9/riGckjPCUITFciWVOj5GHr8elzlOKD9NtZP2LEJlvwMj3OW6++V1Nr9JCPoqw8F9JMxQidmIe2d2FoP2ygoZUfZN2xmdd7OG87nMx4fH9FnWIt7CiLIKZsLZghbmWPSbFLr8c82s6nFYOyuPTlizp7ujqAwZRqHa/E4Kg+kmEZmr9NjmmEXsllc7HhUQRdrkCGkg8xu8EmHhHkimd2G8zF4+/F/836SwrNIfiNsY7K09J+vn/MEo2iKgQ6YY6Df/G7mROiPn+7GYuKJX/59+vu4yNN26K0JShMI1DXpYUgI2nWuJ40h9Aocy7po8lfOSDlp7KI9dq6TrPWjLQY4Zg3vCRGtCGoQ7FJRmyXT75rQlkoDijYkQKl92+jnZN8b9moCulgzhbgjtIpUmzaNMeuQ1hSOSGvCamWp7u/ucD5vuL8/9JCWhxxRyuS6TSpu/OR7N6/qdaQ97KqH+oxz2Nupl6qi87T3+r+fN11gBTNXTeFf7t4dngqNk/SkuIhRA9rnrWJt4M/nHXtp2PaKGATFmkIUqzqQwmLiOHRrvLavVnGz71o2cU8RLWoFixoDStPX3ErDea8axrOsyBIR04KYIv7s1Rn/9k8/7rH46mo313ROaG1BEtGqMFkt0IeDntt/86cf45d/8ed0hpKq1TLdoi6iJQkBrIDF9Gsr6Gaug2IVb1JU4RNgISXm5fEa9GsGjktEqQmHVb0v2WqZ64bUwwjG9e2dPMUmPIGWZpvnAs1viGjmOfxCNvN9bbkcZ9dhGxefTNSi7k5ND/3ucyv0GPo8FQKsAY9cvK4fp/6ydkzGBrYBTftmeq3lBp33WtOylbUJDjlpFZip7r9Nsn0iHcaoYZAK402HtymoB6TUxSy82vWyloicgCUGE9BWGrY0oFTthBlG/wUNA/JjJ8O6JOMYmpkabpS7Xv5cX/vGInpC/rBOoXuQo4V4fYUMQl8kFNBPxByjNZexqqVaSTHRTN3tjPO24eH1xzhvZ/z0zz7C48MJp9MjXj889MQRQOvX1mfPsVqd0h5O4WI3JuTgiQJpCEATL9niEwOs8HwY/wYma+sUHtGTKWAxrwEIFrbh5cVGVrJZ5ya7g4dq+MbZ2602wKw+XtFAuvv+DQF99XP/rBifF/0dL84C+mx3PQNfhajMyZbBLG++IQlThzlM1u8nH1N421bh8jt3UQmMeMPgWeQqflsKKF1E64LTzPq2VR2bpal4CTGgyCNy3rAsJ7y/FxwPa6+8EVLE4bDi/tkR71kIR0wJh/WAVisgBUtOaCmqK7RlXejyARICSl6BmDRcoxZsUvHQNmxFF5C0lx4jGcsZoe2I5aS552YdDUGTCPemFR7OVQ9C3LWFc4wR733tucasLgukVuQ149nz51jXFaU2/PTj11iWjFevH/Dq1QNev37E+fEEtNZDVVIMiFkrTbQg+nl3FebFqjW0WjVpZ8pdcKvtvhVs5w3becPrn77Gtu1PMm6CxTsGaZNnSuAJRqI1BhGyjvc1BawpIqBq2TCx+sW1Yi8ND6cN+17x01dnnLeCzbI/cw54dszIOeLZccGSnmHNK9aUsaFga4LttGEvDWXR6jfb0iCidcXXBQgpYyuCP3u94eG04fXjhl1WSLpDPiQsh+dIKeD//v/4xwCkJ5jmXC3mOqDlhHVdAQDrekDOC/Ky4Hi8g0jD3hoqEp7fryiP2hlu3wVt27Vb6apVOlZpePa4QRBx/6pg27S51fmkid7epjuGgLtFRVlNDUvUjdzX7jVEYM0RW9Xfv36VUXdNpJTQtDqNWBk3iwdPaQhnNThMHqKmAW+1rwvtCS3QV+Ebccyb/ndgeDe1dN9sOsHYENgtmgVavDlnU4+EBCCHiBQFKUQLNxNUsXbngIUO6jEq0hCaJsW1GCChYYlAWiIO95r8V4vgfMgaIta0tnkUDWXLKWp7cvuQunlU2eyJdwGWzIop/toWrJwint2tWJaoSdKilmWt31khpUH2AtSCfdvRtoK6FbTzbpZ37cSqQl7beANWH9uNWNYsxkvNWtmO4aWeN2R6wWuFE2h9bUnS8050/U5zoCP5DFBAf+EMF8xITBql6/Z9t6z9k3bjchGLoO1rj/doSXrZuACNFfULIqVx88kumYBOVhYqxvE7j7m7sCZcCGibSgK6aI9xWKBjHGIasEnN4yuBXkKvicfyqfUEIlqazKr0SZPR/tw9We3quE2MNeOzLx7DejGsoT0cxWdlDHd7urDMWSz1tIh86enOizHJ9k1d8wVArMGDxvQVS2otTX+GBMRSdNPXKg7rYhUxzE0b3AKde0vvkHy8XFrIe9qQuUA1JGTU8y1NK3FsVYU8RBCt0xukIdeC0ApSrfr7brWTLp5LA0oTFc4hAKEhpjRaOnvJK9F42pwzQhIcDiuOdwfc3R97Qu+6Lti2Xd8jXodxzDuuMSbcGxO6z3fUe+9Cei84n844n7YnGQZz6JNb2Gb3cw/j0C2ydXaDLuJWsrK1YfEqpWIvFdtWcN4KzptuGFZRy3MMXkmgn/p+bFIMaDb/eDiRX3ha9tfGXm3Yi95KLy828i/6bCC93o4mU5mm8DrwWh4vIy8Zy7KgtorYGv71v/8J/uNf+Xm0LaG11A0RsLnMa5JrOJK2fvfwCg9VWbz2eYrWZESvl2qHOYeAJQnWHHHMEbtZ5tcc0VpCqxoKImoC7Vb0Xv0hqOcuiiZGRkjPLYlxzkV5moY8l2XsQhexVw686d9zTO7lc80yZAYJryQxRHpPbp5eFx5WFNVDEPr1iOsH9vfR9vF6fEPWP9YqXXtG6xkQ09xhcFid1QJuHSlnT6w9Xx0Fwco2JiB4uUjNBQgS0UpAQ8G+W+naPg/pLcg0n1j5Ogne0MzCLro+HkJ5TtZ8KzLNvFMi+QgJ1ddNKVFAf0YooJ+YEIJdIFP3JlucwrQY97WtVdRSNKRjO9kkkOH1mgM0bnk9HPCv/uW/wL//93+Cv/Of/JoKhhQ1aSpFpJz7BOK1WnMM3X2vMcxjorIPqxdlAFw0dyutTNPYlER4Eb3xrmiKt8Qi+8U7XIGXIt5zJvTnTxDPVyEL88/XlhH4944ROWVIKpCsHepEqh1jFYq17ECMiK0iWT1ur1Txzq/5JLyZUTMCZi5vIqN2b61Vwwf2Yt3jCjZLYN33gr0WbEXrJ7uArlIBCdiLip4qCVupWGu186OLt27YNDHTLTjFwpM0Ea+gid5q0wYupRTUELFVoIaEhoTTWcXYtu/YijZTCK3quG8VqW2IUpCrVonQcANLELWQkyoqwEOyBhYpdlfrKBU1NQ5xobVkrOuK+/u7XoXj7nhELVb72DejbvG8aGEeuyU0pmSbyghPbJ1Ho2fsP542nB7PX8jw0XXYasybpSyiaWMcqDUs24QUJOpzYlOBKZo0uO/qoThvBY+ngmwtrjVpT+t2w8IUqnjb4oS7uwPWqqEVd3cHrdiyLKZdg9bC9+6nwEU4mIcYAbDwFz2D1Ut32rkU2+zHqMIoxHEuYoxoEPzLf/1j/OVvvo8P7he1AqOholxsoiGatH1YM54/O2JfE/Y9Y8kafnJcA+7vVhzXxeo8o3sXa1WrcgrAkoBDjtiXiLs1oRa7TipQgpZjRAgIKVp1EbdAWxsP0TCGZnHDOo9lRMsfiE8moP3ehe8koKeQpSGgdd24DLlr3dMp3tjD9mkwI0oMAdVjoy2sw6+/EHT9k4he3z/GYDXeo53vgB4D4ptHk77R3IpimyyN9deKMTllZK/3HDwsaJRNnRPZh1fWN4YJS86IKfaqG7Ak/e5taFZv2hOlLWnRq8L6ntbHX7PazXCjE66Wu7dsXi5PmF/wYTKctLEuuNfDE/3Jp0IB/USMacVr5iYEaer2rg0hNNQa0VJATbb4BEEtG7btEafHV3j96qdmIc0ISDgcjkDQuLwYIl6/+hitFbz3/tcvYkv9PpgVwxMF81ss0B7K4QLsjSCI6Reter3IOZhgEtFhTJ4XrzQlXUgX6GY5cG8eNNzL31NkWKBDCL28Wj++szUkzuEjw1Xovri+Uw/QcmtZxZInsbT9gD1qkxYR0XrR50dkCGLWOsQSwhSnNqzlnzsjBLr/EC7+OMI0ujXULc7WXbCUgu204Xw64/HhUbvDPZ7xeNrw+Ljh9XnH43nD47bjYdvUUioaUwwI9qbJXhHBYpyThunZRi2vBxyOR6zraglmFefz2dqHn7HVHaXtKHVDqTvKvuO0nbC3gEfJ2CWgSMSfPVactoaPXxfspfXNJKw1+SI7EgoW7Eie8GZuyl2GBXoTIOWEIyKiZGREqwOrpenq3tAWjx/UBfV4f48WgG+cP8CyrliXFY8PZ+SUse+7la1Td+q6aEjAumps67ouOBxWrIcV+bAirwuChbeEGhFi0sx9AfZS8XDa8JOfvsKrj18/yRAaFkq7yqt6vKRWxFYRrM16giCHhDUCa54SZy2UIG4qM8/nhodTwcevNjyezng8afvuEA6IUbt9Lms2axyw1YqYAw5hwQc5IUhAShnHw1Fj5UPoG6tt23HaSg/vcrEmLdjxE/zj//5HGjZiLaFr1fAvF8oJbhWMFv+8ICUNLZKmF0krDX/0j/8p/uu//6uQJUPKgpITaivYymbJjhXHw4qcFizrimr1+bfzEbXuWGLEN99fcDyoyMZ5R0FD2UXDn6CVF2II+NpdRELG47MVSww4nTOWoBUh9qTlHkMKiIuGCHlTOk22Hl0iex5CPiBEbR0fojfk+TdPMo68lbavL9e5KZ7xEiCX87QEiESgJYiVFkW0SPCo80lsgpAaUrMypQk9sSdEDXM4rBq7HDx+OWp4YkqaMBhTtARnD8KwhHfbpJgW1aoaUAv1Yo2g1mXBkhIW3xDHhBzzFPJgoY+IKnyDXjMxCVI89Bm51QJBQ90ztnbW/I6qG699r2hFS9aiCap//xogCVaTXT+1VgGKZoGOOgfZept0R2AdOy+NT/ZTLxzgnUBbLWiloOUdIafRojw9TVOnrzoU0E/McJ8Ol7cmA2KyPk8VEVpF86TCTTPMU9TmAClp7dgUE/Zdq3SklPGnf/pv8Yu/+NfMou21eT20IvQOSqm7TkfyYOpJhFfSsyes6PeQpgle7vZ/84te3V/wpgVaj8l4ypzh7e87W6DnjolvdMSa7t/9Gdzdb8ciJ0hLkDRZoK1FqloJC0LyZjZqo+r9jd/9Fp8z15nX0/G7tkCLt7v2Yv1XFmi3PJeqP1e7b9Uy2lVEQ9TNrG8bsJWCUpptodS6l+wYppQhraChoZhwv7RAVxNKGi9catBwjRawt4DTqeFUmlnHVeCVbddzUBtq2JFQ0VCQopVKi1a2zCzQRbQEmgCoi5p6tL2tJ8G13hZ4WKC1ZfhaV9zd36EUzVW4Ox5Qt6IWMX+uyGSB9lsyC3Tu1le/DmcLtEBL3qkF+oyHL8IC7de5W5/NAh3ELdBqEesWaLMCJs9zkKAW6NKw7eoxOJ13BOjv3SPhVVaahUPlmJCyViqI0Coah/WAFBOqCPYCtNawW2m8Ude+/w8iVu9715AirQwyz0cjIfqybu9V6c2oNae12kHCEgMkBkSpKCVoLLto/Pdise9a9rLo2F2B1jJSAO6OuZdD2y2x29t0a/yshvgfloBSzAJdtX7vvqs40gooWpokWl1JFc+hx//7+FEBrQ2MYlzGsX4CZk/lhQXa1o8xn3tkrVt/59/DupObp2AaZyPv5MoC7UYXgc03EXFJvX54sFrbMapAds/utXu0ezrtdzlFpKCxz0tKyCkhhcn63G+XFujLvBszREENVV6Or3pb8CbdIyVuga7oVmiYBfrSyARLrheLhW5mgX4zEegTLdB2veu1M1mfLScriXcUjVNTMvJJUEA/ET6pe+MFxS/Ey1jaaLvJ5PGJlrBT912T9HKE9szWuLt1XfHHf/xPkLPGLn34o/8ep9MD/vb/6LsjsSOOGOZku9SUPO750gLt1svLRITRjRAYBd3Fg796HLd/M1e8s8lUpmt+uvjD5Q8XAtrmiYiRiKkW6EtrRn+FbnmdMr6vOgv4JOOVI1rWBUha1YUwmZjWop66oO9nhBRR645as7pVpVl5JbnIAv88ufQJXGa1X/w8W6A9072Hcqgldy879u2M7bzjfNaC/4+nTUMn9v8/e//7JEuSZYdh5153j4jMeq97emYWSyy4+LECBCwJkIRBWBDAiiJpklHSn6svMsqMJpgAyVYAKUKgmSAjJIDAAotd7OzM9HtVmRnhPy4/3HvdPeu9nmkA7JxdWnlbdlbVq8zKjIxwP37uuecU7FktyTzWWSUcgOWpKICpFQ2WhJXiSItjddUoteK2H/j44RnHsSPvN1w/PuPIN9yeX9RKbs/YLzfsFXjOhKMSjgp8uDUcteH5ps1qrTVtuKnKpG/cEKihhmbSDSBQBQPI0ronc4aGYqS19aBbO6kVULeqHuDGljOTBr8w8GV7b01LjJcvXxCIcbncdENgwQjLEpGWhNO64LQtWNeEdU1Y1oiYjNHxyo6Br5ASUlrB4QYhRi7qjfyIwcGakJsCR2XO9PWFoPHeCwUsSZsHQyBwsDmg6maq5IpWAQghhoglNpzWtcsiTmvC03nFtq3YVvVYdgY6l4a4RsQQcFqVpUY/nxSI5zo2c60J1iUhReAsK7542nA6JaQU8P/4b/8/+L3f/3F3XHC7RTHw7VdGIJ+m1FkYBqK1B8vL2cD/6b/6+/gb/9Gv4Vd/+XuITLhebyjPF9xu6sUf1wUhBGynxXpVKtoW0VoBQ7AGnbebVGUYi+C6C657Rc93IkIAsAbGF6ekTYWb4LSqTd9RgOIVOaWsUUVwFOn+62PBCPa5JWsU5wdqoMc997WLJqmFzT+980X6MqCPY01DNTcYJlYGWqCbBrFU1NCgiiHdTDQCCqBMrWCEf9CQGc6ToPTbMK1QPO56Zv16CUEtOQ08x8CIrNIvb1wceQBTRUZImw/973g/UjQJkb3h2mz3RHoOVjGf+y4hGyTVuFlKJYka5gjAjW2jazr76R2688vYq08bh+m80P4j2LyX0QpBatKNI0Zf0Nv42eMNQD9odACKme0aF073Ye3yggFuaZqc2JtLjO2KISDGAY5dN/z7v/+7aK1qcMF8DU22QfrCpr9qF2xPB5yaFF47YMzstL7g+2/7k3/2Hz6jgX71PH1ylte/4CD6Xgs9X+uvZKZ3X7tSzX/vrkmkN4WMN6p/Q4FVM7AlxkJj2mA8jIKeD+XMyL/6GD4B08BY0MjPPWX3WtMmuVI03KKa84ZH5Y7zVu7OF9ekqluAMUE9YVJ9zXMuOI6M63XHsd9w7DdcLjfkY8d+PVCOjJq1Ae2owHFodPdRgXwogM5HRTZv5VwyWlWAFCEQVlCheh/pxyKLdABdRMBxtNrcySH7iu5MTFXLK0uZW5cFec041gPruiBvK0qpoGLlYFJLs2RhHkuK1kzG3S96VHRMr+pSl5RUUhA0ZU8b9L77U4gdcPCoSAkrEDA+GIk8XW80QGrYU+2fq5aWgSXpwX331JCWiDVlbGvC03nBsqiFYTBazQGBmPTAGVMPVSlV/aS9SbUZwFqXoACRWYH5mpAS43d/9GPgbk7FCNMo1rhlDc6VCHEmAuw9iUhnxkHA3////jZ++OU7nJYEosPivAv2/cApROtfCdrECALFCm7UnRYalHHO1QFxw14EzM2Au3pHA7AmS8ISBCEwSiOUShocFBhIaoWSq+B26EYyNwwNd4jo6audd3zYbn7MK94DOM85d9+4BrqN3/fG4+npCIOBlqlJ29+WQOUsWhGju34GruJxBZ2tlzDA6Fh2OhOk66HY2oqpabYD5aGX7qz11KvTn8d+7s+B/tP7PzlwwPQrk9xR7h421k+ZXrt8Zv18/XT+jWJoC0nxdN6ZoXYbvaokAoVwZ4/4Nn72eAPQDxqzx+tQqk4sr++Me27pAM9Mk2arhwQES+GK2Pdbt1Tru9hW8Q/+wd/DX/1rv6l/1C+au4tzfO1+wiJs4HkYrcsnkGx+vIwL/1uMmSDwp3kN+mT6waebYHtAk0+eB/Nz/6w1pE8g1NmHT0C0fyTuRmAle/X51TAOj8UmdBndY4e9xtfHSFkPe4evJEHdr8Bm9GZApZrEIpdiTU+tl57VIUMf17pjw6StI/Rmuu4jLgPE5CPjelUXmeO44XJRML1fdrRSUHM1+YjgOAR70ca/fTcAnZVNlKZBBCpBEUSrfFQWC+Yci0s2pq40QQEhNEs34yFXctZGpmPRWgNJBZP6tW7LirxkHMuKdVt7KiHRsJxTZwaNK08pKescCCGYI587cBhgYGO4UloQU0SIqeuiH7Fk9U2Os2pW8gYYEaoZTkEQg0oITH0BgSAb854P02wKsCZlP5sI1hKRtwVLCjitCduSkEK0HoHaQ0X0vGVwjAY4GvZccOwFt5xt/tHmwRCBbVkQU0CKCafzgrTocbbLwM5Rt79U2VUu1d4vQKwuBk2A0EHM5Ihi5zwHwuWW8X/7b/4R/g+/+e8DxBrLfGTsx4G4buCoUg8Wb1BMJgFpQMuW4CkWF63M8ZEFxK3L9HzLu6aAFAVNCMua0IRRhSEcNZ0zJUhg5NLw/KKNvXvRv0/ECGmBy0QwAbRHjQ4iiV5NvYONvj/SM0Ex37S53q9fJzfURkUbB4UMPEN1wtXnJLVrgZBaICpRbQC6TeuJqe6kKQXthJOHBAV45Zc/TZ/t73WC1DLeD5l7R5P79j5x1G/fN9HX737N0hfESQbTF8URUU5iOngZ89wg15x59h2N9M1Md5fq5Q8/9PY7ph2RWtVTv6l34EzKvI1vHm8A+kGjSzj8e49m7eUb19TqiR+s+ziY5so7gQNbQ8PEeP3oR78HDsMuzlmvn/7kR8r89AtPLzZ2I36f0PrumECsM849wztPfJ5uNCa6uyyPPj5ln21OGHQ38OkDncngT/5s98AjARpPypFJbwdgoFl7D7VqhLO+3olV6I2W2mldabIbA0wvbGwqZ3CJqCUjlIzGDEgFIejk9SAE/TMlHIQ+sRuh2AH2XMUjEtMfe2hPxnFk7HvGfsvmb9uQi0XNw0F0teMyNhjqmqgSmLQks25St4UjZ1xvN7y8XPCTH3+N6+WC49jx8vEDjn1Hvt5MntTQjoxcBC9HVcDhXzfBJVdk28B4ed71gC1ow9DE9QCC4cLRBBWEENUmzzWvg4VWTYo01WfXkgECYoggjliWtZd8X96/U6mOAPuREfcDB2dsmzKt59OK02lV4LhFLGtAjAqkya53Ym36rRuwnc9YX3ak9QqOKxCWhyxaMbgPNIMkqF+y2hhgZdWRr4GQNIMEHGHyi4Z9P7DfDuzXApBGGr/bTgAB75428zFuCIGQLNY9Bi05N2sE1KhvXdBTWsBE2HPDy2XH88sN19ve/Y/TotZx79+teDpteDqfEJcNjSP+4T/+XZVuGKByb2QH+bfjAKA9Ihr9TkjmzMJWwlcVj24Maq5gimBiPF8zfvcPXvBuTbjtFS8vOy6XC9JyRkzaSOie6RKCbjFrQdmVzd6PhltuuO4NL3vDZa+YrUA11lx9slNU/3yKJ4ASwBGUThoqtK4QjrjtBT/+esd1L7jszZogI+K6gUA49r3bLbZHBfL0ms4AmdwZ5MmKDRhygMmGckDtMcn3Z7JQmNliFKzR6o20wnSoEbaGkIh5OLMCYQo6D7QgMF8T3fy7FZyBaHtaBBCirbdpXndBw9rOpIRsWpAuixsFMEQ7CvorPFhzVYuZPahheZ+ULZ3I19K+/jiBJU4Q2Jokvjh+eptdoVxWEyx6XJt6BuYAyObforK+lLSy4qD6TcLxc8cbgH7QmMshM3x1EO2lmTtvXnuMNy9Ea0rSZDd1P/jw4af4/X/1L/HFl1+9qlXp4z98/RN87/vfvy/z2xeu252Z6Zmh/hREf36Qb8Z/xnjNUv981voeYNMMpvGZ3fEdAy13v/tbf+u/xG/8J/87pGW1x9JU3nJgSb15IjCjxdgDAISoH2/dnMz1QH89j6F9vkm28vPGLAOaw3RGE8y9BkZ9TkWZxf7H76Nhe+nTOt7dNgqwMro3KVr522+3W8axZ+Qj63leNc62VI1Qrq5J7brWKVGsmwkbLy6szTfzxsxA0WgytdfbFxddOPsmtds5Wj/AdJxAbPKMhG1bUWtB3kv3iQ3M2DbVPLvmd11Tl3IEb1qbTlK3dkvLimVdsW4nnJ6ecD7qQyQcYWKgxZqIG2lJnWDHuFUIUbeEbqybrtYlTLVXawILQNyVriSjicsblgmEGBb7fBqWdVHwzOZPz+pSwsGdg4bNp4ieS0fOiHtABeOad/yrH309GgzFPl2aNK8yWMDuXuQaYZ522ZY+KUGZXd9p/t///v8P/9lf+bNIy4J127TRKsbOSmszakUph4XlNFCTzgyHLAipWUNt6+djmwBMippYpzIafbVC6soE1vhNYaAGxpoiatMGVgrqthHIvfhDl0XURzHQcj8HjvuxsPRell75wt11OrQ3MlhiGfHbPaW3N/0a0Q8P6NN/syzGfh6Qsdo5UCeHStZmzZoZCIJoEenCMPJJ7m7U7P7Vz/19OzNsH6peP3bT86+hNdJqyJGRa8Xttmt40J5RckEt1QCrseLsrDGs+RFd++3r1Ovgrplj8j3LXdT49DufLBrd3orUjadWtFomJ5e38bPGG4B+0Oi6Ivt/83sZkd7u0eua1FrU+ohZrdbWZUGICeu6IsSIbV3xO7/zz5RJcXeIDjh0P/93f+tv43/7X/wfuydvb1rEYCVBE2k78kM+0T3P76PrlO+A6+ureqjb+q9N+rF5Hw3BHQi9u8z7jnw8LVtJvgMTf1l0/7h/8Hf/Dko58Ft/6/+Mv/6f/u+xrFsvcUmPbFWXBC2tq6UdE8ziyCLK0wKOSYM24MfwF+ADPX8m36Qt7565+i2TNYsxA5PUYjgS+M1cNNgkCAgIQsr0SkVz8DpJbNx1Ii0RaYkIkbuWeLcGwuv1hpfnCy7PF+zHjo8fbtpQeBxjw+cMs3nmNu8Sb5aOZ1IiLwWzyXjU4WMc/S4xmQ5VtNjcQN7wKcpUBUKKhCUFBTKREINbYJkchSPasgKnhi+/fKea3sA4jgP7vuPYD2zbgnVJ+PLLd9jWBV98ccbTecV5W5EiI0TqpW4CEGNCA+N0PuPpfcOeCT/4pRvS8v4h27AYnYEmUCMUQ72CBmrantWaW/URqjdvlaINR7VAms1NAeYKpEC2iWqAAytAiUH9nkMgpHTS84oZ22qOETGiCcCxYllXq3iQXaNmKymCl8sVx3HgerlAwobf+u9+G5ejgkJSAByiyQhIdTMQDbAgAlEAx2TX8GKWntyDWJiBmBYwR0t/g20eGv4vv/UP8Zv/wZ9ECAGn81mbZJlxve3WM5Bxu15RSkEIhC9M9316WlApoUjAdioo4N4A64EZnBjrEnFaIwIzchWIZNRWgAoQLSCJVrkjbCmA4A3MOvM0qNWm+xc3DggPmo1myDx6JeZ53CYKGWTR2JFBWU5ng0Wv5xHoZP7ZRVCKWgFqiI5WlsywojelNhZw0+MQiFBZNMGxqRQpsALkktRZJgZGCwG8aP8BWxpu6FSvatDJu0+rAkqaBewivRpHPj/ZNU5iFpmkVpUvlyv2I+PDx2eUI6McB26XHfU4wEXDfEhkBDMxwHFY9ZGx1MFek2/2XWLS5RwYDYSaBTbkHX3aJr/GqEf9SgPakdGIUfbjoTKgP8rjDUA/aHwjA93ZiNcMtAU2AD39SBnoODHQEcd+YF1XeFNYB9AYISD/zX/9W/iP/8b/uoNNbyJ6nTroF+Knrx2v2Ggfru10+xz55J/1CaYCu+kuCDR+LBMo64+9Q4qDMbbvX8tG7nH8gJY//fGPdFMC4O//3b+Nv/RX/jqent5Nvzs1abI3wwWIaPMTWdBKSAnEcehZ5/fYY6geeB7RvwZo744mDBZ5ZZc4NaCS68EtdELacEhQv6yub55Ls+5m4qATUAsyuK46F3P6mG5HRjnK9PKcaWodBA/19cz8jGD4uTTqMiV/7Ghiol6mnXXPzkC7laMn4QUr3yoLrWxltMjv07aCCCgld2lGDIRtW6xpTh0ntjWZHjq8aiTU16QMNBkDXbCdCs7v3qO2x7A+MwPN5vrTfCtrjXDSigI0IrSm13eTOualVo3FZbMb03APiGdKsi3iHmwRsa6uY9aQCSLz4a3S7Q9jTIjRPJ1JAKgLTLaI9IOBr69XfP3xAjI/fAUd0hvrCF4699KDem8ze6iNlbQBO/8BDhFEbehPoaC1gfCPf+fH+NP/zpdg5h6jnbMy4jlnvFx2HPlAigHnNSGBkZYFMQviUrVZNGuTLkzG4tdxDBrtHYJuPDUVTyUuLAyWCmC4Q4gwipDKABoZU6sSA3WhENVjP2J8Cwb67t8/yzi/uu/rH4bVZLX+hLvGZrINm1tsWnMqmZTRjksB1DOcCTlWkAhyNMtCAVpQaY8z0LO8Q19TAxkrfs9E+3Tkr3uqaNo81URFb6XW3oR6vd7QssZ2l0P7P2JrHeDOrLOqLsg8rIee+ROHjM7yT+v4q+/J1il3DRkyxbHB8ZyAVgtQ3mzsvs14A9APHnIPn4ctnE8edmU2GX6md7HcFhcbogK8/qxe5v6MLury8nJ3Id1JOWi6yICBiWX6HeCzO9LOQI/60Gd+4RVT+pn51VUX3zTuMP3nwLO8+h37+na9WJlfj+nl+Rm/89v/BH/u1//SvXb7zulEF3JIM0s29fHlmABSpwRnWX6hSYQTy2rSd3zycdwdw1eNkgaSx7/ZgSNrWiUx8KOMkJe+3bh//my69CVY2IFtBJsB6GJOHHqzuOe9qJsFRtXDS7Yj0n7uEbCAGKDf+zFo04JWDUAr+0JdYqh6yomNcY9Z89oNzAqovanOFytWAL3EiHVbQUTI+bD3qn1ep3XBui44nRRAr8u9hOMunU1sk0bQ8JV1xboVnJ/eobXHTMf+ubsW3Izd9NyRBhGVaAgB0hjS7Ex3FxqpBpL15seVbSOpDU6mL+3HkJGWZMcmqdTHS+XULMAhIqaGWNThwv1pRZoGpZjE5L/77/8AuSrACCFZ+d438awgam7rJVbQbI2aXnrrm27S1yhEusH0HhFzAPkffucn+DP/7g9wjgHX/UCpBfk4NCFzP3C57tj3A+saLTaekNKClAQxFcQUzac5oxoR4c1gmlinDH21MJgmFTB9OtsxjmCkwBAEJAmgpuxmMeYS01z2h3I42AQ+kUJMFhMTSS1dsWV7cbV8s0ZQV3t43HsFRqMhxNIFBRmAsMo0StFzpGQF0gxAYjDATT1htDe+OLAn26V7U+ME9vsLsUWU7HP196COLCrhOPaM221HyxVSCkopaMVSP2nM5T2ReIom90qhM9RjzZpkGndajqnCbMd25rNU/+9yE3svkxsHuPyiz5g/EuMNQD9otE+0xA6gVf8pYvqjUlCzBqeotk7ptWALUIjW6R+T2s7Yc4ktfIDoouc7zkbYr8/4+NMf4Qc/+CGckQM+ZaAB9MVePO5z6gT2n/nLFwyN5Hifd+9uOgL3CPleriHj3l/HHWN/Lw15DVhHY+L4Kx8//AT/r9/6O1aiGpuLf/5P/hF++Zf/OL76wS/1clcwECjMkKAAR8S0mA6gbYHVpiX1zzT6B6+W6+/2PLL7+e99E2jWwzXZRPU1a+h7PalSF3JdpHNsaFWjdWPz7m1Gae4GI132s6SIZVF2cdsWpDRi5kttWn41i7xcqga01KrWYBa/TF3DLObsoAtQaVX9vq3x6HXFgf2ckfFuGcpCRQPEzFr6Pi8BpyXhvMZ+Oy0R2xKwJm3o8vRP8rKzXZcEZW3P24qUIkIQ9dDOG2pRe7slRTw9nbCkhKfzpt7QSXXzLgPyM9fLpxQIcRGsZ8L77wFxfUyQCvkFa933tWTUfEDKAZEDJAUsh/rWNiCYb3IrBYEaUhCw9rqZVtmizX3Db+9TAcC4flz41Dpj59HIgiiE8/lkKY5pVOWkoNaGfc/dQu/jtQBgNGrArhvddWsKUoOmw4UYcTq/s/TBiGXZEBeVaZBFN9c6VexMTlCnMBlU9XogJvyt//of4Y999Q7/4Z//E1o9qeoI00C4HRWXW0Zp2jy4ZkEDI6SA02nD97//Bc5PG14+Ltj3HXnPYGp4d0p4/+4JT6eEwITIx7Df4wjEBFoCKDKOSqgcECqjIICKzj9i72EJEcxiAX6/YBA96YJBMMmDjHLRnWxjqDqkAbWYlOto5gnesO8Ve27YrcG4VOkAUkwfXUTBKokD2YbAUB9z2xBXAGvSjb7OK4QSW7etkwD0xhcoYTDM7YzTdfvl6T24NWM14HyrDXut+LAfKmPLBT/5yTNu+44PX191LmsNVKuuHbYZT0xYfB5iRlpMptHzGtBBtWY4WDWr921gaoocBA+b2OdVJ0Zn8H1hkHKgQVCYQfkNGn6b8XaUHjVeAbzxc+kXo9iC1syZoFZtVEFny7g35TAzfvQHvw83Th/eYvq0s6UNYMmonwXOzkJObKzAglJe5dnRAMvzUil8z6p0NnRoNHqJiz4DrV12QXev3x5JE5j+JnblMwjy5ePHcUyAztJABP/oH/4D/LXf/M/7jt//HnWK3gVkNhn3rbyMBddivpVVvN8QfLfnkR8/GqzTzEZPR7Wb+E/HbToinY1mS8nzcJ1QlYkzByntYid/vsFYM6l9XTSGUa3spiTLru/321h3vCveX5UeynbXQOuPe804O3j3MuWQ+Eg/rwPBQIm6QaTAWAJjCS4hYPu56p6ZJydd+4wBc88RmbrZAVkXdVFIjFYt7jcFDQxJwazpLFbZJDLqxdpPdrs2VFoQojLRDY+RcPSjbqilNS3btlaAVsFS0cQ0ziALTyELvbDY+mjstbm6zFe0b9IUhLidmTleVEGhhmhWYWBrRAwRKaWuyx9nakIpFQ0MlArJBSJkdpKaihmbaHMfgGB/O3AEr9GkIRpcE0K0OGfYZ9vuzlMFQrXTntKq6uWtYpOrgvQmgpAi+NDPtzYFdaE0a4I1lxhixBhwOq26kWoNMRCOwGBp6mW9LEgpqVuSgfoYK4QCEBRAgxlCjFgJFQoIa7/29Zphjhb8Qd1l5XFn0uemZrsoTYr1SRPeJNeYFxnH2M30z6qB1lut6Kl980ynQBBdXqPnICEYOGebC9ai1bNStQdCHTHGvGTvZALM08099O5A6GBvW/OwKUEuFXsuuNwO3HLB7Si43g7se8FxVK34SEP0q8QrQQEIkXrjcbQURZeAecXMsYC7lExL1R0bfbdlv1ujjCp/vcI3dZJpJftBfhs/Z7wB6AeN1wx0B5ITcJZSUI2BzseOfOxDB83cS4HOQP+ZP/1r+Cf/w/9/WnS0LOpNE8yEZGD73/mlH5ofJMY90AFHH85Ag0YlqzPQCqyB+7mwtVFc94m9TWDa3+8daCY/DmOCvWOg7fdYMOx07p/g/ssOInXi/hO/+ifxxZdf4P/5t/+vpm1UoLidTvjrv/mf3ZW4/Fg1b6oLrA1WFoXus5ESzro4eqmPZJTgHnIe+XGZjoe8OmbzMenGUO6o4PpBB3WmC1WZAqMGwhGVrwAEuXp0rOulzR/YJu81RSxrwmoyhiXe66DdT7oau1fsvoqyRj1W26ioptFc8ES5ZmXUfj7YBs+Z8F61lCFTAQhLDEiBkJhwXiLOS8TTmnDeEp5OykSf7LYmBhvz4wtKc6bMPvvAhLAuAAGnUzRpUAVRMz92wpKSVopiRORg7GfQs989BGXihQjgREiS8PS9FWtud6f4d3cSmR2hAed6HDrXlAOQHU0KCIeitAAEYWXnoBZ3IdlJZ+CZWPWe91Ulb3Ji23ioe4SUarHbtuFKUdmzoI100owt880+A0cuoA83XPcMuRX8tb/y67hcd/zTf/Ej/ON/9ntYlgrmgJYEy0LYTmfEGLFuZwMaZNrqaBeAuYkUbZTs9mFA7z9preJpi/j+l2f8b37jL2BbAgIRPj6/gI+IXCv2o4D4QKnAba+oDbgdFdtRUav093d6dwIAfDgtOK437Lcd0irWJeL9+ydsizYvtiVbRbKikYJmCQnCAbEwMhhUCHsh1KrVktZ0Q7FEdelYl4Q1PTrKe/4B3TPQEKgtSOsyAQVrAzjPUo1WBSUrA31kZZ6ve1VbwL0hC1DaLDtTe8XaBHsZeuhSda5ITgwY+MwtYFsqYOdnKYLKDY1ZNeViKb+e6ogAtv+6frjdvz8Rq7JZ1e3lmvG8H/iDr1/wfMu4HRnPLxfko+B6uSEFIAXCKTloDogRSJGwrqGvR4v1Ccwp5HdAGrqWx97LYImbZKwzeZtpmyqRfpWyrbttSOeKAI1RWtU0xbfxc8cbgH7QuG/AmzVfc5CDT97TST2xrx6icsccevObgzxnFnuEN+Hp6WSa0HlnOuleMeNRGgyyb1R/DjjsjKM/brr/7O9/7ndesan3DDTuf/jJwf38v33x5fc6+0XE2LYN/95f+st3v+phqC7naM4489xc57fJtsgtizBYy8eMmcF/tfnB9IGJg8nXDLRMn5Qdm0lvx4ERytCweoWjg1NxzaiByqDsc4xBA0RsE9IDCCYWf46Tdw3qrGV01rk3Ehng9/Ok80KdLTat9vT6nPFNgbujRuyv0e6NdTZ1xWgy9JXcdcBgdLs2HvpD91T1DUVgBgdCilFZb3c5MYux7g4xnXUNFsJBARwEKTGI5SEA2tn14foz3H+aCAI8F1Vsg9zss3T9OLrv+dycRPa5CGg06/EohY/NNhREG3srXt3xU9jdBUj9khsIaWkowiiIiNeMGCt+5Ze/j5fLDXuu85tTPXuIWNe1nw9sGxoS3dAxCxoTgrOPfj7aHPBn//Qfx6/80nv80lfvelqils4jYlQm2pu5+3skugty0bAr9cLmwCjHoaV1AupxIMZgmNKuZgNCcEkBM4QDGjGi6HkbmnkdE6YNpHQ7xhgIKfwhsSCT6YvPMNDS7q9zSFfcWRpqQy0qA8vO7ncrzQHUfd6o0lCbMtF7FY2oF5U4VKLuC9+6LNFnb2WZR6XxdarjfJveklcvTApRW0MxT/EjF1yPrCz0UXDbtRckFyNzIEDifi31ZtuAPoeGXhkc11oH0L6OT1rob37VHqwyV3JnIk8BtzqBOVH2C5YB/REZbwD6QeObALTr71obpevhzKHDG9xG5+1cqLf/2+6/Ax4MEPP09GQgUzrVcrdUfwbtiv3v33xBl5/zs/uvnZfzfxn75c+/vrvxM/79y+99ha9/+mMEDvhLf/mv4qvv/8B242qu71q6cUg/1Zsxu3es9KSpYRs0LQoPGHIHnd2JgnojXm9Y66DtPip30nBMLLwlcTGbIwV6iZP7Qu0VArGKx/AzdmeYFJPZltnzxIiY7OdLQjqyhmzEAK5VWX+vVDgzLjT154zdlEuQIg+2JdomMfIA5Z7amfw1uEMIs3W3YxigO3xvGqTSWjUbN08LYy3Fs6akhZ4I2qwr3iUMA/CR71TxerMyn+n+NSuLy6Jpf3e/+d2NVhVwujWhV1VcnqPsW+s7WvfZJcBYepd+meeuXTMhBLXYEtKwkRTNV9mcDgywSNMyepMKoaLaaKlo+dDzg4c94koRDYSYElaO4Kh2ZiElxLTjz/3anwDAyBX4F7/7B7bJmaRu5KEWY2716ydwhDbtWQWJgN/8jV9HqwVfvtsg9UAIPMC12JwQItKyYFky1uXAti44tmwWeNa8losC4Rgssj1gSQtaUXvSmgtKEXx8udmmEDgtKoGKTAhJBbnUA7QcVPnmddykDUD1eu34QzG6SmCKoZY50dTWPJduNUEtQC1AKegSjlIEBRqM1J+vNxuaFVvfwKh2w2VoZKCb7FhGs/MMlq3APUV1TuHCZ249v1Q3hBjEuiefZo9xzw1HqchZez5KE1R4E+RELNCo6N2prqd/6+SXnafD5/leekYw6Z2BYuDekQOYqsgA3LFKSKuMmgiJx0xE/zMYbwD6QaPdaYrGjrAnsZl9TKvNysf+e3MUszNs6GB6sHp+gTg7rb8TQ8Df/Ot/w1i1wVAOEYehZLpXJ3ecZYBmLDwTK9gZ2DHDkNnUyXiq/p7vvp5+wQGUg+UhGvC/iM6uf/b5pgv+NfD/jb/5n+Af/6P/Hr/25/5CB5ahvxH9utlkJTykLyLBJtnYJ9dmjgHKYGnksToYaPzzI8bwE9cj5E1zADSIgtyKcAij/RwaPr3VJkyxTYKnCTKWyFoibgJhQbTfq5NcIrCC5BhZ5RtbwnbecDpt6rYQ1HdZasN22rEfB56eTnp+3AjrflP/5lZQalOXhwboK6Ouk4bZkbFdL4kZawrKsrG+1hg06KR7opru2M8WgpZJ0xIU2Jv9HHMDUQFJAeRQDWMJIKkQDigtQKANW2ygPdQAYsKyKEOoZWC2JiANAXE2sst+/DoeJ7ECc/e+IHOTWKbS8Hc8StFmxZIPlHyYzMa8eWMEsaitWmuoaGg1Q4oC22jnS+xVLnMJIEZYVz3YFBHiqudUsDo10LWmBKC0osfjWiAQtajbr6i1qLWbuZm8/+KMEBJO7844UwQ44fz+C+z7jtt+4OPHi0rVUsJf/Pf+DDgw/uCnB37v979GWhKE2JhMdYTpjVYc8Bd//ddAAP7Ur/4yzmtAbRXluKHWAqkFtUYriRszSgIOCQsF8BP3DcH3v3dBiio/CYFRa8XL5YYzMZZlxWk7awhPrt0W87YfuN52/OSnH3G93hCY8Ms//B6eTivePa04LQrqnOFuxFgLoQlhjYIW1cZujYTWdJOr81AD2mMcFF63pvQ1CgPsuT8yvM/Bo7R7k65A6mCiaxaULNiPiv2ouO0Nl2vF7VApRzU2uZncRwG3bgBLa8hNkBuw14bQCBSNMLKwFGbtWVhSwhIDlkV9u5ekvQjMAQJzgcHY+AmmKpJt9qtQ7+3ITVnvowiuR8XLXvHxmvHx5cDtyDiyru2lwa4f3YyFQIjs/Rp6fXnzc+T76vKwGvWtq7HXNCm2RStFwSqk7qTkhA8gfb0Y+RMCIQG12iVzbwrobzfeAPSDxmsG2vlDMZsmN5DvZS2fcGzMQHreHv7qr/5J/O7v/ku9uA04dSAN4C/++3+xl96/DQP9mrv4bhjoT+/9eAx5B+Fbb4R/BgNNRPhf/Lk/33+ty1ecCZy0dOjf2wakM9AKkCBq1j/rp39RDLTYO3A2xEJ07yQSs0yjP1qm3YX/8/Q+OwtNKoGdrd/83HKWb2agk7HN3sgUyLV9+m9pSYg5IlVrsPMGGaFuPecMtAckuCa+szOMDtAXS2aLkbGl0F0eOERjNNt0DTlr7pHAAHrjm15/aKqL7WV40SCOCkFr9vmTbllaY9N5T4mOd8mO89n9Mxho9y22DcyjyqadgW7OQE/nBY33o4Eqo6wusPNB+vI9ycGUgUZMYE7gmHSzzxFDbznmtWauCWpL1pBLxu16QykZKQYUqCXZVhsoAGtcEJcFMa7gELEsCcua+2ZJZMxov/7n/zR+7dcEP/7pFf/0t38X0lR73wzg/uZ//JexxIA/+Ss/NM1xQc43A9aqexWTL7HHdduuXEvqAYlYGWhznymloNWqG/GmDHStqmlXF5AFS1qQU0HNBZpm2PDx+aq6aiK8ezojhoBtW+HlEm3wNV0sWXrmHQNNmKDeH34GururfJ6B7gxyNQa6oks4chW07nPdugzEQbmD2doExdwyKsbl7tenSmtCz1XwOUyv8Z/PQOMVA91M5l06A43hIFKqstB1kmZa9XNOhO3BKBP7fBeW4ppnX+Mx1rP+/joDLXfnhBfdPmWg7Z6UgW7W+ULtvp/hbXzzeAPQDxoyfaWXQOssbt9F22Ii00QzxmiQmsfT09Ngo7ueeVxsP/zhD7RJBr7wzehpiCWmrKhPXunMJt9bd3rgxb/eEXg9xitxreuw1pyh9jfBC/mZ/zgxJPY/dyoa4RozIJ4ZlWly07QJlQJI059jZgMes2fvDDTJ9Jm4veCkMba0Murnja8BVkbtG4Vxi0GbCIMv1IQxAWNM2GR6Sw6MYEy0A+UwAWhteI2IKSEtCUtOKKWYj7lFpjc/3uaI4IsTxnnsXfTRWOclMJYYsK0RKTJOS+wAmlgbb2qtFv/bUKX1AJyxlxjgWWpRKF2zXovUUKShgVGlWQCNAmgWhkg09lEwV4fYHTdAn5yPd3LQLogxAaQB8Uc17jRvIvTo3qZNWApwzQKT2UBps9AO0WoNs+7DZTQb+0UTYgDFqExeXACoHaQYFe9NS7BKiLpXaHk754zr7UDOB2IK1ovAyKWCo+BsbOG6nsDBzqkjAwBqrTiOjNpqr/R9/6sv8Rf+wq/jr/6Vhv/yv/o7uLxccdo2/JX/6Ndx3lYs0SoF0oyZVCgSY7CKiGtP/fxwtwttCqUILHnBshRs64Jqvr4QDX45HEALbIOZ9DWnhJKKhbIAL9cdX3+8gIlw3Q+c1kWrPzIgUne9cfBsTiiuhXad7HyV/8LGt9gDStdoTYTRZ+zsiqUQ5mIphKWpp3N3QQJkWi8dPPsGmHyjJv5Zjt4hl/jovVot9pj3/iZeVTzl/s3522jTTZ1hROUcpuMuRb+f/avR542haebPfK/adu4MdNdDzxVqjM9/eN5PALs/r2vtJ+qF1Ca0waPQRaupf9g2YX9IxxuAftBw4GPKgU4Gq1OB+pvmnFGyTsS1jsVgAJ3RRKjPCfzg+z/Ese/48U/+YABpbzBkxvv3X6jnJXznOYU6dAnHYGHvAfRApjNgdolEt7SzJpiZBepv1t8zJo2ng9o7hn0UumcGehaJfPOgO6D9il+/ezm92cIXfZNusDGP0qo6oOSsECc2kKhTgJrvS2cNIukFFLXo95DzqJTX5VltmmpBY34hwazBfHJVlrhZ0xOaYFkWnE4bWi1498UTDvMrbqWCAmOvgioHSm1ggVraYYBot0sN5MEj3FlpTZNTmYVIxZE35JLx/v0ZIWi87n7coFk1zRLditk4Ehor86vlcP0bizXWrDHg/dOKJQQsKWBZzPUi6TTWxLW1gqMU5KL+03vOOFoDr9FKvIKnl5s2EzUCQ0vkla7mfhCAtAEcQGnrfuCgBAajVNNTV00ZCwggMhmSTGw0ACBYLDSGZtK3JeRnjQLpu3Sx73D436lNcOSKj88XXF+eIbXiOKvFX15DB7vqrasB0cWqBCQMbua4IgEa+cEIxpy69CmGRRsKgYlFA46svs57zsi5YD8CSsm6FZWGPQuADPnxM9a1IJeAbc3Ytmz+4uorvu+l+/CKzH7b+ndCIPynv/m/wo9+9BO8PF/w9U9/itsSsaaIfF67Y9G6RAROkJaGL3Qr5lRi7hhNg04cuEU7D8+nBZCK4yAch87n+1HwcrmCA+P3f/QTvFxuqLlAJCAtJ3zx5fchtOCHzwficgJBcH56j2XbQCHiyGrZ1y43Pa8b41ICSiOUHICm1+S26mZuSbHret0F57sfP6dGOCn17uQbk/Ritq1UHbGgWuJgrWoPeNSGvQpuRWVlwmwbO+uhEN3cqTeONoF6oYmdmW0ANekezCx6C35rhACzmIOALeaeUA2BRk1NAgOk5BeLr1SMlQM4MhZitE2QQMhfVbzfVtyOjMuhATy3cmALKsMJtgZ6kC0LehR5MPeaYPKxWb4xYLhvrIa13cAJkz0pDwDt/QDD+mSki0qrNkFV8Bt+/lbjDUA/eMxMq9/7ZFJb6SxKayO21JsfXNcM+AZeJr5htN357/zg+9/vINgVHPevZXoV8s2v+J49G/fzJnXmPewlA/Lpe53vfXxOgUGvnhP45pc4P99rUcj8M19cxz0m9tDea2tqJVgyWo2o1nQCaR08SmcHpN8eBaCrld/ngy9saWWVu2dt7MSg6XTtfbRg0dQmq9jWpXuQ39aEWquxw9QZaIIuQprSNkrbzuj3v+NaYYsmjikhJi23b1tCrQtKLViXhFoylmVMP/mo5oBgCyoLUlCt7ZJIZRtRrejWpAAoJmWeQ1Jv3lobKgSoDbVp1/3RGm65AoHMdkwB7m0vSDFjiQG35UADoUhGFaX6wgZQVO9gsRWuNd2cNFHLMm4ayMCkTM596dxXu1Gj6MTb1DXgHL9GCT8K+AwNZC0VN0vTk1bAnFAjgynaRlMQWdlgjRfRhsrabFUWsoqRWfUZzc9Bw3nU2i9YP8aI9445aBKlLfQCUa/m1lBzRmvAniva5UCthBR3tEoGlAmlKHNdc+sVi5mx9fcn0lByxu12xeX6oq+1RNQlInFDS6p/JdoQYwCBTaPb0BrrvFxgAIOsP0WZRfVNZ2sQDBAJyFk/Yw9aue0HXl6uaE3lR2ptmHA6nXGUhvO7dyiNAGlYlhUcI8ABpQpq07jwWhuqBBwSUSSgVekVAPV8ZvMd5+6k87jhQmh8Hkt3f0D7Bb9E2ni4b4A6Kz15wGtDoEkjRBQdo0Fa6BIgAL2xm0mb6Dxdk8Q9kO0qdLtUsyClVkGNOmAGAaTaNS0ONQPJTVkvoqCEEwbjC9L+DDLgfUoR0hren1ZEJlxTBAdgz/ral6Bz2/x6+jPaDrM3JjPbPOze+zIdT/lkDRtgetZLzzJFY56teXi+jWCw9g0U1Nt4Pd4A9C9smJCjeZlH445zzncMtIiXiceucmaFpQn+3J/9X+Lv/b3f6vVpgnat/42/8TeNJZa7uauri7+1yPgVA+3fTymF9ldeVX6kzwk/+09RZ+b9eXrzIrx7fzDUn319n9zbX7x7368YaLlnoGEM9HHsOPabujuIelsjxqExtpL7HQP9oJKXM9CenKYOAgRJUR0qIKrhjKYJZgAhoEkzH1ygLRWn8wZiwXG8M3/xgJwVYL5cDpRckY/yzQw0zQz0aHbhoK4D2tgHnMoGkWrNYEri7LcrmLVxLAXGwQX1KBan65pyYEvaSHNatVFwSwlfvj+p1+2SQCHqQhcjcjG94eVAQcEhDddScTsKPl5u2Ks6gRzWIX/ebrpeVGXEarMycWsAB2xfFoR1xRoYIUa0plHQTKIMtC1ctQZboLizzGQpZtrMaZZ1bbLre81AEwEOSB8wHGC2plKDjx+v+PrrZ7SSUfKKdQmoben2f+sSejgHNUJjAMKQFtSqTwKic3cTA51Swvl8MncWxrLE7ohyPXbkXJAuV9yOAxwYl/1AFeCWG0rWa7F82LEsB3ImnLcd27ar57OYb7DNjxxDZ/49p1OkoZSMfb/hw4ev8ZMffw1Cw2lNWNYFUs84nzbgtOF7X7zDaVt1I+02ik3n4ZIZrWmVsJYDYimkMTCWGHHeEpgqmAX7TshZcNsPCIBcmjb+rRd89b3v4Xw+YV1P+GI5g+OG2yHYzhe0WvF0ikhBQdOeDxzHgQ8fX3AcWasi8QRwgvAGUABTwLpGEEzD221Of3EevlO7RQd58CBCC3h0gCzW/NfkFQNt7HNnoFvDXhtuxeO0DURPXSBBdC52BjrQkKA5w0utKfvcKlhUitdZ6FZN6mBhQQJlrc3hCNzQW86tCz3YbMtQcqvppYBEjHOKiByxl4JrzvjRR42B/ykBkRoiVQQqBvDV+YIxM9A0MdDa4dJ7biDwNj9nnolgTcz3DDRM+tPZMxk9H2hV8ydatf6r2kvLbwz0txtvAPoXMoYOoifbTfe9tDV7ZPoj5dOn6hrgnqhB+I3f+GsAPMBloEii+1a910/4TWu4NxnNzY3SJiD/6vW9/l6ffHzzs0QZd3Pwq++/6Wh+ykDf//v83DN7ML4XY5YKynFgv90QvdO7VW3scPsjTzOrReO9+WEGCri8XAHAUiq1+ZQJKEtSR441QSSBSbv3hXRSDawNfQSgtYR1XSFScdpWZdtqRVoi8qH6ZHeU0EZBBc2ajGXa5sBInkI4Ldh9k+FaQ5N0LEtCLQm1JpxOK0QKjn3piYE1ZwsUGixUj+HtNnSMJspClirm1Qy00nCUhlwqrvuBI1cch0o4amldYuR6whiC3ZQpZyI0NFtItKTZStbGPvuMhTyIugsE+n99WRNMIPrTc/RexuG38ayDRf1uRwjJ7uO4cQBYQUlrQLXwCwHARTX2gZUlD13/bCDFNcNFA3GaFMRUQBSMALBj0JoF5nA/1kRyp/dkt8eTsakhLshHwc5HJxNq0w2AxjoreFAlDOP8dAWHgJyzXifSEJiRkrKHDjhamyz8nATwqXny4e8kgYgSG6XgOA7UoumNzGR6/6oa56pWjd6Quh8ZIkAutafoxahWeKfTpgl2pWBd3Lccujmxz4aDmIQgAhwhHOCR6BrLrrrgBrEgmkejn58l+J8Yl9lK0C+AbkEnd9cPpnVk1herfh7q4GHvtHXve32MBmWSVq8sTCwRWRIpj8RGIgRYZU2ssiYW0DQ10/ZMhd5Q3TBmA1t/yEO/gMRaTDolQiDddO9rQiLtPwjQWwLrfSKbi4ZM052fOARLEKYeya2Hc8iUiH3ORW9i7hkAdm70T6TH1g8LyyHpGB/AG37+duMNQP8CRzdid01Y1SQ2aaOpcI6Zddu4eZLpPyeGwK3UCDHECby+hpDfJKa4f3V339mk1yZEfDc32kM6gJ0x+qtnvvd7xidffzL+J8MUHgoyCT1oQBi1FFQN9LGrtZRaCy4gEQWgi7oACGE0n5G8sin87sbHjy8A0IFBa2ovllctF4ooAEwMcByMn7AgxaSx3K1hXRcADdtpQxPVlMaUENIBjuaLakCaxTyYmzbjjTjsiOQbiulc7Bsfs3YLIWBdElpVGcdpSxBZcdz2Hv4gOeo5X8Y1EXpZUlnNBrWLQmmoqCitokJ6AlguDS+3rLrnvWgEdGnwPLEUIpaUsC4L1pSwxIglaiMi0JDJbMAgnaFBKRqq09g08FNnvNHQs+62A2O/Fib9s4PnO1yB+/tHjJSS3S9IaUFMC9KyYg7yqM31kuqRLEKoTJAANFH/avUfJqARQhVQrqiNkCsQUwaTMrdi4SWlVHioQy4Fxdgv11qj6/bHQWpm85lLQcyMzKya4KINiEeuXTJGdryfnt6BAyPnrJsngsqVtg1oRT3CA2PWojkr6jHuPhe05jd9LSVn1JKx39Ryr9YCssTJ2sz3vDWkI1ljK5BzscY4ryoCIQQsKWLbFoAUQKdgcjAStBaRGrAsK8BRqxW8AhTRKPVwv1qMbOnSFbXafMQYPTeYNpPTCT2vUXPGwat1Dd2R496re+KZ0ABUqHSlNksx9XPFq5y2PjIICYJIhC2wAmhmbDFgtSbkZCDaLeCGRE2GftrccVQW40FB2mznfQt+3bIDewARDUKClaGPA+PdumjADQGECpYCbgyWiiUJlqAyNfc/D0Y++DlEcHtS3O0wyDaeuHMC8g9ID+LYHMoIT6p6jw6oG+4loW/j24w3AP2o4d1znc0YaWBNrJGwacxtqa1P2K6F1hsAFiuvmPeDMSX/wV/6D/H3/9//LQC1rnv37j2Kl7zsBYxd9GsQPb3MT8DquPgGYNd/ccz4CQNNY3L9WRfj3DT1CWsy/dvPU0e8ZpvnSeDeXYS6hMNnpW7xY932+bjh5fkjnj9+QL5dEWNCihHH+Yxt3cDv3yGsKwISKhHAGVKCWSt99+Nf/s6PAAC1ZFSLJA4MvDufUPOXeHc+43xeR8hINH9TUn10S4s13VUcRwJxQ0qasvbycsFRM9KaEPaMcCSEGIEgoFoh5r5xXlesS8SyRJxSwhJU/ye1QgIbBauR6DElLNuCp/cnpAQsiSEt47QlJBYc+45jTzgtmjpWs/miN4FUO4fsvgrhegiuVAGquB0ZuVZc99xdN45cVD9aFPRAABZG4oDzsuL9uuH96YR35xPenRKezgu2NYAPwXFrqE3jnVEOCAMt7+r5TNyZrUCMQAGBIpgCCKqddQ9VYb8OyC55t+azUrVYsxMGw6Yg4ZuEpP/Tjm07AwDyUXAcBU9P71FLw3HcwKSNckc2z2SGxUYb6FuAGIAqUf2vGyGZRpRLVm9tUr/iWhveP52xRM02zDUroG5VrQv9GLge1cvuDKA6w6w+0Wm/orWCXDOOveDIBcdR8XLZFdjKaLoOMSKXgh/84AcIMQAQPD2dkFJAK1n1r3Ctp4KH0tTlAVLt/KtoJStTV4vet4Lb7Ypjv+H549fDLSEwYlwQAuMoVSU/XaddcbneAAG++uor5Kwx0mtaQAR8Je9x5FX/Rs3KzEtT67rYgLCglIaGAKEEoYBcCbloqt1x7KhVIKTPK139+4DR5+gRHtTdITEBY5dl1QapE9Np1PK8xinAu7dzNac6FBFkqEXdVUZVyeO6AaiWmQDigDUQ3i8RW2SskfHlKeLdlvC0JmxLUCBNdC9TI3M5MYehkNx2cyQ/Ruixdn0xiFAF1gehv5eCICRCDYQihHMKyCK4ljOkZbRWUPMN0jIWbogsiCRICWqvFwNi1CbpLkMhrzg023M2w/FjI09mvwoWI7F8Q+iWueq/3Uy20TqInqwg6Y2B/rbjDUD/QsdrBrr9TAZ63pEPBlpBrZdlAeBXf/VPdc3yp+PfhIEef79NaPlnMdCf/Mn7L/61YMJsZ/dve7yVsRhF8+FxrAu5M9D7fgNaQ4wZJVigggjOpxUSo9p81YIm1G3tHjE+PhsDnQ/dcNWKGAC0hqfTimiSi1qrMQzqgSym3RZjWdZ1ATNwlBtyztiPQ7XQySzmnH0O3CUQSdQNw5nb5XMMNMYGRiUcys6tSwRJgrSG82lRLXFeEQMQg6CVpGEXwYOFBKXoJq1AGVBvKnK28HLN2EvG5XozyzpBLtV01DAJPiGxukQkjlhiwpr0tiRnoAmtki6cxsigFaAFwFhS7dyfUyhHdHj33L6vVncQPVete+/UHxYGOioLnZbFFlcNWXEG2hNSiYDYFJiIMEgVHyZHJYNszcq/hHXJWFLs4BMiFtpigNQ7nDhgeJNgYvP1A9QYcQWjbIXz256x7xm3PePj8xW1NgXnVcHwx4/P2E4nddKxy3JJygi3TB3ES6lwe707XW5Te79aC7wvwufnUjLycWC/XTtbuKVVPbBJj60IkJJtxGpF9hCNUvtcHkLAQhFtW5ASo9WC49DNova/KNnRRMFbA6MhmnbeEvfqYMtrb1Qd+tjvenw7Bnpe42Ba6HHMOzHjiYJOME3P4U9VBSjQoJSbbZYim9OQMbEOatka+7bABqDDpwy0bYrV23z2T0ZvyOuVOHJ2e0g42KRrXtX0NE9AK1Vgk/eJNlZXEFYAtUbUknEEQa2MRMUa0av1iYQuf2N3VBLv27EbOQs+yTbu3H/0dbh1pGKKOjYntlHpDDRek01v49uMNwD9yOETCsS6XtEbwdqdTmlMLs48GxYCREDNF5dx+2N/7Jfwp//Ur+Gf//N/1rua75hmGmUyuntJn1EYy+tl3S46YCq/oQP81saO1Rlo9dW0QAars935MWOUpu6wZ2+EbP6vGI+i8fhPLUXmJ7+Tifj9+HvUmQO2hg0t4ykLXY4Dx+2Klo9uJ9SOHXm7glvFsW3qeczuwUl4EH7Gb//Tf2FHr5kURbAu+vrWAJT9iuO2ITGhHGeUXAADvilF1eQx0GRDiozWTqonrA1fvH8CILh+kbUxiaMRRQpkcqkIzHg6r1hSREoBp9OKdUkIwRpw0PqCqmVQ0xvHpFm3q6BYdzrqgZwIR2JEUVbx8pJxHMom5qpxx7e9qhOCs1F2bVxvB3ItuN1K/5k716jGUd1ETou6d7w7R7w/J3zxtODpHHHaItYTY101wTCXiJiUyQ4bm3NVQ3KGKKiGeraTqtIA8+G2zA0QtXGNU1P9ZvUmwoCGBPcV9utdL67HnEQxKoBe1hXnpzO+99VXWJYFt9sN18vXKHnH7ZY1WEEErSo806Q3gLgi7MqSEgdwLB209NnEdNTvzifUptdzyYfJIgpCSuAQsKwRxEBYAtYzQLHiaIzbbYfgBrreIKSx31XUgqzUjFzVFuywJMXD9M6tCa7XHdfrFS8vL6h1AwdCjAFpDSi7AfnScORqzYHWyG2JsLUUtFKQ82EAIwOice+1FEhrd5uoQWb0bXkPyXF2Vui+xuab9ZIPlKp66nzsBtwrSlWpDAWVYZFoo2kTAlE1EFdBkqfZTbs6HhXIcz83f/6f+6w9N4gTgZr0tUem9aZfCtPB8qa6yFrZaCyIrgHHtEElZ2kVTCYmnJaA8xpxXgLebwnnNeKUFEhHYqRovvXMCInNFjMgpAhOEfG8KAsdRq9MsBImh9Q/Y24u/xGQ9V1wrmM+AqERYxOgVkatAXsEak0g2Y1ZrghUNeglTJZ0mNZJTT2xXgJgIGtM2uWxWYFdv7ANIPpGUfrX82cgGETI2/j54w1AP2rM7GyXcXzb1KhXO/I2QPgMtL/88kuI/LteQbfdp80oQq+fDWOHOv+NWePcxm81B/yYgP1ktze/R4J5xI4mDB2ztU4bgS++k8ZgoOQO8vpjp6YN+9nrQfPxvAPmzpKMycibl9w3tB8TKweX1tQfuBRrNGm4RC0Dpxi91/819/Kdjq9/+gEAsETqYQqMhCMSbpcLgi2s16dzT7ZalwUxqA80BQZD/WIhASlarK1Z2uVjxWlbULKWso+joFq3fCoVzIRtUxlIioy4BMTEwzbpbtEcjXbaqa4+wTFESKxYk7LSJA1lTcZaj6AND1C47QW1aHKdn38iQCnVWDh0AOp/W/8OIwbCmgLWRd0kloWxLIyYCDERgt2iENYtgDmq9GMJFrusXsIcRpCFn4UjwEHZK2WYbVFqvrCpC4MYwFKOa2h+xVZ+L1c/Yvh1FENAWhJO57OG48SAVm8gath3XaiFyELfBDBrNSFrDKQKEINCvU9NI8K6ZsR44HLLCGHX5tVqvspSsQTdgAqFrpVPCwBuWI7aQ1a6ptOtFCDGvvUSw6sKlzkbFfXVjzEgICAsCkokstrhkYFYaff3VgUs5s8P21Q7gPb5OpglnUsH3E1iuEqMuVAdlGTMg74hqArSc96V2bZG2lKr6sz1L2HMXI4uJxnEJP4ZPeQPmo3uSIsJTLvF5evTmb7xG8CA8HjeaQWgqQFYdBPtAJqnubdXXQnWDEiWXMpYkvqbp8hIFpPtDczBNM7Bmop7BS4FhCWCUwJFGoEkrjMKySpQPBguAShXoFYwZ5W+WeOoWkCi24pKC6iM0W/hDPjEJKv2WR9P/TjTtE6OY3V3vJuv57ZRnzToeDXXjGZIwbeCI2+jjzcA/Qsac9PEiNF1SPsZdtXL4x3n3jdgiAC//Mt/HL/yK7/Sn+F1Mac/F6bn8H+ddGv+Aj8HoF3C4U1B3i0/SzyYWQGneZKSzB7VfQoYurXeDEKjHG6/fzdxTC4jAD4LWgViSUvjV2ehSk/1cg00YQJ+/t7UkaE2GTx4U+ufFBitZMQQDKzrjR408Xz8+iMAYFsDYiRbEBqOAOzXxUzTGq7Xm0XWMo7jBEnAyd+/daITQk8LXFLCui7IR8G2rSi5WiBEtoRMbdQjAtYtqQOHhZjEGO4A9Picx0TP5kcdWBsQIeqdC4mAVHXpqABRUU0hCLUqgN6PqilkHZjo+Va65AkGnr3aYgtj0MVyTbqALomxLAEpsXa+R3U84AhEISwrgzlqKl9g1bUHMicQ6prgDujsuhBiV9Nqk6ZXl+wYKGtuHsYgA4CtX6VdDfwgBtpNU0JUq7nT+WQd/4z99owqxa4h13A7W9VQBBB4xcyjj9XPOXLodoanTTeZ1+uBGNSJQKUQOmdwgiajMoNDVJ16CqDQkFZtAD1yVrAiMl3Ao9g8cZj6f0OsHk6Vc1a9v13zgRkSCMXevzRLv+zBKYLamt6MCYZUA9AarAKTQEW2wCJimzN83nApgs/pakvnlZnOxLaG2pSBPvYdtWR16bDGYDHgrMGHjDFxz8BZOuiCb2oepKO3q7zf98rehORHh82r6iHQ16dvaLnp6yNwH9rUTEqkbLTvq1w+Nc30BuIDqwXmEgOW6M2D1stg9psufVDdM3XwzJHBKYKWCE5ToEnUnTSFBFDQz0ea7esEnDMkm91ohrG9k9aaGEw691UGWgnWlK7a/PtIbz2H3MYORGjNgr/6tuqe/FJi+r5p08+ZuYfpLgeCpmM/nW1v42ePNwD9yNGZZ5skW+uWdbOVEjDJODCAszRAWLVvbPe1P4cyXWhsEg/YYjN0E12jepccOAF4k2pgWjB7E0JvItTHuXd1B9L+fE20K32JQz/GY6pkGhIKL/uy+1xPjgYDcH/KQA/96WdYdacs7iTek1bMPaWFuv4LljLWLHWs5qzl1Fy6jngH4ZYijstFpRCmgUZzE/rHTDn/4rdVwvHlFydsa8R5jYhyhpQdUQquLwnX04oYAvbrDbfbDSFEnE5nPD2dsThrlhaEQEBbgdZATXC8f4+FI/JRVSe8KtNcO4CuIAKWqNG3gQin84p1S+qwxXpeql7QmWfqC0agCISGNSVEEtC2akBKIHArICF8jFllD61hzw23veLjZUfJdZI6TPKcueDgUhwClhCxJW0een9e8MV5wRdPCe+fEr54l3A+RyxrwLIFLCuhLUBcNmVYm6C0BQ0BTRjBGGt1b7BGHSiQLOYly80WraYaVDJW0DXBtSkgrRA01ucGtTv2/FHsjyfVpSUZixpQa8XtekUuFxALnp+jpfBZQqRtWK6HNmnuiiXRhFGbftaLXRfRnDL2o2JZFlz3w4C1gz3gHSdsSFiQQLyAF8K2aPR3EQUlRZomQEq1xqZmG5UK0SNpP5E+B9YqOI6M277j5eUFgNgGYUNatOGzFh6SoO5FrMC5lIpSCnLOOPZDAXTRkBkS1U4zEZZ1sXNQgRzETFuqSl1KdSUyI6bYnTeUhRZln48D18sLbteLWu71igbAYVXpiVmb6bzsbgnVwHwBQcE90WJJs3ilifvFDN8s0PQ1aMhLPE7aftvup7UO49J2+cYaNPAksMZzN4Gdn0roOGvL/pjA2Bb16X46L3jaErYl4rRo9YyJdJ0yoidtETEylm0Brwm0LAjvT6B1AS/JKlIMWiJAERSTavjZzlGTceA4IPsBfrlA9sP6KMQ0XCYTaowcgFYj8tGsKiIWzDRkgWTvhea1kfS6406e2VrmCzRNkozZYeOuijzmT70f8SnNN81v4+eONwD9oDH7jHqToAPoWtsn6YMdJGLEMjvN2bXEXtUzSYWacTXVW76SbMgE0L1bfQBo/a07WckEnAU2MXTwOSLINXK19p1tkwZqytxp0xUPKx6alM1EJt8aZV+2OOPRCPEaQPv7vp9M+kztg6bvyVk/e49dSw60WnG5vKDkAxdbyPb9hlKy6hOLNxE1L5Lqzr8WBSFWdsMDAbRItbfYOjMaLdWqFNVDEgSXy6UHKlzeXUGktl7LsnjOhALcoCEM0ezdWm04batqVUWQS+ms3FH0c0kxGHvDo+kwcC89qszIwI6zcs4cwyVHdtia2jdKhbI0pABsCdr4I1WwxYA8ned3HunTYkF9cyYIEQiREBNjWQPSEpCWiLRExCWZZV/QDvvIIK7K9FQ951kSqjAaFk3IS8m68b1s4eeWX2F2XeibVwDdy6Wk8eR6BqmEg9pYwGR43T522HFjBSbqJpEQlwXruqG1gla1zNyqRhhz0YZKmDVdk4pS4B8EAjMqM67XHQzg6w8vyDlbsqU17RIgIaE2xvpUsbjvbgzmPrEghARm8zJv0o8RNZk0y9qgV2rFcWST9DQcx/EqlCp3Oz1YCd57AmLUCGxmk+xMNLFiVgU8GnNcEMxzN0YVS4mxoAICtclHu6nlGjFjSYs9JvZwiz7/y/D9p+72Qv313BEf06fmc3pfN1SxrnWQB9nY3VGW8wt79bMxNU/zubtBDXGv/roBuibDfcMeaf0q+t1Kds2Q2b/6pt36bmJQ5jmkAE5RNc1LUmZ5ieCo9p5hiWa1yeDTohaepwW8LKAlgU6bfb0YgA6gpLaCiMZAcwC16ieM1qEo6IsPCSjVmiAEUiqkZEgpaDjMSan1mzb0sZ1UPsF9etj7VoFaP//u5JcYa7kTW+hzsP/75+57TfVB59Af7fEGoB84PCyltWad2RX7npFz6QtBbVrG66U/HlvG0ZQ3mvMEzp6YI0QDah2FneoMt3fazheVa6FkAtEzA90GA93DMShoAlsT1KLvpTiANtspIkZqBcwKUJinKXRg2X4fbOEKVh/vEyENgOy67vE8LhngAZzurPPcksf+RwP0H0dGLdosdHl5Rs4Zzx+/xocPX+Prn/4U15cX7PsN9SjdN1OaBkncPB0KQzfND5xupB0AgMAbltiwrYRtDRCp2C8X3ETwwgEA4/l0wXY+AWB8+b0v8MWX7xHTgiXaMWO131pXkxp82bCuG0oTbNuK0/mGtESUWiyW+AaBWEleqwenU8J2SgpMky5GgorW1NmieaqmAy6zVq5F1Mv3AOoB1L0BGVgoQEJEWAntVLAyg0pBPqqBeC+xA1W0Qa806Q2VzHpixUU1zac14t37Be++WHH+4mS3M9Z3G1IKiEtEXIPX4DHCjKLxyBEhLOCYkLaEEBIaMRppQmbzkrxdhwR9z93f2IMuLMuxEtBCReUKYTtOAlS7f8w8NOLgmaEbCFJG+vx0BpHgOL5Eqxppn48rai7go2CvNxQp6sNd1frteivWuKmFZ2YgHwc+LAnPlwtWY/kCj96DP3YVvP+igLYvcG4RKS04pw0xLVg3wX4UpLQjhAUVWdllIxj2veB6O3C7HXi+XFFywfWyI2e9pj98+Ii0BFyvL12/nvOBpUZ1EwkMWhLkfMKSVqzLZk2NGqMNKvrZWlNh3ne0mgEpOK0JMQZs26q/Y+dfE0IVhsgFpQpyrhYiFK2Sk3A6bT3MqNaCUgtqLjaPigWnGKMZEmAVEL3ufb6mPtdWa+wtpaKFBGGx0J9HTUZTwU+Gn36nkV06YBsDoqabAmNJdavSunzP35unEbqdq4/I6rYhTFgDmzMKUGuDVKjTkBk4hxRwPi/YzhuW84r4tCC+2xBTQHy3IkZNGF1WtYrjFLCcN4QUEM8bKCloDk/vFDwvywDLBpzF/Ll1Qawm42jAmoFaQdtNUytrRTsOSKlo+w1t31FvV5TrVQmKUoCaITUDrUAQtJogYUgwTMWjx9owALgTEyx1MMezzlnQpZjNGWhgWvsHeFZhGRlx8Da+zXgD0A8ac8e9AonBPDvD5yb70pHfaLL7HAM9nnfSUtsMRjCrI2MoaqsdJDsD/ZqJ7heb3btvpDOvRIwQxHSdcs9AG5tSigJoCgRmfV5noAcRfC+2asZcNnYGml8BaC1T0SQ0drDM9hj2TQXEmrW8nDn+cKkFJRfcbjeUrF9fLi/Ix4HLywtu12tnoGspKKXocTBrwQqgcukltjARKEyPWbUc/DA1MMN0vIRSpE/GQozL5dIX2ZfLBcu69GS2xrCucnWfCCEixqbstACnbe0bqVwO5MKImdGgTVSRR9NgTGE0VDF1MkkX/CEv6hIhZ6Ct5N2dZKo+LkC1tBIEawxAbVhjAIvAXMf0mItKC0DSlUpEBLBF+wYaDPQSVPu8RKQl3TPQKarXtW9SbaPZmjGM0EQ4BzccFTibVbG/GIzTWvqmC5ZqOFdEhIwhpGnTahZ97UHI53WxxFMjlYHWY7Rum3qNMwNSQSCUpq4qRLWzW81kD9IEjdjmKv0sc1bHjWgVC3VqsY3Xuys4rrjtFXFtZsju6XtpMNCkoNzPG4KmDxZzzci5oBwF+350AH3PQGfUWvp5yPZexdn2aJ8rB2OHZwZaRqWtFpVNrLGzySJqrdaqAE2vJZd01CoWvhGwLAuWZbG/xaZjHfOrs8gcjeE0EC0Y8fCfMNDesOgMNClz2c+vB4zeafIZBnrKqlJ2HgruR0VxpP19EwM99bwBMMKCNVlVLFq+kc7LzSqNZBUijmqfqde4stCcInhxBtqu/dUqSykibCt4iaDTSSUbaVEGOi3AsnYAjbDYhiAB7rZSvRGwgTjq18zqPNQqiANQC/r8kLOKkNxSUdrYxBNBXPsv93JEEv/SN0qug6Y7KfNrk4K7JGF8EwNN/SN8Y6C/3XgD0A8adxIOA7baqOJSiBGeMkrSNBbfV7TtwGtjIbPv+u5zgFxdbPTvT84d00X2yUXnEo6myqjA1jksNh2KqMH/9Dd0MS3WqDYAdOCuGRi60FGHRLVFze91QafOLvtxm2tZM4Bm+31mX2gnDZcz2IB5uGZcLxdkW2CVgT7w8vKM6+UF++2GknP3gfXUplaVKSkYfrXJm08eCKDRAbTaKcVAiBHmm6zvrzbgsl6tCa/i5eWCbdsMQBe0yAgAYDZvLepnvi6LNoCdNrhfdC4HjqLNNUUixMr0vmlIyRaqOwmH6lXdb3RE09tmzYhZDUvRt+QawUCMFATUorp0NMGRAgIEmamH90AaGlirI356mTyAyKQtXcIRkfotIa0qU1AJRwTHZAyaAXMAYiyMiAIaDib1CGzkmoaH3Kk3e4+BvufuIW2iaSKBEEPYriu6BwkzWPiOT6K7e48qDo2RloTaFqzrihoYhTV2m0AoFeCw23U2AcxSUOvQvQMar74Hwp65N2vFOJw63n15RUgn3I6CJTdwEAgCiKMG/4QI4qilcCpzb7PNnZNeuWgFLx+565f95mmBmibYzF5T5w0NGYo9NpnYDMMmhwMnIapVFUQAuITDK359vrZzw9jTKOq4kNKCbV27hIOAqWw/+l+cPGDT1TZ3benynkEMzBKO2lo/pzSO/UH84WsJM8YyNf97bx8k9PRA8fNO6O7xnbxuQ8bRn9udXgKBY9DzjAQVpDIwL28EBsXQK0zBbrwkA9DJbOoCwraOeeC86c/PJttIC/h0AqUFSJoCKRRAcQHAEIrW4EkKjlsDSQWC9c7E2JvPQYRhbF8gMWiEu7m/wAN0WoP5jM56irsDTHZeDOg8HDuc8IIRGINtvpdxDtu6eePiLkGPrKn+0R5vAPpBwwGuT/C32w2lFFyvVxzmOXrbd7VTaq03brlHdGkq76BWYa1SqC3j+eUjaiuIkfvUKq9AsU7AgiF7GFpm+GP0Dn1RdaDIWjvypg8NF9Cgjn0vqE273WcAzcxY62baWvUAdnAVOAxCroNbZcira7+ZlBUiGfIPn3idcbeOZ+/Ep/4+BlDr+20D1Lfbjv12xY9//GPcrjccx47r5YKSs4LnQ//9dr10EK3NmeqwMMmquy6dbVF4VBLh+aTNS6dtwbYmbEtCigHlqBZhnZFLA4cLjqPitme8//oZy7Liet2x74dtOJKeB0GDGgCCrNq09fR0Vo/eJYFYcOSMIx+IUTdOnW0G4d27J2ynU7fK03Ndgyha0XS1WgtquakcIGfk44aSD0gtIGgQzHlb0JaGbV06K71tAbf9QIjAcWTsuYIvGUfRCGfKFVQFrZitGVkuBwFxYaQ1Yd0WbE8nbE8nrKcnLKcnpNM7xO1kaV+qiYZYfpsB6SpAEEEVdD0qaxwZWKh7H3bvX0Gv8tScNWSnZl1UKVhzJaMxo6KihoIiBU0YpQFH1UbDh4zJJQEEBA79ut+2cw9lKvlAPg4EjsjHDg47jtJ0s1sLjlBxRALVipyrymyqapRvhwLK2+4OB6T+ugamP3y4AvyMH/3opziOivN5R4yLVobKjmM/tEkZ2pQcwtplIA0RaT2wnTM4qmPM5b3KTEop+MEPv8L3vnqvkomkm76Xl4u6aqCpw0wpKDljW084bWcIJ5yaMsAxLQqqAyMfVzBV5INR8wEhQpGKy+2GakzznjUd73K54Sdff8DXH5/x4598wLt3TxARfPnlFwgh6iYXDqIOZc1L1YZD03e3alHSZo8WWKUDzbTfaAKqBAqi6oGwgVHBy6qMfUig8JhlfTSqYViruqnD642gzfnM1KtIgAJoZkLrbLSeiUWALIIswCGCQwRF1I0DBKRg6wERIoDm2dvqTQdeErZtxXY+YXt3wva0YfviSa0svzhhSQlhCVi2TUF2iuBtBceIcFqAmEAxAumkQJgXCGsTKijaG9J1WNlgbya0BkMBJIwgHiCqFhpRX2wVIG1AzMBxAFQBoe7WSEIgYe0hkgGRydY3cjbZ+0Ksqu0EWa1lAtBtkBfOQBujLbZhFAAtBAgnIK7Kor+NnzvejtKDxvBrNgN9s1nKNpEX07K5v3ObgG+bHqtnvbfiCY7jADHhersBHTy2T3o5ZucKLcNOMod5l29CK/HHYABuTE1cpVbkcqCWiiMfnwBoNo0aSIEDRH/2+u/1t2P6ayKAoRpTRafunoFRBhcMhxCzouqabbg5/DgWLknZr1dcLhc8f/iAl5cXHMehYLkU3K4vKM5aFXfXmJvf8PqIjsln6i7/rkeKesnGGIxBY/s8dRErRQHCcWS1VxNgPw4cORs4qV3WI8FYfmawsJY1IRq/bRKONa/m5Q3ksnQG2jdEy5KwWGk6BJ7ieJsyf1b6bnaTltFq6Tphq8qCUwCEkRJ6daLWAg7Afuxds32U1heO0ioaCFydSRWXW6rndFQtZFyiSTa8GXBRljNGcIygoAueJ34BAFvlhfumbtLn92Yob/E1osg3vZYQqfrHpqXnyHZdGSNPAiGXWBFq02rvQ0Y/mf36th8za0ohEdZ6tvOKUc2SqzYxhrpiSRHkASmJwRBUC8CRqqBwmKwzuIzNVwiM25Gx3A5cL1e1hCTCft0ROECaSi+KbdZBhBCjNcwGrJaIGIJaH5aiMpGSVW//9HTCadu6Ww4A5KwNttWag2suOPZDpatgPB0FKVa1WowRoQXwJmBqKLcVaAWEZr0UgqMU1epWwX4IShPcjh3Xm92uV6QUkbdV5yOiDnaqNLTiPS+tz/Gt6Tmsbg6Y2OgIT7rTjXvTn7FKA0gIMdj5bHKjh5xGDqCV2dATy5revCIziBL7wmUHgnF+dGJH/00AY2eV3S+2ka3GjwbwtDZBG9aBDp6ly5EC4pJUtrUuiNuCuCSE7aSSjSUinE56nyJotcrHkgCrgKi9kDLP2tz3ii7vb42nH1kTILneuynSogIqFUgHEBYQJ5X9MAOVh7zRZWr+hLNtqx9m/9uazjTFn7dOwrVX2uc2fV5d92w2jBr0EyAcDEAnvI2fP94A9IPGrDuuBjRzzjhMa5tzRqkqBL1zzJDBRFcrpTbvqJWG/dgBAq7XKz4HoMkWEGUNLcwiDFBsFfd7NwuRzlSzswJdG+rOIaV3uR/HPgHoauBFTy0CVEeJYJOdI+Hp71sqW22t+zartqzpjr83nXhUrctLBLWVbhLvjPFsz+c6Q2kNt+sFl5dnfPj6p3h+fsa+K+NcS8G+X1Wq0aqyz23E7orNaPOmRNkPoNkxehSAXlJUBiaqn3IMoSciOkuVc0U4ijaEVMG+HziOQzdrtXSmVFmIoNIHFgRbeFNKyuyToBS10+JAKOVQAG2aZyINaUlJG6vYGphc+1xrUSa2KZBuVk6vxkorgNYqQ0zB1lbu52KpBSEQbre9y3puuXR5UqgWpuA6ZMVqCriCVjHc6zimBSEtBp4XcFwQYgQZ6HgNoEHVFhlr6H3V1OquAK15Et0ARy7LklJN0wgQBQiTOZOoZrWSg2fSdLIHAWiatdbuhgACWOO9iUP3cydilCMbwy5YloTWCtYlmMtOQ0nqib6ToIgC6Jr1fTeLkXfZRwiC0ESjuG87LpdrZ/hvtxtCDCAYyK3VKj/cq1kpRjQwOCTEWCDQoKOUojYG14Lz0xmn8wlpSdqUB/S5yqUdJRcct11158Q4csFSK9a02PyltoVEDcd1QZMMQYUmS4o+R1M99p7Vtm7fD1yuN1wuV7xcb1jWBUcuNr+q3KhVRUDaPKhe89XJErNiEdKNG8DGKkc0ABzMaIyr6W8rQAnETUF/VPmLz73f9RiR23QP7OReADCaBH2hsYpmGx7MxNSbshVAwwC09hoUETRzcXJypxcnvcMusAHoAI4BMdm1vyxI64q4bohrQtw2BJNxxPNZwbT5PVMIoJSAoOek9MZSHrepP8lfgSfbOgOv78MOCDd9QxSB1EBxB8W1g3Oy5/SjNmQw04a9X7fiS/TQNU/ORCMdeLave1WVdgANQutmBM48RFBcIWF5yDn0R328AegHjev1AghwHAf2fcfz80fsuzIVtVSNpT3UYWFybjOddDEnhAyI+i7DFrj4zDiOG5pU0N1Cb3o6Y3dcf+cNM33IEG04++zTQ5j0yBVWmrcErVoLcjmMtT1GM2Qp4BCQSuyKqtidOKbXhgHiW9OJQV0M9DWxJbixofvRbEKA6/5sI6JNfg2l5O500m+uwa0NL88f8fzxA376kz/Axw8fcLtdcewHmiWCaVOdJUUxoVfqQRqugWnRsH/DfHvAOJ1WAMC6JCSz4HJNes7VgElGI0YsFSEWPL9c8HS54bbv2I8DaUnYVkGAMauIJsnQxqetabd6tYju4zg01S3oZM0TgF7Sghj1tYQQIFK6K0wph6a3tYLWMmo90GpGKwdqOUCiyYYhMLYYNfbbWEOtYhCutx2lVSy3A7e9oAAIewHFAxIEfLBuCPSkge3VkJaEtC5YtgXL6YTltCGtJ4TlBF42cNpAQRloTq8AtAhEika7S+0AwHiuubW3a77dJ7vWinLo+2tZr9fAUR/LAgmMRgVNAqpUlEbIlXAUbZJ8xOinMCn46NIuEJZlRWgC4qSsJkfUXAEKEADrcoG0ij1FeCdoCoTGykZDVL6Ts3YLFNLyfDBQHoPq5S+XHcwRHz48m9OC4PLlxfT06NaYbvumzYX6eS0GLENoqhWuDeu26qa3Nnzx5Xuczyds2wZiBdiXyw21VlxvNwW/R8F+HMhNmbevjoy1NKybpnQuMahrCAuO2wmCohv9suscWApyaThKxcul6P3LFS/XK663m25ac7XeEz1Pqm3QIXqO5KrHiDgq68gRRHoDJTBFcEjGBmoSKkkDcdP0x9gQlw3cGpZ10/nAm2IfciKN82mQPp8R8U+N7U4bi2jQFrUhg2vuokFGrJK6fRcRZBEUaI+COV72xvpgSJqMgQYTyBxQ4rpg2Vak0wnpfNb+h3fvkVJCWAxAGwONEBQ4BzbQTNDEH9YGwq6PHyC6N/EpO6Q/4/vFQI9LMI00A0cBrQdo2UDpZiC9gih3uUZPb/XGXHGyiXoPkQipfAYqJdPvLe68TpXraraTDqBhdpvEkKibAwkBxAsQTuD1HShujzmH/oiPNwD9oPH8URPk9kP1fZcXY0CPQ214mko4evKQXYO1KRPjtmseU9uaahH3/YbWGmJMVkaPWJbFgLJOJMyaAOfNMiGMhkAdY0Udf58supg6S60NhK1bhgXrhlZGUjfaTPp3YmDrQrfgCddAB2eeDYwQIYgycfpvI8p07unxcp038Qyn6DG6DnpqW58bIrvTAvx5LelLbLPQX6NuOliaskNAj2rtqYuQzpwL+GEWZMmaZ3xibVVQckPJDbU4+6lfe+JdLXrOuEzIbeUgkxerH1crG4egbyilBYA1eTZtjnENNEAqjTAHg9lDd4zXfd2+XbPP1TSx7sUakzkiBNUwFxEsp1WZzJCx5goJARJIm7dIS+FeJSAChKEOCyFZQ1oCcdQGPmJrEFS/3SHF8WPwSqwjYm0681k2bqMxst1tdmtRmQqJalVbTGCEfk76Y1oj1Ark0lAepYH+htHf1bQBV4lPsGY+Vru2RmrVVhqO2rDngj0Xjb+2Kj4Z86zhNrPF5FjYtVJRhw8y/Lp3gKyOHJp8KN0uM5faz+fjyBPzNpg0MukDQGhSceSGnDP2o6AUDVypBkIabD5yFw7va5g7LPxYhGB/JwLWnJhzwX5oIyOTunuczyec1hVrilYhQi+vuzwMpNILMuF+XDaTYKjMiMyO0s9FbTg0UtP6RJJpvFPURNBo2u1HnTG9z3122JhY2M+OqWOWpl/0xmS2aG1fO4Ss2id+s2oPKaD2BEBqAEwaxc2b5NE/Q5erEdtnzS6rmpvy/A3cXRH4dF77Fv/uy6qM3+1e0ua2QiGaTEfnpt4oeUca3T+pz6aqOTdwz9SnLmq6KVNHITcPQA8NEuWgAAYkBNscRzAnvWbI5CtvjYQ/d7wB6AeN3/tXvwMAyEfGfhx4fv6g7Kf7LhsDBGKLDFbmpRzaTFNKUbBsQQGzHjqlhNYq1nXFuq44nVYsazIgpGAwGAOt3edqxdS01bnroQD0pj1nBru7hTUieCIYsSAmnxCiyUq0dKRJhPq3Y4DFo6rlWkgT4+WTAzNYVIMJAXjS2AYeE5+CRm+InOfo1+3Ktsc2uwe9r9BiYJscLABpjEai/tas5vox6bEqtZnXsAZItNYA8yFWorKqVhtNG8seMLZVmYHAASKEWoCjFuy73m63gtte0LggilqP3XLGnjP2fGDPB9a8KFtq/t5KuwOQhkCElHQD1lrU1LVFN3FLSgZ0MMkZXcOoFl4e/jM2L3Z6i/QbO5NmhFGIhLgqc5bW1azxIjIIWBe8E0LcD8Q9o1BA2jPSfoBjwHLLei77RsfOi2U9IW0npOUEXk7gtEFogSCgghCFUA0U8V1Usp4/XQZkkcAT7AdguncrqbrVWcnK1JfbjlJ2tKyMEpIgxcUWO5N1oFoIiSgDfQiOhzHQ9+jGW6HEPk/X346FXlPXhCKqEEpT2cLtqLjdCj5ebjiOgr1o1HcjbebSKpaBE/ZeBoFI1QqFMfYOojXgRGUaJSYsFuiiWvqKWtQPeg5N2ffcLSzJNnrgBHACxxUiDeXIuOwZ1+sNx77ruVKbNQQCDeo9TiGa1t3s6AxAC0+gnBJIooKvLGhScLnseLnccBwZzAGnbcOaVrx//4Tz6azWdbDNQtHmUjFnhmXddM7noOeqAWhQ1JRHYQX5U2leJRCMFCOezicF0OtyR5I8YvhaQZM22PtV3HKUXALX54JxJfncwOQg2SqADHPaIH086WfhUg5ugmyfH1w7LprzCXv2Vt3hRK9T0jIGiPX4cjSQqMbRvRl4xNP7bYxOELwiCmbBCtF4j5ia8nWeHJaYHBeEtEKWBS1q2IqEo89HZGsgu+TF5Zn29CrDYKu8WbWXArhGNKpWHtW5Rjcd6qLTTNZRmkACgKTVDgoLKJxA8YyQzqD0xkB/m/EGoB80nIHOWfWol5dn7McByLBgUy9S0oUWzcp+pTNb1XSB6m2qOtY9agyvM84xmmQjmGQjBvNvDv35vWlHFdetN8rNwJaNGQyBzPbJdq3wCdwnUGX0QrAL3JqGQmCTjk0MNE8MNA8GmqVBjIEWkb4gcgdnA7rMIO31vr8znJ9loEfnxWC0aUhLupexLuBqa1VBXhKDQI1wldgVV+qZpVB70G79NQMtTUucpXzKQBMpC11L6+xzseYlZ2f8+NqTQhrZIqz6XogomK4aYaym/CMwodnE3tDLA69ecedKuqQH09f9XIva9BcX1S2HlJBKQyW2Upm8AABc6UlEQVTCcioQ0zZuufYybc66iTxyGQykvQxloGNvFoQtloKABtbmw/Eq+mv1E6kHgImrBb+ZldJFTbq0qVTd8LZSEEBW7Wn9vHT9vlCFu1yV2pDrHwYGmswO0CUqoTPRYGWgmzPQtSKXij1XHFkjvqvoteCBT11+1Y+w9OvStfLeHzKuSZ2v1J88mTxJtfttSh1UBrp0UsCdYZQtVvDvJW2XN+1H6R81BzKvb3vfEwPtH3eXtzkDTWEwqMRoDTiy+lBrBZGRojo8bOtq8eb3DLQz7s5WuzxlZqBFVBPfigJECEZ6p4zjlJLKO2InSDwu/DFnzL81Az3PycZAe1XK1wxnoGvTFppmVYw6ya50cw7TkDdloN0KzkCvypUGC+1VkjEHfFNd89+UgZ7YdWcc+sZUrfbIbBSF2cizuWqjx3WuFH9Sz5tYasJ0HXE0zXTta3yTEdxUis3VohI+oqTOTKxfv7lwfLvxdpQeNF5eHEBrI8v1elXdLY0gipR04mTW+goRrKPfQfT9DdAOdH3ejJRS1w46yAUGG+BNhq01uzDHZK7/RmYzZA0GDcbqUNcStzY0xj6GS4ab5evfculEs993Sz5AQagSCHRnFQfRWFpuZA3abnGkIHy8DgtvsXupddjOmURBvy4WnV47I+3seggMkqDNKWQ/Yy2LhsBqF+UhNzbNllYh7GW50RTzqOHskmvb1AO1omR1dvGAieCm/NV/XtUv16oZrXdpz9UPvTEzpClORRSddM3L+C4LXbQBypufagfkAziNxpiRkDZXF0JgA88WdmDgOaSImBqSEJatqqMIGMte0MCoQkhbQQOw7NmkNaMBKcY0nDZCNAs6Nq3ikG64k8rUGjp9nL2jEJ8skF3/KRiNtSqzqkUZ01bVcrLxuMZG96a5idhCr6l+DzuN7t/KtNDfqVg7OlJNKJFKCnzD6BsRl02ExKDGCBHG/FkyHtCvvf5XHDg5M417La174t8dW3PQ0Fs1KcbQSmtVzT4vsjI2NNiCzFUhxMGAhhh7cymbBl83WZYKKcOJx+UDbHMRU7BUVuqe5q2JWgISsCRl0JNVs3qTth9jr5jcaWnHf57K543BdapUqve9Pp45dEmHa4LlQdPR2BjdC5w+9/U4uz7zPPPN0yoZVn18vQFDj0oH6dkIy+FRL0C/xnxNGZsgcQ2xn9MTkzyu/hlE02de6b/G8bl75yaFnGRR3iAKk3BQr4i9blp+deiI+nx6/4o0IbeJJhirFR4ZkQLY1sPEh8awk7m8sDc0Rts0B7yNnz/eAPSDxu/9rko4PHGwWONdsIQztQBbrGzD5pdMyJOEo5WsVm9Ad8ewrifUVlGqNvTt+1UnIdM6dz2jMSFs4mLv0vXZQ/VXQ2LRAzOYNC72leezB6jUVruFTq16sYZYrQzFKFUQU0YIEUcud4pSAF0eUlu1NcLYAqhUoacgMptFmi6k0qo2MBZvXDrsNZRu5SMYceT5uEGkYl0i5OmEdY2QHkPe7jYyxGQ2U+oOsh/qhUxgZDr6+wQmduEBoxrK2mvBAW1wLLng+XLDrfvKNiAXsABcGy7XHS8vN3x8fsHp4wZmxvv377Assce1wxkcO/Zuw0Tix799AqAJmtyngSiarqeRxAFBBCEmjaStDa0qCIsxoK3qLx2DykXiErGcz4gxYtlO6iSQIlbawLmi8oZ4FIT9wIEE3jNo3VEQwOlAkdHk6Yvi+Yt35v28IS6rRjVbY9DdWoTpo/Nyc/8NYxydkrbfbBYhXpulWxatKh23q4Z5HLsGb+QMhIgYmu21yDYrfux081dLQz4K9vwg5DNXmGEl8ClNcQBonWdCjIit6eYmJnBcENOGtQUQLahVfYpTUu93DlFBTq3Yj8MsOw/cLhfkfKCUQzXuKeF8PuN8PmFZEmpVmdpxXHG5vOD55Rk/+v0fqfc8DfCtDh2T24lt+EttYNbzvwmpU0cysBISvve9w4hjrW7FqNHlT+cz3n3xJdbT2ezidBNe84FjP3B1F5ujYImm1Q8RIVWkpeF0Plv6YOvNmCmqlOO0rVhXTSJstfTjnrN6PpfrDuBQFn2pXfddmr6f26FSFQ5BGwXXBXxis4WsyHlHa1oBqC339eURoxM0Ttw72J32onoazdfccJGYLzVPsAxESEGjunNsyE0DqyIzqI6AsKOq3IwEiM2vKd8MN/CUVuk3zVYwSQNev4ifc+u7knswf/cVYW6hsDhuf5hVXDkMnfuyQZYMSRukVEjOIN51c2b5C3eWtLYOwppy/QPwT1slKyaHiirrDKUCIYFrhRy5E0JUKiQkyPoOsmxAWtHiCcRJ9yGP6mj+Iz7eAPSDxrMx0B6RPNLZvBnN5BuNTQusOjf1zFVPWbejUQYEuNueTt6PpRaUmkGNTUM1ySEwPw6TrIHswvQ4XkLl8fvO/BZneY0ZEUsFc7u4Uqsy59AkQuJmpV/RrvlPBg29qb+//h8sAVEnjsgBTVTXVXI2ULyr3s3CaJqoE0jrLPmYBKux0N58w0w9fnUEhGg5ODArGLXGQZ9wj3CglaANGF2x8DnpwnczupdnNSlF0/L2YV7i7itbW4MU3ZgcpeIoBceRcewZh3ld19ruWlJ8qVOmmJWtJ+4d28za0UMYINpbnLgBQs3Kr7pxU1s71ohnZ1Tco1XC8GlOUY95dJ9mu7WKRhWpEiRUNASkraCCERshrlkDT5akGnqgn+8xLeb9bNZUFoLin5cYkAXdNzfOrDNNbJ5LGrxi0tnuKerZpRu1VL1mm8Yqz+4EQyEgwKTR1yrT4yoZ8xipZDOmGRsS/dyCbuqNieaQEBIQrUIAIZzO7xCDWga2pkD3cr3o+bkzSt5Rq2tl2SRnqbO0KoPRitvttuN2u+FyuaBJQwja4ExMU2Jr6ywt0Ab5KM74sYXCMJ7OjLKe4KEuTIyYEk7bitO2YVlWlYu0bASmdLmTVm8aSmuIIPUh5mA9JhEpRaS0gLl2zao6YpgTRAhDQhcqqOl1JKIbMLX1ZywICEFTGWsDSmnYDz0vUlqwbkAImmyo1ocEaQWFBMhKZLhM6xGjW6HiFVtq4Nm/NxdS+2bYPt4BbLOZYFJSIBgDHXpDHfqTqMWdPp6hVnfsf6/bVWgDeJtumr6rQojXycB0JzCeL47pPf3cC+kzv0fzl6NaoxIj22yGaH7QJu1gt62bHt+bfgxEG2utCnSrRpAAotaLAgK1AFAFN2025Ibe90RSIDEBIUFCAuICseTPWe74Nn72eAPQDxq//69+F4B3GbsmmdUxo0SEGABUY4CV4XAGulrJ0tnHO1s3kQ6ac8ngg3C9XtCa2dr9jOa24QU9IrSd+QaMWX11HY30KQekglLLnQ80IGBjoMGMnGtvbonpsCr5q4lqYnF9MiMRnUANRMcQeim4lgJIw77vaAZa9v1mADp3rSFbiZgYtsGoWJbYU/Wos6leBmXViDMjWyNKbYJ0S9jDjpIr0FQ6M/tNP2r4OVCObBHjVVmyo+DWvZ4barYyXmVcr9rk9PH5BdtJI6xv+44tr8pWWDmZXS/oQm+w9RcSwAIyu0HuOmgBqqXPSYEAvZEpNICNgSY0VA7goIV/bAlSVa+flgUpLVjOTwgxYVlP4JgQQoREINQGpIZYCng5cBUGpQNIO7IAtCw4rMzu1osgwtP7d9hOK9bNPGCXpDHOPMfU3tdC5A5CWlndGspmh64RoSxm5bgjHzuO2w15P1CPA7CqCC80NL69YmEiCNGNcSsV+ThwPKiLcPj3GktGY8F0TXDHDeZKE0VUq2se2jFtIF4QU0NcTmCO+Oqr72NdN2zbBmmCfd/x9Yevsd92vLw8o1bd9JaSEWLAsiw4nzecTspAl5JxvQK32wUvLx/x4cNH/PjHPwYAnE6LgtE0UvmcgQY1UG1wp4xSmoWSRKRlxdo10sp6z3NvDFoVWbcVMQTstxF0ddn3iYHOKDn3ipg2hOn737YTAFYG2s6uGEiT8Ix9Tikhp6T+2k0g5h5zu2XUUpWVLg2BVcakziwV1z2jtIbz6QnvvniHdUk4P51QStAEVcmgXHGpBeXQdMPd7FC/6/FtGejXYob+M29amJ5Pe3QIS2BsQXAEUQaaRgpfa4KjagsdCzQyXaaqLHDHQPdzpaf7utTrX4OBhr3Wzyr2Xkv5vkEvTaPpnmNCXDZQqWhpg6QMiTvAcWwYfI30qhmR+VMH8LJ295axDo0mQTKyiEtVX+xa0UI2WZ+AQgWFhLa+g6QVbTkBcYU3ET8u1emP9ngD0A8a7KDUdpjDaQJ9AWtNxVwM3SkyEcQ61D0eebRjoV9k1AhDx9wQY0QpeeipQHed2dzZ5mBlWmO8mTrzrfPBAOAq+XVGzpOzWtdwimtQTZvmndFA07QvUV/PgZs/p9UzFdrUZBLtWAUmkAR7nMajijTUcmjZPGdcry8WJHJYKbNqUp/pm519HI1s6AxkZ2DJu8ZbVyYyKTAMHBBDRIoJGlwyUvEeBaIPT4XLteu/fZFoHQfRqDraglNLU6eEQ5no3FMJ5xaa1x+H/cvEwtoZNGQIJCCq47Gu9fTF1DZRHCLc1SIgQQgaYBBVgxrDAjbLOeZk6YB2LnCxxvjanSHArIuQeeAC2pTlrjPrecVq5fO0JmWjJ7mU61KtvWs0zstnFsJOTo1KRq1ajak59+bBZm4R7kvuutgetSvOKrkMS1kjutNGf/fj/lw1+Q45TJCuv53o98Eywm22GBQIrTOxCafzCafthNPpBGlATBGlFiUDILhe3oFIo6pPpw3ruvR5qdaK2037Qm63K263m81hMN2vMschMERGYqvKO1QTDDsfPaZbY8gtAdUrTEY6wBpjqx2DkIOxzvmVzrogl9p7Bw739ibgyBnZwK+rB4JV+ULgfr2odpsNxCmQU/0ya0qe+TaHmKzRO0AgJoNioJqtmzkgVat05HLgOHYc+bA022KSlseAHxmXR79/fQZ/Oqfo/8iYYp0/5rkF/dqgVzc/dwUAqqhHv0vDBQj9AhOEzzHQPldjOE99Lo333+6g4B5kfwZTk71Br4xRDNYYzeb4Qn1/QS6lg+mn7Xwe2nDv29DKGM3TiMshifU4cxhfg0G8gHqYlDcyGsP9QFniH+XxBqAfNHyhmMEze9c3gK53UmMHCJo2txnL2OpgoOtUXm0GfL25z/2hczYXDmZokte46JxtFrNtEm6A+gVAIGC2crPwxLr5vU48DTKBhEmO4hdvkz7BkjRtvCPpk/tcQrPfwvhKAQiJxk0HZkhgsLeEmGYZIijlUGeTfcfl8qK6y33XUnCrPZgjpdAbbTRhbJQdB4D0N2kmmRil++AWdyGg2oLnrPtDAbS5CDRrBOwAurWpfK1H0SfTZjKbnIs6EezZtNKmlyNzsaPByM7mbR1Di7OyvkDr10SvJtveEWSTcdBAHyHbaKECjCk5zdIBQ+o34miNMK2HK6iNmDXccNBGQ2lYttXYK7ZERMZ23rCuK5YlKcvtSW0h9HChuXnts+ei3P+bn9+9kbeYI07Jd42DzVieNoNo31zyONfMqRIeXuyOH9/1+ARA2/2dhMM2xDDbQj9H5utBQAikQp4YI06nE87nM06nMyBAiEFjtoOmXV6vFzCry87ptGn1zbSerVXc9gICcNuv2PcdOSuTykQ9vEfnrmaVN5UsEDcIBd2YkJiURgG0+yVD0DdO/sHWEOzrgBKKSsI6eC696Tbnipy1UfdgZfEYYptQfZyzp27BHDxZz5p9Cw3dts7Vem0sC9umajiegNxCD4itWUqoPbE4gPZ+lxuy2SdW86WWB2mg786pV/f0GpfONnfQ5lJttRhNvF0GYj9ilypO563YTk9DtyyD0Bhob44n0o23J/g2Wy8cRHdC2UH0RNj0CfTfBjz6tPm6+uvXHRuRFsyJIzAQAsTchXTpGcCYAAizSafCcPEwqadv+sneE72q7rp0jkJQ+Yaz5SGBQpoaGYNd64/yEf+jP94A9INGNPsx93dUmzkaLDQ0ihrUdKdpDhg1584u5OMYO2q/SIKxxd36ifHy8ty/9oQ4jXy2gIqoZcxl8djaAAnJdvrGnAgBwh00Ke4V606XzkYLRnyo6pjt2mUDygTUyd5otuX5FHT6pNGAphKNGAnJglmwxqn4ro+9XZ5xvV5xuVzwkx//GDnnrrsstWDbVsQQsZ7UUmpJCU9PJywp6bHDmKx95nSLLUJA9wmOOnGXrSBwGI2dzXWYj1m0nl+ueuzq0IC6I0GpNpn2BUKTvkpuOPaC5+cbYnrBkhJerjtOtwNHKcrQs1r5zfJ4S8ToVLbPq65PZ/JKhIyFi7zKIro4NIG0BGAFJALN5EqtICWVb6RlxXJ6r801aTXwHNTjgSqoZdXzRQHFBYgNFBvSdkJYFoRFm29DDFgXff7TacWSNCHxfD4hBLUV69dCMLsv707v5ySN927nmJdFa9V7ZfxUMrVfr9pAuB8o+45yqJxIDCgFtg2OfT6BBBQUPEcIIouy0E0g9TESjjqdq9SZWy9r6zFo4hptY8thzc3W4BxtDqEQENOCdVnxwx/+EE9PT3h69w4AsN9uOG2rRXa/IEXG5fIOl8sFT08rTqsmXoIEx5HxcnlGMVDoISvEghCDyX0CliX2psJWC47janrqaPeM/XrFNSU8P39U2YXJRWKMaLWqFCQmAOjBUrVVC6a6oharaN127Lcdl9uO47ZrQ3cuiMy4pqBVMO+rMOATu9zMLUD1fOHCfeOaixIWIQactxXJrEfLJBmjUhFa0/j3Jhp1z02lUrkaS3/Fh69/ipyzNhGapKU31H7HQ3wD2s+dUcly72edX51ORTd9dmvLBqjbEZO6aZDqnucb28ZIxO3rCN5vywIE+zsBQaUcIqglqm7dpRwybWitgsoGxNkdY5zAxpD2jSM5kQTktcmpbicue5yOz+eWN7eIjAxeFwAVWBa0nMBLQushOGIbbnS9vceMd392DhpsJdofVScGussgrX9Bq0YBAWrrGKAabKwbKC6QuCiInt/XGwP9c8cbgH7Q+EYG2oZebNY9TkAj3WE3DxowBloAtVKDAVDN0IXQeN5aSmdr1sXAsiXGKRsjaC0Mn+iK3ujlTEA31J0BtGBKdxq797kc5kDE12hXVvav6f7xn5bLdeGWlvVxjSzxhJGiySxswSfAHBB2HMcN1+sLjiPj+eVZNYu1oJQTlhQhqJC2ANJw2haNMP1cx0f3/RWAQm+i9DTHGCJaHPRKI2Wh6UGzTTYJh7ueiDUMzjZu6K4RhqWbNmdpM1fGfmSUbEEWTZs8yT7LzhC9YqD1oxssUo99f2UzNR9Kl3AQ1O8URuwrg0h37HOIGlnsIRIq06hqw8RNmVuzGXMGJqQIbiaJCso+b1tCDIxtWy2dLSLZNTDfZquorlZ4LeOQabsmQ7Z058vuDHQdDLTUplG6k4Sjp++59AXySsLRPrPifjfjZzLQk1yl22H6Zz7pXANr6mmIAYsHOJ1POJ1PeHo6g6A9C+XIJqsR7PtTtydb14h1WToj3FrFflPmed9vPRRw3NPEQPs5qmwsEZsFp0lsZgaaCLGlLt2IIXRpVo0BIupjL1bByGZDeM9A261UEBoasQahwDcYgu5YEsg2pDwRIw1C3iDZbMOpjGJaFqzJyAsDwWRsKYgQRRsK7xlo6Qy0zn0HSm3Wl/I4G7sxX3zKQOtVM38zS8GsOulmP5NEqGM3GjIOfy7BSCKs7ocN/V5zoHQzyiw9RdY3vzJXCl9VUz/HQL+Wp3zzN2NN0m/HvDkz0PeOHDb3BDYJhbLQwsZA96eeQTD3ylv3sTZtS7cKfc1Az3/P+ln0f0FvIYFiAiYGGsDDQsH+5zDeAPSDRrCTs+suvaQLqKzBwSvcX7XqJF+LMlOimuiewmf3TczXUQbwCZMmulUGiaijhms4iwHFVAzUEGDOGn2OEGgoimCU7l3b2jkG26X3ZD59jg6eurZtBJl4hHRzycEQHPRNr4ILjaEmENAqWmPko9w1YkGAWndAMggVMepr3daIQIJSCduqoDcG1sWNAZGqNlBmRfeJBKEDRbEOGbYk74oQKpKIsUz+c0Jrjyl7Hdl3JmPj4pZqnSskqO8xOeDQ1MJ9L7hej56cdnq54eXlhhhZWbAtIRK/Wg1pfIZudTbHXXdpg1suNesiD2BRzwKSChYGpEJqQS0RaAUUIiQsEE4QClp58dVzklGgk1eMZYlWMheIpP47ITBiZKxb0qawNXbd+pJUqhQ5dleXsV+zc9jQ46zxR/P4W5VluLb+OA6VbmQFz61WoNZe2m9+3OxMnUVCMPkDR60G7TlgTYIlBSwVrxbp72bUOlwa3N67M9Di6W2TD3P1htWCWg7UfKh9Wi2oNZplZMV+eUZkYIkq6YAULIta3TFVlPyEFFk3tC2brOMZ0po2611fcOwHcjkwhzkB1N1niBjrtlpD4IIYFzApI+764S+/9yVOp7M1DEaTboTumewOIdj7WWyHXbAfN/1MS8H1esF+u+Hj1x+w324oueD92WRBKZmAoKkjjgiEMSp/gVFKxb4fuF2fkXNFA3qfQkzJ2HBCKQXMZFZ0NjcaaDqdT7ZBQNc+3/Ybbtcrbtcrvv76I3LOvXKihcLHAKAOSI0l1sZNv2ZnBDc24l7o86tD/FpkwIz/McdZMwFhBtP2VL5RIHsdBP1ctWqlFbqjVIuZV+ehfGQckS1/QdBCUKlHYLQQwJaiy7WOJn3btMPtLEnnNj0XxzXd3+C4ssZ7BO61KCUDNYOQwVTRAkCRQUsALctwhiqts/bEBIoBHIMd78nTfn4Z1ujIrEyzWbygEVCaIDfBjoZLI0gtABVtDhcCBd/M8LR2v42fNd4A9IMGT1vprhaYmpdg1lh6HVT0hbe1Mf/4teITh0/8/lyYbOBpTC5iKEt3wW2AnUm727XJbezS58wMl3awTyRog0mevJb9ebwRwYt16PplS2FrtbNy+vsO0L2sbOycveFZJtGbrgCdbKCAKgaGNLa0PgGb00MMmnKnCzKgJfuqYJ+t69jvp6GHdQbQ+ne8cOB68kdqoHt5dvKGajKy/ny493dn7ITMhrCh5Ga6TpUhAEGrHi2gsTeOOrMy/pRMn+Z8jLzYOUuIXcrB9ig2SZCAesOpLkoaztGTAYV6o10HNpMON7AC5SbBJDYwpwhjoNeoG4IUDTSxxtjT8DifV+I7OdFcWWkKCJxBruYwo8FGI35aPLDGX6OMs34gA7uWDVizgUMy0B+DbsZieIwMqIcZWZGJJxaxb7w7e+e32r2HW1OWVoI7smjz3JEPLMeO40ggrOpCwkCKjBqDBj25f/vR7P5ArUUbgUtBbcrkkyVhhsBmk6nHzlNWsbjkKBiYXrWZkQNO2wmryXWctb5r2rYNfasj5KlW1TLvh24MSinYzUrvth/aV1EqtnVBbBqb3Oe0zj+OHpPAjCIVtTSLEC89yGc+O7wpWCUcZkPZ3PGE1D0kRGWvj8NAuUpLlK3XnADYNS7z5vM7HmITQz9vbBfm18IsxaXX690EhnvYjs8b1HmLiYgZ21CZbno++7rozK9ds74JNGlLsQpAKdUYfSOW/IW6/Mw12sQqRTTXFfuEIV6Z7KU5Gv/Wv6W7+dgTAwUAatGbaEVDSWHy9JhxnMZuowvCiQdonmb7fhuO29aoKRYg09Tur4iuIblZtbtqYi21hsCWrOuJnm9Wdj93vAHoBw2ed3OGSkajuy3iTfrE6u4HYn6ngwM2DZUM1qRPKHe16Gn3P5WnRul/aFv9XoHtANYaHauTi8fEooNN6TZAnm7kC63+ToB3ADtoJ9HcYn3u2hs7yCYWdwcRmziZBtMMY1l9kkRvRlQAzSSIUQFLqxHMQK1sqYIGon0B9aYSEqDZzxrdzVeAM60KgFqXOCiIVlthm67unBu+29G9gq0k6FPmPFnrgmPg2Tqv/bGlaPxyzhmHOXLAJDG1RbCYLnwG0WTPTw4WxllqUTUDaGE0A3EI1vgJBDCkBQhYS9oOoImVfUZvpcNQAY7/EwQMZ/3VznCWQkUD0KsB6BiHfp2tbM8eZnDPDb3aSAI9Cc/kMa2ax2418OjNguZ44A2tM3gei6ktbpMaRpvNCAgzeNb7R4y+EbUSuvBY7Hs1oXmTcO3hRQ6iayvdkq4RG2AS5P2GIwYci8ZXQzx1XX3X1xQhLakMohwoTfs61ApwNGPWVif3n4DgDWC2kQ9RG6JCi1iSgDkgLav2eHDE6XxCSsvkuBJsI8ldsqNSD5PiWCBJrRVH3tGK/ny/3RRA33bcbvrzp9MJLZnEqEvYBtbwwCcOASIHaqm4Xm64XneEqJ7kHuhDAI5Dz2UNbhpprwsxAjRRMy0Jx5Fxu92QS1b22V7Xvu/WSKnJcuTA7wFjSPem88au1Xld84ND44F+sHAHQicmdXbfYLpTG/fztANniO+39VxsANumt9q1+0mSb9H1r5JWaJVUFq14eEW4I3lzsoCRCMSdXuhEVW+SHHMx9VcHD27QX64VaFVtLGFVUJsP4I2tUxO+61mov5ZXBwrTik/jL0t/PXqrov7ZuWk2QGNCjA1Mqv+npgSZ2PF8U3L8/PEGoB80YtAdrDNqDg7aHQM2JqFuVumaSSJl3pouAMzo3cWeztS1weSexmYz1lli+9tVjetbixZDSyCbvGupPea51dYXU/dRRVrA4M4ICzwm2xidVvW6buZnCWNqZCzIrbXuItGkDfZ5cibRqFzqzX3iJvDw4+QJegWBG1IETltS0BxZNeNNEJJG7oakizoHRmD14Z1LiZ/JRVXgD8AnKyaAg+Ae53yufPfdjVKdsb//kyJjAidQt2zjqGEPRMrk5aNi37NKOa43XC431JogrWHbtLHVUyAJPK1rvUaobDHdR7CMLRuZzpnMm1XBayCLbC/aWEgIyjxRsGhuWNOdnieqaRxNbM4yL0sEB0JqAdGaYr0pMAbCskYEszsbizN/Yu80tJC+8Zsrz9IbunJW1rU2DepRS7Lco+NRLZigSa8MeQla10sGY1jAEZOx6PrZLEmwJmBbIkp7zDlUm7Ge4gB/uAE1k2O1+VpteTDPNVuTnXsN68JecsLzh7PKPVpGq7kHpbhzRoyMpak94X7VXo79dsFx7MbmawiTzpU0gAuFLsEgUs9mb8ZOKYE5YjEArcEmi92nKexE5RzMNOZgMT1tLTj2XZtC971r2m/X2+QDXWzDD4ACYkqQxmiFUGVXzTtgenxtECQi1NZwu+54ebliXVcL90FnvBvqKz2rHdMYEYmwrAvWdUUToNSG/bbj+eUF+/WGfT9wvSlIDzGZVRn3Ctl3PXrjNBEaEcgkEE56MDAuOhnb7j5ERsCnlZicqe2zTgfR/RTVh9pTC9BDKqUJmgcjtaZEQS3IJt8ox44cCXm/gURZaKoVLeimJ0TtpwghdCDK7LIN6nOrf+2v2zilCUSPeaePUbbsZBahAdTAkSBLQKgJODZIzUApAKpeoylMWmmL2L5DtxPrMwF510TXBuQG7KXhWgXXAnzYG4QLFtEKXShVz022kLE3J45vNd4A9INGeM0uGdss3DrrJWw2di6vwKRJgibdN/O5E7PnQS0GpKsCB4Z5J1uSE7uGrE3lSy9RZ7QKVGqAsOk8y7Rwth713CSaHVXtvqqzA4WzyiPONiqzJd4kZCxfT/4bTTiAezSPcrdyYs4YDuuvwbcrmNb5RI+RtIhmEo5WGxrEGpi4uy6QaZfdrN7nOpeouVTAxx2XL+Nn/sUvapPeCw2O/4HBVEC9Qrk3zdn3bhMFdHYm54IQCCUEbXAKbaxnGJ7gypxyJ1GcgensN2mTCwQGkLVaMMA3cLda2gSt1q2C0polQ2r4jbq5jM1CMKlMMjlGFWP6rFyuTONo5WyzE0FfYaeSqn+ydteb/Ow89YYvdTUoxsJ6JWcwTHp83D5r+CR7k5Q67+n12AMn3K2KnX1mLClgfVB67hzsMl63l+NfN6HNOtYh1vEeBr22dc66Xi9WpdCwIw8uIWbUUtTbOVsDa3bPYiUH3GlDpwEeIMrZ63WztD+NulYnjYB123TRXxYNIQnBgHLQ761ROqbRSNrPEgJqjShF3X2Wqh7P2VhqMvnPadsQYwQJcDqfNXQlJTMKqr2Rl4hU9mP1d+KoaYfnM4CAZVsscVM3frVV3G67hcEAKa3KrIdghIFoSJF97ayrXz9ktpp6/KJuVr1S+MjziFnXLLJMPBlx3brkvGamx2k1+icm6aBMZ9tUQJ1qs/3zm4phuJute1W1WZaCyo6aafgrNaAxijRN/w0MTwPWND87/9ivcboHyJ3AmJnzGeWTXgd9wpy0K1OlmEhAkRFqRF0W8GmFlADUopVYCGhZ1GouhDsA3okAzM//6jOCki65NuxHxa00XHLD87VAOGAVO3diwbKo5WQp6c7g4G1883gD0A8a4fUJ6U3VMjS00giNlG2tFvnN7FZrenE2YfVVxmCAq4HpYHZkIVjogFeFWJk9uGdv14YFVBIQRf3braLk3AF0rbVrBKNESAsgrgj2mns8ahudztWivP05xTYOg2F3IFLRRda9zM3quiDcS+HzUbvnOg1AkwEUCmDEsdBMYQXuouEMgvvvdh2ZzfRdJkP3fxEYYG5OUOxz9wO1Yv1v+YscYrleFnZXihAVPIR47wMOoFcbFEAzUqxWQZgBNKyKQV02BAzFiuLhjgYB4SFIFNxtRNy6Cn6MuxTEHuKAjCwhkodrhTs1RPt/YN1I+rXR9a08HRIAoLlHYLzo+1LyCFjowUB3ALp0NlamxiUXbJKl37lsw9lnMXmEW3HNTFpvkGKthsTAWGJASY85h+4ANJs+HfP55AdnuvXN91i4XYJVi8pYrteLXd9q78YhGAusYDHvJtEorbuWwKprGlHtIDfeAWi1odusCha6rGFJCefzkzL6ab1rFlT2MvTU1xi1udR10a5VrqWg1AgGUKoGDGnDXoX650ds2wlLayMAZluRUkSRhlbZGhMbKnGXYAB6DaaUcDppUuOyJvMi1/P3tjfcbsokC4DzkzYXumTMb9X0+Fbs6NeJylkiqMkUwsKWUPfdj3H9Nki3ghuT4yxsuwfPryQd85kmU+DJnaPIBF5luDDdn7OvntGIJWmW+FkzaiFthGUH0Crjk6ZOTzJJYQgaduLM+ADOLu9An3MnRN3pni6x0JIyXKc+NgF2HAIDKSIgAW0DihoHSFBCgcxirgecNFsH5pOkV9PQWXE/nqU1BdC54JYrrkfDy/WAEKM09WsPqZhne8Sy1E8Jv7fx2fEGoB801mWsjt5kQEB3pejxwMZ6kdkVBdPusuvq4FGk+vt8EEotIDQrXROWSMZGc2eh2ZjuroNuQC0NkABINNatqJ+tGfK7MX+ThpTUEqzJ1i+uZg2OI0ykWZwt0GoYwAbUAeqdY4OXslx3S+5DyaDeVkYD2GIwh+IAOsLYTAYh2pzlzLX+vwO+V/IPgQeyTGQuTamR00Tk4+7rzrQ8EkDf3/cX7lZHpn1Oi3rdphixrglpiSMdTQQlV+xHxuWiVgSBCPlYTSc+BBvEqiNW9j72Y+q/00yGIfpBKBsrFcyCVsXCJLwZ0Tu8FV26dELBvJafAwwQN29ChZ3HqoeNEgajZcwO0XxeDL/YcYj883SLANsaTZ+fAkHbOLamJd/aUHIZciFtCrD3oxSzSo3E8DRrDaXLBICYGDESQtCNLDO6xCTGgCUSTgvwbmvdqee7Hto4CtM9zkz0q/PKjymNPge/9lqrBj4r9uthc1rFsiQsa1JmOAQs62LpgYDUAcDzrkmD0kRt7ZYFX3z5JbZ1xbpt/ZoWmtyLDB+tq6Ydnk4bvvfV96z8vvRmQXdoaFV3cbH7QAd17rAwnZQiqumdj9PVHI+AQC967vKOlNRbnENAigFPpxVrCjhtC3YS1YWLoJgevtSG2LShN6YFGwK++v6CWptek+YG9HK9oJSMr7/+gJ/+9Gs0Efzgl/6YBtGcA2qDxXk3UBDkYvZ1VdDgcdCCdd0gEHUjMW/gwI9Z1j9cLOiGCUsICEyI7jYlQCTCeY1DCtdlU4OU7SmB/QZj38dmofMsHXyOACxgFJbuLdz0s5GqrHMrAeW4oHDBcQ2QolKvFiNK0E1WDUHlYXFsshCjrkJhAGIK95aOXV/iOueuN6FJGmjVuU58jBM6LAGSGFIjeEuQohrpduxAq+A2FiLJzSq4BbDEU7k7SHZ07VouIgaaK75+2fG8Z3y4Ffz+11c0ENbtqhvLmLCtWtnZNu0feBs/f7wB6AeNMNnYdABNAE8MtEssIITKZhIfyBqhlEUUY2XFSqex6oVaq7HPXb4BMIsnhKrLgs5CPalKWkEjBb3orNuhkcSt9kah2ioCVzSuqpdGGCyBoLPKswtHa+quACtpD8TjwHNYfHTHDpIJ/BaQpSOOgjmGdsGMqZmsM9nYd0A3Dt5sMRgNTBsVZzhgMhM//s7gjnno3nPiHizft3H+AsYdO2NsqEefmw4zJr13iYOnMbpmvZZqjGDrDgBEo0zK0HOGwOpNrpTvvS6apnuTNMi0WIz/T3zU1Mylco0GNvpEE8eUeRY7f/pG6k6bJ30j5IfDz8k2fSrNF10rqdKrx4pFbddJkjRudWgWDQCQTMcc02vr1Qvq509wO7Y7LedgqrVipLKj+qDTaIT+aNNUc/mMUVfT0Zxu9llNJfLhcFAAiGqZRSUvTRpCCGitWBOnd/br0WkWQKL9Gmp7t62bpRk+mWaUAR6be5etpfQ/tnc3PbIl21nHn4jYe2dm1anuvr7GHhhsCYSYMACJORIzRvA9+QaIuREDhBBigMEgEGC4L7bvOaeqMvfeEQxWvO081bc7bHddN/r/pOqqc/pUVmbWflmxYsWKk06ns06nsy6Xh3y8T3Wwt26l3/JWu9H0XWlKadM0zbY5TC4dinsOsOdV03TLZSKTlWxMk5WSLEHz5OvOiDUr2ZUalODPMsROp3NQik7zYotFffBa9zW/P7b7YdnuvSyUdMqt66K0bdbnvfV4ztlnHzTNeRvwMOcdNsO7lXD8y3/3PyXZMW0LOKXQLdT9+rLon/6D38txXa3DOFQF1fM1j03L69z3lHupHyoWdLyOqP4suVSvb1Ya5XIpY7melcDTMtEp2EAkOtWETXJRSV7JJ6VUyjbUOnKUbHP0eQY5l7SVYDj5u8C5m9lpmQ6VALfsQFk29ErBKwWnNG22yNBbiZDbSqZZ1r0jtvtOf807zJamvPIp2fFz23Zdb5terpter6ueX26KzmlP1hs9TLZYeJrsPAtv7pOAewTQ78S7Nm1qn0vGp8ucRctQ+bwIK0Zv/c3LRcDnxXplhzAXNU27bGvlJO+jvC+7m7lu9XLJl8W84KH1ElYsWR67yExht4xakqbJ5ak5Lx+cppDk3WZZRnuAvN9KDsxTUspbFXufW765lq0s//G+1H/blTEvSs+dLXLg72zKtLTJsppa1edds8jOWf9Q2WJI5T+7MtXWZ57rtF5ZjNjqdEuHiX6TkJK7LL+husizX/iZ34f3iqFrUHpYaFMWLpUaUK/z5Ww78S2THi5nTfNkuzLOtptbKWmxrW5LOy8bXCjtdZbA5cxqaR/mvGX0SleWlGzL9FgHU+Uj3Q02Su6y9myx0qPYWqbZAru9dkwIPtd35unLUp5SBp/1OafdHjM/Ttlp7FAikgdWh+xVXnirHCzveRvu0mGjBs15PrrssBv3kqDtu9q0z66kdeVqhYtzbfODWlMu5Rkjr8tpercuHHWL7DxDZB1NXP1dl/e3dVXpsm31/LurXVVue1e2t4/RpsNTP6GdahDig5dzkyTLdp3OD3r88KSHh0d99fXXttPhtGg5XxRjDs7jpm3b9fBg2efT6aTHx6dyYqjc8F+vq263mz59+mzXsWCb6ViXlrPNpgWrn66vZbcyhHk+63yWpGCt5ELQstg5FYLXlLvw7HGz9yY4LadTu254yx5fb7tK28958bn0pPWiv8SLvtp2/e7v/q4ul0ellPRbP/0bOl8uenj4ULPw69W65ay3NXfgcZrnRZqjlGZdznMOovIi9VJ8/w623dqteueU0i6fXF3E5+T0y08v+hd/+Mf65//ob7ViuBrp2bU57knXV9tAZlujXp53Xa+7nl82vV53vaxRt9V2FNxjslZsZTAhu1fOwcs76XyeNC+T5jnow9Oix4eTfvqTsz48nvX4uOjxcdJpDlpmr3myQHuZXd7u3Rbpl+DbBr2u3pNK+bEduzVXkGf+2ujYdcF2+5xfb7/yUF2ph2sjMJfbW6YYrbQjRqW9lWmksErrlpMMUtqilUrm+1wdxDmbrbitmz69rvrV61V/+ulVH6+rPr5u+tXzTVHSaY15Bifo9XXNu7leqYH+ngig30npbXxYtObs72vbGN9l05KTywG1nYttO1MLAGMOUqN1LphK3+RSH1Yydl1/49KRozwXlYV8JTNn7eBK/WnJJcRkZSAWDLTguZZl1IK3VrPmff5+lw5BX22C1mVtgs91kF2mrmYN1D3/Mq2cZC3xaiGuPc/a+q+vUesC5/zGtsz3XelFmQEoNa3JdSvH6+PE42P1n9/lOKojsPLM6tR1yTSHyW4i02w1qNMy5V35gi1iCiEvmrQdJktJT1kkt8fW/9eOVQsIk5J8zBns8is5BM79Is+jw992gVfpxLLFKBedJXdyJjGFlFeD53p4n+vj87FTAu8YYw3M69fdzENKKbcczD2pnbf2ejmATrm+Oe77MfBPLRNfOuHYAZHaIuB8PPYFI20lfGrHc7dhSVvFnzeK8FZ29V7tx/oMtP25HVuunq++llipDjpaA8C3fr999rpO2ZfPXb2oy8dsdFJIU54pmbQsi07nky4Pj5rmWcty1uXhg2JKur6+2O5726bL2eqQT8uiZVlUykFVBlExaduirq83qwGdNsW0a9vsdrfvc16MGsovt7ZB82HSNC1aFnva3lvm2GrWJZc3bbI1Fnatnaaplfk4pyjr4mIZYclPeVOfuZTTec3LrNP5pKcPH1Q2Snl6etL5fNb5/CA/zbbIN3cTWrc1r3lxefBh7dfKa8jjvTy79j6ZQztu8gyV863MNx8DXk7XtOu//eyj/uCnj+0A6Wae4p60bVZHX/rT39Y9fx21bqkGzHbXs28vR7CVeLlcBhR0Ogctp1kfPpz0+LDo4WHW5RIsuJ69XRenFjTbepG8ZsirZbHrOoW2oYvNlri6dsB2CCxPoguGS+eOu44i/TU7lZtnd4WprWnz45fWQS43F1BM0pyvaz5YvOBzIN2VG5bZ6ZhLKq/bptfbrpfbqtfbrutt13Xdc0zuFXxUyDunhnXXtsUv12zhTQTQ76QG0Gr1fLUrhlQzuMr/PyU7iXxOvdZzL1mNqf3bmLO5USGP/G2RUmwD3/xTa9CrcuF3knab6skryC2L3WVYc3gcksuD6RLUHldClyxtqUktr6Erx8qfW5lEvZOmVmISyra9LtUtjuv20eXH1WAl1mCmrtBO5VNXe1Yy/Ids8THIa3n6kiFL3XtWft6xIK9mIOv7+l4HUjme2sXYlQA62FR2CZTrVtbTdCjlaAsKu9dWB26pZhFjsrtyrGUfufdysO1gy+Appf7738pAlwilLwJomec9Rm159y+frIdrmaXwuRe3BcBW1CNvg6RSP1m27I3KfZvV1VXmINrLKaTSa1zSIYBuC+JqBrUGj/0trjue6+lUjo12pLh6vt+VsOSTvs9D9d043ost3pPKnTc6S6m7utFQntLOx0UZiLfX3GZf6qCp+53XBcP5gDi8f91b4WX9nKeQ6/WXk5blZIv2TiedThd9+OobxbjrZZq1bjett1Wn06LlNGuZF03zkks8ui2b89b119tNKUaFzUolQrCM6Txb+VLp0OOcFJyVmZRFinU2yknTXLLzyepT84xNGSyFKShpVukfHJP1dJ6cV+q2mbfAzY7BaZp0Oi16fHyU87ZT6IfHDzYwOF1yOc+m19tqOxTue5m5t1mmHKdNeQxwu5XFi7EOiH7w46i7T7iyeNi3Yzvm6/e//a+/UNyj/uC3H7vjwuUAOnbBc9K6Jm1rysFztOB6T11NdDu37ZD0NRhe5qDzyYLlp8dZl8usy3nS6RR0WryWsh7Bu9ahqpQ7uhI8q5ZclcD5flv5PsFcjuXSoUM5K90+Svu6cn53ZR2HbFqq9ywbzOUprzKrm0t8ykrSFLy0t2C9JYva1bxsAGU7Mu56XXe93ja9rpuu656z1nmtVLDrnne2gyZt7L4fAuj3knLf1Brntd2oWlbWsr8+2cXe2rXnXQlzsG0Z0k3OWwAwOatd8qmvXW07t/U5o5I3rOXYOfNcrgJtirx/DFd/fit1KIGFO14P7l5y38OiZaG7l9PVHHtnQVOd6q3JqzZt3OKU0j+7C9DU3eRde741M/RWkOuOCwbt5bXAp0yL2detxjvGb3m8d1Cm1nwubygtrKZp0nyyWs1pCTpfzjrlIONyOStM3haHTEHLMteep1++jtyKK9f/7rk3b06uWeYwxtYSzKlmkutC2M0WnpY7ee1MUW5+edFd2YTFMtCbBTApzwBEpxBT/nmpLmQMIbeM886yc2nXuu+lCKouHqy9nfPN1jun6HzLLKkday51wVepd+7OoXaEpbqBUBnEtQ1kSsa+a2mX65v95OvAJXQ74nnZGoU5OZ3noP2d1u2sa1lEaJm3pN0Wj3qvMOX3OrTsrKRW56k2aDosnu1P/rxotLUxLFlnV98bPy0qnTDmedbDhycr4Xh80oenr7WczjpfHvT11z9RSlGXiy063LYtB6NWsnQ6LTVgTnk24ny+KibpfDrn+m6bnak1y1Lu8W2LXX3pneyd5vmkacpBedwV064Ub/n43qwUdU+KW8lCS36aNXsLPF6eX7Wum/Z10+m06Hxe8jU/KcyLtambgs6TbV3/+GFTmBbFJC2nk0KYrXxv27Vtu263mw0E8jFpwc5cNqbTFGyAaHXoMe8T8D4R9HprG/KkLnNbDgWfr8H7Lv3hH/1M//o//0z/+O/9jr55mK3r0y7ta9Tz51XbGnW77vr0vOp62/XxedN1jXqJSetuW1DXwXcOZkPwOs1eHy6zTrPXN9+c9Pi46HJZ9NPfftDpPOvrrxadzotOp0mXs5XuzGVRbygLfEvpRh7M+hYsh5Dq7INycsflF3Yo4Sj1Xf2iwhJp63DTuzthuhF5klxeN2TrLUqAHXPqvXTZcHK3WclbWJH2TTE57a5tALXuu25b1Ott1fN11efXmz693vT5uuv5uun1Zu1vt5jyOg2vOey2iNKHPGP2PjMZP2YE0O/E+h6XP0gx79TlXOr+ut9e21o89d9jN658k86Z4OSslKOWJZR/rD7/1Z2hakFBG6u20WZ/yvgugmjZty7lfPcd/fWhLLRK6i8V7vCv+/ycJXdjvhpLUbmdWslA929Fl+nqyy7Kn8ss+7Hyo7/Zu8M7crj3d/+pU/TlZ9aHSTWg7B70r/Bo+XYtgG6tuMrOe1NeNFgWPE1d5nnK2eep7s7ma0BzrM1rmbdSK1ECUQuqS93spBj3uhtjrAtTYw1mUrS65lKBn9RugqlOaar+/LKlb/mtWBAu7Sq1ld1WudG2Pt5S1LpvtYyozRC3BTblxhNdrD+nlBb5NlKz4yIvJo15erYN4O5/0910dDsw2vF1PwWcF3e6MgWcH6OUc/j+NP2B9RtgKNdPxmTZ/9p/rx+zO9t46fC631AHDq71w64Lc133Z+/qxkzTNGtZFp1zn+dpnuXDlMsfymJg6+NsgfDcBiO55V3yyToU5VmEy+VBznmtX1nZQzlPar9kX0oy8k6V3QIxH7ouL8lr36XbrtwPfFfcrC1a22SqXHW9Ytz08nrT9fWql+dXXS4n3daTpslqWqc574rpvYLz8mHLMynSFqOut5u23TYA2XZrMRn3rS769jW7WWbz2rXwuPD1fQLosiuqS7XaoDtOShLV5fV09nz/zX/5hf7h73+jr8+L9k3WDei6a113rdeo19uu2y3qtiWtW9Ka7hdP2t1qCnn9wOx1PgddlqDHh0mXi32cT7OWXA89TdZr3Ye2yPCLLHP9nINkufr5UH5ZTt7+o54A3/L35bxpc7X69QmYt5M9NaHlvdzklVLucHJzSrvNGdn25XvdunzbbfZiT7YQNfaL6HMZXOnMZPFFd88mfv5OBNDvZI+v7Q/OBpV3ZVGtxrlmtI41pW2qPNayjpD/fLi51U0kXA066uYPhyg31sd1pRdsnrrxOVhu1+z7LK+659T+vhaLdEH6oSAi/49Sg+vqtcRWXZfXkuRr0Fxu5C61n9lKB/LuhbLFZymVXaFaBjrd7XjoSragvD+HxYZdhk2qPzTmQKzfQCKltrDKvdPFZgp51f3UAuFptg0bTpdTngqfdLmctJxmzfOiy+WkMHmdTotCcNZOay7f3zKRbbc3q7H0LmpLqrvQresqOWnb57zq3n5+a+vW6u5i6rLPZXev/D6msuDGlyMs1mmRlLN1JSscFdvmPCXbk4+b626Lj277Vvu01vrQWlZgmdDkShCdj4t8A40uly8q1+znga2Xr7W7ZdFpyjMPe4pyKcrWEOwlj66yRNK7lHe8bL24S0eHKW8EU0oCvJKm/H4kfyiO+sGUNnYhudpNogSB7QaaW4+VcyYHDrUIrLShPMwutdrRsmAyJ3bzQqz2+7k8WKb3cnnUcjrpcn7Qw9NXupwvmhcLpsO0yLkpZ6lPXe1pu97UDd66922eTtrWVU9PXx9abN6X6MS9zRaUANt2TrRzISrq9fVFL68ver1tWm9XKa5KcbP+vCmXkeWdHLdd+uUvP+lXf/5Rv/jFn+rDh7OePjxoW6/68PSgsARNy2w10WFS2CxNsMao9bbpet3sulVrmS0LXsprprwxjPMubw5iWeqyAda+R22btdJ7D+u21/e+NKAo3aacWgbal4ytc/rl7ap/9R/+RClKv/f0oG/Os86703qLur7uer5a5vT5tuu2J90k3VLSlh+072KzLEEfLpN++s2iDw+TfvLNRZcHuw5+801eOH1ZtK72uz/NQcGXBYR2PJZA3Dtpyut8bL1Pvr/mz65s2JVnie2F5euDs9dfX3j5smxNqlYXXoPnL+rU85nfL1DvBuUu/wsXnJSC3PmkMO/S1Wm73bTHXZtinZG7Xq9WtnG96XVddV03rbv1g15jzBvIJLnocpmeV4iujYZqcTd+HQLod5LSdvhzvwgil9Lp2OmhLJLLQW6f7iqLAfNK3JKNUBf01aC13yShc6yR7v6+K4uoFyv1pQ7tilAWZfUBcr9S3/5ZX0JyHK73GehWT6yWgU7dWL3bAOM+A12mad/KQKc+E5kfy5daM93lA/rvuatvbjWf+bfxG85Al+DZFg2GmoFumedc1jGX6e7yb+2jb2lXhhItA90PtFKdGt/2tf7LlEspgs87u+UuGYd6VFkgqehqaVAqC8r6DHSXsul/H2XautbROmcX/PzPt23TFqNu2yblICjk6d3DwtNc/hMP9bh2N/blZGgvNweLOTCMzlod1m22uxD3WD7eHQploVFb4HnMQLdOICXTFbqFmT+0tpGKl5zVzDrvan/5PJd8PFu7rHm/WPjw/0uNd+6H/VYG2jsbrE3TpGWZrVtMbkk3z4vCvFgG2k+2IYhzcj7UAV/b4KH2WMkBftsoyclpXxZN01wzsqXDyrqu+etdt7TWQXXJZPRt7oKS1nCz9mr7rnXb5PJOquo2HPL5dccovb7e9Onzi/7szz7m1ntJT08nhdlrK3XMrpSUWKuwkoEufchLiVh53+x1hbrg1HmnPQ/ea9Y5HT+/hz3f0ry37hgtGZJPJad2PXYlQSSl3aq7/vhnn6SU9HefHnV2XtecgV73pNuWdItJq6zU17ZJzw+Ug9x5ahnoh8ukx4dJp8us83nSH/2PX9bNeT6/rpqnSX/n939bf/tv/lau9S/1zccMdFmD05LNqV4L6wLb/rJ1OAnuPt70fTLR356BLtNVbgqWiNh3q4d2TtGprgfZ992uj/tuu85Gy07vffcctQy06xdd968HvxYB9DuJsQug68mgFqyUqE9l9FkqLVMXjJYLY+weqoxcS0CrmsWoi+L6mEXujZtjV5Wd0hvntWtFsDnr2/eDPZxnX0x59yUq9dHaFbY80rFapa1ITt3Pf8OhvVb95uO/SfU5vz01dWi31k9x1bKAbtFgDR5GpuT+6vQ10FPuRzsdMpzhzQ9fp7zdMXjOta+lf7SvW9daBros3tvr76L1RnbWXLwGMP37F/PmCTHlmQH1g5s2g1DLZNyXpTY11k73f2Hfs26btpi0bZuV8ITcDSClnFVWq8fV8b5Xv+5KlFofZ3XTmnfHjGsDjLc+yqKjwyr+8p4egufykWdRXKpzL+8ldYHwl6dXvpocFgu+rVUB9QuEjyeZk7pjrOwOOGme82LAabbstNp+o/Ys8vUq77Dn8q6UZVbA+paXWQR7ImEKVsetFmBum01ll9/tvltbzjo1nkuNfGj16lE2yChjsBhzu7u4S/tWD4mQ+6JvWy6/2KwkYd/zQDsv7rWFuPY4226Z4i3a59aHPeZ2pqU+fKo1uvM85aA7KSV7/LZjZg680xeXtx/0+JGsrWNp11hW1ZTLdj9Gdk6180aMtsX0viX9+z/5lVJMurig3zmdtMYcPMekzdkQKbkymyUpOPnJ6TTnvtpe+o///Re6/OyjJRDmoD0PhsIU6gzDx883/af/9jP9s3/y9+/6sncLBWs7Uzv6ygWozybXA7oe2N/y/vylzuX09p9zar8crzGvgEzBys52J23Jsva3GLXFXAyaR/TO5Xahzmkv8UL+Pe67teDco7fX+47dpX6sCKDfyba+2BfdDbovPy33nGPc2Xd76FJqfUGw+/Ig9zVSdXVntJKhKT+7PJUW1HZBer2ptnmp0o35cF/sf3T5H6XJex/T9ile2cnsY66Xqzs1HR+ztKRTas+tf9BDveWh9lKHm3dKORWovmbGrpZ96WrKU/Qx2eYQpQShrWFM9QbYrp0lv97n2X9Y82w7Ws4nWxAzTUHLedY0zTpfTvkGMut8Xiw4yTvDee+1LCFvL1wCba+prkj3edtpr+SDoouKToppysOlqM0761ix79ryjMpWcn45kxdzG7y6Uj4H6D60TSdaxi5abV5emFfLa7ssv6RcOqG6CFGyz7fNpq3XdatBmU/OFsCFXOeqvLmDO54qocs8Tfkw9/1i066lVP3kvXUiqZGyrf4vvXfnyStGl+vMbZHbFEL+PXnNpazDl+3krWykJNX9W6O/H1zfF6UMZ2ItZ8pvRbeItu+6kurUvCsZvH6QUBcdygJbX96XoNNp0el00sPDg+blXDtfxGi7ZHoX5UNsLRa7wese99qre91W28o71zaHUjoSvM5TyDtMbvLeadvtOPDBK+6xDkb7GZfWSz1YmjSXt8TktEdpvW7at5vW60tXj2vX1ueXq9Z117YneW+bspzPF3311U/0zU++0rycFJPT9bbq5fWmT88ven656fW2al33NsT30ul80nmZ9dXTg05L7vUc7fdyu94U91VrjHp9vuZSitLu0dUyrx9aLDXQklzKO77GNigpl/bYdauIuV3avknral02rlcbDPx8uyk8BXnvdE1JW7L1D3vuujMF25hmmp1OF+us8cf/58/18+fPWhYvv+3aJE0palnmeoyWgeq6b/r0ec/tX33X9rVr/+pKF6symxK7U7K0GIn56+58PY70+9NLNclymLrqky/339XdZKwGrSV5comFD07JeSvpmGwn2D1MWn3S1SV9jk4vu9dzitr9pDQ7TadZs7MtypYlbzZkB5Yd20qKyRIQu3/v69CPEwH0O+kz0P1ihNRdvFObnaz6rFwpz3CHlO0xgHbdD7EZr9IKrwuc+4WB9dzOt9HYn8ZR+iK67TPMx4zZff6s/yf3C/Zbzrv//j7q7jORrn/EQ7nI/Uf/Hhyf4htTbzXB1rLOJQCsJRtdxvPLscpvLgMdQgtG2qLB0LLQoctA5y1qQ/7sy46VOQPdpi9bPaiS1REH75VcWWxlWY7WL7lta126taSYA+IY67Src7Y1dwmukrdNRWJq9anlPT5kRO/KcJT7RZcuLNu25T6yu9Uq5p8v1zI0zrXyo9b/vNVSts2GuhaLykFtP+jrjjnvXKu5/uLPXdlGl4H23b+v2WeXi6DqLM77ZqD787ldTd74qgbQXUmU1GKHbufOlq3vAwu19y4HuT5MrXtMzay6usjp0IawPIdyjJQd63bLLKfckab8uBBC7oAS8kZMee2CkmL09bnEFOsAuMRGIQS5kDe9uavTSl2pxfW2WpmKl+Ju3WjWbcsLtexN8aEMZq01n8/b3Zct4m+3LWes7bgO5ZiUDcKWZdbD5aLL5aQUrYRk320LdevFbufAum65e4fXFzNyP+TR09+nSja6Xp3vZpKSXUtj3mXQtiqP2nf7XW754xajvLxukvZkG4LEPLSsG54Ep/PidToFTcH+LtQyKX1ZRlGTVO0cv991u5Rn9OGs6z+X2mB1j3l47PZ1csfz5/5bfu19owucy2O29zlfv0rc4G1mpmw9nLzX7rw257RGp1uyBEf0tq1xWe/gg9fkbbF+Kh2MYsqzjEm7q/Pa+A4E0O9k32/167ogqs9AO1c7V5RMQr25HU6gbl67noddYOnyAihJZXOSGhSpD55dl2XKgcuhRKEErl/WOB9nslpwUjJN5ZmWtHp7+qVd37E2skz93sXJXX1peQbtpnwfNPeOQfxdhrsEejnDbUFzKT0otb576yrRBQO1xrIORGL9Pb5X3FO27p3nWfMcNE95h8Fp0uV80rRMeddB62gwz5PtPBhK7bNtJhByVtTaYpUMdO5I4L1cmnKWOK/0TlHBW4eCve7WZ1sQ1/ck1xnvZcFWiT9K7W+eCQmTbbucnOqGJyXgLtsZ93V6tdtBso0lSk32ulo3hHXdNPkgxaQYJgtKvc87WjpbpHd3nATXMtClrNaXAWN+4qlbxVqm+VNS7kLiausuWzhlHU6STzlTlt/j8uHtphW6+kulNiirU8a/AW/urKn25WHXQbXP5XkfBrFdp5H7+fuyG6P3dtwuOUM7Lyel5HJwtcm51xpAh3nRPO1y7pxnHybrLrBt2rdVt9uq4C0ICNE2gDjlwVMIZVGkLcYLCnW9xJ47xLS1F3kXyVDKmlS7fEaVLaatN/G6Rr1et1qTvHtrR2iLXb2mMOl8btuSf3j6Sh+enuz43Xbd1k3PLy/6/PlVHz896/n5VXvcdT4tmkOQC0Gn80kPjw/65idf6cPDRfu+6fn5Reu2al1vuRwi6vW6ar1tOp2DdZrI2fj3EHOyxeb38tXZd+sMymlXekRLuezENrq53WyHwetmn9c96fNmu2LenJUeSGU7bqfFO81T0HlxenoIWnJ/52l2CrPLu/a2WuZSemFLlUtdc8s4+8NnSa5rQVkSTu44iLLZzL7I6M0zSt8+GP51Nwv3Lf+0n/HJ73nIs6E5A61pUpwW7ZNl9p9d0It2XZ2TpiSvoOWcbHdQ53U771q3Xa832UJUZ2VBMXqt2yq3v99A7MeMAPqdHGotnY0c7abcZW8Oi6raKth+YV+rhWo3sDYy7TLMXebtmNktD5vUFgOVzQ/6m2kL3EuwfR/f9jvStcdvQUcrj2h/n0rAX7J2XZbHH15/94OSqwtQrIwiZxu7DiCHnrTdU0mH966/9OXbZgngUst6lV7CdnPN73kdrHQv7L5O9h2Ut6jUSPrgc3Accr/hkDPNrZazLmJzrXXdYbetupBK9bWWwhT7/7lutQTQznUDi37zjPx+9pvNSJZKst1PJG8beZQa95jLN0rWv58JsMfOpTbRSgtK+7CyWCrFvs936d987D98uA/UQVCdBHq73HAklu0GgzZe8Mf3th8wtgPzeE4M/si/jBYmt3rjluGVJH+o/bXnmOo1oZV6dHWZ/cCyO1CTSntCWywXc/bYynVLtw6f+zLbdtXrai3dXq+vuq27lmVRTE86nawTR1ujkGvvnavHz55/qcGHWmpiNdB73aWyv1aUc36P9v99bDMI227ft2+5zjj3I7dyqQcrD/KyLGi+3n54erCa7OD0+OFB58spz7YkrbdN+24fnz5+1ufnV3381Sd9fn5RilL42issXn4uvZ6DyrAuphLI1700FMu50Q1OQgjvtw1zV1nXXwPT/b/pblttI5TyGnKmOR9bW7JSJivfUG2Pp/JvlA6zP4f8iFMX8KZ6frv8d3VzI9euF2090fd5z9J3fNyfYaN3hfT2129NApeXUgatIchPNvhyYZILsxSSvKKmJWn2Sae1DRC23XZ8dE7aJqd1tRp8+3Hl/vubGdD/mBBAvxNfs6dlWtm/WQPdbvs5gD5EZ3ep2TrK7iaHDjdrmw4s1xWVh+/v3ykdvy4j3nyDu+9ve2g/kfLFqX9qx2fYHl/t8fv6yD4DHcubobaNeH3KqT3xGkSXm/R9Bu0wXuinku3rkhDpywNKcFAu5CW70hZLllmCVF9+v1HEe015tfZdeQcuX4Lm/nMXPJePmgF2tfdt3wv6MBAr/3UtwCn1q8o1wMnluvh0DKCP2UrVKNXFWNsFRkkupsOOgXsu59hrgNwdg+X3o9gWKKbjxid3EeDxPSsvpz8Hv/g3b2Rf63H73XmjMihRKosHfe664VvZRjc9e+z0Uk6zdxuG1deWUlnYdnf96WaFUh4+17C5G1yn/iHrqKT/8CozPn0AXR6jlB2kFHW73WxWIV1rDfnzy1WX81nTZAFxyG3w6qnu83ZT+15DIduZ1foy2yUs5ZmNlj0vS7TL9u/rtinuu+2CmYPQUiKy5Z66+77bzonO1dZnwSVNdUc7r6enRyu/mIOeniyA9nmAcLvddFtXreuqjx8/6dPnF/3qzz/q0+cXOef0cDlrnmY5Z/2tfQiS87IwyOVA0zpe7KnsreHqQKJfoPme6rU9t2F0X/y/9ucYlUtw8kAgtiB6V+kiIW1K2nN5k88zNW0Do+Mh9uVp813Z4Xr0dx8lh94+7Kjv6yrvSw7f+In9j/6i5m/s/E7lMfp7d565quOAXMbhgpebJrkpyk1Rmia5Kcm7qGl2ij7qvMfWtnKPmmfba2LdvIK3jHSMJYnxm5oP+3EhgH4ntXtCV2d6v6nCYcqzD6Dz/y5f9HWKbarKvq8vDylZob4cpMW7qd7I7UtbPFia9lugE1sxSR88p3YRuw8cj1v8tr/rM1nle9UF0YdyDncsY7HEbxly22P45A9B9OE5dF+7XBRXa3T7bHuu/aolBDmjuXeBWd2i1almy0upjSsXXdcHYD/0cWTPxzZPsXIN2zBg1nKa6iLCeZkOtdF9542Q299NPmjyoS68asdSG34FP0nBjq9lWrRJ2oNtkeyd057sDrjXumipLHqt5TPOKcY2jZ82l9umtQB6O5TPpLqI097cst1Jylsc58Bniy048klKUU52w7Wwo03PtuMrvzLXbpPuvnShD8gPvpwhqQso8/squVy6kTtNlJpf1w1kkz1XWxRmR5Hdwt/nGErd87fguW1Qk5K9c85NLdOcd98swU7O49rzzTuz9e+Dy4Fzyh/RW1eMLUppT9qVtO+2hNJ7a1kX06bn52e9vLzq+fXavddejx8+KCnpm2++kfdep9NJZd4nhKm2mNv3zbLI1/z7CG3mJYTSwUM1pRmdZZ63fdPL61Xbtll/5mBlJilJ16vtBHi93bRum5Zl1pzrk4NLOYDeFVzSvm6a56D1dtP19VWn86Lz+Sw/BW170ufn1/waX/Tz//sLffr8rP/9v36uj5+eNYdZTw8ftMwnBT9rns8K02ILeuW1J6ctOd2icocKaYtOu7ySS3nhY74eTPM7HUf5bEg6NF/6YkauG3DtUdpy3fO6p1b/nBcNXpMNrq+y48TLdiR1SlpS0pJ/bz5YyUY7t+2JtHFcX7Ih2XC/JK1iHrh197d2NciJozwQqCvg80L0VBakK/9dGQmm4+xufcxv4Y7v0ZcV090I9a72upXF2Lnn52D1+KddPjq56OVOUS5NCjHqHFbNMSrMQdtq5U8P56Dbbddp9rqtu16vq15eV21b1Ott0769037wP3IE0O+k3WBatqrd0Ms/ajeNY//mOqd+N/3UZ9fUppLrqeuO/7/XPUzdQORuSrll3crFwYLnfnX9W5eI1k+yC6bvAujUZ69zRtN3zy3dv/Tk8o8v3TC+zED3L639IQe9NcR1h+fQZ5/7DPQhq+26mYD+Iln6BZb35r2OpO4Ysix0zjyXLgeH8o2uZV334d2Xf3f4Kc7Vkhl3yFiH/Odyg8ndGcqGFeXv+iOk3H+S7LbovGWh8mCmBMx7XqBV2nnVQN63Upqy3LAuMqu/sPtffP+Oqd14+vPwrzBgdd3Ar7UC/LJ8o59MKhnd8k69dwa6/NzjFHn3ZtV7eF/qcTy3Dw/5Zhb6mIF2SVarnso57ev5vK6rrrebXp6f67qEbbfyntfXV91uN23bpnme27XTOSlvPV9635bEhN993cRnlhRUZnBS9/rzgtR9syx0klIKsiYc6Yteurbd+aTT+WwBtJImvykoKYagFDdty6TTEmov9tKjfl1XXa83vb5c9fnziz5/eraPj581z4vWdVOKytnkYH2w8wK6msHvP8rvJA8yS335u5Vw9MeQjpfHPmla16XnGYhUP6eaUS+n8Z6PEduiqM2M+uQOSZlWo6zjafPmje7tu1T7nLtqfOur6x/nnfOy92/qW5+9t41f+gx0CHJTkotRk2wGcInJOi4FS/4E77WuWz3/ti0eukzhuxFAv5NvK8h3eS6m1aC6u4CsDO3LnM3xu/tJsxo0u7vP3/XkfhRzNd92IXzHZ9Al4FvJw/s+p79YnH53LP0Ff9ZfZoxw19Bg6HtSF4dLf7HDtb4D3B1+475faeVxs5b05jf9pn6Z7ssvv8dTOb6EfuA08PO+z7/+a3qQ//W+zXxXlPr/j7+mh8ePkkvf72oGAAAAQN9v6SkAAACAjAAaAAAAGEAADQAAAAwggAYAAAAGEEADAAAAAwigAQAAgAEE0AAAAMAAAmgAAABgAAE0AAAAMIAAGgAAABhAAA0AAAAMIIAGAAAABhBAAwAAAAMIoAEAAIABBNAAAADAAAJoAAAAYAABNAAAADCAABoAAAAYQAANAAAADCCABgAAAAYQQAMAAAADCKABAACAAQTQAAAAwAACaAAAAGAAATQAAAAwgAAaAAAAGEAADQAAAAwggAYAAAAGEEADAAAAAwigAQAAgAEE0AAAAMAAAmgAAABgAAE0AAAAMIAAGgAAABhAAA0AAAAMIIAGAAAABhBAAwAAAAMIoAEAAIABBNAAAADAAAJoAAAAYAABNAAAADCAABoAAAAYQAANAAAADCCABgAAAAYQQAMAAAADCKABAACAAQTQAAAAwAACaAAAAGAAATQAAAAwgAAaAAAAGEAADQAAAAwggAYAAAAGEEADAAAAAwigAQAAgAEE0AAAAMAAAmgAAABgAAE0AAAAMIAAGgAAABhAAA0AAAAMIIAGAAAABhBAAwAAAAMIoAEAAIABBNAAAADAAAJoAAAAYAABNAAAADCAABoAAAAYQAANAAAADCCABgAAAAYQQAMAAAADCKABAACAAQTQAAAAwAACaAAAAGAAATQAAAAwgAAaAAAAGEAADQAAAAwggAYAAAAGEEADAAAAAwigAQAAgAEE0AAAAMAAAmgAAABgAAE0AAAAMIAAGgAAABhAAA0AAAAMIIAGAAAABhBAAwAAAAMIoAEAAIABBNAAAADAAAJoAAAAYAABNAAAADCAABoAAAAYQAANAAAADCCABgAAAAYQQAMAAAADCKABAACAAQTQAAAAwAACaAAAAGAAATQAAAAwgAAaAAAAGEAADQAAAAwggAYAAAAGEEADAAAAAwigAQAAgAEE0AAAAMAAAmgAAABgAAE0AAAAMIAAGgAAABhAAA0AAAAMIIAGAAAABhBAAwAAAAMIoAEAAIABBNAAAADAAAJoAAAAYAABNAAAADCAABoAAAAYQAANAAAADCCABgAAAAYQQAMAAAADCKABAACAAQTQAAAAwAACaAAAAGAAATQAAAAwgAAaAAAAGEAADQAAAAwggAYAAAAGEEADAAAAAwigAQAAgAEE0AAAAMAAAmgAAABgAAE0AAAAMIAAGgAAABhAAA0AAAAMIIAGAAAABhBAAwAAAAMIoAEAAIABBNAAAADAAAJoAAAAYAABNAAAADCAABoAAAAYQAANAAAADCCABgAAAAYQQAMAAAADCKABAACAAQTQAAAAwAACaAAAAGAAATQAAAAwgAAaAAAAGEAADQAAAAwggAYAAAAGEEADAAAAAwigAQAAgAEE0AAAAMAAAmgAAABgAAE0AAAAMIAAGgAAABhAAA0AAAAMIIAGAAAABhBAAwAAAAMIoAEAAIABBNAAAADAAAJoAAAAYAABNAAAADCAABoAAAAYQAANAAAADCCABgAAAAYQQAMAAAADCKABAACAAQTQAAAAwAACaAAAAGAAATQAAAAwgAAaAAAAGEAADQAAAAwggAYAAAAGEEADAAAAAwigAQAAgAEE0AAAAMAAAmgAAABgAAE0AAAAMIAAGgAAABhAAA0AAAAMIIAGAAAABhBAAwAAAAMIoAEAAIABBNAAAADAAAJoAAAAYAABNAAAADCAABoAAAAYQAANAAAADCCABgAAAAYQQAMAAAADCKABAACAAQTQAAAAwAACaAAAAGAAATQAAAAwgAAaAAAAGEAADQAAAAwggAYAAAAGEEADAAAAAwigAQAAgAEE0AAAAMAAAmgAAABgAAE0AAAAMIAAGgAAABhAAA0AAAAMIIAGAAAABhBAAwAAAAMIoAEAAIABBNAAAADAAAJoAAAAYAABNAAAADCAABoAAAAYQAANAAAADCCABgAAAAYQQAMAAAADCKABAACAAQTQAAAAwAACaAAAAGAAATQAAAAwgAAaAAAAGEAADQAAAAwggAYAAAAGEEADAAAAAwigAQAAgAEE0AAAAMAAAmgAAABgAAE0AAAAMIAAGgAAABhAAA0AAAAMIIAGAAAABhBAAwAAAAMIoAEAAIABBNAAAADAAAJoAAAAYAABNAAAADCAABoAAAAYQAANAAAADCCABgAAAAYQQAMAAAADCKABAACAAQTQAAAAwAACaAAAAGAAATQAAAAwgAAaAAAAGEAADQAAAAwggAYAAAAGEEADAAAAAwigAQAAgAEE0AAAAMAAAmgAAABgAAE0AAAAMIAAGgAAABhAAA0AAAAMIIAGAAAABhBAAwAAAAMIoAEAAIABBNAAAADAAAJoAAAAYAABNAAAADCAABoAAAAYQAANAAAADCCABgAAAAYQQAMAAAADCKABAACAAQTQAAAAwAACaAAAAGAAATQAAAAwgAAaAAAAGEAADQAAAAwggAYAAAAGEEADAAAAAwigAQAAgAEE0AAAAMAAAmgAAABgAAE0AAAAMIAAGgAAABhAAA0AAAAMIIAGAAAABhBAAwAAAAMIoAEAAIABBNAAAADAAAJoAAAAYAABNAAAADCAABoAAAAYQAANAAAADCCABgAAAAYQQAMAAAADCKABAACAAQTQAAAAwAACaAAAAGAAATQAAAAwgAAaAAAAGEAADQAAAAwggAYAAAAGEEADAAAAAwigAQAAgAEE0AAAAMCA/wej2QuGJGaaNQAAACV0RVh0ZGF0ZTpjcmVhdGUAMjAyMy0wNi0yN1QxMDo1OTowMyswMDowMKBY1HAAAAAldEVYdGRhdGU6bW9kaWZ5ADIwMjMtMDYtMjdUMTA6NTk6MDMrMDA6MDDRBWzMAAAAKHRFWHRkYXRlOnRpbWVzdGFtcAAyMDIzLTA2LTI3VDEwOjU5OjAzKzAwOjAwhhBNEwAAACB0RVh0cGRmOkhpUmVzQm91bmRpbmdCb3gANzIweDcyMCswKzCL1ZKxAAAAE3RFWHRwZGY6VmVyc2lvbgBQREYtMS40JDFqVwAAAABJRU5ErkJggg==;clipPath=inset(36.33% 8% 38% 10%);" vertex="1" parent="WIyWlLk6GJQsqaUBKTNV-1">
          <mxGeometry x="718.26" y="290" width="319.49" height="100" as="geometry" />
        </mxCell>
        <mxCell id="294uK_dBEK0Y3h0n0AfO-26" value="Augmented Data" style="rounded=0;whiteSpace=wrap;html=1;strokeColor=none;" vertex="1" parent="WIyWlLk6GJQsqaUBKTNV-1">
          <mxGeometry x="807.5" y="260" width="140" height="40" as="geometry" />
        </mxCell>
        <mxCell id="294uK_dBEK0Y3h0n0AfO-30" style="edgeStyle=orthogonalEdgeStyle;rounded=0;orthogonalLoop=1;jettySize=auto;html=1;entryX=1;entryY=0.75;entryDx=0;entryDy=0;" edge="1" parent="WIyWlLk6GJQsqaUBKTNV-1" source="294uK_dBEK0Y3h0n0AfO-27" target="P1XNbqa9C-Slw2ICITby-17">
          <mxGeometry relative="1" as="geometry" />
        </mxCell>
        <mxCell id="294uK_dBEK0Y3h0n0AfO-27" value="" style="rounded=1;whiteSpace=wrap;html=1;fillColor=none;strokeWidth=3;strokeColor=#d6b656;" vertex="1" parent="WIyWlLk6GJQsqaUBKTNV-1">
          <mxGeometry x="700" y="258" width="340" height="140" as="geometry" />
        </mxCell>
      </root>
    </mxGraphModel>
  </diagram>
</mxfile>
